%TF.GenerationSoftware,KiCad,Pcbnew,(5.0.1)-4*%
%TF.CreationDate,2019-04-12T07:50:59+02:00*%
%TF.ProjectId,nixie,6E697869652E6B696361645F70636200,rev?*%
%TF.SameCoordinates,Original*%
%TF.FileFunction,Legend,Bot*%
%TF.FilePolarity,Positive*%
%FSLAX46Y46*%
G04 Gerber Fmt 4.6, Leading zero omitted, Abs format (unit mm)*
G04 Created by KiCad (PCBNEW (5.0.1)-4) date 12/04/2019 7:50:59*
%MOMM*%
%LPD*%
G01*
G04 APERTURE LIST*
%ADD10C,0.300000*%
%ADD11C,0.200000*%
%ADD12C,0.381000*%
%ADD13C,0.152400*%
%ADD14C,0.127000*%
%ADD15C,0.254000*%
%ADD16C,0.120000*%
%ADD17C,0.010000*%
%ADD18C,0.150000*%
%ADD19C,0.088900*%
G04 APERTURE END LIST*
D10*
X106889857Y-115481571D02*
X106889857Y-113981571D01*
X106532714Y-113981571D01*
X106318428Y-114053000D01*
X106175571Y-114195857D01*
X106104142Y-114338714D01*
X106032714Y-114624428D01*
X106032714Y-114838714D01*
X106104142Y-115124428D01*
X106175571Y-115267285D01*
X106318428Y-115410142D01*
X106532714Y-115481571D01*
X106889857Y-115481571D01*
X104747000Y-115481571D02*
X104747000Y-114695857D01*
X104818428Y-114553000D01*
X104961285Y-114481571D01*
X105247000Y-114481571D01*
X105389857Y-114553000D01*
X104747000Y-115410142D02*
X104889857Y-115481571D01*
X105247000Y-115481571D01*
X105389857Y-115410142D01*
X105461285Y-115267285D01*
X105461285Y-115124428D01*
X105389857Y-114981571D01*
X105247000Y-114910142D01*
X104889857Y-114910142D01*
X104747000Y-114838714D01*
X104032714Y-114481571D02*
X104032714Y-115481571D01*
X104032714Y-114624428D02*
X103961285Y-114553000D01*
X103818428Y-114481571D01*
X103604142Y-114481571D01*
X103461285Y-114553000D01*
X103389857Y-114695857D01*
X103389857Y-115481571D01*
X102032714Y-114481571D02*
X102032714Y-115695857D01*
X102104142Y-115838714D01*
X102175571Y-115910142D01*
X102318428Y-115981571D01*
X102532714Y-115981571D01*
X102675571Y-115910142D01*
X102032714Y-115410142D02*
X102175571Y-115481571D01*
X102461285Y-115481571D01*
X102604142Y-115410142D01*
X102675571Y-115338714D01*
X102747000Y-115195857D01*
X102747000Y-114767285D01*
X102675571Y-114624428D01*
X102604142Y-114553000D01*
X102461285Y-114481571D01*
X102175571Y-114481571D01*
X102032714Y-114553000D01*
X100747000Y-115410142D02*
X100889857Y-115481571D01*
X101175571Y-115481571D01*
X101318428Y-115410142D01*
X101389857Y-115267285D01*
X101389857Y-114695857D01*
X101318428Y-114553000D01*
X101175571Y-114481571D01*
X100889857Y-114481571D01*
X100747000Y-114553000D01*
X100675571Y-114695857D01*
X100675571Y-114838714D01*
X101389857Y-114981571D01*
X100032714Y-115481571D02*
X100032714Y-114481571D01*
X100032714Y-114767285D02*
X99961285Y-114624428D01*
X99889857Y-114553000D01*
X99747000Y-114481571D01*
X99604142Y-114481571D01*
X99104142Y-115338714D02*
X99032714Y-115410142D01*
X99104142Y-115481571D01*
X99175571Y-115410142D01*
X99104142Y-115338714D01*
X99104142Y-115481571D01*
X99104142Y-114910142D02*
X99175571Y-114053000D01*
X99104142Y-113981571D01*
X99032714Y-114053000D01*
X99104142Y-114910142D01*
X99104142Y-113981571D01*
X112818428Y-118031571D02*
X112818428Y-116531571D01*
X112818428Y-117245857D02*
X111961285Y-117245857D01*
X111961285Y-118031571D02*
X111961285Y-116531571D01*
X111247000Y-118031571D02*
X111247000Y-117031571D01*
X111247000Y-116531571D02*
X111318428Y-116603000D01*
X111247000Y-116674428D01*
X111175571Y-116603000D01*
X111247000Y-116531571D01*
X111247000Y-116674428D01*
X109889857Y-117031571D02*
X109889857Y-118245857D01*
X109961285Y-118388714D01*
X110032714Y-118460142D01*
X110175571Y-118531571D01*
X110389857Y-118531571D01*
X110532714Y-118460142D01*
X109889857Y-117960142D02*
X110032714Y-118031571D01*
X110318428Y-118031571D01*
X110461285Y-117960142D01*
X110532714Y-117888714D01*
X110604142Y-117745857D01*
X110604142Y-117317285D01*
X110532714Y-117174428D01*
X110461285Y-117103000D01*
X110318428Y-117031571D01*
X110032714Y-117031571D01*
X109889857Y-117103000D01*
X109175571Y-118031571D02*
X109175571Y-116531571D01*
X108532714Y-118031571D02*
X108532714Y-117245857D01*
X108604142Y-117103000D01*
X108747000Y-117031571D01*
X108961285Y-117031571D01*
X109104142Y-117103000D01*
X109175571Y-117174428D01*
X106889857Y-116531571D02*
X106389857Y-118031571D01*
X105889857Y-116531571D01*
X105175571Y-118031571D02*
X105318428Y-117960142D01*
X105389857Y-117888714D01*
X105461285Y-117745857D01*
X105461285Y-117317285D01*
X105389857Y-117174428D01*
X105318428Y-117103000D01*
X105175571Y-117031571D01*
X104961285Y-117031571D01*
X104818428Y-117103000D01*
X104747000Y-117174428D01*
X104675571Y-117317285D01*
X104675571Y-117745857D01*
X104747000Y-117888714D01*
X104818428Y-117960142D01*
X104961285Y-118031571D01*
X105175571Y-118031571D01*
X103818428Y-118031571D02*
X103961285Y-117960142D01*
X104032714Y-117817285D01*
X104032714Y-116531571D01*
X103461285Y-117031571D02*
X102889857Y-117031571D01*
X103247000Y-116531571D02*
X103247000Y-117817285D01*
X103175571Y-117960142D01*
X103032714Y-118031571D01*
X102889857Y-118031571D01*
X101747000Y-118031571D02*
X101747000Y-117245857D01*
X101818428Y-117103000D01*
X101961285Y-117031571D01*
X102247000Y-117031571D01*
X102389857Y-117103000D01*
X101747000Y-117960142D02*
X101889857Y-118031571D01*
X102247000Y-118031571D01*
X102389857Y-117960142D01*
X102461285Y-117817285D01*
X102461285Y-117674428D01*
X102389857Y-117531571D01*
X102247000Y-117460142D01*
X101889857Y-117460142D01*
X101747000Y-117388714D01*
X100389857Y-117031571D02*
X100389857Y-118245857D01*
X100461285Y-118388714D01*
X100532714Y-118460142D01*
X100675571Y-118531571D01*
X100889857Y-118531571D01*
X101032714Y-118460142D01*
X100389857Y-117960142D02*
X100532714Y-118031571D01*
X100818428Y-118031571D01*
X100961285Y-117960142D01*
X101032714Y-117888714D01*
X101104142Y-117745857D01*
X101104142Y-117317285D01*
X101032714Y-117174428D01*
X100961285Y-117103000D01*
X100818428Y-117031571D01*
X100532714Y-117031571D01*
X100389857Y-117103000D01*
X99104142Y-117960142D02*
X99247000Y-118031571D01*
X99532714Y-118031571D01*
X99675571Y-117960142D01*
X99747000Y-117817285D01*
X99747000Y-117245857D01*
X99675571Y-117103000D01*
X99532714Y-117031571D01*
X99247000Y-117031571D01*
X99104142Y-117103000D01*
X99032714Y-117245857D01*
X99032714Y-117388714D01*
X99747000Y-117531571D01*
D11*
X206819047Y-104656000D02*
X206914285Y-104608380D01*
X207057142Y-104608380D01*
X207200000Y-104656000D01*
X207295238Y-104751238D01*
X207342857Y-104846476D01*
X207390476Y-105036952D01*
X207390476Y-105179809D01*
X207342857Y-105370285D01*
X207295238Y-105465523D01*
X207200000Y-105560761D01*
X207057142Y-105608380D01*
X206961904Y-105608380D01*
X206819047Y-105560761D01*
X206771428Y-105513142D01*
X206771428Y-105179809D01*
X206961904Y-105179809D01*
X205009523Y-105608380D02*
X205342857Y-105132190D01*
X205580952Y-105608380D02*
X205580952Y-104608380D01*
X205200000Y-104608380D01*
X205104761Y-104656000D01*
X205057142Y-104703619D01*
X205009523Y-104798857D01*
X205009523Y-104941714D01*
X205057142Y-105036952D01*
X205104761Y-105084571D01*
X205200000Y-105132190D01*
X205580952Y-105132190D01*
X204676190Y-104608380D02*
X204009523Y-105608380D01*
X204009523Y-104608380D02*
X204676190Y-105608380D01*
X203009523Y-104608380D02*
X202438095Y-104608380D01*
X202723809Y-105608380D02*
X202723809Y-104608380D01*
X202200000Y-104608380D02*
X201533333Y-105608380D01*
X201533333Y-104608380D02*
X202200000Y-105608380D01*
X199914285Y-104608380D02*
X200390476Y-104608380D01*
X200438095Y-105084571D01*
X200390476Y-105036952D01*
X200295238Y-104989333D01*
X200057142Y-104989333D01*
X199961904Y-105036952D01*
X199914285Y-105084571D01*
X199866666Y-105179809D01*
X199866666Y-105417904D01*
X199914285Y-105513142D01*
X199961904Y-105560761D01*
X200057142Y-105608380D01*
X200295238Y-105608380D01*
X200390476Y-105560761D01*
X200438095Y-105513142D01*
X199580952Y-104608380D02*
X199247619Y-105608380D01*
X198914285Y-104608380D01*
X221011047Y-105560761D02*
X220868190Y-105608380D01*
X220630095Y-105608380D01*
X220534857Y-105560761D01*
X220487238Y-105513142D01*
X220439619Y-105417904D01*
X220439619Y-105322666D01*
X220487238Y-105227428D01*
X220534857Y-105179809D01*
X220630095Y-105132190D01*
X220820571Y-105084571D01*
X220915809Y-105036952D01*
X220963428Y-104989333D01*
X221011047Y-104894095D01*
X221011047Y-104798857D01*
X220963428Y-104703619D01*
X220915809Y-104656000D01*
X220820571Y-104608380D01*
X220582476Y-104608380D01*
X220439619Y-104656000D01*
X220011047Y-105608380D02*
X220011047Y-104608380D01*
X219772952Y-104608380D01*
X219630095Y-104656000D01*
X219534857Y-104751238D01*
X219487238Y-104846476D01*
X219439619Y-105036952D01*
X219439619Y-105179809D01*
X219487238Y-105370285D01*
X219534857Y-105465523D01*
X219630095Y-105560761D01*
X219772952Y-105608380D01*
X220011047Y-105608380D01*
X219058666Y-105322666D02*
X218582476Y-105322666D01*
X219153904Y-105608380D02*
X218820571Y-104608380D01*
X218487238Y-105608380D01*
X217439619Y-105560761D02*
X217296761Y-105608380D01*
X217058666Y-105608380D01*
X216963428Y-105560761D01*
X216915809Y-105513142D01*
X216868190Y-105417904D01*
X216868190Y-105322666D01*
X216915809Y-105227428D01*
X216963428Y-105179809D01*
X217058666Y-105132190D01*
X217249142Y-105084571D01*
X217344380Y-105036952D01*
X217392000Y-104989333D01*
X217439619Y-104894095D01*
X217439619Y-104798857D01*
X217392000Y-104703619D01*
X217344380Y-104656000D01*
X217249142Y-104608380D01*
X217011047Y-104608380D01*
X216868190Y-104656000D01*
X215868190Y-105513142D02*
X215915809Y-105560761D01*
X216058666Y-105608380D01*
X216153904Y-105608380D01*
X216296761Y-105560761D01*
X216392000Y-105465523D01*
X216439619Y-105370285D01*
X216487238Y-105179809D01*
X216487238Y-105036952D01*
X216439619Y-104846476D01*
X216392000Y-104751238D01*
X216296761Y-104656000D01*
X216153904Y-104608380D01*
X216058666Y-104608380D01*
X215915809Y-104656000D01*
X215868190Y-104703619D01*
X214963428Y-105608380D02*
X215439619Y-105608380D01*
X215439619Y-104608380D01*
X213344380Y-104656000D02*
X213439619Y-104608380D01*
X213582476Y-104608380D01*
X213725333Y-104656000D01*
X213820571Y-104751238D01*
X213868190Y-104846476D01*
X213915809Y-105036952D01*
X213915809Y-105179809D01*
X213868190Y-105370285D01*
X213820571Y-105465523D01*
X213725333Y-105560761D01*
X213582476Y-105608380D01*
X213487238Y-105608380D01*
X213344380Y-105560761D01*
X213296761Y-105513142D01*
X213296761Y-105179809D01*
X213487238Y-105179809D01*
X212201523Y-104608380D02*
X211582476Y-104608380D01*
X211915809Y-104989333D01*
X211772952Y-104989333D01*
X211677714Y-105036952D01*
X211630095Y-105084571D01*
X211582476Y-105179809D01*
X211582476Y-105417904D01*
X211630095Y-105513142D01*
X211677714Y-105560761D01*
X211772952Y-105608380D01*
X212058666Y-105608380D01*
X212153904Y-105560761D01*
X212201523Y-105513142D01*
X211296761Y-104608380D02*
X210963428Y-105608380D01*
X210630095Y-104608380D01*
X210392000Y-104608380D02*
X209772952Y-104608380D01*
X210106285Y-104989333D01*
X209963428Y-104989333D01*
X209868190Y-105036952D01*
X209820571Y-105084571D01*
X209772952Y-105179809D01*
X209772952Y-105417904D01*
X209820571Y-105513142D01*
X209868190Y-105560761D01*
X209963428Y-105608380D01*
X210249142Y-105608380D01*
X210344380Y-105560761D01*
X210392000Y-105513142D01*
X231639523Y-105084571D02*
X231496666Y-105132190D01*
X231449047Y-105179809D01*
X231401428Y-105275047D01*
X231401428Y-105417904D01*
X231449047Y-105513142D01*
X231496666Y-105560761D01*
X231591904Y-105608380D01*
X231972857Y-105608380D01*
X231972857Y-104608380D01*
X231639523Y-104608380D01*
X231544285Y-104656000D01*
X231496666Y-104703619D01*
X231449047Y-104798857D01*
X231449047Y-104894095D01*
X231496666Y-104989333D01*
X231544285Y-105036952D01*
X231639523Y-105084571D01*
X231972857Y-105084571D01*
X231115714Y-104608380D02*
X230544285Y-104608380D01*
X230830000Y-105608380D02*
X230830000Y-104608380D01*
X230210952Y-105608380D02*
X230210952Y-104608380D01*
X229639523Y-105608380D01*
X229639523Y-104608380D01*
X227877619Y-104656000D02*
X227972857Y-104608380D01*
X228115714Y-104608380D01*
X228258571Y-104656000D01*
X228353809Y-104751238D01*
X228401428Y-104846476D01*
X228449047Y-105036952D01*
X228449047Y-105179809D01*
X228401428Y-105370285D01*
X228353809Y-105465523D01*
X228258571Y-105560761D01*
X228115714Y-105608380D01*
X228020476Y-105608380D01*
X227877619Y-105560761D01*
X227830000Y-105513142D01*
X227830000Y-105179809D01*
X228020476Y-105179809D01*
X226639523Y-105084571D02*
X226306190Y-105084571D01*
X226163333Y-105608380D02*
X226639523Y-105608380D01*
X226639523Y-104608380D01*
X226163333Y-104608380D01*
X225782380Y-105322666D02*
X225306190Y-105322666D01*
X225877619Y-105608380D02*
X225544285Y-104608380D01*
X225210952Y-105608380D01*
X224115714Y-105084571D02*
X223782380Y-105084571D01*
X223639523Y-105608380D02*
X224115714Y-105608380D01*
X224115714Y-104608380D01*
X223639523Y-104608380D01*
X222877619Y-105084571D02*
X222734761Y-105132190D01*
X222687142Y-105179809D01*
X222639523Y-105275047D01*
X222639523Y-105417904D01*
X222687142Y-105513142D01*
X222734761Y-105560761D01*
X222830000Y-105608380D01*
X223210952Y-105608380D01*
X223210952Y-104608380D01*
X222877619Y-104608380D01*
X222782380Y-104656000D01*
X222734761Y-104703619D01*
X222687142Y-104798857D01*
X222687142Y-104894095D01*
X222734761Y-104989333D01*
X222782380Y-105036952D01*
X222877619Y-105084571D01*
X223210952Y-105084571D01*
D10*
X90768428Y-115989571D02*
X90768428Y-114489571D01*
X89911285Y-115989571D01*
X89911285Y-114489571D01*
X89197000Y-115989571D02*
X89197000Y-114989571D01*
X89197000Y-114489571D02*
X89268428Y-114561000D01*
X89197000Y-114632428D01*
X89125571Y-114561000D01*
X89197000Y-114489571D01*
X89197000Y-114632428D01*
X88625571Y-115989571D02*
X87839857Y-114989571D01*
X88625571Y-114989571D02*
X87839857Y-115989571D01*
X87268428Y-115989571D02*
X87268428Y-114989571D01*
X87268428Y-114489571D02*
X87339857Y-114561000D01*
X87268428Y-114632428D01*
X87197000Y-114561000D01*
X87268428Y-114489571D01*
X87268428Y-114632428D01*
X86554142Y-115203857D02*
X86054142Y-115203857D01*
X85839857Y-115989571D02*
X86554142Y-115989571D01*
X86554142Y-114489571D01*
X85839857Y-114489571D01*
X85268428Y-115918142D02*
X85054142Y-115989571D01*
X84697000Y-115989571D01*
X84554142Y-115918142D01*
X84482714Y-115846714D01*
X84411285Y-115703857D01*
X84411285Y-115561000D01*
X84482714Y-115418142D01*
X84554142Y-115346714D01*
X84697000Y-115275285D01*
X84982714Y-115203857D01*
X85125571Y-115132428D01*
X85197000Y-115061000D01*
X85268428Y-114918142D01*
X85268428Y-114775285D01*
X85197000Y-114632428D01*
X85125571Y-114561000D01*
X84982714Y-114489571D01*
X84625571Y-114489571D01*
X84411285Y-114561000D01*
X83768428Y-115989571D02*
X83768428Y-114489571D01*
X83197000Y-114489571D01*
X83054142Y-114561000D01*
X82982714Y-114632428D01*
X82911285Y-114775285D01*
X82911285Y-114989571D01*
X82982714Y-115132428D01*
X83054142Y-115203857D01*
X83197000Y-115275285D01*
X83768428Y-115275285D01*
X81268428Y-114989571D02*
X80911285Y-115989571D01*
X80554142Y-114989571D01*
X79197000Y-115989571D02*
X80054142Y-115989571D01*
X79625571Y-115989571D02*
X79625571Y-114489571D01*
X79768428Y-114703857D01*
X79911285Y-114846714D01*
X80054142Y-114918142D01*
X78554142Y-115846714D02*
X78482714Y-115918142D01*
X78554142Y-115989571D01*
X78625571Y-115918142D01*
X78554142Y-115846714D01*
X78554142Y-115989571D01*
X77554142Y-114489571D02*
X77411285Y-114489571D01*
X77268428Y-114561000D01*
X77197000Y-114632428D01*
X77125571Y-114775285D01*
X77054142Y-115061000D01*
X77054142Y-115418142D01*
X77125571Y-115703857D01*
X77197000Y-115846714D01*
X77268428Y-115918142D01*
X77411285Y-115989571D01*
X77554142Y-115989571D01*
X77697000Y-115918142D01*
X77768428Y-115846714D01*
X77839857Y-115703857D01*
X77911285Y-115418142D01*
X77911285Y-115061000D01*
X77839857Y-114775285D01*
X77768428Y-114632428D01*
X77697000Y-114561000D01*
X77554142Y-114489571D01*
X88161285Y-118396714D02*
X88232714Y-118468142D01*
X88447000Y-118539571D01*
X88589857Y-118539571D01*
X88804142Y-118468142D01*
X88947000Y-118325285D01*
X89018428Y-118182428D01*
X89089857Y-117896714D01*
X89089857Y-117682428D01*
X89018428Y-117396714D01*
X88947000Y-117253857D01*
X88804142Y-117111000D01*
X88589857Y-117039571D01*
X88447000Y-117039571D01*
X88232714Y-117111000D01*
X88161285Y-117182428D01*
X87518428Y-118539571D02*
X87518428Y-117039571D01*
X86875571Y-118539571D02*
X86875571Y-117753857D01*
X86947000Y-117611000D01*
X87089857Y-117539571D01*
X87304142Y-117539571D01*
X87447000Y-117611000D01*
X87518428Y-117682428D01*
X85518428Y-118539571D02*
X85518428Y-117753857D01*
X85589857Y-117611000D01*
X85732714Y-117539571D01*
X86018428Y-117539571D01*
X86161285Y-117611000D01*
X85518428Y-118468142D02*
X85661285Y-118539571D01*
X86018428Y-118539571D01*
X86161285Y-118468142D01*
X86232714Y-118325285D01*
X86232714Y-118182428D01*
X86161285Y-118039571D01*
X86018428Y-117968142D01*
X85661285Y-117968142D01*
X85518428Y-117896714D01*
X84804142Y-118539571D02*
X84804142Y-117539571D01*
X84804142Y-117825285D02*
X84732714Y-117682428D01*
X84661285Y-117611000D01*
X84518428Y-117539571D01*
X84375571Y-117539571D01*
X83661285Y-118539571D02*
X83804142Y-118468142D01*
X83875571Y-118325285D01*
X83875571Y-117039571D01*
X83089857Y-118539571D02*
X83089857Y-117539571D01*
X83089857Y-117039571D02*
X83161285Y-117111000D01*
X83089857Y-117182428D01*
X83018428Y-117111000D01*
X83089857Y-117039571D01*
X83089857Y-117182428D01*
X82161285Y-118539571D02*
X82304142Y-118468142D01*
X82375571Y-118396714D01*
X82447000Y-118253857D01*
X82447000Y-117825285D01*
X82375571Y-117682428D01*
X82304142Y-117611000D01*
X82161285Y-117539571D01*
X81947000Y-117539571D01*
X81804142Y-117611000D01*
X81732714Y-117682428D01*
X81661285Y-117825285D01*
X81661285Y-118253857D01*
X81732714Y-118396714D01*
X81804142Y-118468142D01*
X81947000Y-118539571D01*
X82161285Y-118539571D01*
X80947000Y-118539571D02*
X80661285Y-118539571D01*
X80518428Y-118468142D01*
X80447000Y-118396714D01*
X80304142Y-118182428D01*
X80232714Y-117896714D01*
X80232714Y-117325285D01*
X80304142Y-117182428D01*
X80375571Y-117111000D01*
X80518428Y-117039571D01*
X80804142Y-117039571D01*
X80947000Y-117111000D01*
X81018428Y-117182428D01*
X81089857Y-117325285D01*
X81089857Y-117682428D01*
X81018428Y-117825285D01*
X80947000Y-117896714D01*
X80804142Y-117968142D01*
X80518428Y-117968142D01*
X80375571Y-117896714D01*
X80304142Y-117825285D01*
X80232714Y-117682428D01*
X79518428Y-118539571D02*
X79232714Y-118539571D01*
X79089857Y-118468142D01*
X79018428Y-118396714D01*
X78875571Y-118182428D01*
X78804142Y-117896714D01*
X78804142Y-117325285D01*
X78875571Y-117182428D01*
X78947000Y-117111000D01*
X79089857Y-117039571D01*
X79375571Y-117039571D01*
X79518428Y-117111000D01*
X79589857Y-117182428D01*
X79661285Y-117325285D01*
X79661285Y-117682428D01*
X79589857Y-117825285D01*
X79518428Y-117896714D01*
X79375571Y-117968142D01*
X79089857Y-117968142D01*
X78947000Y-117896714D01*
X78875571Y-117825285D01*
X78804142Y-117682428D01*
D11*
X71251000Y-120249000D02*
G75*
G02X67251000Y-116249000I0J4000000D01*
G01*
X71251000Y-120249000D02*
X230251000Y-120249000D01*
X234251000Y-87249000D02*
X234251000Y-116249000D01*
X67251000Y-87249000D02*
G75*
G02X71251000Y-83249000I4000000J0D01*
G01*
X234251000Y-116249000D02*
G75*
G02X230251000Y-120249000I-4000000J0D01*
G01*
X67251000Y-87249000D02*
X67251000Y-116249000D01*
X71251000Y-83249000D02*
X230251000Y-83249000D01*
X230251000Y-83249000D02*
G75*
G02X234251000Y-87249000I0J-4000000D01*
G01*
D12*
X96901000Y-118364000D02*
X97028000Y-117856000D01*
X95758000Y-116078000D02*
X96901000Y-118364000D01*
X97155000Y-116078000D02*
X95758000Y-116078000D01*
X95631000Y-113792000D02*
X97155000Y-116078000D01*
X95377000Y-114173000D02*
X95504000Y-113665000D01*
X94615000Y-113665000D02*
X95377000Y-114173000D01*
X96393000Y-115697000D02*
X94615000Y-113665000D01*
X95123000Y-115697000D02*
X96393000Y-115697000D01*
X96901000Y-118491000D02*
X95123000Y-115697000D01*
X96393000Y-118237000D02*
X96901000Y-118491000D01*
X97155000Y-118872000D02*
X96393000Y-118237000D01*
X97028000Y-117856000D02*
X97155000Y-118872000D01*
X96774000Y-115951000D02*
X95504000Y-115951000D01*
X95377000Y-114046000D02*
X96774000Y-115951000D01*
D13*
X84899500Y-107061000D02*
X84899500Y-107823000D01*
X84899500Y-107823000D02*
X68897500Y-107823000D01*
X68897500Y-107823000D02*
X68897500Y-107061000D01*
D14*
X102474311Y-94361000D02*
G75*
G03X102474311Y-94361000I-6271811J0D01*
G01*
D15*
X103822351Y-94374299D02*
G75*
G02X88582500Y-94203520I-7619851J92039D01*
G01*
D14*
X120889311Y-94361000D02*
G75*
G03X120889311Y-94361000I-6271811J0D01*
G01*
D15*
X122237351Y-94374299D02*
G75*
G02X106997500Y-94203520I-7619851J92039D01*
G01*
D14*
X147559311Y-94361000D02*
G75*
G03X147559311Y-94361000I-6271811J0D01*
G01*
D15*
X148907351Y-94374299D02*
G75*
G02X133667500Y-94203520I-7619851J92039D01*
G01*
D14*
X165974311Y-94361000D02*
G75*
G03X165974311Y-94361000I-6271811J0D01*
G01*
D15*
X167322351Y-94374299D02*
G75*
G02X152082500Y-94203520I-7619851J92039D01*
G01*
D14*
X192644311Y-94361000D02*
G75*
G03X192644311Y-94361000I-6271811J0D01*
G01*
D15*
X193992351Y-94374299D02*
G75*
G02X178752500Y-94203520I-7619851J92039D01*
G01*
D14*
X211059311Y-94361000D02*
G75*
G03X211059311Y-94361000I-6271811J0D01*
G01*
D15*
X212407351Y-94374299D02*
G75*
G02X197167500Y-94203520I-7619851J92039D01*
G01*
D16*
X87894422Y-109104500D02*
X88411578Y-109104500D01*
X87894422Y-107684500D02*
X88411578Y-107684500D01*
X84189500Y-111452922D02*
X84189500Y-111970078D01*
X85609500Y-111452922D02*
X85609500Y-111970078D01*
X88149500Y-91039422D02*
X88149500Y-91556578D01*
X86729500Y-91039422D02*
X86729500Y-91556578D01*
X148442936Y-85158000D02*
X152547064Y-85158000D01*
X148442936Y-88578000D02*
X152547064Y-88578000D01*
X86983500Y-101462578D02*
X86983500Y-100945422D01*
X88403500Y-101462578D02*
X88403500Y-100945422D01*
X88467000Y-105399578D02*
X88467000Y-104882422D01*
X87047000Y-105399578D02*
X87047000Y-104882422D01*
X68695500Y-110246422D02*
X68695500Y-110763578D01*
X70115500Y-110246422D02*
X70115500Y-110763578D01*
X119883422Y-117359500D02*
X120400578Y-117359500D01*
X119883422Y-115939500D02*
X120400578Y-115939500D01*
X220341500Y-114892000D02*
X210061500Y-114892000D01*
X210061500Y-114892000D02*
X210061500Y-112232000D01*
X210061500Y-112232000D02*
X220341500Y-112232000D01*
X220341500Y-112232000D02*
X220341500Y-114892000D01*
X219391500Y-112232000D02*
X219391500Y-106232000D01*
X219391500Y-106232000D02*
X218631500Y-106232000D01*
X218631500Y-106232000D02*
X218631500Y-112232000D01*
X219331500Y-112232000D02*
X219331500Y-106232000D01*
X219211500Y-112232000D02*
X219211500Y-106232000D01*
X219091500Y-112232000D02*
X219091500Y-106232000D01*
X218971500Y-112232000D02*
X218971500Y-106232000D01*
X218851500Y-112232000D02*
X218851500Y-106232000D01*
X218731500Y-112232000D02*
X218731500Y-106232000D01*
X219391500Y-115222000D02*
X219391500Y-114892000D01*
X218631500Y-115222000D02*
X218631500Y-114892000D01*
X217741500Y-114892000D02*
X217741500Y-112232000D01*
X216851500Y-112232000D02*
X216851500Y-106232000D01*
X216851500Y-106232000D02*
X216091500Y-106232000D01*
X216091500Y-106232000D02*
X216091500Y-112232000D01*
X216851500Y-115289071D02*
X216851500Y-114892000D01*
X216091500Y-115289071D02*
X216091500Y-114892000D01*
X215201500Y-114892000D02*
X215201500Y-112232000D01*
X214311500Y-112232000D02*
X214311500Y-106232000D01*
X214311500Y-106232000D02*
X213551500Y-106232000D01*
X213551500Y-106232000D02*
X213551500Y-112232000D01*
X214311500Y-115289071D02*
X214311500Y-114892000D01*
X213551500Y-115289071D02*
X213551500Y-114892000D01*
X212661500Y-114892000D02*
X212661500Y-112232000D01*
X211771500Y-112232000D02*
X211771500Y-106232000D01*
X211771500Y-106232000D02*
X211011500Y-106232000D01*
X211011500Y-106232000D02*
X211011500Y-112232000D01*
X211771500Y-115289071D02*
X211771500Y-114892000D01*
X211011500Y-115289071D02*
X211011500Y-114892000D01*
X219011500Y-117602000D02*
X220281500Y-117602000D01*
X220281500Y-117602000D02*
X220281500Y-116332000D01*
X232092500Y-117602000D02*
X232092500Y-116332000D01*
X230822500Y-117602000D02*
X232092500Y-117602000D01*
X222822500Y-115289071D02*
X222822500Y-114892000D01*
X223582500Y-115289071D02*
X223582500Y-114892000D01*
X222822500Y-106232000D02*
X222822500Y-112232000D01*
X223582500Y-106232000D02*
X222822500Y-106232000D01*
X223582500Y-112232000D02*
X223582500Y-106232000D01*
X224472500Y-114892000D02*
X224472500Y-112232000D01*
X225362500Y-115289071D02*
X225362500Y-114892000D01*
X226122500Y-115289071D02*
X226122500Y-114892000D01*
X225362500Y-106232000D02*
X225362500Y-112232000D01*
X226122500Y-106232000D02*
X225362500Y-106232000D01*
X226122500Y-112232000D02*
X226122500Y-106232000D01*
X227012500Y-114892000D02*
X227012500Y-112232000D01*
X227902500Y-115289071D02*
X227902500Y-114892000D01*
X228662500Y-115289071D02*
X228662500Y-114892000D01*
X227902500Y-106232000D02*
X227902500Y-112232000D01*
X228662500Y-106232000D02*
X227902500Y-106232000D01*
X228662500Y-112232000D02*
X228662500Y-106232000D01*
X229552500Y-114892000D02*
X229552500Y-112232000D01*
X230442500Y-115222000D02*
X230442500Y-114892000D01*
X231202500Y-115222000D02*
X231202500Y-114892000D01*
X230542500Y-112232000D02*
X230542500Y-106232000D01*
X230662500Y-112232000D02*
X230662500Y-106232000D01*
X230782500Y-112232000D02*
X230782500Y-106232000D01*
X230902500Y-112232000D02*
X230902500Y-106232000D01*
X231022500Y-112232000D02*
X231022500Y-106232000D01*
X231142500Y-112232000D02*
X231142500Y-106232000D01*
X230442500Y-106232000D02*
X230442500Y-112232000D01*
X231202500Y-106232000D02*
X230442500Y-106232000D01*
X231202500Y-112232000D02*
X231202500Y-106232000D01*
X232152500Y-112232000D02*
X232152500Y-114892000D01*
X221872500Y-112232000D02*
X232152500Y-112232000D01*
X221872500Y-114892000D02*
X221872500Y-112232000D01*
X232152500Y-114892000D02*
X221872500Y-114892000D01*
X208530500Y-114892000D02*
X198250500Y-114892000D01*
X198250500Y-114892000D02*
X198250500Y-112232000D01*
X198250500Y-112232000D02*
X208530500Y-112232000D01*
X208530500Y-112232000D02*
X208530500Y-114892000D01*
X207580500Y-112232000D02*
X207580500Y-106232000D01*
X207580500Y-106232000D02*
X206820500Y-106232000D01*
X206820500Y-106232000D02*
X206820500Y-112232000D01*
X207520500Y-112232000D02*
X207520500Y-106232000D01*
X207400500Y-112232000D02*
X207400500Y-106232000D01*
X207280500Y-112232000D02*
X207280500Y-106232000D01*
X207160500Y-112232000D02*
X207160500Y-106232000D01*
X207040500Y-112232000D02*
X207040500Y-106232000D01*
X206920500Y-112232000D02*
X206920500Y-106232000D01*
X207580500Y-115222000D02*
X207580500Y-114892000D01*
X206820500Y-115222000D02*
X206820500Y-114892000D01*
X205930500Y-114892000D02*
X205930500Y-112232000D01*
X205040500Y-112232000D02*
X205040500Y-106232000D01*
X205040500Y-106232000D02*
X204280500Y-106232000D01*
X204280500Y-106232000D02*
X204280500Y-112232000D01*
X205040500Y-115289071D02*
X205040500Y-114892000D01*
X204280500Y-115289071D02*
X204280500Y-114892000D01*
X203390500Y-114892000D02*
X203390500Y-112232000D01*
X202500500Y-112232000D02*
X202500500Y-106232000D01*
X202500500Y-106232000D02*
X201740500Y-106232000D01*
X201740500Y-106232000D02*
X201740500Y-112232000D01*
X202500500Y-115289071D02*
X202500500Y-114892000D01*
X201740500Y-115289071D02*
X201740500Y-114892000D01*
X200850500Y-114892000D02*
X200850500Y-112232000D01*
X199960500Y-112232000D02*
X199960500Y-106232000D01*
X199960500Y-106232000D02*
X199200500Y-106232000D01*
X199200500Y-106232000D02*
X199200500Y-112232000D01*
X199960500Y-115289071D02*
X199960500Y-114892000D01*
X199200500Y-115289071D02*
X199200500Y-114892000D01*
X207200500Y-117602000D02*
X208470500Y-117602000D01*
X208470500Y-117602000D02*
X208470500Y-116332000D01*
D17*
G36*
X73238590Y-113574348D02*
X73160046Y-113574778D01*
X73103202Y-113575942D01*
X73064395Y-113578207D01*
X73039962Y-113581940D01*
X73026238Y-113587506D01*
X73019560Y-113595273D01*
X73016264Y-113605605D01*
X73015944Y-113606943D01*
X73010938Y-113631079D01*
X73001671Y-113678701D01*
X72989108Y-113744741D01*
X72974213Y-113824128D01*
X72957949Y-113911796D01*
X72957381Y-113914875D01*
X72941090Y-114000789D01*
X72925848Y-114076696D01*
X72912639Y-114138045D01*
X72902446Y-114180282D01*
X72896252Y-114198855D01*
X72895957Y-114199184D01*
X72877712Y-114208253D01*
X72840095Y-114223367D01*
X72791229Y-114241262D01*
X72790957Y-114241358D01*
X72729407Y-114264493D01*
X72656843Y-114293965D01*
X72588443Y-114323597D01*
X72585206Y-114325062D01*
X72473798Y-114375626D01*
X72227101Y-114207160D01*
X72151423Y-114155803D01*
X72082869Y-114109889D01*
X72025412Y-114072030D01*
X71983024Y-114044837D01*
X71959675Y-114030921D01*
X71957458Y-114029889D01*
X71940490Y-114034484D01*
X71908799Y-114056655D01*
X71861148Y-114097447D01*
X71796302Y-114157905D01*
X71730103Y-114222227D01*
X71666286Y-114285612D01*
X71609171Y-114343451D01*
X71562195Y-114392175D01*
X71528797Y-114428210D01*
X71512415Y-114447984D01*
X71511806Y-114449002D01*
X71509995Y-114462572D01*
X71516817Y-114484733D01*
X71533960Y-114518478D01*
X71563107Y-114566800D01*
X71605945Y-114632692D01*
X71663052Y-114717517D01*
X71713734Y-114792177D01*
X71759039Y-114859140D01*
X71796350Y-114914516D01*
X71823048Y-114954420D01*
X71836515Y-114974962D01*
X71837363Y-114976356D01*
X71835719Y-114996038D01*
X71823255Y-115034293D01*
X71802452Y-115083889D01*
X71795038Y-115099728D01*
X71762686Y-115170290D01*
X71728172Y-115250353D01*
X71700135Y-115319629D01*
X71679932Y-115371045D01*
X71663885Y-115410119D01*
X71654612Y-115430541D01*
X71653459Y-115432114D01*
X71636404Y-115434721D01*
X71596202Y-115441863D01*
X71538198Y-115452523D01*
X71467737Y-115465685D01*
X71390165Y-115480333D01*
X71310828Y-115495449D01*
X71235069Y-115510018D01*
X71168236Y-115523022D01*
X71115672Y-115533445D01*
X71082724Y-115540270D01*
X71074643Y-115542199D01*
X71066295Y-115546962D01*
X71059994Y-115557718D01*
X71055455Y-115578098D01*
X71052396Y-115611734D01*
X71050533Y-115662255D01*
X71049582Y-115733292D01*
X71049260Y-115828476D01*
X71049243Y-115867492D01*
X71049243Y-116184799D01*
X71125443Y-116199839D01*
X71167837Y-116207995D01*
X71231100Y-116219899D01*
X71307538Y-116234116D01*
X71389457Y-116249210D01*
X71412100Y-116253355D01*
X71487694Y-116268053D01*
X71553547Y-116282505D01*
X71604134Y-116295375D01*
X71633926Y-116305322D01*
X71638888Y-116308287D01*
X71651074Y-116329283D01*
X71668547Y-116369967D01*
X71687923Y-116422322D01*
X71691766Y-116433600D01*
X71717161Y-116503523D01*
X71748683Y-116582418D01*
X71779531Y-116653266D01*
X71779683Y-116653595D01*
X71831053Y-116764733D01*
X71662101Y-117013253D01*
X71493148Y-117261772D01*
X71710071Y-117479058D01*
X71775681Y-117543726D01*
X71835521Y-117600733D01*
X71886233Y-117647033D01*
X71924454Y-117679584D01*
X71946825Y-117695343D01*
X71950034Y-117696343D01*
X71968874Y-117688469D01*
X72007320Y-117666578D01*
X72061170Y-117633267D01*
X72126224Y-117591131D01*
X72196560Y-117543943D01*
X72267945Y-117495810D01*
X72331592Y-117453928D01*
X72383459Y-117420871D01*
X72419505Y-117399218D01*
X72435633Y-117391543D01*
X72455311Y-117398037D01*
X72492625Y-117415150D01*
X72539879Y-117439326D01*
X72544888Y-117442013D01*
X72608523Y-117473927D01*
X72652159Y-117489579D01*
X72679298Y-117489745D01*
X72693443Y-117475204D01*
X72693525Y-117475000D01*
X72700595Y-117457779D01*
X72717458Y-117416899D01*
X72742805Y-117355525D01*
X72775329Y-117276819D01*
X72813722Y-117183947D01*
X72856678Y-117080072D01*
X72898278Y-116979502D01*
X72943996Y-116868516D01*
X72985974Y-116765703D01*
X73022952Y-116674215D01*
X73053673Y-116597201D01*
X73076878Y-116537815D01*
X73091310Y-116499209D01*
X73095757Y-116484800D01*
X73084604Y-116468272D01*
X73055431Y-116441930D01*
X73016529Y-116412887D01*
X72905743Y-116321039D01*
X72819149Y-116215759D01*
X72757784Y-116099266D01*
X72722685Y-115973776D01*
X72714892Y-115841507D01*
X72720557Y-115780457D01*
X72751422Y-115653795D01*
X72804580Y-115541941D01*
X72876733Y-115446001D01*
X72964583Y-115367076D01*
X73064835Y-115306270D01*
X73174190Y-115264687D01*
X73289353Y-115243428D01*
X73407025Y-115243599D01*
X73523910Y-115266301D01*
X73636711Y-115312638D01*
X73742131Y-115383713D01*
X73786132Y-115423911D01*
X73870521Y-115527129D01*
X73929278Y-115639925D01*
X73962796Y-115759010D01*
X73971465Y-115881095D01*
X73955677Y-116002893D01*
X73915822Y-116121116D01*
X73852293Y-116232475D01*
X73765479Y-116333684D01*
X73668471Y-116412887D01*
X73628063Y-116443162D01*
X73599518Y-116469219D01*
X73589243Y-116484825D01*
X73594623Y-116501843D01*
X73609925Y-116542500D01*
X73633888Y-116603642D01*
X73665256Y-116682119D01*
X73702768Y-116774780D01*
X73745167Y-116878472D01*
X73786837Y-116979526D01*
X73832810Y-117090607D01*
X73875393Y-117193541D01*
X73913279Y-117285165D01*
X73945160Y-117362316D01*
X73969729Y-117421831D01*
X73985680Y-117460544D01*
X73991590Y-117475000D01*
X74005552Y-117489685D01*
X74032560Y-117489642D01*
X74076087Y-117474099D01*
X74139610Y-117442284D01*
X74140112Y-117442013D01*
X74187940Y-117417323D01*
X74226603Y-117399338D01*
X74248405Y-117391614D01*
X74249367Y-117391543D01*
X74265779Y-117399378D01*
X74302013Y-117421165D01*
X74354026Y-117454328D01*
X74417775Y-117496291D01*
X74488440Y-117543943D01*
X74560384Y-117592191D01*
X74625226Y-117634151D01*
X74678765Y-117667227D01*
X74716803Y-117688821D01*
X74734967Y-117696343D01*
X74751692Y-117686457D01*
X74785320Y-117658826D01*
X74832490Y-117616495D01*
X74889842Y-117562505D01*
X74954016Y-117499899D01*
X74975003Y-117478983D01*
X75192001Y-117261623D01*
X75026832Y-117019220D01*
X74976636Y-116944781D01*
X74932581Y-116877972D01*
X74897138Y-116822665D01*
X74872781Y-116782729D01*
X74861978Y-116762036D01*
X74861662Y-116760563D01*
X74867357Y-116741058D01*
X74882674Y-116701822D01*
X74904963Y-116649430D01*
X74920607Y-116614355D01*
X74949859Y-116547201D01*
X74977406Y-116479358D01*
X74998763Y-116422034D01*
X75004565Y-116404572D01*
X75021048Y-116357938D01*
X75037160Y-116321905D01*
X75046010Y-116308287D01*
X75065540Y-116299952D01*
X75108166Y-116288137D01*
X75168355Y-116274181D01*
X75240578Y-116259422D01*
X75272900Y-116253355D01*
X75354978Y-116238273D01*
X75433705Y-116223669D01*
X75501391Y-116210980D01*
X75550340Y-116201642D01*
X75559557Y-116199839D01*
X75635757Y-116184799D01*
X75635757Y-115867492D01*
X75635586Y-115763154D01*
X75634884Y-115684213D01*
X75633366Y-115627038D01*
X75630751Y-115587999D01*
X75626754Y-115563465D01*
X75621091Y-115549805D01*
X75613480Y-115543389D01*
X75610357Y-115542199D01*
X75591522Y-115537980D01*
X75549912Y-115529562D01*
X75490870Y-115517961D01*
X75419743Y-115504195D01*
X75341875Y-115489280D01*
X75262613Y-115474232D01*
X75187302Y-115460069D01*
X75121287Y-115447806D01*
X75069913Y-115438461D01*
X75038525Y-115433050D01*
X75031541Y-115432114D01*
X75025215Y-115419596D01*
X75011210Y-115386246D01*
X74992145Y-115338377D01*
X74984866Y-115319629D01*
X74955504Y-115247195D01*
X74920929Y-115167170D01*
X74889963Y-115099728D01*
X74867177Y-115048159D01*
X74852018Y-115005785D01*
X74846958Y-114979834D01*
X74847764Y-114976356D01*
X74858459Y-114959936D01*
X74882880Y-114923417D01*
X74918405Y-114870687D01*
X74962413Y-114805635D01*
X75012283Y-114732151D01*
X75022144Y-114717645D01*
X75080008Y-114631704D01*
X75122544Y-114566261D01*
X75151446Y-114518304D01*
X75168410Y-114484820D01*
X75175133Y-114462795D01*
X75173310Y-114449217D01*
X75173264Y-114449131D01*
X75158914Y-114431297D01*
X75127177Y-114396817D01*
X75081490Y-114349268D01*
X75025296Y-114292222D01*
X74962032Y-114229255D01*
X74954898Y-114222227D01*
X74875170Y-114145020D01*
X74813643Y-114088330D01*
X74769079Y-114051110D01*
X74740243Y-114032315D01*
X74727542Y-114029889D01*
X74709006Y-114040471D01*
X74670539Y-114064916D01*
X74616114Y-114100612D01*
X74549702Y-114144947D01*
X74475275Y-114195311D01*
X74457899Y-114207160D01*
X74211203Y-114375626D01*
X74099794Y-114325062D01*
X74032043Y-114295595D01*
X73959317Y-114265959D01*
X73896797Y-114242330D01*
X73894043Y-114241358D01*
X73845140Y-114223457D01*
X73807443Y-114208320D01*
X73789075Y-114199210D01*
X73789044Y-114199184D01*
X73783215Y-114182717D01*
X73773308Y-114142219D01*
X73760305Y-114082242D01*
X73745191Y-114007340D01*
X73728948Y-113922064D01*
X73727619Y-113914875D01*
X73711325Y-113827014D01*
X73696367Y-113747260D01*
X73683709Y-113680681D01*
X73674314Y-113632347D01*
X73669146Y-113607325D01*
X73669056Y-113606943D01*
X73665911Y-113596299D01*
X73659796Y-113588262D01*
X73647047Y-113582467D01*
X73624000Y-113578547D01*
X73586991Y-113576135D01*
X73532356Y-113574865D01*
X73456433Y-113574371D01*
X73355556Y-113574286D01*
X73342500Y-113574286D01*
X73238590Y-113574348D01*
X73238590Y-113574348D01*
G37*
X73238590Y-113574348D02*
X73160046Y-113574778D01*
X73103202Y-113575942D01*
X73064395Y-113578207D01*
X73039962Y-113581940D01*
X73026238Y-113587506D01*
X73019560Y-113595273D01*
X73016264Y-113605605D01*
X73015944Y-113606943D01*
X73010938Y-113631079D01*
X73001671Y-113678701D01*
X72989108Y-113744741D01*
X72974213Y-113824128D01*
X72957949Y-113911796D01*
X72957381Y-113914875D01*
X72941090Y-114000789D01*
X72925848Y-114076696D01*
X72912639Y-114138045D01*
X72902446Y-114180282D01*
X72896252Y-114198855D01*
X72895957Y-114199184D01*
X72877712Y-114208253D01*
X72840095Y-114223367D01*
X72791229Y-114241262D01*
X72790957Y-114241358D01*
X72729407Y-114264493D01*
X72656843Y-114293965D01*
X72588443Y-114323597D01*
X72585206Y-114325062D01*
X72473798Y-114375626D01*
X72227101Y-114207160D01*
X72151423Y-114155803D01*
X72082869Y-114109889D01*
X72025412Y-114072030D01*
X71983024Y-114044837D01*
X71959675Y-114030921D01*
X71957458Y-114029889D01*
X71940490Y-114034484D01*
X71908799Y-114056655D01*
X71861148Y-114097447D01*
X71796302Y-114157905D01*
X71730103Y-114222227D01*
X71666286Y-114285612D01*
X71609171Y-114343451D01*
X71562195Y-114392175D01*
X71528797Y-114428210D01*
X71512415Y-114447984D01*
X71511806Y-114449002D01*
X71509995Y-114462572D01*
X71516817Y-114484733D01*
X71533960Y-114518478D01*
X71563107Y-114566800D01*
X71605945Y-114632692D01*
X71663052Y-114717517D01*
X71713734Y-114792177D01*
X71759039Y-114859140D01*
X71796350Y-114914516D01*
X71823048Y-114954420D01*
X71836515Y-114974962D01*
X71837363Y-114976356D01*
X71835719Y-114996038D01*
X71823255Y-115034293D01*
X71802452Y-115083889D01*
X71795038Y-115099728D01*
X71762686Y-115170290D01*
X71728172Y-115250353D01*
X71700135Y-115319629D01*
X71679932Y-115371045D01*
X71663885Y-115410119D01*
X71654612Y-115430541D01*
X71653459Y-115432114D01*
X71636404Y-115434721D01*
X71596202Y-115441863D01*
X71538198Y-115452523D01*
X71467737Y-115465685D01*
X71390165Y-115480333D01*
X71310828Y-115495449D01*
X71235069Y-115510018D01*
X71168236Y-115523022D01*
X71115672Y-115533445D01*
X71082724Y-115540270D01*
X71074643Y-115542199D01*
X71066295Y-115546962D01*
X71059994Y-115557718D01*
X71055455Y-115578098D01*
X71052396Y-115611734D01*
X71050533Y-115662255D01*
X71049582Y-115733292D01*
X71049260Y-115828476D01*
X71049243Y-115867492D01*
X71049243Y-116184799D01*
X71125443Y-116199839D01*
X71167837Y-116207995D01*
X71231100Y-116219899D01*
X71307538Y-116234116D01*
X71389457Y-116249210D01*
X71412100Y-116253355D01*
X71487694Y-116268053D01*
X71553547Y-116282505D01*
X71604134Y-116295375D01*
X71633926Y-116305322D01*
X71638888Y-116308287D01*
X71651074Y-116329283D01*
X71668547Y-116369967D01*
X71687923Y-116422322D01*
X71691766Y-116433600D01*
X71717161Y-116503523D01*
X71748683Y-116582418D01*
X71779531Y-116653266D01*
X71779683Y-116653595D01*
X71831053Y-116764733D01*
X71662101Y-117013253D01*
X71493148Y-117261772D01*
X71710071Y-117479058D01*
X71775681Y-117543726D01*
X71835521Y-117600733D01*
X71886233Y-117647033D01*
X71924454Y-117679584D01*
X71946825Y-117695343D01*
X71950034Y-117696343D01*
X71968874Y-117688469D01*
X72007320Y-117666578D01*
X72061170Y-117633267D01*
X72126224Y-117591131D01*
X72196560Y-117543943D01*
X72267945Y-117495810D01*
X72331592Y-117453928D01*
X72383459Y-117420871D01*
X72419505Y-117399218D01*
X72435633Y-117391543D01*
X72455311Y-117398037D01*
X72492625Y-117415150D01*
X72539879Y-117439326D01*
X72544888Y-117442013D01*
X72608523Y-117473927D01*
X72652159Y-117489579D01*
X72679298Y-117489745D01*
X72693443Y-117475204D01*
X72693525Y-117475000D01*
X72700595Y-117457779D01*
X72717458Y-117416899D01*
X72742805Y-117355525D01*
X72775329Y-117276819D01*
X72813722Y-117183947D01*
X72856678Y-117080072D01*
X72898278Y-116979502D01*
X72943996Y-116868516D01*
X72985974Y-116765703D01*
X73022952Y-116674215D01*
X73053673Y-116597201D01*
X73076878Y-116537815D01*
X73091310Y-116499209D01*
X73095757Y-116484800D01*
X73084604Y-116468272D01*
X73055431Y-116441930D01*
X73016529Y-116412887D01*
X72905743Y-116321039D01*
X72819149Y-116215759D01*
X72757784Y-116099266D01*
X72722685Y-115973776D01*
X72714892Y-115841507D01*
X72720557Y-115780457D01*
X72751422Y-115653795D01*
X72804580Y-115541941D01*
X72876733Y-115446001D01*
X72964583Y-115367076D01*
X73064835Y-115306270D01*
X73174190Y-115264687D01*
X73289353Y-115243428D01*
X73407025Y-115243599D01*
X73523910Y-115266301D01*
X73636711Y-115312638D01*
X73742131Y-115383713D01*
X73786132Y-115423911D01*
X73870521Y-115527129D01*
X73929278Y-115639925D01*
X73962796Y-115759010D01*
X73971465Y-115881095D01*
X73955677Y-116002893D01*
X73915822Y-116121116D01*
X73852293Y-116232475D01*
X73765479Y-116333684D01*
X73668471Y-116412887D01*
X73628063Y-116443162D01*
X73599518Y-116469219D01*
X73589243Y-116484825D01*
X73594623Y-116501843D01*
X73609925Y-116542500D01*
X73633888Y-116603642D01*
X73665256Y-116682119D01*
X73702768Y-116774780D01*
X73745167Y-116878472D01*
X73786837Y-116979526D01*
X73832810Y-117090607D01*
X73875393Y-117193541D01*
X73913279Y-117285165D01*
X73945160Y-117362316D01*
X73969729Y-117421831D01*
X73985680Y-117460544D01*
X73991590Y-117475000D01*
X74005552Y-117489685D01*
X74032560Y-117489642D01*
X74076087Y-117474099D01*
X74139610Y-117442284D01*
X74140112Y-117442013D01*
X74187940Y-117417323D01*
X74226603Y-117399338D01*
X74248405Y-117391614D01*
X74249367Y-117391543D01*
X74265779Y-117399378D01*
X74302013Y-117421165D01*
X74354026Y-117454328D01*
X74417775Y-117496291D01*
X74488440Y-117543943D01*
X74560384Y-117592191D01*
X74625226Y-117634151D01*
X74678765Y-117667227D01*
X74716803Y-117688821D01*
X74734967Y-117696343D01*
X74751692Y-117686457D01*
X74785320Y-117658826D01*
X74832490Y-117616495D01*
X74889842Y-117562505D01*
X74954016Y-117499899D01*
X74975003Y-117478983D01*
X75192001Y-117261623D01*
X75026832Y-117019220D01*
X74976636Y-116944781D01*
X74932581Y-116877972D01*
X74897138Y-116822665D01*
X74872781Y-116782729D01*
X74861978Y-116762036D01*
X74861662Y-116760563D01*
X74867357Y-116741058D01*
X74882674Y-116701822D01*
X74904963Y-116649430D01*
X74920607Y-116614355D01*
X74949859Y-116547201D01*
X74977406Y-116479358D01*
X74998763Y-116422034D01*
X75004565Y-116404572D01*
X75021048Y-116357938D01*
X75037160Y-116321905D01*
X75046010Y-116308287D01*
X75065540Y-116299952D01*
X75108166Y-116288137D01*
X75168355Y-116274181D01*
X75240578Y-116259422D01*
X75272900Y-116253355D01*
X75354978Y-116238273D01*
X75433705Y-116223669D01*
X75501391Y-116210980D01*
X75550340Y-116201642D01*
X75559557Y-116199839D01*
X75635757Y-116184799D01*
X75635757Y-115867492D01*
X75635586Y-115763154D01*
X75634884Y-115684213D01*
X75633366Y-115627038D01*
X75630751Y-115587999D01*
X75626754Y-115563465D01*
X75621091Y-115549805D01*
X75613480Y-115543389D01*
X75610357Y-115542199D01*
X75591522Y-115537980D01*
X75549912Y-115529562D01*
X75490870Y-115517961D01*
X75419743Y-115504195D01*
X75341875Y-115489280D01*
X75262613Y-115474232D01*
X75187302Y-115460069D01*
X75121287Y-115447806D01*
X75069913Y-115438461D01*
X75038525Y-115433050D01*
X75031541Y-115432114D01*
X75025215Y-115419596D01*
X75011210Y-115386246D01*
X74992145Y-115338377D01*
X74984866Y-115319629D01*
X74955504Y-115247195D01*
X74920929Y-115167170D01*
X74889963Y-115099728D01*
X74867177Y-115048159D01*
X74852018Y-115005785D01*
X74846958Y-114979834D01*
X74847764Y-114976356D01*
X74858459Y-114959936D01*
X74882880Y-114923417D01*
X74918405Y-114870687D01*
X74962413Y-114805635D01*
X75012283Y-114732151D01*
X75022144Y-114717645D01*
X75080008Y-114631704D01*
X75122544Y-114566261D01*
X75151446Y-114518304D01*
X75168410Y-114484820D01*
X75175133Y-114462795D01*
X75173310Y-114449217D01*
X75173264Y-114449131D01*
X75158914Y-114431297D01*
X75127177Y-114396817D01*
X75081490Y-114349268D01*
X75025296Y-114292222D01*
X74962032Y-114229255D01*
X74954898Y-114222227D01*
X74875170Y-114145020D01*
X74813643Y-114088330D01*
X74769079Y-114051110D01*
X74740243Y-114032315D01*
X74727542Y-114029889D01*
X74709006Y-114040471D01*
X74670539Y-114064916D01*
X74616114Y-114100612D01*
X74549702Y-114144947D01*
X74475275Y-114195311D01*
X74457899Y-114207160D01*
X74211203Y-114375626D01*
X74099794Y-114325062D01*
X74032043Y-114295595D01*
X73959317Y-114265959D01*
X73896797Y-114242330D01*
X73894043Y-114241358D01*
X73845140Y-114223457D01*
X73807443Y-114208320D01*
X73789075Y-114199210D01*
X73789044Y-114199184D01*
X73783215Y-114182717D01*
X73773308Y-114142219D01*
X73760305Y-114082242D01*
X73745191Y-114007340D01*
X73728948Y-113922064D01*
X73727619Y-113914875D01*
X73711325Y-113827014D01*
X73696367Y-113747260D01*
X73683709Y-113680681D01*
X73674314Y-113632347D01*
X73669146Y-113607325D01*
X73669056Y-113606943D01*
X73665911Y-113596299D01*
X73659796Y-113588262D01*
X73647047Y-113582467D01*
X73624000Y-113578547D01*
X73586991Y-113576135D01*
X73532356Y-113574865D01*
X73456433Y-113574371D01*
X73355556Y-113574286D01*
X73342500Y-113574286D01*
X73238590Y-113574348D01*
G36*
X70188905Y-118298966D02*
X70131479Y-118336497D01*
X70103781Y-118370096D01*
X70081838Y-118431064D01*
X70080095Y-118479308D01*
X70084043Y-118543816D01*
X70232814Y-118608934D01*
X70305151Y-118642202D01*
X70352416Y-118668964D01*
X70376993Y-118692144D01*
X70381263Y-118714667D01*
X70367611Y-118739455D01*
X70352557Y-118755886D01*
X70308754Y-118782235D01*
X70261111Y-118784081D01*
X70217355Y-118763546D01*
X70185211Y-118722752D01*
X70179462Y-118708347D01*
X70151924Y-118663356D01*
X70120242Y-118644182D01*
X70076786Y-118627779D01*
X70076786Y-118689966D01*
X70080628Y-118732283D01*
X70095677Y-118767969D01*
X70127220Y-118808943D01*
X70131908Y-118814267D01*
X70166994Y-118850720D01*
X70197153Y-118870283D01*
X70234885Y-118879283D01*
X70266165Y-118882230D01*
X70322115Y-118882965D01*
X70361945Y-118873660D01*
X70386792Y-118859846D01*
X70425844Y-118829467D01*
X70452875Y-118796613D01*
X70469983Y-118755294D01*
X70479262Y-118699521D01*
X70482807Y-118623305D01*
X70483090Y-118584622D01*
X70482128Y-118538247D01*
X70394493Y-118538247D01*
X70393477Y-118563126D01*
X70390944Y-118567200D01*
X70374226Y-118561665D01*
X70338251Y-118547017D01*
X70290169Y-118526190D01*
X70280114Y-118521714D01*
X70219348Y-118490814D01*
X70185868Y-118463657D01*
X70178510Y-118438220D01*
X70196109Y-118412481D01*
X70210644Y-118401109D01*
X70263090Y-118378364D01*
X70312178Y-118382122D01*
X70353273Y-118409884D01*
X70381742Y-118459152D01*
X70390869Y-118498257D01*
X70394493Y-118538247D01*
X70482128Y-118538247D01*
X70481215Y-118494249D01*
X70474304Y-118427384D01*
X70460616Y-118378695D01*
X70438404Y-118342849D01*
X70405926Y-118314513D01*
X70391767Y-118305355D01*
X70327447Y-118281507D01*
X70257027Y-118280006D01*
X70188905Y-118298966D01*
X70188905Y-118298966D01*
G37*
X70188905Y-118298966D02*
X70131479Y-118336497D01*
X70103781Y-118370096D01*
X70081838Y-118431064D01*
X70080095Y-118479308D01*
X70084043Y-118543816D01*
X70232814Y-118608934D01*
X70305151Y-118642202D01*
X70352416Y-118668964D01*
X70376993Y-118692144D01*
X70381263Y-118714667D01*
X70367611Y-118739455D01*
X70352557Y-118755886D01*
X70308754Y-118782235D01*
X70261111Y-118784081D01*
X70217355Y-118763546D01*
X70185211Y-118722752D01*
X70179462Y-118708347D01*
X70151924Y-118663356D01*
X70120242Y-118644182D01*
X70076786Y-118627779D01*
X70076786Y-118689966D01*
X70080628Y-118732283D01*
X70095677Y-118767969D01*
X70127220Y-118808943D01*
X70131908Y-118814267D01*
X70166994Y-118850720D01*
X70197153Y-118870283D01*
X70234885Y-118879283D01*
X70266165Y-118882230D01*
X70322115Y-118882965D01*
X70361945Y-118873660D01*
X70386792Y-118859846D01*
X70425844Y-118829467D01*
X70452875Y-118796613D01*
X70469983Y-118755294D01*
X70479262Y-118699521D01*
X70482807Y-118623305D01*
X70483090Y-118584622D01*
X70482128Y-118538247D01*
X70394493Y-118538247D01*
X70393477Y-118563126D01*
X70390944Y-118567200D01*
X70374226Y-118561665D01*
X70338251Y-118547017D01*
X70290169Y-118526190D01*
X70280114Y-118521714D01*
X70219348Y-118490814D01*
X70185868Y-118463657D01*
X70178510Y-118438220D01*
X70196109Y-118412481D01*
X70210644Y-118401109D01*
X70263090Y-118378364D01*
X70312178Y-118382122D01*
X70353273Y-118409884D01*
X70381742Y-118459152D01*
X70390869Y-118498257D01*
X70394493Y-118538247D01*
X70482128Y-118538247D01*
X70481215Y-118494249D01*
X70474304Y-118427384D01*
X70460616Y-118378695D01*
X70438404Y-118342849D01*
X70405926Y-118314513D01*
X70391767Y-118305355D01*
X70327447Y-118281507D01*
X70257027Y-118280006D01*
X70188905Y-118298966D01*
G36*
X70689900Y-118290752D02*
X70672552Y-118298334D01*
X70631144Y-118331128D01*
X70595735Y-118378547D01*
X70573836Y-118429151D01*
X70570271Y-118454098D01*
X70582221Y-118488927D01*
X70608433Y-118507357D01*
X70636536Y-118518516D01*
X70649405Y-118520572D01*
X70655671Y-118505649D01*
X70668044Y-118473175D01*
X70673472Y-118458502D01*
X70703910Y-118407744D01*
X70747980Y-118382427D01*
X70804490Y-118383206D01*
X70808675Y-118384203D01*
X70838845Y-118398507D01*
X70861024Y-118426393D01*
X70876173Y-118471287D01*
X70885250Y-118536615D01*
X70889214Y-118625804D01*
X70889586Y-118673261D01*
X70889770Y-118748071D01*
X70890978Y-118799069D01*
X70894191Y-118831471D01*
X70900391Y-118850495D01*
X70910560Y-118861356D01*
X70925681Y-118869272D01*
X70926554Y-118869670D01*
X70955672Y-118881981D01*
X70970097Y-118886514D01*
X70972314Y-118872809D01*
X70974211Y-118834925D01*
X70975653Y-118777715D01*
X70976502Y-118706027D01*
X70976671Y-118653565D01*
X70975808Y-118552047D01*
X70972430Y-118475032D01*
X70965358Y-118418023D01*
X70953412Y-118376526D01*
X70935410Y-118346043D01*
X70910173Y-118322080D01*
X70885253Y-118305355D01*
X70825329Y-118283097D01*
X70755589Y-118278076D01*
X70689900Y-118290752D01*
X70689900Y-118290752D01*
G37*
X70689900Y-118290752D02*
X70672552Y-118298334D01*
X70631144Y-118331128D01*
X70595735Y-118378547D01*
X70573836Y-118429151D01*
X70570271Y-118454098D01*
X70582221Y-118488927D01*
X70608433Y-118507357D01*
X70636536Y-118518516D01*
X70649405Y-118520572D01*
X70655671Y-118505649D01*
X70668044Y-118473175D01*
X70673472Y-118458502D01*
X70703910Y-118407744D01*
X70747980Y-118382427D01*
X70804490Y-118383206D01*
X70808675Y-118384203D01*
X70838845Y-118398507D01*
X70861024Y-118426393D01*
X70876173Y-118471287D01*
X70885250Y-118536615D01*
X70889214Y-118625804D01*
X70889586Y-118673261D01*
X70889770Y-118748071D01*
X70890978Y-118799069D01*
X70894191Y-118831471D01*
X70900391Y-118850495D01*
X70910560Y-118861356D01*
X70925681Y-118869272D01*
X70926554Y-118869670D01*
X70955672Y-118881981D01*
X70970097Y-118886514D01*
X70972314Y-118872809D01*
X70974211Y-118834925D01*
X70975653Y-118777715D01*
X70976502Y-118706027D01*
X70976671Y-118653565D01*
X70975808Y-118552047D01*
X70972430Y-118475032D01*
X70965358Y-118418023D01*
X70953412Y-118376526D01*
X70935410Y-118346043D01*
X70910173Y-118322080D01*
X70885253Y-118305355D01*
X70825329Y-118283097D01*
X70755589Y-118278076D01*
X70689900Y-118290752D01*
G36*
X71197624Y-118288335D02*
X71155833Y-118307344D01*
X71123031Y-118330378D01*
X71098997Y-118356133D01*
X71082403Y-118389358D01*
X71071923Y-118434800D01*
X71066229Y-118497207D01*
X71063993Y-118581327D01*
X71063757Y-118636721D01*
X71063757Y-118852826D01*
X71100726Y-118869670D01*
X71129844Y-118881981D01*
X71144269Y-118886514D01*
X71147028Y-118873025D01*
X71149218Y-118836653D01*
X71150558Y-118783542D01*
X71150843Y-118741372D01*
X71152066Y-118680447D01*
X71155364Y-118632115D01*
X71160179Y-118602518D01*
X71164004Y-118596229D01*
X71189717Y-118602652D01*
X71230082Y-118619125D01*
X71276821Y-118641458D01*
X71321655Y-118665457D01*
X71356307Y-118686930D01*
X71372498Y-118701685D01*
X71372562Y-118701845D01*
X71371170Y-118729152D01*
X71358682Y-118755219D01*
X71336757Y-118776392D01*
X71304757Y-118783474D01*
X71277408Y-118782649D01*
X71238674Y-118782042D01*
X71218342Y-118791116D01*
X71206131Y-118815092D01*
X71204591Y-118819613D01*
X71199297Y-118853806D01*
X71213453Y-118874568D01*
X71250352Y-118884462D01*
X71290211Y-118886292D01*
X71361938Y-118872727D01*
X71399068Y-118853355D01*
X71444924Y-118807845D01*
X71469244Y-118751983D01*
X71471427Y-118692957D01*
X71450871Y-118637953D01*
X71419951Y-118603486D01*
X71389080Y-118584189D01*
X71340558Y-118559759D01*
X71284015Y-118534985D01*
X71274590Y-118531199D01*
X71212481Y-118503791D01*
X71176678Y-118479634D01*
X71165163Y-118455619D01*
X71175920Y-118428635D01*
X71194386Y-118407543D01*
X71238031Y-118381572D01*
X71286054Y-118379624D01*
X71330094Y-118399637D01*
X71361791Y-118439551D01*
X71365951Y-118449848D01*
X71390173Y-118487724D01*
X71425535Y-118515842D01*
X71470157Y-118538917D01*
X71470157Y-118473485D01*
X71467531Y-118433506D01*
X71456270Y-118401997D01*
X71431301Y-118368378D01*
X71407331Y-118342484D01*
X71370059Y-118305817D01*
X71341099Y-118286121D01*
X71309995Y-118278220D01*
X71274787Y-118276914D01*
X71197624Y-118288335D01*
X71197624Y-118288335D01*
G37*
X71197624Y-118288335D02*
X71155833Y-118307344D01*
X71123031Y-118330378D01*
X71098997Y-118356133D01*
X71082403Y-118389358D01*
X71071923Y-118434800D01*
X71066229Y-118497207D01*
X71063993Y-118581327D01*
X71063757Y-118636721D01*
X71063757Y-118852826D01*
X71100726Y-118869670D01*
X71129844Y-118881981D01*
X71144269Y-118886514D01*
X71147028Y-118873025D01*
X71149218Y-118836653D01*
X71150558Y-118783542D01*
X71150843Y-118741372D01*
X71152066Y-118680447D01*
X71155364Y-118632115D01*
X71160179Y-118602518D01*
X71164004Y-118596229D01*
X71189717Y-118602652D01*
X71230082Y-118619125D01*
X71276821Y-118641458D01*
X71321655Y-118665457D01*
X71356307Y-118686930D01*
X71372498Y-118701685D01*
X71372562Y-118701845D01*
X71371170Y-118729152D01*
X71358682Y-118755219D01*
X71336757Y-118776392D01*
X71304757Y-118783474D01*
X71277408Y-118782649D01*
X71238674Y-118782042D01*
X71218342Y-118791116D01*
X71206131Y-118815092D01*
X71204591Y-118819613D01*
X71199297Y-118853806D01*
X71213453Y-118874568D01*
X71250352Y-118884462D01*
X71290211Y-118886292D01*
X71361938Y-118872727D01*
X71399068Y-118853355D01*
X71444924Y-118807845D01*
X71469244Y-118751983D01*
X71471427Y-118692957D01*
X71450871Y-118637953D01*
X71419951Y-118603486D01*
X71389080Y-118584189D01*
X71340558Y-118559759D01*
X71284015Y-118534985D01*
X71274590Y-118531199D01*
X71212481Y-118503791D01*
X71176678Y-118479634D01*
X71165163Y-118455619D01*
X71175920Y-118428635D01*
X71194386Y-118407543D01*
X71238031Y-118381572D01*
X71286054Y-118379624D01*
X71330094Y-118399637D01*
X71361791Y-118439551D01*
X71365951Y-118449848D01*
X71390173Y-118487724D01*
X71425535Y-118515842D01*
X71470157Y-118538917D01*
X71470157Y-118473485D01*
X71467531Y-118433506D01*
X71456270Y-118401997D01*
X71431301Y-118368378D01*
X71407331Y-118342484D01*
X71370059Y-118305817D01*
X71341099Y-118286121D01*
X71309995Y-118278220D01*
X71274787Y-118276914D01*
X71197624Y-118288335D01*
G36*
X71562667Y-118290663D02*
X71560452Y-118328850D01*
X71558716Y-118386886D01*
X71557601Y-118460180D01*
X71557243Y-118537055D01*
X71557243Y-118797196D01*
X71603174Y-118843127D01*
X71634825Y-118871429D01*
X71662610Y-118882893D01*
X71700585Y-118882168D01*
X71715660Y-118880321D01*
X71762774Y-118874948D01*
X71801744Y-118871869D01*
X71811243Y-118871585D01*
X71843267Y-118873445D01*
X71889068Y-118878114D01*
X71906826Y-118880321D01*
X71950443Y-118883735D01*
X71979755Y-118876320D01*
X72008820Y-118853427D01*
X72019312Y-118843127D01*
X72065243Y-118797196D01*
X72065243Y-118310602D01*
X72028274Y-118293758D01*
X71996441Y-118281282D01*
X71977817Y-118276914D01*
X71973042Y-118290718D01*
X71968579Y-118329286D01*
X71964725Y-118388356D01*
X71961778Y-118463663D01*
X71960357Y-118527286D01*
X71956386Y-118777657D01*
X71921741Y-118782556D01*
X71890232Y-118779131D01*
X71874792Y-118768041D01*
X71870477Y-118747308D01*
X71866792Y-118703145D01*
X71864031Y-118641146D01*
X71862488Y-118566909D01*
X71862265Y-118528706D01*
X71862043Y-118308783D01*
X71816334Y-118292849D01*
X71783982Y-118282015D01*
X71766385Y-118276962D01*
X71765877Y-118276914D01*
X71764112Y-118290648D01*
X71762171Y-118328730D01*
X71760218Y-118386482D01*
X71758416Y-118459227D01*
X71757157Y-118527286D01*
X71753186Y-118777657D01*
X71666100Y-118777657D01*
X71662104Y-118549240D01*
X71658108Y-118320822D01*
X71615653Y-118298868D01*
X71584308Y-118283793D01*
X71565756Y-118276951D01*
X71565221Y-118276914D01*
X71562667Y-118290663D01*
X71562667Y-118290663D01*
G37*
X71562667Y-118290663D02*
X71560452Y-118328850D01*
X71558716Y-118386886D01*
X71557601Y-118460180D01*
X71557243Y-118537055D01*
X71557243Y-118797196D01*
X71603174Y-118843127D01*
X71634825Y-118871429D01*
X71662610Y-118882893D01*
X71700585Y-118882168D01*
X71715660Y-118880321D01*
X71762774Y-118874948D01*
X71801744Y-118871869D01*
X71811243Y-118871585D01*
X71843267Y-118873445D01*
X71889068Y-118878114D01*
X71906826Y-118880321D01*
X71950443Y-118883735D01*
X71979755Y-118876320D01*
X72008820Y-118853427D01*
X72019312Y-118843127D01*
X72065243Y-118797196D01*
X72065243Y-118310602D01*
X72028274Y-118293758D01*
X71996441Y-118281282D01*
X71977817Y-118276914D01*
X71973042Y-118290718D01*
X71968579Y-118329286D01*
X71964725Y-118388356D01*
X71961778Y-118463663D01*
X71960357Y-118527286D01*
X71956386Y-118777657D01*
X71921741Y-118782556D01*
X71890232Y-118779131D01*
X71874792Y-118768041D01*
X71870477Y-118747308D01*
X71866792Y-118703145D01*
X71864031Y-118641146D01*
X71862488Y-118566909D01*
X71862265Y-118528706D01*
X71862043Y-118308783D01*
X71816334Y-118292849D01*
X71783982Y-118282015D01*
X71766385Y-118276962D01*
X71765877Y-118276914D01*
X71764112Y-118290648D01*
X71762171Y-118328730D01*
X71760218Y-118386482D01*
X71758416Y-118459227D01*
X71757157Y-118527286D01*
X71753186Y-118777657D01*
X71666100Y-118777657D01*
X71662104Y-118549240D01*
X71658108Y-118320822D01*
X71615653Y-118298868D01*
X71584308Y-118283793D01*
X71565756Y-118276951D01*
X71565221Y-118276914D01*
X71562667Y-118290663D01*
G36*
X72152383Y-118397358D02*
X72152567Y-118505837D01*
X72153281Y-118589287D01*
X72154825Y-118651704D01*
X72157499Y-118697085D01*
X72161606Y-118729429D01*
X72167445Y-118752733D01*
X72175318Y-118770995D01*
X72181279Y-118781418D01*
X72230645Y-118837945D01*
X72293236Y-118873377D01*
X72362487Y-118886090D01*
X72431832Y-118874463D01*
X72473125Y-118853568D01*
X72516475Y-118817422D01*
X72546019Y-118773276D01*
X72563845Y-118715462D01*
X72572037Y-118638313D01*
X72573198Y-118581714D01*
X72573042Y-118577647D01*
X72471643Y-118577647D01*
X72471024Y-118642550D01*
X72468186Y-118685514D01*
X72461660Y-118713622D01*
X72449977Y-118733953D01*
X72436017Y-118749288D01*
X72389135Y-118778890D01*
X72338799Y-118781419D01*
X72291224Y-118756705D01*
X72287521Y-118753356D01*
X72271717Y-118735935D01*
X72261807Y-118715209D01*
X72256442Y-118684362D01*
X72254272Y-118636577D01*
X72253929Y-118583748D01*
X72254673Y-118517381D01*
X72257752Y-118473106D01*
X72264439Y-118444009D01*
X72276004Y-118423173D01*
X72285487Y-118412107D01*
X72329540Y-118384198D01*
X72380276Y-118380843D01*
X72428704Y-118402159D01*
X72438050Y-118410073D01*
X72453960Y-118427647D01*
X72463890Y-118448587D01*
X72469222Y-118479782D01*
X72471337Y-118528122D01*
X72471643Y-118577647D01*
X72573042Y-118577647D01*
X72569690Y-118490568D01*
X72557774Y-118422086D01*
X72535365Y-118370600D01*
X72500376Y-118330443D01*
X72473125Y-118309861D01*
X72423593Y-118287625D01*
X72366184Y-118277304D01*
X72312818Y-118280067D01*
X72282957Y-118291212D01*
X72271239Y-118294383D01*
X72263463Y-118282557D01*
X72258035Y-118250866D01*
X72253929Y-118202593D01*
X72249433Y-118148829D01*
X72243187Y-118116482D01*
X72231824Y-118097985D01*
X72211972Y-118085770D01*
X72199500Y-118080362D01*
X72152329Y-118060601D01*
X72152383Y-118397358D01*
X72152383Y-118397358D01*
G37*
X72152383Y-118397358D02*
X72152567Y-118505837D01*
X72153281Y-118589287D01*
X72154825Y-118651704D01*
X72157499Y-118697085D01*
X72161606Y-118729429D01*
X72167445Y-118752733D01*
X72175318Y-118770995D01*
X72181279Y-118781418D01*
X72230645Y-118837945D01*
X72293236Y-118873377D01*
X72362487Y-118886090D01*
X72431832Y-118874463D01*
X72473125Y-118853568D01*
X72516475Y-118817422D01*
X72546019Y-118773276D01*
X72563845Y-118715462D01*
X72572037Y-118638313D01*
X72573198Y-118581714D01*
X72573042Y-118577647D01*
X72471643Y-118577647D01*
X72471024Y-118642550D01*
X72468186Y-118685514D01*
X72461660Y-118713622D01*
X72449977Y-118733953D01*
X72436017Y-118749288D01*
X72389135Y-118778890D01*
X72338799Y-118781419D01*
X72291224Y-118756705D01*
X72287521Y-118753356D01*
X72271717Y-118735935D01*
X72261807Y-118715209D01*
X72256442Y-118684362D01*
X72254272Y-118636577D01*
X72253929Y-118583748D01*
X72254673Y-118517381D01*
X72257752Y-118473106D01*
X72264439Y-118444009D01*
X72276004Y-118423173D01*
X72285487Y-118412107D01*
X72329540Y-118384198D01*
X72380276Y-118380843D01*
X72428704Y-118402159D01*
X72438050Y-118410073D01*
X72453960Y-118427647D01*
X72463890Y-118448587D01*
X72469222Y-118479782D01*
X72471337Y-118528122D01*
X72471643Y-118577647D01*
X72573042Y-118577647D01*
X72569690Y-118490568D01*
X72557774Y-118422086D01*
X72535365Y-118370600D01*
X72500376Y-118330443D01*
X72473125Y-118309861D01*
X72423593Y-118287625D01*
X72366184Y-118277304D01*
X72312818Y-118280067D01*
X72282957Y-118291212D01*
X72271239Y-118294383D01*
X72263463Y-118282557D01*
X72258035Y-118250866D01*
X72253929Y-118202593D01*
X72249433Y-118148829D01*
X72243187Y-118116482D01*
X72231824Y-118097985D01*
X72211972Y-118085770D01*
X72199500Y-118080362D01*
X72152329Y-118060601D01*
X72152383Y-118397358D01*
G36*
X72812574Y-118281755D02*
X72746642Y-118306084D01*
X72693227Y-118349117D01*
X72672336Y-118379409D01*
X72649561Y-118434994D01*
X72650034Y-118475186D01*
X72673938Y-118502217D01*
X72682783Y-118506813D01*
X72720970Y-118521144D01*
X72740472Y-118517472D01*
X72747078Y-118493407D01*
X72747414Y-118480114D01*
X72759508Y-118431210D01*
X72791029Y-118396999D01*
X72834841Y-118380476D01*
X72883805Y-118384634D01*
X72923606Y-118406227D01*
X72937050Y-118418544D01*
X72946579Y-118433487D01*
X72953015Y-118456075D01*
X72957183Y-118491328D01*
X72959903Y-118544266D01*
X72961998Y-118619907D01*
X72962540Y-118643857D01*
X72964519Y-118725790D01*
X72966769Y-118783455D01*
X72970143Y-118821608D01*
X72975494Y-118845004D01*
X72983676Y-118858398D01*
X72995541Y-118866545D01*
X73003138Y-118870144D01*
X73035398Y-118882452D01*
X73054389Y-118886514D01*
X73060664Y-118872948D01*
X73064494Y-118831934D01*
X73065900Y-118762999D01*
X73064902Y-118665669D01*
X73064592Y-118650657D01*
X73062399Y-118561859D01*
X73059807Y-118497019D01*
X73056118Y-118451067D01*
X73050636Y-118418935D01*
X73042665Y-118395553D01*
X73031507Y-118375852D01*
X73025670Y-118367410D01*
X72992204Y-118330057D01*
X72954773Y-118301003D01*
X72950191Y-118298467D01*
X72883074Y-118278443D01*
X72812574Y-118281755D01*
X72812574Y-118281755D01*
G37*
X72812574Y-118281755D02*
X72746642Y-118306084D01*
X72693227Y-118349117D01*
X72672336Y-118379409D01*
X72649561Y-118434994D01*
X72650034Y-118475186D01*
X72673938Y-118502217D01*
X72682783Y-118506813D01*
X72720970Y-118521144D01*
X72740472Y-118517472D01*
X72747078Y-118493407D01*
X72747414Y-118480114D01*
X72759508Y-118431210D01*
X72791029Y-118396999D01*
X72834841Y-118380476D01*
X72883805Y-118384634D01*
X72923606Y-118406227D01*
X72937050Y-118418544D01*
X72946579Y-118433487D01*
X72953015Y-118456075D01*
X72957183Y-118491328D01*
X72959903Y-118544266D01*
X72961998Y-118619907D01*
X72962540Y-118643857D01*
X72964519Y-118725790D01*
X72966769Y-118783455D01*
X72970143Y-118821608D01*
X72975494Y-118845004D01*
X72983676Y-118858398D01*
X72995541Y-118866545D01*
X73003138Y-118870144D01*
X73035398Y-118882452D01*
X73054389Y-118886514D01*
X73060664Y-118872948D01*
X73064494Y-118831934D01*
X73065900Y-118762999D01*
X73064902Y-118665669D01*
X73064592Y-118650657D01*
X73062399Y-118561859D01*
X73059807Y-118497019D01*
X73056118Y-118451067D01*
X73050636Y-118418935D01*
X73042665Y-118395553D01*
X73031507Y-118375852D01*
X73025670Y-118367410D01*
X72992204Y-118330057D01*
X72954773Y-118301003D01*
X72950191Y-118298467D01*
X72883074Y-118278443D01*
X72812574Y-118281755D01*
G36*
X73302756Y-118282968D02*
X73245884Y-118304087D01*
X73245233Y-118304493D01*
X73210060Y-118330380D01*
X73184093Y-118360633D01*
X73165830Y-118400058D01*
X73153768Y-118453462D01*
X73146404Y-118525651D01*
X73142236Y-118621432D01*
X73141871Y-118635078D01*
X73136624Y-118840842D01*
X73180784Y-118863678D01*
X73212737Y-118879110D01*
X73232030Y-118886423D01*
X73232922Y-118886514D01*
X73236261Y-118873022D01*
X73238913Y-118836626D01*
X73240544Y-118783452D01*
X73240900Y-118740393D01*
X73240908Y-118670641D01*
X73244097Y-118626837D01*
X73255212Y-118605944D01*
X73278999Y-118604925D01*
X73320204Y-118620741D01*
X73382414Y-118649815D01*
X73428159Y-118673963D01*
X73451687Y-118694913D01*
X73458604Y-118717747D01*
X73458614Y-118718877D01*
X73447201Y-118758212D01*
X73413408Y-118779462D01*
X73361691Y-118782539D01*
X73324439Y-118782006D01*
X73304797Y-118792735D01*
X73292548Y-118818505D01*
X73285498Y-118851337D01*
X73295658Y-118869966D01*
X73299483Y-118872632D01*
X73335499Y-118883340D01*
X73385934Y-118884856D01*
X73437874Y-118877759D01*
X73474678Y-118864788D01*
X73525562Y-118821585D01*
X73554486Y-118761446D01*
X73560214Y-118714462D01*
X73555843Y-118672082D01*
X73540025Y-118637488D01*
X73508703Y-118606763D01*
X73457822Y-118575990D01*
X73383324Y-118541252D01*
X73378786Y-118539288D01*
X73311679Y-118508287D01*
X73270268Y-118482862D01*
X73252519Y-118460014D01*
X73256393Y-118436745D01*
X73279857Y-118410056D01*
X73286873Y-118403914D01*
X73333870Y-118380100D01*
X73382567Y-118381103D01*
X73424978Y-118404451D01*
X73453116Y-118447675D01*
X73455731Y-118456160D01*
X73481192Y-118497308D01*
X73513499Y-118517128D01*
X73560214Y-118536770D01*
X73560214Y-118485950D01*
X73546004Y-118412082D01*
X73503825Y-118344327D01*
X73481876Y-118321661D01*
X73431983Y-118292569D01*
X73368533Y-118279400D01*
X73302756Y-118282968D01*
X73302756Y-118282968D01*
G37*
X73302756Y-118282968D02*
X73245884Y-118304087D01*
X73245233Y-118304493D01*
X73210060Y-118330380D01*
X73184093Y-118360633D01*
X73165830Y-118400058D01*
X73153768Y-118453462D01*
X73146404Y-118525651D01*
X73142236Y-118621432D01*
X73141871Y-118635078D01*
X73136624Y-118840842D01*
X73180784Y-118863678D01*
X73212737Y-118879110D01*
X73232030Y-118886423D01*
X73232922Y-118886514D01*
X73236261Y-118873022D01*
X73238913Y-118836626D01*
X73240544Y-118783452D01*
X73240900Y-118740393D01*
X73240908Y-118670641D01*
X73244097Y-118626837D01*
X73255212Y-118605944D01*
X73278999Y-118604925D01*
X73320204Y-118620741D01*
X73382414Y-118649815D01*
X73428159Y-118673963D01*
X73451687Y-118694913D01*
X73458604Y-118717747D01*
X73458614Y-118718877D01*
X73447201Y-118758212D01*
X73413408Y-118779462D01*
X73361691Y-118782539D01*
X73324439Y-118782006D01*
X73304797Y-118792735D01*
X73292548Y-118818505D01*
X73285498Y-118851337D01*
X73295658Y-118869966D01*
X73299483Y-118872632D01*
X73335499Y-118883340D01*
X73385934Y-118884856D01*
X73437874Y-118877759D01*
X73474678Y-118864788D01*
X73525562Y-118821585D01*
X73554486Y-118761446D01*
X73560214Y-118714462D01*
X73555843Y-118672082D01*
X73540025Y-118637488D01*
X73508703Y-118606763D01*
X73457822Y-118575990D01*
X73383324Y-118541252D01*
X73378786Y-118539288D01*
X73311679Y-118508287D01*
X73270268Y-118482862D01*
X73252519Y-118460014D01*
X73256393Y-118436745D01*
X73279857Y-118410056D01*
X73286873Y-118403914D01*
X73333870Y-118380100D01*
X73382567Y-118381103D01*
X73424978Y-118404451D01*
X73453116Y-118447675D01*
X73455731Y-118456160D01*
X73481192Y-118497308D01*
X73513499Y-118517128D01*
X73560214Y-118536770D01*
X73560214Y-118485950D01*
X73546004Y-118412082D01*
X73503825Y-118344327D01*
X73481876Y-118321661D01*
X73431983Y-118292569D01*
X73368533Y-118279400D01*
X73302756Y-118282968D01*
G36*
X73966614Y-118183289D02*
X73962361Y-118242613D01*
X73957475Y-118277572D01*
X73950705Y-118292820D01*
X73940798Y-118293015D01*
X73937586Y-118291195D01*
X73894856Y-118278015D01*
X73839273Y-118278785D01*
X73782763Y-118292333D01*
X73747418Y-118309861D01*
X73711179Y-118337861D01*
X73684687Y-118369549D01*
X73666501Y-118409813D01*
X73655178Y-118463543D01*
X73649278Y-118535626D01*
X73647357Y-118630951D01*
X73647323Y-118649237D01*
X73647300Y-118854646D01*
X73693009Y-118870580D01*
X73725473Y-118881420D01*
X73743285Y-118886468D01*
X73743809Y-118886514D01*
X73745563Y-118872828D01*
X73747056Y-118835076D01*
X73748174Y-118778224D01*
X73748803Y-118707234D01*
X73748900Y-118664073D01*
X73749102Y-118578973D01*
X73750142Y-118517981D01*
X73752669Y-118476177D01*
X73757336Y-118448642D01*
X73764793Y-118430456D01*
X73775689Y-118416698D01*
X73782493Y-118410073D01*
X73829228Y-118383375D01*
X73880228Y-118381375D01*
X73926499Y-118403955D01*
X73935056Y-118412107D01*
X73947607Y-118427436D01*
X73956312Y-118445618D01*
X73961869Y-118471909D01*
X73964974Y-118511562D01*
X73966324Y-118569832D01*
X73966614Y-118650173D01*
X73966614Y-118854646D01*
X74012323Y-118870580D01*
X74044787Y-118881420D01*
X74062599Y-118886468D01*
X74063123Y-118886514D01*
X74064463Y-118872623D01*
X74065672Y-118833439D01*
X74066699Y-118772700D01*
X74067498Y-118694141D01*
X74068019Y-118601498D01*
X74068214Y-118498509D01*
X74068214Y-118101342D01*
X74021043Y-118081444D01*
X73973871Y-118061547D01*
X73966614Y-118183289D01*
X73966614Y-118183289D01*
G37*
X73966614Y-118183289D02*
X73962361Y-118242613D01*
X73957475Y-118277572D01*
X73950705Y-118292820D01*
X73940798Y-118293015D01*
X73937586Y-118291195D01*
X73894856Y-118278015D01*
X73839273Y-118278785D01*
X73782763Y-118292333D01*
X73747418Y-118309861D01*
X73711179Y-118337861D01*
X73684687Y-118369549D01*
X73666501Y-118409813D01*
X73655178Y-118463543D01*
X73649278Y-118535626D01*
X73647357Y-118630951D01*
X73647323Y-118649237D01*
X73647300Y-118854646D01*
X73693009Y-118870580D01*
X73725473Y-118881420D01*
X73743285Y-118886468D01*
X73743809Y-118886514D01*
X73745563Y-118872828D01*
X73747056Y-118835076D01*
X73748174Y-118778224D01*
X73748803Y-118707234D01*
X73748900Y-118664073D01*
X73749102Y-118578973D01*
X73750142Y-118517981D01*
X73752669Y-118476177D01*
X73757336Y-118448642D01*
X73764793Y-118430456D01*
X73775689Y-118416698D01*
X73782493Y-118410073D01*
X73829228Y-118383375D01*
X73880228Y-118381375D01*
X73926499Y-118403955D01*
X73935056Y-118412107D01*
X73947607Y-118427436D01*
X73956312Y-118445618D01*
X73961869Y-118471909D01*
X73964974Y-118511562D01*
X73966324Y-118569832D01*
X73966614Y-118650173D01*
X73966614Y-118854646D01*
X74012323Y-118870580D01*
X74044787Y-118881420D01*
X74062599Y-118886468D01*
X74063123Y-118886514D01*
X74064463Y-118872623D01*
X74065672Y-118833439D01*
X74066699Y-118772700D01*
X74067498Y-118694141D01*
X74068019Y-118601498D01*
X74068214Y-118498509D01*
X74068214Y-118101342D01*
X74021043Y-118081444D01*
X73973871Y-118061547D01*
X73966614Y-118183289D01*
G36*
X75174197Y-118263239D02*
X75116973Y-118301735D01*
X75072751Y-118357335D01*
X75046333Y-118428086D01*
X75040990Y-118480162D01*
X75041597Y-118501893D01*
X75046678Y-118518531D01*
X75060645Y-118533437D01*
X75087911Y-118549973D01*
X75132888Y-118571498D01*
X75199989Y-118601374D01*
X75200329Y-118601524D01*
X75262093Y-118629813D01*
X75312741Y-118654933D01*
X75347096Y-118674179D01*
X75359982Y-118684848D01*
X75359986Y-118684934D01*
X75348628Y-118708166D01*
X75322069Y-118733774D01*
X75291577Y-118752221D01*
X75276130Y-118755886D01*
X75233985Y-118743212D01*
X75197692Y-118711471D01*
X75179983Y-118676572D01*
X75162948Y-118650845D01*
X75129578Y-118621546D01*
X75090351Y-118596235D01*
X75055744Y-118582471D01*
X75048507Y-118581714D01*
X75040361Y-118594160D01*
X75039870Y-118625972D01*
X75045857Y-118668866D01*
X75057143Y-118714558D01*
X75072550Y-118754761D01*
X75073329Y-118756322D01*
X75119696Y-118821062D01*
X75179789Y-118865097D01*
X75248035Y-118886711D01*
X75318862Y-118884185D01*
X75386696Y-118855804D01*
X75389712Y-118853808D01*
X75443073Y-118805448D01*
X75478160Y-118742352D01*
X75497578Y-118659387D01*
X75500184Y-118636078D01*
X75504799Y-118526055D01*
X75499267Y-118474748D01*
X75359986Y-118474748D01*
X75358176Y-118506753D01*
X75348278Y-118516093D01*
X75323602Y-118509105D01*
X75284705Y-118492587D01*
X75241225Y-118471881D01*
X75240144Y-118471333D01*
X75203291Y-118451949D01*
X75188500Y-118439013D01*
X75192147Y-118425451D01*
X75207505Y-118407632D01*
X75246577Y-118381845D01*
X75288654Y-118379950D01*
X75326397Y-118398717D01*
X75352466Y-118434915D01*
X75359986Y-118474748D01*
X75499267Y-118474748D01*
X75495306Y-118438027D01*
X75470950Y-118368212D01*
X75437044Y-118319302D01*
X75375847Y-118269878D01*
X75308437Y-118245359D01*
X75239620Y-118243797D01*
X75174197Y-118263239D01*
X75174197Y-118263239D01*
G37*
X75174197Y-118263239D02*
X75116973Y-118301735D01*
X75072751Y-118357335D01*
X75046333Y-118428086D01*
X75040990Y-118480162D01*
X75041597Y-118501893D01*
X75046678Y-118518531D01*
X75060645Y-118533437D01*
X75087911Y-118549973D01*
X75132888Y-118571498D01*
X75199989Y-118601374D01*
X75200329Y-118601524D01*
X75262093Y-118629813D01*
X75312741Y-118654933D01*
X75347096Y-118674179D01*
X75359982Y-118684848D01*
X75359986Y-118684934D01*
X75348628Y-118708166D01*
X75322069Y-118733774D01*
X75291577Y-118752221D01*
X75276130Y-118755886D01*
X75233985Y-118743212D01*
X75197692Y-118711471D01*
X75179983Y-118676572D01*
X75162948Y-118650845D01*
X75129578Y-118621546D01*
X75090351Y-118596235D01*
X75055744Y-118582471D01*
X75048507Y-118581714D01*
X75040361Y-118594160D01*
X75039870Y-118625972D01*
X75045857Y-118668866D01*
X75057143Y-118714558D01*
X75072550Y-118754761D01*
X75073329Y-118756322D01*
X75119696Y-118821062D01*
X75179789Y-118865097D01*
X75248035Y-118886711D01*
X75318862Y-118884185D01*
X75386696Y-118855804D01*
X75389712Y-118853808D01*
X75443073Y-118805448D01*
X75478160Y-118742352D01*
X75497578Y-118659387D01*
X75500184Y-118636078D01*
X75504799Y-118526055D01*
X75499267Y-118474748D01*
X75359986Y-118474748D01*
X75358176Y-118506753D01*
X75348278Y-118516093D01*
X75323602Y-118509105D01*
X75284705Y-118492587D01*
X75241225Y-118471881D01*
X75240144Y-118471333D01*
X75203291Y-118451949D01*
X75188500Y-118439013D01*
X75192147Y-118425451D01*
X75207505Y-118407632D01*
X75246577Y-118381845D01*
X75288654Y-118379950D01*
X75326397Y-118398717D01*
X75352466Y-118434915D01*
X75359986Y-118474748D01*
X75499267Y-118474748D01*
X75495306Y-118438027D01*
X75470950Y-118368212D01*
X75437044Y-118319302D01*
X75375847Y-118269878D01*
X75308437Y-118245359D01*
X75239620Y-118243797D01*
X75174197Y-118263239D01*
G36*
X76301385Y-118253962D02*
X76233355Y-118289733D01*
X76183149Y-118347301D01*
X76165315Y-118384312D01*
X76151437Y-118439882D01*
X76144333Y-118510096D01*
X76143660Y-118586727D01*
X76149073Y-118661552D01*
X76160230Y-118726342D01*
X76176786Y-118772873D01*
X76181874Y-118780887D01*
X76242145Y-118840707D01*
X76313731Y-118876535D01*
X76391408Y-118887020D01*
X76469952Y-118870810D01*
X76491811Y-118861092D01*
X76534378Y-118831143D01*
X76571737Y-118791433D01*
X76575268Y-118786397D01*
X76589619Y-118762124D01*
X76599106Y-118736178D01*
X76604710Y-118702022D01*
X76607414Y-118653119D01*
X76608201Y-118582935D01*
X76608214Y-118567200D01*
X76608178Y-118562192D01*
X76463071Y-118562192D01*
X76462227Y-118628430D01*
X76458904Y-118672386D01*
X76451917Y-118700779D01*
X76440084Y-118720325D01*
X76434043Y-118726857D01*
X76399314Y-118751680D01*
X76365597Y-118750548D01*
X76331505Y-118729016D01*
X76311171Y-118706029D01*
X76299129Y-118672478D01*
X76292366Y-118619569D01*
X76291902Y-118613399D01*
X76290748Y-118517513D01*
X76302812Y-118446299D01*
X76327930Y-118400194D01*
X76365940Y-118379635D01*
X76379508Y-118378514D01*
X76415136Y-118384152D01*
X76439506Y-118403686D01*
X76454407Y-118441042D01*
X76461625Y-118500150D01*
X76463071Y-118562192D01*
X76608178Y-118562192D01*
X76607674Y-118492413D01*
X76605404Y-118440159D01*
X76600432Y-118403949D01*
X76591787Y-118377299D01*
X76578495Y-118353722D01*
X76575557Y-118349338D01*
X76526187Y-118290249D01*
X76472391Y-118255947D01*
X76406898Y-118242331D01*
X76384658Y-118241665D01*
X76301385Y-118253962D01*
X76301385Y-118253962D01*
G37*
X76301385Y-118253962D02*
X76233355Y-118289733D01*
X76183149Y-118347301D01*
X76165315Y-118384312D01*
X76151437Y-118439882D01*
X76144333Y-118510096D01*
X76143660Y-118586727D01*
X76149073Y-118661552D01*
X76160230Y-118726342D01*
X76176786Y-118772873D01*
X76181874Y-118780887D01*
X76242145Y-118840707D01*
X76313731Y-118876535D01*
X76391408Y-118887020D01*
X76469952Y-118870810D01*
X76491811Y-118861092D01*
X76534378Y-118831143D01*
X76571737Y-118791433D01*
X76575268Y-118786397D01*
X76589619Y-118762124D01*
X76599106Y-118736178D01*
X76604710Y-118702022D01*
X76607414Y-118653119D01*
X76608201Y-118582935D01*
X76608214Y-118567200D01*
X76608178Y-118562192D01*
X76463071Y-118562192D01*
X76462227Y-118628430D01*
X76458904Y-118672386D01*
X76451917Y-118700779D01*
X76440084Y-118720325D01*
X76434043Y-118726857D01*
X76399314Y-118751680D01*
X76365597Y-118750548D01*
X76331505Y-118729016D01*
X76311171Y-118706029D01*
X76299129Y-118672478D01*
X76292366Y-118619569D01*
X76291902Y-118613399D01*
X76290748Y-118517513D01*
X76302812Y-118446299D01*
X76327930Y-118400194D01*
X76365940Y-118379635D01*
X76379508Y-118378514D01*
X76415136Y-118384152D01*
X76439506Y-118403686D01*
X76454407Y-118441042D01*
X76461625Y-118500150D01*
X76463071Y-118562192D01*
X76608178Y-118562192D01*
X76607674Y-118492413D01*
X76605404Y-118440159D01*
X76600432Y-118403949D01*
X76591787Y-118377299D01*
X76578495Y-118353722D01*
X76575557Y-118349338D01*
X76526187Y-118290249D01*
X76472391Y-118255947D01*
X76406898Y-118242331D01*
X76384658Y-118241665D01*
X76301385Y-118253962D01*
G36*
X74626407Y-118259780D02*
X74579828Y-118286723D01*
X74547443Y-118313466D01*
X74523758Y-118341484D01*
X74507441Y-118375748D01*
X74497161Y-118421227D01*
X74491586Y-118482892D01*
X74489384Y-118565711D01*
X74489129Y-118625246D01*
X74489129Y-118844391D01*
X74550814Y-118872044D01*
X74612500Y-118899697D01*
X74619757Y-118659670D01*
X74622756Y-118570028D01*
X74625902Y-118504962D01*
X74629799Y-118460026D01*
X74635053Y-118430770D01*
X74642269Y-118412748D01*
X74652050Y-118401511D01*
X74655188Y-118399079D01*
X74702739Y-118380083D01*
X74750803Y-118387600D01*
X74779414Y-118407543D01*
X74791053Y-118421675D01*
X74799109Y-118440220D01*
X74804229Y-118468334D01*
X74807059Y-118511173D01*
X74808244Y-118573895D01*
X74808443Y-118639261D01*
X74808482Y-118721268D01*
X74809886Y-118779316D01*
X74814586Y-118818465D01*
X74824513Y-118843780D01*
X74841597Y-118860323D01*
X74867768Y-118873156D01*
X74902725Y-118886491D01*
X74940904Y-118901007D01*
X74936359Y-118643389D01*
X74934529Y-118550519D01*
X74932388Y-118481889D01*
X74929319Y-118432711D01*
X74924706Y-118398198D01*
X74917932Y-118373562D01*
X74908381Y-118354016D01*
X74896866Y-118336770D01*
X74841310Y-118281680D01*
X74773520Y-118249822D01*
X74699787Y-118242191D01*
X74626407Y-118259780D01*
X74626407Y-118259780D01*
G37*
X74626407Y-118259780D02*
X74579828Y-118286723D01*
X74547443Y-118313466D01*
X74523758Y-118341484D01*
X74507441Y-118375748D01*
X74497161Y-118421227D01*
X74491586Y-118482892D01*
X74489384Y-118565711D01*
X74489129Y-118625246D01*
X74489129Y-118844391D01*
X74550814Y-118872044D01*
X74612500Y-118899697D01*
X74619757Y-118659670D01*
X74622756Y-118570028D01*
X74625902Y-118504962D01*
X74629799Y-118460026D01*
X74635053Y-118430770D01*
X74642269Y-118412748D01*
X74652050Y-118401511D01*
X74655188Y-118399079D01*
X74702739Y-118380083D01*
X74750803Y-118387600D01*
X74779414Y-118407543D01*
X74791053Y-118421675D01*
X74799109Y-118440220D01*
X74804229Y-118468334D01*
X74807059Y-118511173D01*
X74808244Y-118573895D01*
X74808443Y-118639261D01*
X74808482Y-118721268D01*
X74809886Y-118779316D01*
X74814586Y-118818465D01*
X74824513Y-118843780D01*
X74841597Y-118860323D01*
X74867768Y-118873156D01*
X74902725Y-118886491D01*
X74940904Y-118901007D01*
X74936359Y-118643389D01*
X74934529Y-118550519D01*
X74932388Y-118481889D01*
X74929319Y-118432711D01*
X74924706Y-118398198D01*
X74917932Y-118373562D01*
X74908381Y-118354016D01*
X74896866Y-118336770D01*
X74841310Y-118281680D01*
X74773520Y-118249822D01*
X74699787Y-118242191D01*
X74626407Y-118259780D01*
G36*
X75742756Y-118251918D02*
X75687299Y-118279568D01*
X75638352Y-118330480D01*
X75624871Y-118349338D01*
X75610186Y-118374015D01*
X75600658Y-118400816D01*
X75595207Y-118436587D01*
X75592753Y-118488169D01*
X75592214Y-118556267D01*
X75594648Y-118649588D01*
X75603106Y-118719657D01*
X75619326Y-118771931D01*
X75645046Y-118811869D01*
X75682003Y-118844929D01*
X75684718Y-118846886D01*
X75721140Y-118866908D01*
X75764998Y-118876815D01*
X75820776Y-118879257D01*
X75911452Y-118879257D01*
X75911490Y-118967283D01*
X75912334Y-119016308D01*
X75917476Y-119045065D01*
X75930913Y-119062311D01*
X75956642Y-119076808D01*
X75962821Y-119079769D01*
X75991736Y-119093648D01*
X76014124Y-119102414D01*
X76030771Y-119103171D01*
X76042464Y-119093023D01*
X76049990Y-119069073D01*
X76054134Y-119028426D01*
X76055685Y-118968186D01*
X76055429Y-118885455D01*
X76054151Y-118777339D01*
X76053752Y-118745000D01*
X76052315Y-118633524D01*
X76051028Y-118560603D01*
X75911529Y-118560603D01*
X75910745Y-118622499D01*
X75907260Y-118662997D01*
X75899376Y-118689708D01*
X75885395Y-118710244D01*
X75875903Y-118720260D01*
X75837096Y-118749567D01*
X75802737Y-118751952D01*
X75767284Y-118727750D01*
X75766386Y-118726857D01*
X75751961Y-118708153D01*
X75743187Y-118682732D01*
X75738761Y-118643584D01*
X75737382Y-118583697D01*
X75737357Y-118570430D01*
X75740688Y-118487901D01*
X75751531Y-118430691D01*
X75771160Y-118395766D01*
X75800850Y-118380094D01*
X75818009Y-118378514D01*
X75858734Y-118385926D01*
X75886668Y-118410330D01*
X75903483Y-118454980D01*
X75910850Y-118523130D01*
X75911529Y-118560603D01*
X76051028Y-118560603D01*
X76050792Y-118547245D01*
X76048823Y-118482333D01*
X76046050Y-118434958D01*
X76042112Y-118401290D01*
X76036651Y-118377498D01*
X76029308Y-118359753D01*
X76019723Y-118344224D01*
X76015613Y-118338381D01*
X75961095Y-118283185D01*
X75892164Y-118251890D01*
X75812428Y-118243165D01*
X75742756Y-118251918D01*
X75742756Y-118251918D01*
G37*
X75742756Y-118251918D02*
X75687299Y-118279568D01*
X75638352Y-118330480D01*
X75624871Y-118349338D01*
X75610186Y-118374015D01*
X75600658Y-118400816D01*
X75595207Y-118436587D01*
X75592753Y-118488169D01*
X75592214Y-118556267D01*
X75594648Y-118649588D01*
X75603106Y-118719657D01*
X75619326Y-118771931D01*
X75645046Y-118811869D01*
X75682003Y-118844929D01*
X75684718Y-118846886D01*
X75721140Y-118866908D01*
X75764998Y-118876815D01*
X75820776Y-118879257D01*
X75911452Y-118879257D01*
X75911490Y-118967283D01*
X75912334Y-119016308D01*
X75917476Y-119045065D01*
X75930913Y-119062311D01*
X75956642Y-119076808D01*
X75962821Y-119079769D01*
X75991736Y-119093648D01*
X76014124Y-119102414D01*
X76030771Y-119103171D01*
X76042464Y-119093023D01*
X76049990Y-119069073D01*
X76054134Y-119028426D01*
X76055685Y-118968186D01*
X76055429Y-118885455D01*
X76054151Y-118777339D01*
X76053752Y-118745000D01*
X76052315Y-118633524D01*
X76051028Y-118560603D01*
X75911529Y-118560603D01*
X75910745Y-118622499D01*
X75907260Y-118662997D01*
X75899376Y-118689708D01*
X75885395Y-118710244D01*
X75875903Y-118720260D01*
X75837096Y-118749567D01*
X75802737Y-118751952D01*
X75767284Y-118727750D01*
X75766386Y-118726857D01*
X75751961Y-118708153D01*
X75743187Y-118682732D01*
X75738761Y-118643584D01*
X75737382Y-118583697D01*
X75737357Y-118570430D01*
X75740688Y-118487901D01*
X75751531Y-118430691D01*
X75771160Y-118395766D01*
X75800850Y-118380094D01*
X75818009Y-118378514D01*
X75858734Y-118385926D01*
X75886668Y-118410330D01*
X75903483Y-118454980D01*
X75910850Y-118523130D01*
X75911529Y-118560603D01*
X76051028Y-118560603D01*
X76050792Y-118547245D01*
X76048823Y-118482333D01*
X76046050Y-118434958D01*
X76042112Y-118401290D01*
X76036651Y-118377498D01*
X76029308Y-118359753D01*
X76019723Y-118344224D01*
X76015613Y-118338381D01*
X75961095Y-118283185D01*
X75892164Y-118251890D01*
X75812428Y-118243165D01*
X75742756Y-118251918D01*
D18*
X74445880Y-97790095D02*
X75255404Y-97790095D01*
X75350642Y-97837714D01*
X75398261Y-97885333D01*
X75445880Y-97980571D01*
X75445880Y-98171047D01*
X75398261Y-98266285D01*
X75350642Y-98313904D01*
X75255404Y-98361523D01*
X74445880Y-98361523D01*
X75445880Y-99361523D02*
X75445880Y-98790095D01*
X75445880Y-99075809D02*
X74445880Y-99075809D01*
X74588738Y-98980571D01*
X74683976Y-98885333D01*
X74731595Y-98790095D01*
X99395642Y-95050428D02*
X99395642Y-93526428D01*
X98669928Y-95050428D02*
X98669928Y-93526428D01*
X97799071Y-95050428D01*
X97799071Y-93526428D01*
X97073357Y-94469857D02*
X95912214Y-94469857D01*
X94388214Y-95050428D02*
X95259071Y-95050428D01*
X94823642Y-95050428D02*
X94823642Y-93526428D01*
X94968785Y-93744142D01*
X95113928Y-93889285D01*
X95259071Y-93961857D01*
X93081928Y-94034428D02*
X93081928Y-95050428D01*
X93444785Y-93453857D02*
X93807642Y-94542428D01*
X92864214Y-94542428D01*
X117810642Y-95050428D02*
X117810642Y-93526428D01*
X117084928Y-95050428D02*
X117084928Y-93526428D01*
X116214071Y-95050428D01*
X116214071Y-93526428D01*
X115488357Y-94469857D02*
X114327214Y-94469857D01*
X112803214Y-95050428D02*
X113674071Y-95050428D01*
X113238642Y-95050428D02*
X113238642Y-93526428D01*
X113383785Y-93744142D01*
X113528928Y-93889285D01*
X113674071Y-93961857D01*
X111496928Y-94034428D02*
X111496928Y-95050428D01*
X111859785Y-93453857D02*
X112222642Y-94542428D01*
X111279214Y-94542428D01*
X144480642Y-95050428D02*
X144480642Y-93526428D01*
X143754928Y-95050428D02*
X143754928Y-93526428D01*
X142884071Y-95050428D01*
X142884071Y-93526428D01*
X142158357Y-94469857D02*
X140997214Y-94469857D01*
X139473214Y-95050428D02*
X140344071Y-95050428D01*
X139908642Y-95050428D02*
X139908642Y-93526428D01*
X140053785Y-93744142D01*
X140198928Y-93889285D01*
X140344071Y-93961857D01*
X138166928Y-94034428D02*
X138166928Y-95050428D01*
X138529785Y-93453857D02*
X138892642Y-94542428D01*
X137949214Y-94542428D01*
D19*
X126984880Y-99698023D02*
X126984880Y-98428023D01*
X127710595Y-99698023D01*
X127710595Y-98428023D01*
X128859642Y-98851357D02*
X128859642Y-99698023D01*
X128557261Y-98367547D02*
X128254880Y-99274690D01*
X129041071Y-99274690D01*
D18*
X162895642Y-95050428D02*
X162895642Y-93526428D01*
X162169928Y-95050428D02*
X162169928Y-93526428D01*
X161299071Y-95050428D01*
X161299071Y-93526428D01*
X160573357Y-94469857D02*
X159412214Y-94469857D01*
X157888214Y-95050428D02*
X158759071Y-95050428D01*
X158323642Y-95050428D02*
X158323642Y-93526428D01*
X158468785Y-93744142D01*
X158613928Y-93889285D01*
X158759071Y-93961857D01*
X156581928Y-94034428D02*
X156581928Y-95050428D01*
X156944785Y-93453857D02*
X157307642Y-94542428D01*
X156364214Y-94542428D01*
X189565642Y-95050428D02*
X189565642Y-93526428D01*
X188839928Y-95050428D02*
X188839928Y-93526428D01*
X187969071Y-95050428D01*
X187969071Y-93526428D01*
X187243357Y-94469857D02*
X186082214Y-94469857D01*
X184558214Y-95050428D02*
X185429071Y-95050428D01*
X184993642Y-95050428D02*
X184993642Y-93526428D01*
X185138785Y-93744142D01*
X185283928Y-93889285D01*
X185429071Y-93961857D01*
X183251928Y-94034428D02*
X183251928Y-95050428D01*
X183614785Y-93453857D02*
X183977642Y-94542428D01*
X183034214Y-94542428D01*
X207980642Y-95050428D02*
X207980642Y-93526428D01*
X207254928Y-95050428D02*
X207254928Y-93526428D01*
X206384071Y-95050428D01*
X206384071Y-93526428D01*
X205658357Y-94469857D02*
X204497214Y-94469857D01*
X202973214Y-95050428D02*
X203844071Y-95050428D01*
X203408642Y-95050428D02*
X203408642Y-93526428D01*
X203553785Y-93744142D01*
X203698928Y-93889285D01*
X203844071Y-93961857D01*
X201666928Y-94034428D02*
X201666928Y-95050428D01*
X202029785Y-93453857D02*
X202392642Y-94542428D01*
X201449214Y-94542428D01*
D19*
X172133380Y-99698023D02*
X172133380Y-98428023D01*
X172859095Y-99698023D01*
X172859095Y-98428023D01*
X173645285Y-98972309D02*
X173524333Y-98911833D01*
X173463857Y-98851357D01*
X173403380Y-98730404D01*
X173403380Y-98669928D01*
X173463857Y-98548976D01*
X173524333Y-98488500D01*
X173645285Y-98428023D01*
X173887190Y-98428023D01*
X174008142Y-98488500D01*
X174068619Y-98548976D01*
X174129095Y-98669928D01*
X174129095Y-98730404D01*
X174068619Y-98851357D01*
X174008142Y-98911833D01*
X173887190Y-98972309D01*
X173645285Y-98972309D01*
X173524333Y-99032785D01*
X173463857Y-99093261D01*
X173403380Y-99214214D01*
X173403380Y-99456119D01*
X173463857Y-99577071D01*
X173524333Y-99637547D01*
X173645285Y-99698023D01*
X173887190Y-99698023D01*
X174008142Y-99637547D01*
X174068619Y-99577071D01*
X174129095Y-99456119D01*
X174129095Y-99214214D01*
X174068619Y-99093261D01*
X174008142Y-99032785D01*
X173887190Y-98972309D01*
D18*
X88319666Y-110401642D02*
X88367285Y-110449261D01*
X88510142Y-110496880D01*
X88605380Y-110496880D01*
X88748238Y-110449261D01*
X88843476Y-110354023D01*
X88891095Y-110258785D01*
X88938714Y-110068309D01*
X88938714Y-109925452D01*
X88891095Y-109734976D01*
X88843476Y-109639738D01*
X88748238Y-109544500D01*
X88605380Y-109496880D01*
X88510142Y-109496880D01*
X88367285Y-109544500D01*
X88319666Y-109592119D01*
X87367285Y-110496880D02*
X87938714Y-110496880D01*
X87653000Y-110496880D02*
X87653000Y-109496880D01*
X87748238Y-109639738D01*
X87843476Y-109734976D01*
X87938714Y-109782595D01*
X83606642Y-111544833D02*
X83654261Y-111497214D01*
X83701880Y-111354357D01*
X83701880Y-111259119D01*
X83654261Y-111116261D01*
X83559023Y-111021023D01*
X83463785Y-110973404D01*
X83273309Y-110925785D01*
X83130452Y-110925785D01*
X82939976Y-110973404D01*
X82844738Y-111021023D01*
X82749500Y-111116261D01*
X82701880Y-111259119D01*
X82701880Y-111354357D01*
X82749500Y-111497214D01*
X82797119Y-111544833D01*
X83035214Y-112401976D02*
X83701880Y-112401976D01*
X82654261Y-112163880D02*
X83368547Y-111925785D01*
X83368547Y-112544833D01*
X87606166Y-89352380D02*
X87939500Y-88876190D01*
X88177595Y-89352380D02*
X88177595Y-88352380D01*
X87796642Y-88352380D01*
X87701404Y-88400000D01*
X87653785Y-88447619D01*
X87606166Y-88542857D01*
X87606166Y-88685714D01*
X87653785Y-88780952D01*
X87701404Y-88828571D01*
X87796642Y-88876190D01*
X88177595Y-88876190D01*
X87272833Y-88352380D02*
X86653785Y-88352380D01*
X86987119Y-88733333D01*
X86844261Y-88733333D01*
X86749023Y-88780952D01*
X86701404Y-88828571D01*
X86653785Y-88923809D01*
X86653785Y-89161904D01*
X86701404Y-89257142D01*
X86749023Y-89304761D01*
X86844261Y-89352380D01*
X87129976Y-89352380D01*
X87225214Y-89304761D01*
X87272833Y-89257142D01*
X150661666Y-89940380D02*
X150995000Y-89464190D01*
X151233095Y-89940380D02*
X151233095Y-88940380D01*
X150852142Y-88940380D01*
X150756904Y-88988000D01*
X150709285Y-89035619D01*
X150661666Y-89130857D01*
X150661666Y-89273714D01*
X150709285Y-89368952D01*
X150756904Y-89416571D01*
X150852142Y-89464190D01*
X151233095Y-89464190D01*
X150185476Y-89940380D02*
X149995000Y-89940380D01*
X149899761Y-89892761D01*
X149852142Y-89845142D01*
X149756904Y-89702285D01*
X149709285Y-89511809D01*
X149709285Y-89130857D01*
X149756904Y-89035619D01*
X149804523Y-88988000D01*
X149899761Y-88940380D01*
X150090238Y-88940380D01*
X150185476Y-88988000D01*
X150233095Y-89035619D01*
X150280714Y-89130857D01*
X150280714Y-89368952D01*
X150233095Y-89464190D01*
X150185476Y-89511809D01*
X150090238Y-89559428D01*
X149899761Y-89559428D01*
X149804523Y-89511809D01*
X149756904Y-89464190D01*
X149709285Y-89368952D01*
X89795880Y-100561142D02*
X89319690Y-100227809D01*
X89795880Y-99989714D02*
X88795880Y-99989714D01*
X88795880Y-100370666D01*
X88843500Y-100465904D01*
X88891119Y-100513523D01*
X88986357Y-100561142D01*
X89129214Y-100561142D01*
X89224452Y-100513523D01*
X89272071Y-100465904D01*
X89319690Y-100370666D01*
X89319690Y-99989714D01*
X89795880Y-101513523D02*
X89795880Y-100942095D01*
X89795880Y-101227809D02*
X88795880Y-101227809D01*
X88938738Y-101132571D01*
X89033976Y-101037333D01*
X89081595Y-100942095D01*
X89795880Y-102465904D02*
X89795880Y-101894476D01*
X89795880Y-102180190D02*
X88795880Y-102180190D01*
X88938738Y-102084952D01*
X89033976Y-101989714D01*
X89081595Y-101894476D01*
X89859380Y-104498142D02*
X89383190Y-104164809D01*
X89859380Y-103926714D02*
X88859380Y-103926714D01*
X88859380Y-104307666D01*
X88907000Y-104402904D01*
X88954619Y-104450523D01*
X89049857Y-104498142D01*
X89192714Y-104498142D01*
X89287952Y-104450523D01*
X89335571Y-104402904D01*
X89383190Y-104307666D01*
X89383190Y-103926714D01*
X89859380Y-105450523D02*
X89859380Y-104879095D01*
X89859380Y-105164809D02*
X88859380Y-105164809D01*
X89002238Y-105069571D01*
X89097476Y-104974333D01*
X89145095Y-104879095D01*
X88859380Y-106355285D02*
X88859380Y-105879095D01*
X89335571Y-105831476D01*
X89287952Y-105879095D01*
X89240333Y-105974333D01*
X89240333Y-106212428D01*
X89287952Y-106307666D01*
X89335571Y-106355285D01*
X89430809Y-106402904D01*
X89668904Y-106402904D01*
X89764142Y-106355285D01*
X89811761Y-106307666D01*
X89859380Y-106212428D01*
X89859380Y-105974333D01*
X89811761Y-105879095D01*
X89764142Y-105831476D01*
X70175357Y-113482380D02*
X70508690Y-113006190D01*
X70746785Y-113482380D02*
X70746785Y-112482380D01*
X70365833Y-112482380D01*
X70270595Y-112530000D01*
X70222976Y-112577619D01*
X70175357Y-112672857D01*
X70175357Y-112815714D01*
X70222976Y-112910952D01*
X70270595Y-112958571D01*
X70365833Y-113006190D01*
X70746785Y-113006190D01*
X69222976Y-113482380D02*
X69794404Y-113482380D01*
X69508690Y-113482380D02*
X69508690Y-112482380D01*
X69603928Y-112625238D01*
X69699166Y-112720476D01*
X69794404Y-112768095D01*
X68365833Y-112482380D02*
X68556309Y-112482380D01*
X68651547Y-112530000D01*
X68699166Y-112577619D01*
X68794404Y-112720476D01*
X68842023Y-112910952D01*
X68842023Y-113291904D01*
X68794404Y-113387142D01*
X68746785Y-113434761D01*
X68651547Y-113482380D01*
X68461071Y-113482380D01*
X68365833Y-113434761D01*
X68318214Y-113387142D01*
X68270595Y-113291904D01*
X68270595Y-113053809D01*
X68318214Y-112958571D01*
X68365833Y-112910952D01*
X68461071Y-112863333D01*
X68651547Y-112863333D01*
X68746785Y-112910952D01*
X68794404Y-112958571D01*
X68842023Y-113053809D01*
X120784857Y-118751880D02*
X121118190Y-118275690D01*
X121356285Y-118751880D02*
X121356285Y-117751880D01*
X120975333Y-117751880D01*
X120880095Y-117799500D01*
X120832476Y-117847119D01*
X120784857Y-117942357D01*
X120784857Y-118085214D01*
X120832476Y-118180452D01*
X120880095Y-118228071D01*
X120975333Y-118275690D01*
X121356285Y-118275690D01*
X120403904Y-117847119D02*
X120356285Y-117799500D01*
X120261047Y-117751880D01*
X120022952Y-117751880D01*
X119927714Y-117799500D01*
X119880095Y-117847119D01*
X119832476Y-117942357D01*
X119832476Y-118037595D01*
X119880095Y-118180452D01*
X120451523Y-118751880D01*
X119832476Y-118751880D01*
X118880095Y-118751880D02*
X119451523Y-118751880D01*
X119165809Y-118751880D02*
X119165809Y-117751880D01*
X119261047Y-117894738D01*
X119356285Y-117989976D01*
X119451523Y-118037595D01*
X215534833Y-112990380D02*
X215534833Y-113704666D01*
X215582452Y-113847523D01*
X215677690Y-113942761D01*
X215820547Y-113990380D01*
X215915785Y-113990380D01*
X215106261Y-113085619D02*
X215058642Y-113038000D01*
X214963404Y-112990380D01*
X214725309Y-112990380D01*
X214630071Y-113038000D01*
X214582452Y-113085619D01*
X214534833Y-113180857D01*
X214534833Y-113276095D01*
X214582452Y-113418952D01*
X215153880Y-113990380D01*
X214534833Y-113990380D01*
X216844380Y-102830380D02*
X216653904Y-102830380D01*
X216558666Y-102878000D01*
X216463428Y-102973238D01*
X216415809Y-103163714D01*
X216415809Y-103497047D01*
X216463428Y-103687523D01*
X216558666Y-103782761D01*
X216653904Y-103830380D01*
X216844380Y-103830380D01*
X216939619Y-103782761D01*
X217034857Y-103687523D01*
X217082476Y-103497047D01*
X217082476Y-103163714D01*
X217034857Y-102973238D01*
X216939619Y-102878000D01*
X216844380Y-102830380D01*
X215511047Y-103830380D02*
X215987238Y-103830380D01*
X215987238Y-102830380D01*
X215177714Y-103306571D02*
X214844380Y-103306571D01*
X214701523Y-103830380D02*
X215177714Y-103830380D01*
X215177714Y-102830380D01*
X214701523Y-102830380D01*
X214272952Y-103830380D02*
X214272952Y-102830380D01*
X214034857Y-102830380D01*
X213892000Y-102878000D01*
X213796761Y-102973238D01*
X213749142Y-103068476D01*
X213701523Y-103258952D01*
X213701523Y-103401809D01*
X213749142Y-103592285D01*
X213796761Y-103687523D01*
X213892000Y-103782761D01*
X214034857Y-103830380D01*
X214272952Y-103830380D01*
X227345833Y-112990380D02*
X227345833Y-113704666D01*
X227393452Y-113847523D01*
X227488690Y-113942761D01*
X227631547Y-113990380D01*
X227726785Y-113990380D01*
X226964880Y-112990380D02*
X226345833Y-112990380D01*
X226679166Y-113371333D01*
X226536309Y-113371333D01*
X226441071Y-113418952D01*
X226393452Y-113466571D01*
X226345833Y-113561809D01*
X226345833Y-113799904D01*
X226393452Y-113895142D01*
X226441071Y-113942761D01*
X226536309Y-113990380D01*
X226822023Y-113990380D01*
X226917261Y-113942761D01*
X226964880Y-113895142D01*
X230163285Y-103306571D02*
X229829952Y-103306571D01*
X229687095Y-103830380D02*
X230163285Y-103830380D01*
X230163285Y-102830380D01*
X229687095Y-102830380D01*
X229258523Y-103830380D02*
X229258523Y-102830380D01*
X228687095Y-103830380D01*
X228687095Y-102830380D01*
X227639476Y-103735142D02*
X227687095Y-103782761D01*
X227829952Y-103830380D01*
X227925190Y-103830380D01*
X228068047Y-103782761D01*
X228163285Y-103687523D01*
X228210904Y-103592285D01*
X228258523Y-103401809D01*
X228258523Y-103258952D01*
X228210904Y-103068476D01*
X228163285Y-102973238D01*
X228068047Y-102878000D01*
X227925190Y-102830380D01*
X227829952Y-102830380D01*
X227687095Y-102878000D01*
X227639476Y-102925619D01*
X227020428Y-102830380D02*
X226829952Y-102830380D01*
X226734714Y-102878000D01*
X226639476Y-102973238D01*
X226591857Y-103163714D01*
X226591857Y-103497047D01*
X226639476Y-103687523D01*
X226734714Y-103782761D01*
X226829952Y-103830380D01*
X227020428Y-103830380D01*
X227115666Y-103782761D01*
X227210904Y-103687523D01*
X227258523Y-103497047D01*
X227258523Y-103163714D01*
X227210904Y-102973238D01*
X227115666Y-102878000D01*
X227020428Y-102830380D01*
X226163285Y-103830380D02*
X226163285Y-102830380D01*
X225925190Y-102830380D01*
X225782333Y-102878000D01*
X225687095Y-102973238D01*
X225639476Y-103068476D01*
X225591857Y-103258952D01*
X225591857Y-103401809D01*
X225639476Y-103592285D01*
X225687095Y-103687523D01*
X225782333Y-103782761D01*
X225925190Y-103830380D01*
X226163285Y-103830380D01*
X225163285Y-103306571D02*
X224829952Y-103306571D01*
X224687095Y-103830380D02*
X225163285Y-103830380D01*
X225163285Y-102830380D01*
X224687095Y-102830380D01*
X223687095Y-103830380D02*
X224020428Y-103354190D01*
X224258523Y-103830380D02*
X224258523Y-102830380D01*
X223877571Y-102830380D01*
X223782333Y-102878000D01*
X223734714Y-102925619D01*
X223687095Y-103020857D01*
X223687095Y-103163714D01*
X223734714Y-103258952D01*
X223782333Y-103306571D01*
X223877571Y-103354190D01*
X224258523Y-103354190D01*
X203723833Y-112990380D02*
X203723833Y-113704666D01*
X203771452Y-113847523D01*
X203866690Y-113942761D01*
X204009547Y-113990380D01*
X204104785Y-113990380D01*
X202819071Y-113323714D02*
X202819071Y-113990380D01*
X203057166Y-112942761D02*
X203295261Y-113657047D01*
X202676214Y-113657047D01*
X205303214Y-103830380D02*
X205303214Y-102830380D01*
X204922261Y-102830380D01*
X204827023Y-102878000D01*
X204779404Y-102925619D01*
X204731785Y-103020857D01*
X204731785Y-103163714D01*
X204779404Y-103258952D01*
X204827023Y-103306571D01*
X204922261Y-103354190D01*
X205303214Y-103354190D01*
X203731785Y-103830380D02*
X204065119Y-103354190D01*
X204303214Y-103830380D02*
X204303214Y-102830380D01*
X203922261Y-102830380D01*
X203827023Y-102878000D01*
X203779404Y-102925619D01*
X203731785Y-103020857D01*
X203731785Y-103163714D01*
X203779404Y-103258952D01*
X203827023Y-103306571D01*
X203922261Y-103354190D01*
X204303214Y-103354190D01*
X203112738Y-102830380D02*
X202922261Y-102830380D01*
X202827023Y-102878000D01*
X202731785Y-102973238D01*
X202684166Y-103163714D01*
X202684166Y-103497047D01*
X202731785Y-103687523D01*
X202827023Y-103782761D01*
X202922261Y-103830380D01*
X203112738Y-103830380D01*
X203207976Y-103782761D01*
X203303214Y-103687523D01*
X203350833Y-103497047D01*
X203350833Y-103163714D01*
X203303214Y-102973238D01*
X203207976Y-102878000D01*
X203112738Y-102830380D01*
X201731785Y-102878000D02*
X201827023Y-102830380D01*
X201969880Y-102830380D01*
X202112738Y-102878000D01*
X202207976Y-102973238D01*
X202255595Y-103068476D01*
X202303214Y-103258952D01*
X202303214Y-103401809D01*
X202255595Y-103592285D01*
X202207976Y-103687523D01*
X202112738Y-103782761D01*
X201969880Y-103830380D01*
X201874642Y-103830380D01*
X201731785Y-103782761D01*
X201684166Y-103735142D01*
X201684166Y-103401809D01*
X201874642Y-103401809D01*
M02*
