%TF.GenerationSoftware,KiCad,Pcbnew,(5.0.1)-4*%
%TF.CreationDate,2019-04-12T07:50:59+02:00*%
%TF.ProjectId,nixie,6E697869652E6B696361645F70636200,rev?*%
%TF.SameCoordinates,Original*%
%TF.FileFunction,Soldermask,Top*%
%TF.FilePolarity,Negative*%
%FSLAX46Y46*%
G04 Gerber Fmt 4.6, Leading zero omitted, Abs format (unit mm)*
G04 Created by KiCad (PCBNEW (5.0.1)-4) date 12/04/2019 7:50:59*
%MOMM*%
%LPD*%
G01*
G04 APERTURE LIST*
%ADD10C,0.200000*%
%ADD11C,0.100000*%
G04 APERTURE END LIST*
D10*
X71251000Y-120249000D02*
G75*
G02X67251000Y-116249000I0J4000000D01*
G01*
X71251000Y-120249000D02*
X230251000Y-120249000D01*
X234251000Y-87249000D02*
X234251000Y-116249000D01*
X67251000Y-87249000D02*
G75*
G02X71251000Y-83249000I4000000J0D01*
G01*
X234251000Y-116249000D02*
G75*
G02X230251000Y-120249000I-4000000J0D01*
G01*
X67251000Y-87249000D02*
X67251000Y-116249000D01*
X71251000Y-83249000D02*
X230251000Y-83249000D01*
X230251000Y-83249000D02*
G75*
G02X234251000Y-87249000I0J-4000000D01*
G01*
D11*
G36*
X75432500Y-119064000D02*
X72522500Y-119064000D01*
X72522500Y-117664000D01*
X75432500Y-117664000D01*
X75432500Y-119064000D01*
X75432500Y-119064000D01*
G37*
G36*
X165265497Y-117017497D02*
X165318153Y-117033470D01*
X165366665Y-117059400D01*
X165409196Y-117094304D01*
X165444100Y-117136835D01*
X165470030Y-117185347D01*
X165486003Y-117238003D01*
X165492000Y-117298890D01*
X165492000Y-118099110D01*
X165486003Y-118159997D01*
X165470030Y-118212653D01*
X165444100Y-118261165D01*
X165409196Y-118303696D01*
X165366665Y-118338600D01*
X165318153Y-118364530D01*
X165265497Y-118380503D01*
X165204610Y-118386500D01*
X163979390Y-118386500D01*
X163918503Y-118380503D01*
X163865847Y-118364530D01*
X163817335Y-118338600D01*
X163774804Y-118303696D01*
X163739900Y-118261165D01*
X163713970Y-118212653D01*
X163697997Y-118159997D01*
X163692000Y-118099110D01*
X163692000Y-117298890D01*
X163697997Y-117238003D01*
X163713970Y-117185347D01*
X163739900Y-117136835D01*
X163774804Y-117094304D01*
X163817335Y-117059400D01*
X163865847Y-117033470D01*
X163918503Y-117017497D01*
X163979390Y-117011500D01*
X165204610Y-117011500D01*
X165265497Y-117017497D01*
X165265497Y-117017497D01*
G37*
G36*
X161899997Y-117017497D02*
X161952653Y-117033470D01*
X162001165Y-117059400D01*
X162043696Y-117094304D01*
X162078600Y-117136835D01*
X162104530Y-117185347D01*
X162120503Y-117238003D01*
X162126500Y-117298890D01*
X162126500Y-118099110D01*
X162120503Y-118159997D01*
X162104530Y-118212653D01*
X162078600Y-118261165D01*
X162043696Y-118303696D01*
X162001165Y-118338600D01*
X161952653Y-118364530D01*
X161899997Y-118380503D01*
X161839110Y-118386500D01*
X160613890Y-118386500D01*
X160553003Y-118380503D01*
X160500347Y-118364530D01*
X160451835Y-118338600D01*
X160409304Y-118303696D01*
X160374400Y-118261165D01*
X160348470Y-118212653D01*
X160332497Y-118159997D01*
X160326500Y-118099110D01*
X160326500Y-117298890D01*
X160332497Y-117238003D01*
X160348470Y-117185347D01*
X160374400Y-117136835D01*
X160409304Y-117094304D01*
X160451835Y-117059400D01*
X160500347Y-117033470D01*
X160553003Y-117017497D01*
X160613890Y-117011500D01*
X161839110Y-117011500D01*
X161899997Y-117017497D01*
X161899997Y-117017497D01*
G37*
G36*
X158534497Y-117017497D02*
X158587153Y-117033470D01*
X158635665Y-117059400D01*
X158678196Y-117094304D01*
X158713100Y-117136835D01*
X158739030Y-117185347D01*
X158755003Y-117238003D01*
X158761000Y-117298890D01*
X158761000Y-118099110D01*
X158755003Y-118159997D01*
X158739030Y-118212653D01*
X158713100Y-118261165D01*
X158678196Y-118303696D01*
X158635665Y-118338600D01*
X158587153Y-118364530D01*
X158534497Y-118380503D01*
X158473610Y-118386500D01*
X157248390Y-118386500D01*
X157187503Y-118380503D01*
X157134847Y-118364530D01*
X157086335Y-118338600D01*
X157043804Y-118303696D01*
X157008900Y-118261165D01*
X156982970Y-118212653D01*
X156966997Y-118159997D01*
X156961000Y-118099110D01*
X156961000Y-117298890D01*
X156966997Y-117238003D01*
X156982970Y-117185347D01*
X157008900Y-117136835D01*
X157043804Y-117094304D01*
X157086335Y-117059400D01*
X157134847Y-117033470D01*
X157187503Y-117017497D01*
X157248390Y-117011500D01*
X158473610Y-117011500D01*
X158534497Y-117017497D01*
X158534497Y-117017497D01*
G37*
G36*
X155168997Y-117017497D02*
X155221653Y-117033470D01*
X155270165Y-117059400D01*
X155312696Y-117094304D01*
X155347600Y-117136835D01*
X155373530Y-117185347D01*
X155389503Y-117238003D01*
X155395500Y-117298890D01*
X155395500Y-118099110D01*
X155389503Y-118159997D01*
X155373530Y-118212653D01*
X155347600Y-118261165D01*
X155312696Y-118303696D01*
X155270165Y-118338600D01*
X155221653Y-118364530D01*
X155168997Y-118380503D01*
X155108110Y-118386500D01*
X153882890Y-118386500D01*
X153822003Y-118380503D01*
X153769347Y-118364530D01*
X153720835Y-118338600D01*
X153678304Y-118303696D01*
X153643400Y-118261165D01*
X153617470Y-118212653D01*
X153601497Y-118159997D01*
X153595500Y-118099110D01*
X153595500Y-117298890D01*
X153601497Y-117238003D01*
X153617470Y-117185347D01*
X153643400Y-117136835D01*
X153678304Y-117094304D01*
X153720835Y-117059400D01*
X153769347Y-117033470D01*
X153822003Y-117017497D01*
X153882890Y-117011500D01*
X155108110Y-117011500D01*
X155168997Y-117017497D01*
X155168997Y-117017497D01*
G37*
G36*
X70078997Y-116602997D02*
X70131653Y-116618970D01*
X70180165Y-116644900D01*
X70222696Y-116679804D01*
X70257600Y-116722335D01*
X70283530Y-116770847D01*
X70299503Y-116823503D01*
X70305500Y-116884390D01*
X70305500Y-117684610D01*
X70299503Y-117745497D01*
X70283530Y-117798153D01*
X70257600Y-117846665D01*
X70222696Y-117889196D01*
X70180165Y-117924100D01*
X70131653Y-117950030D01*
X70078997Y-117966003D01*
X70018110Y-117972000D01*
X68792890Y-117972000D01*
X68732003Y-117966003D01*
X68679347Y-117950030D01*
X68630835Y-117924100D01*
X68588304Y-117889196D01*
X68553400Y-117846665D01*
X68527470Y-117798153D01*
X68511497Y-117745497D01*
X68505500Y-117684610D01*
X68505500Y-116884390D01*
X68511497Y-116823503D01*
X68527470Y-116770847D01*
X68553400Y-116722335D01*
X68588304Y-116679804D01*
X68630835Y-116644900D01*
X68679347Y-116618970D01*
X68732003Y-116602997D01*
X68792890Y-116597000D01*
X70018110Y-116597000D01*
X70078997Y-116602997D01*
X70078997Y-116602997D01*
G37*
G36*
X216600207Y-115289597D02*
X216677336Y-115297193D01*
X216805266Y-115336000D01*
X216875263Y-115357233D01*
X217057672Y-115454733D01*
X217217554Y-115585946D01*
X217348767Y-115745828D01*
X217446267Y-115928237D01*
X217446267Y-115928238D01*
X217506307Y-116126164D01*
X217526580Y-116332000D01*
X217506307Y-116537836D01*
X217470786Y-116654932D01*
X217446267Y-116735763D01*
X217348767Y-116918172D01*
X217217554Y-117078054D01*
X217057672Y-117209267D01*
X216875263Y-117306767D01*
X216809287Y-117326780D01*
X216677336Y-117366807D01*
X216600207Y-117374403D01*
X216523080Y-117382000D01*
X216419920Y-117382000D01*
X216342793Y-117374403D01*
X216265664Y-117366807D01*
X216133713Y-117326780D01*
X216067737Y-117306767D01*
X215885328Y-117209267D01*
X215725446Y-117078054D01*
X215594233Y-116918172D01*
X215496733Y-116735763D01*
X215472214Y-116654932D01*
X215436693Y-116537836D01*
X215416420Y-116332000D01*
X215436693Y-116126164D01*
X215496733Y-115928238D01*
X215496733Y-115928237D01*
X215594233Y-115745828D01*
X215725446Y-115585946D01*
X215885328Y-115454733D01*
X216067737Y-115357233D01*
X216137734Y-115336000D01*
X216265664Y-115297193D01*
X216342793Y-115289597D01*
X216419920Y-115282000D01*
X216523080Y-115282000D01*
X216600207Y-115289597D01*
X216600207Y-115289597D01*
G37*
G36*
X231872500Y-117382000D02*
X229772500Y-117382000D01*
X229772500Y-115282000D01*
X231872500Y-115282000D01*
X231872500Y-117382000D01*
X231872500Y-117382000D01*
G37*
G36*
X208250500Y-117382000D02*
X206150500Y-117382000D01*
X206150500Y-115282000D01*
X208250500Y-115282000D01*
X208250500Y-117382000D01*
X208250500Y-117382000D01*
G37*
G36*
X204789207Y-115289597D02*
X204866336Y-115297193D01*
X204994266Y-115336000D01*
X205064263Y-115357233D01*
X205246672Y-115454733D01*
X205406554Y-115585946D01*
X205537767Y-115745828D01*
X205635267Y-115928237D01*
X205635267Y-115928238D01*
X205695307Y-116126164D01*
X205715580Y-116332000D01*
X205695307Y-116537836D01*
X205659786Y-116654932D01*
X205635267Y-116735763D01*
X205537767Y-116918172D01*
X205406554Y-117078054D01*
X205246672Y-117209267D01*
X205064263Y-117306767D01*
X204998287Y-117326780D01*
X204866336Y-117366807D01*
X204789207Y-117374403D01*
X204712080Y-117382000D01*
X204608920Y-117382000D01*
X204531793Y-117374403D01*
X204454664Y-117366807D01*
X204322713Y-117326780D01*
X204256737Y-117306767D01*
X204074328Y-117209267D01*
X203914446Y-117078054D01*
X203783233Y-116918172D01*
X203685733Y-116735763D01*
X203661214Y-116654932D01*
X203625693Y-116537836D01*
X203605420Y-116332000D01*
X203625693Y-116126164D01*
X203685733Y-115928238D01*
X203685733Y-115928237D01*
X203783233Y-115745828D01*
X203914446Y-115585946D01*
X204074328Y-115454733D01*
X204256737Y-115357233D01*
X204326734Y-115336000D01*
X204454664Y-115297193D01*
X204531793Y-115289597D01*
X204608920Y-115282000D01*
X204712080Y-115282000D01*
X204789207Y-115289597D01*
X204789207Y-115289597D01*
G37*
G36*
X202249207Y-115289597D02*
X202326336Y-115297193D01*
X202454266Y-115336000D01*
X202524263Y-115357233D01*
X202706672Y-115454733D01*
X202866554Y-115585946D01*
X202997767Y-115745828D01*
X203095267Y-115928237D01*
X203095267Y-115928238D01*
X203155307Y-116126164D01*
X203175580Y-116332000D01*
X203155307Y-116537836D01*
X203119786Y-116654932D01*
X203095267Y-116735763D01*
X202997767Y-116918172D01*
X202866554Y-117078054D01*
X202706672Y-117209267D01*
X202524263Y-117306767D01*
X202458287Y-117326780D01*
X202326336Y-117366807D01*
X202249207Y-117374403D01*
X202172080Y-117382000D01*
X202068920Y-117382000D01*
X201991793Y-117374403D01*
X201914664Y-117366807D01*
X201782713Y-117326780D01*
X201716737Y-117306767D01*
X201534328Y-117209267D01*
X201374446Y-117078054D01*
X201243233Y-116918172D01*
X201145733Y-116735763D01*
X201121214Y-116654932D01*
X201085693Y-116537836D01*
X201065420Y-116332000D01*
X201085693Y-116126164D01*
X201145733Y-115928238D01*
X201145733Y-115928237D01*
X201243233Y-115745828D01*
X201374446Y-115585946D01*
X201534328Y-115454733D01*
X201716737Y-115357233D01*
X201786734Y-115336000D01*
X201914664Y-115297193D01*
X201991793Y-115289597D01*
X202068920Y-115282000D01*
X202172080Y-115282000D01*
X202249207Y-115289597D01*
X202249207Y-115289597D01*
G37*
G36*
X199709207Y-115289597D02*
X199786336Y-115297193D01*
X199914266Y-115336000D01*
X199984263Y-115357233D01*
X200166672Y-115454733D01*
X200326554Y-115585946D01*
X200457767Y-115745828D01*
X200555267Y-115928237D01*
X200555267Y-115928238D01*
X200615307Y-116126164D01*
X200635580Y-116332000D01*
X200615307Y-116537836D01*
X200579786Y-116654932D01*
X200555267Y-116735763D01*
X200457767Y-116918172D01*
X200326554Y-117078054D01*
X200166672Y-117209267D01*
X199984263Y-117306767D01*
X199918287Y-117326780D01*
X199786336Y-117366807D01*
X199709207Y-117374403D01*
X199632080Y-117382000D01*
X199528920Y-117382000D01*
X199451793Y-117374403D01*
X199374664Y-117366807D01*
X199242713Y-117326780D01*
X199176737Y-117306767D01*
X198994328Y-117209267D01*
X198834446Y-117078054D01*
X198703233Y-116918172D01*
X198605733Y-116735763D01*
X198581214Y-116654932D01*
X198545693Y-116537836D01*
X198525420Y-116332000D01*
X198545693Y-116126164D01*
X198605733Y-115928238D01*
X198605733Y-115928237D01*
X198703233Y-115745828D01*
X198834446Y-115585946D01*
X198994328Y-115454733D01*
X199176737Y-115357233D01*
X199246734Y-115336000D01*
X199374664Y-115297193D01*
X199451793Y-115289597D01*
X199528920Y-115282000D01*
X199632080Y-115282000D01*
X199709207Y-115289597D01*
X199709207Y-115289597D01*
G37*
G36*
X211520207Y-115289597D02*
X211597336Y-115297193D01*
X211725266Y-115336000D01*
X211795263Y-115357233D01*
X211977672Y-115454733D01*
X212137554Y-115585946D01*
X212268767Y-115745828D01*
X212366267Y-115928237D01*
X212366267Y-115928238D01*
X212426307Y-116126164D01*
X212446580Y-116332000D01*
X212426307Y-116537836D01*
X212390786Y-116654932D01*
X212366267Y-116735763D01*
X212268767Y-116918172D01*
X212137554Y-117078054D01*
X211977672Y-117209267D01*
X211795263Y-117306767D01*
X211729287Y-117326780D01*
X211597336Y-117366807D01*
X211520207Y-117374403D01*
X211443080Y-117382000D01*
X211339920Y-117382000D01*
X211262793Y-117374403D01*
X211185664Y-117366807D01*
X211053713Y-117326780D01*
X210987737Y-117306767D01*
X210805328Y-117209267D01*
X210645446Y-117078054D01*
X210514233Y-116918172D01*
X210416733Y-116735763D01*
X210392214Y-116654932D01*
X210356693Y-116537836D01*
X210336420Y-116332000D01*
X210356693Y-116126164D01*
X210416733Y-115928238D01*
X210416733Y-115928237D01*
X210514233Y-115745828D01*
X210645446Y-115585946D01*
X210805328Y-115454733D01*
X210987737Y-115357233D01*
X211057734Y-115336000D01*
X211185664Y-115297193D01*
X211262793Y-115289597D01*
X211339920Y-115282000D01*
X211443080Y-115282000D01*
X211520207Y-115289597D01*
X211520207Y-115289597D01*
G37*
G36*
X214060207Y-115289597D02*
X214137336Y-115297193D01*
X214265266Y-115336000D01*
X214335263Y-115357233D01*
X214517672Y-115454733D01*
X214677554Y-115585946D01*
X214808767Y-115745828D01*
X214906267Y-115928237D01*
X214906267Y-115928238D01*
X214966307Y-116126164D01*
X214986580Y-116332000D01*
X214966307Y-116537836D01*
X214930786Y-116654932D01*
X214906267Y-116735763D01*
X214808767Y-116918172D01*
X214677554Y-117078054D01*
X214517672Y-117209267D01*
X214335263Y-117306767D01*
X214269287Y-117326780D01*
X214137336Y-117366807D01*
X214060207Y-117374403D01*
X213983080Y-117382000D01*
X213879920Y-117382000D01*
X213802793Y-117374403D01*
X213725664Y-117366807D01*
X213593713Y-117326780D01*
X213527737Y-117306767D01*
X213345328Y-117209267D01*
X213185446Y-117078054D01*
X213054233Y-116918172D01*
X212956733Y-116735763D01*
X212932214Y-116654932D01*
X212896693Y-116537836D01*
X212876420Y-116332000D01*
X212896693Y-116126164D01*
X212956733Y-115928238D01*
X212956733Y-115928237D01*
X213054233Y-115745828D01*
X213185446Y-115585946D01*
X213345328Y-115454733D01*
X213527737Y-115357233D01*
X213597734Y-115336000D01*
X213725664Y-115297193D01*
X213802793Y-115289597D01*
X213879920Y-115282000D01*
X213983080Y-115282000D01*
X214060207Y-115289597D01*
X214060207Y-115289597D01*
G37*
G36*
X228411207Y-115289597D02*
X228488336Y-115297193D01*
X228616266Y-115336000D01*
X228686263Y-115357233D01*
X228868672Y-115454733D01*
X229028554Y-115585946D01*
X229159767Y-115745828D01*
X229257267Y-115928237D01*
X229257267Y-115928238D01*
X229317307Y-116126164D01*
X229337580Y-116332000D01*
X229317307Y-116537836D01*
X229281786Y-116654932D01*
X229257267Y-116735763D01*
X229159767Y-116918172D01*
X229028554Y-117078054D01*
X228868672Y-117209267D01*
X228686263Y-117306767D01*
X228620287Y-117326780D01*
X228488336Y-117366807D01*
X228411207Y-117374403D01*
X228334080Y-117382000D01*
X228230920Y-117382000D01*
X228153793Y-117374403D01*
X228076664Y-117366807D01*
X227944713Y-117326780D01*
X227878737Y-117306767D01*
X227696328Y-117209267D01*
X227536446Y-117078054D01*
X227405233Y-116918172D01*
X227307733Y-116735763D01*
X227283214Y-116654932D01*
X227247693Y-116537836D01*
X227227420Y-116332000D01*
X227247693Y-116126164D01*
X227307733Y-115928238D01*
X227307733Y-115928237D01*
X227405233Y-115745828D01*
X227536446Y-115585946D01*
X227696328Y-115454733D01*
X227878737Y-115357233D01*
X227948734Y-115336000D01*
X228076664Y-115297193D01*
X228153793Y-115289597D01*
X228230920Y-115282000D01*
X228334080Y-115282000D01*
X228411207Y-115289597D01*
X228411207Y-115289597D01*
G37*
G36*
X220061500Y-117382000D02*
X217961500Y-117382000D01*
X217961500Y-115282000D01*
X220061500Y-115282000D01*
X220061500Y-117382000D01*
X220061500Y-117382000D01*
G37*
G36*
X225871207Y-115289597D02*
X225948336Y-115297193D01*
X226076266Y-115336000D01*
X226146263Y-115357233D01*
X226328672Y-115454733D01*
X226488554Y-115585946D01*
X226619767Y-115745828D01*
X226717267Y-115928237D01*
X226717267Y-115928238D01*
X226777307Y-116126164D01*
X226797580Y-116332000D01*
X226777307Y-116537836D01*
X226741786Y-116654932D01*
X226717267Y-116735763D01*
X226619767Y-116918172D01*
X226488554Y-117078054D01*
X226328672Y-117209267D01*
X226146263Y-117306767D01*
X226080287Y-117326780D01*
X225948336Y-117366807D01*
X225871207Y-117374403D01*
X225794080Y-117382000D01*
X225690920Y-117382000D01*
X225613793Y-117374403D01*
X225536664Y-117366807D01*
X225404713Y-117326780D01*
X225338737Y-117306767D01*
X225156328Y-117209267D01*
X224996446Y-117078054D01*
X224865233Y-116918172D01*
X224767733Y-116735763D01*
X224743214Y-116654932D01*
X224707693Y-116537836D01*
X224687420Y-116332000D01*
X224707693Y-116126164D01*
X224767733Y-115928238D01*
X224767733Y-115928237D01*
X224865233Y-115745828D01*
X224996446Y-115585946D01*
X225156328Y-115454733D01*
X225338737Y-115357233D01*
X225408734Y-115336000D01*
X225536664Y-115297193D01*
X225613793Y-115289597D01*
X225690920Y-115282000D01*
X225794080Y-115282000D01*
X225871207Y-115289597D01*
X225871207Y-115289597D01*
G37*
G36*
X223331207Y-115289597D02*
X223408336Y-115297193D01*
X223536266Y-115336000D01*
X223606263Y-115357233D01*
X223788672Y-115454733D01*
X223948554Y-115585946D01*
X224079767Y-115745828D01*
X224177267Y-115928237D01*
X224177267Y-115928238D01*
X224237307Y-116126164D01*
X224257580Y-116332000D01*
X224237307Y-116537836D01*
X224201786Y-116654932D01*
X224177267Y-116735763D01*
X224079767Y-116918172D01*
X223948554Y-117078054D01*
X223788672Y-117209267D01*
X223606263Y-117306767D01*
X223540287Y-117326780D01*
X223408336Y-117366807D01*
X223331207Y-117374403D01*
X223254080Y-117382000D01*
X223150920Y-117382000D01*
X223073793Y-117374403D01*
X222996664Y-117366807D01*
X222864713Y-117326780D01*
X222798737Y-117306767D01*
X222616328Y-117209267D01*
X222456446Y-117078054D01*
X222325233Y-116918172D01*
X222227733Y-116735763D01*
X222203214Y-116654932D01*
X222167693Y-116537836D01*
X222147420Y-116332000D01*
X222167693Y-116126164D01*
X222227733Y-115928238D01*
X222227733Y-115928237D01*
X222325233Y-115745828D01*
X222456446Y-115585946D01*
X222616328Y-115454733D01*
X222798737Y-115357233D01*
X222868734Y-115336000D01*
X222996664Y-115297193D01*
X223073793Y-115289597D01*
X223150920Y-115282000D01*
X223254080Y-115282000D01*
X223331207Y-115289597D01*
X223331207Y-115289597D01*
G37*
G36*
X178132500Y-117236000D02*
X169212500Y-117236000D01*
X169212500Y-115336000D01*
X178132500Y-115336000D01*
X178132500Y-117236000D01*
X178132500Y-117236000D01*
G37*
G36*
X131650500Y-117236000D02*
X122730500Y-117236000D01*
X122730500Y-115336000D01*
X131650500Y-115336000D01*
X131650500Y-117236000D01*
X131650500Y-117236000D01*
G37*
G36*
X75428500Y-116524000D02*
X72518500Y-116524000D01*
X72518500Y-115124000D01*
X75428500Y-115124000D01*
X75428500Y-116524000D01*
X75428500Y-116524000D01*
G37*
G36*
X105912500Y-116524000D02*
X103002500Y-116524000D01*
X103002500Y-115124000D01*
X105912500Y-115124000D01*
X105912500Y-116524000D01*
X105912500Y-116524000D01*
G37*
G36*
X161899997Y-115142497D02*
X161952653Y-115158470D01*
X162001165Y-115184400D01*
X162043696Y-115219304D01*
X162078600Y-115261835D01*
X162104530Y-115310347D01*
X162120503Y-115363003D01*
X162126500Y-115423890D01*
X162126500Y-116224110D01*
X162120503Y-116284997D01*
X162104530Y-116337653D01*
X162078600Y-116386165D01*
X162043696Y-116428696D01*
X162001165Y-116463600D01*
X161952653Y-116489530D01*
X161899997Y-116505503D01*
X161839110Y-116511500D01*
X160613890Y-116511500D01*
X160553003Y-116505503D01*
X160500347Y-116489530D01*
X160451835Y-116463600D01*
X160409304Y-116428696D01*
X160374400Y-116386165D01*
X160348470Y-116337653D01*
X160332497Y-116284997D01*
X160326500Y-116224110D01*
X160326500Y-115423890D01*
X160332497Y-115363003D01*
X160348470Y-115310347D01*
X160374400Y-115261835D01*
X160409304Y-115219304D01*
X160451835Y-115184400D01*
X160500347Y-115158470D01*
X160553003Y-115142497D01*
X160613890Y-115136500D01*
X161839110Y-115136500D01*
X161899997Y-115142497D01*
X161899997Y-115142497D01*
G37*
G36*
X165265497Y-115142497D02*
X165318153Y-115158470D01*
X165366665Y-115184400D01*
X165409196Y-115219304D01*
X165444100Y-115261835D01*
X165470030Y-115310347D01*
X165486003Y-115363003D01*
X165492000Y-115423890D01*
X165492000Y-116224110D01*
X165486003Y-116284997D01*
X165470030Y-116337653D01*
X165444100Y-116386165D01*
X165409196Y-116428696D01*
X165366665Y-116463600D01*
X165318153Y-116489530D01*
X165265497Y-116505503D01*
X165204610Y-116511500D01*
X163979390Y-116511500D01*
X163918503Y-116505503D01*
X163865847Y-116489530D01*
X163817335Y-116463600D01*
X163774804Y-116428696D01*
X163739900Y-116386165D01*
X163713970Y-116337653D01*
X163697997Y-116284997D01*
X163692000Y-116224110D01*
X163692000Y-115423890D01*
X163697997Y-115363003D01*
X163713970Y-115310347D01*
X163739900Y-115261835D01*
X163774804Y-115219304D01*
X163817335Y-115184400D01*
X163865847Y-115158470D01*
X163918503Y-115142497D01*
X163979390Y-115136500D01*
X165204610Y-115136500D01*
X165265497Y-115142497D01*
X165265497Y-115142497D01*
G37*
G36*
X158534497Y-115142497D02*
X158587153Y-115158470D01*
X158635665Y-115184400D01*
X158678196Y-115219304D01*
X158713100Y-115261835D01*
X158739030Y-115310347D01*
X158755003Y-115363003D01*
X158761000Y-115423890D01*
X158761000Y-116224110D01*
X158755003Y-116284997D01*
X158739030Y-116337653D01*
X158713100Y-116386165D01*
X158678196Y-116428696D01*
X158635665Y-116463600D01*
X158587153Y-116489530D01*
X158534497Y-116505503D01*
X158473610Y-116511500D01*
X157248390Y-116511500D01*
X157187503Y-116505503D01*
X157134847Y-116489530D01*
X157086335Y-116463600D01*
X157043804Y-116428696D01*
X157008900Y-116386165D01*
X156982970Y-116337653D01*
X156966997Y-116284997D01*
X156961000Y-116224110D01*
X156961000Y-115423890D01*
X156966997Y-115363003D01*
X156982970Y-115310347D01*
X157008900Y-115261835D01*
X157043804Y-115219304D01*
X157086335Y-115184400D01*
X157134847Y-115158470D01*
X157187503Y-115142497D01*
X157248390Y-115136500D01*
X158473610Y-115136500D01*
X158534497Y-115142497D01*
X158534497Y-115142497D01*
G37*
G36*
X155168997Y-115142497D02*
X155221653Y-115158470D01*
X155270165Y-115184400D01*
X155312696Y-115219304D01*
X155347600Y-115261835D01*
X155373530Y-115310347D01*
X155389503Y-115363003D01*
X155395500Y-115423890D01*
X155395500Y-116224110D01*
X155389503Y-116284997D01*
X155373530Y-116337653D01*
X155347600Y-116386165D01*
X155312696Y-116428696D01*
X155270165Y-116463600D01*
X155221653Y-116489530D01*
X155168997Y-116505503D01*
X155108110Y-116511500D01*
X153882890Y-116511500D01*
X153822003Y-116505503D01*
X153769347Y-116489530D01*
X153720835Y-116463600D01*
X153678304Y-116428696D01*
X153643400Y-116386165D01*
X153617470Y-116337653D01*
X153601497Y-116284997D01*
X153595500Y-116224110D01*
X153595500Y-115423890D01*
X153601497Y-115363003D01*
X153617470Y-115310347D01*
X153643400Y-115261835D01*
X153678304Y-115219304D01*
X153720835Y-115184400D01*
X153769347Y-115158470D01*
X153822003Y-115142497D01*
X153882890Y-115136500D01*
X155108110Y-115136500D01*
X155168997Y-115142497D01*
X155168997Y-115142497D01*
G37*
G36*
X70078997Y-114727997D02*
X70131653Y-114743970D01*
X70180165Y-114769900D01*
X70222696Y-114804804D01*
X70257600Y-114847335D01*
X70283530Y-114895847D01*
X70299503Y-114948503D01*
X70305500Y-115009390D01*
X70305500Y-115809610D01*
X70299503Y-115870497D01*
X70283530Y-115923153D01*
X70257600Y-115971665D01*
X70222696Y-116014196D01*
X70180165Y-116049100D01*
X70131653Y-116075030D01*
X70078997Y-116091003D01*
X70018110Y-116097000D01*
X68792890Y-116097000D01*
X68732003Y-116091003D01*
X68679347Y-116075030D01*
X68630835Y-116049100D01*
X68588304Y-116014196D01*
X68553400Y-115971665D01*
X68527470Y-115923153D01*
X68511497Y-115870497D01*
X68505500Y-115809610D01*
X68505500Y-115009390D01*
X68511497Y-114948503D01*
X68527470Y-114895847D01*
X68553400Y-114847335D01*
X68588304Y-114804804D01*
X68630835Y-114769900D01*
X68679347Y-114743970D01*
X68732003Y-114727997D01*
X68792890Y-114722000D01*
X70018110Y-114722000D01*
X70078997Y-114727997D01*
X70078997Y-114727997D01*
G37*
G36*
X184124997Y-113999497D02*
X184177653Y-114015470D01*
X184226165Y-114041400D01*
X184268696Y-114076304D01*
X184303600Y-114118835D01*
X184329530Y-114167347D01*
X184345503Y-114220003D01*
X184351500Y-114280890D01*
X184351500Y-115081110D01*
X184345503Y-115141997D01*
X184329530Y-115194653D01*
X184303600Y-115243165D01*
X184268696Y-115285696D01*
X184226165Y-115320600D01*
X184177653Y-115346530D01*
X184124997Y-115362503D01*
X184064110Y-115368500D01*
X182838890Y-115368500D01*
X182778003Y-115362503D01*
X182725347Y-115346530D01*
X182676835Y-115320600D01*
X182634304Y-115285696D01*
X182599400Y-115243165D01*
X182573470Y-115194653D01*
X182557497Y-115141997D01*
X182551500Y-115081110D01*
X182551500Y-114280890D01*
X182557497Y-114220003D01*
X182573470Y-114167347D01*
X182599400Y-114118835D01*
X182634304Y-114076304D01*
X182676835Y-114041400D01*
X182725347Y-114015470D01*
X182778003Y-113999497D01*
X182838890Y-113993500D01*
X184064110Y-113993500D01*
X184124997Y-113999497D01*
X184124997Y-113999497D01*
G37*
G36*
X137721497Y-113730497D02*
X137774153Y-113746470D01*
X137822665Y-113772400D01*
X137865196Y-113807304D01*
X137900100Y-113849835D01*
X137926030Y-113898347D01*
X137942003Y-113951003D01*
X137948000Y-114011890D01*
X137948000Y-114812110D01*
X137942003Y-114872997D01*
X137926030Y-114925653D01*
X137900100Y-114974165D01*
X137865196Y-115016696D01*
X137822665Y-115051600D01*
X137774153Y-115077530D01*
X137721497Y-115093503D01*
X137660610Y-115099500D01*
X136435390Y-115099500D01*
X136374503Y-115093503D01*
X136321847Y-115077530D01*
X136273335Y-115051600D01*
X136230804Y-115016696D01*
X136195900Y-114974165D01*
X136169970Y-114925653D01*
X136153997Y-114872997D01*
X136148000Y-114812110D01*
X136148000Y-114011890D01*
X136153997Y-113951003D01*
X136169970Y-113898347D01*
X136195900Y-113849835D01*
X136230804Y-113807304D01*
X136273335Y-113772400D01*
X136321847Y-113746470D01*
X136374503Y-113730497D01*
X136435390Y-113724500D01*
X137660610Y-113724500D01*
X137721497Y-113730497D01*
X137721497Y-113730497D01*
G37*
G36*
X180672500Y-114696000D02*
X178772500Y-114696000D01*
X178772500Y-105776000D01*
X180672500Y-105776000D01*
X180672500Y-114696000D01*
X180672500Y-114696000D01*
G37*
G36*
X168572500Y-114696000D02*
X166672500Y-114696000D01*
X166672500Y-105776000D01*
X168572500Y-105776000D01*
X168572500Y-114696000D01*
X168572500Y-114696000D01*
G37*
G36*
X134190500Y-114696000D02*
X132290500Y-114696000D01*
X132290500Y-105776000D01*
X134190500Y-105776000D01*
X134190500Y-114696000D01*
X134190500Y-114696000D01*
G37*
G36*
X122090500Y-114696000D02*
X120190500Y-114696000D01*
X120190500Y-105776000D01*
X122090500Y-105776000D01*
X122090500Y-114696000D01*
X122090500Y-114696000D01*
G37*
G36*
X75432500Y-113984000D02*
X72522500Y-113984000D01*
X72522500Y-112584000D01*
X75432500Y-112584000D01*
X75432500Y-113984000D01*
X75432500Y-113984000D01*
G37*
G36*
X105912500Y-113984000D02*
X103002500Y-113984000D01*
X103002500Y-112584000D01*
X105912500Y-112584000D01*
X105912500Y-113984000D01*
X105912500Y-113984000D01*
G37*
G36*
X184124997Y-112124497D02*
X184177653Y-112140470D01*
X184226165Y-112166400D01*
X184268696Y-112201304D01*
X184303600Y-112243835D01*
X184329530Y-112292347D01*
X184345503Y-112345003D01*
X184351500Y-112405890D01*
X184351500Y-113206110D01*
X184345503Y-113266997D01*
X184329530Y-113319653D01*
X184303600Y-113368165D01*
X184268696Y-113410696D01*
X184226165Y-113445600D01*
X184177653Y-113471530D01*
X184124997Y-113487503D01*
X184064110Y-113493500D01*
X182838890Y-113493500D01*
X182778003Y-113487503D01*
X182725347Y-113471530D01*
X182676835Y-113445600D01*
X182634304Y-113410696D01*
X182599400Y-113368165D01*
X182573470Y-113319653D01*
X182557497Y-113266997D01*
X182551500Y-113206110D01*
X182551500Y-112405890D01*
X182557497Y-112345003D01*
X182573470Y-112292347D01*
X182599400Y-112243835D01*
X182634304Y-112201304D01*
X182676835Y-112166400D01*
X182725347Y-112140470D01*
X182778003Y-112124497D01*
X182838890Y-112118500D01*
X184064110Y-112118500D01*
X184124997Y-112124497D01*
X184124997Y-112124497D01*
G37*
G36*
X137721497Y-111855497D02*
X137774153Y-111871470D01*
X137822665Y-111897400D01*
X137865196Y-111932304D01*
X137900100Y-111974835D01*
X137926030Y-112023347D01*
X137942003Y-112076003D01*
X137948000Y-112136890D01*
X137948000Y-112937110D01*
X137942003Y-112997997D01*
X137926030Y-113050653D01*
X137900100Y-113099165D01*
X137865196Y-113141696D01*
X137822665Y-113176600D01*
X137774153Y-113202530D01*
X137721497Y-113218503D01*
X137660610Y-113224500D01*
X136435390Y-113224500D01*
X136374503Y-113218503D01*
X136321847Y-113202530D01*
X136273335Y-113176600D01*
X136230804Y-113141696D01*
X136195900Y-113099165D01*
X136169970Y-113050653D01*
X136153997Y-112997997D01*
X136148000Y-112937110D01*
X136148000Y-112136890D01*
X136153997Y-112076003D01*
X136169970Y-112023347D01*
X136195900Y-111974835D01*
X136230804Y-111932304D01*
X136273335Y-111897400D01*
X136321847Y-111871470D01*
X136374503Y-111855497D01*
X136435390Y-111849500D01*
X137660610Y-111849500D01*
X137721497Y-111855497D01*
X137721497Y-111855497D01*
G37*
G36*
X75428500Y-111444000D02*
X72518500Y-111444000D01*
X72518500Y-110044000D01*
X75428500Y-110044000D01*
X75428500Y-111444000D01*
X75428500Y-111444000D01*
G37*
G36*
X158844500Y-111140000D02*
X157644500Y-111140000D01*
X157644500Y-109840000D01*
X158844500Y-109840000D01*
X158844500Y-111140000D01*
X158844500Y-111140000D01*
G37*
G36*
X148367000Y-111124000D02*
X147167000Y-111124000D01*
X147167000Y-109824000D01*
X148367000Y-109824000D01*
X148367000Y-111124000D01*
X148367000Y-111124000D01*
G37*
G36*
X159794500Y-109140000D02*
X158594500Y-109140000D01*
X158594500Y-107840000D01*
X159794500Y-107840000D01*
X159794500Y-109140000D01*
X159794500Y-109140000D01*
G37*
G36*
X157894500Y-109140000D02*
X156694500Y-109140000D01*
X156694500Y-107840000D01*
X157894500Y-107840000D01*
X157894500Y-109140000D01*
X157894500Y-109140000D01*
G37*
G36*
X147417000Y-109124000D02*
X146217000Y-109124000D01*
X146217000Y-107824000D01*
X147417000Y-107824000D01*
X147417000Y-109124000D01*
X147417000Y-109124000D01*
G37*
G36*
X149317000Y-109124000D02*
X148117000Y-109124000D01*
X148117000Y-107824000D01*
X149317000Y-107824000D01*
X149317000Y-109124000D01*
X149317000Y-109124000D01*
G37*
G36*
X153637500Y-108314000D02*
X152437500Y-108314000D01*
X152437500Y-107014000D01*
X153637500Y-107014000D01*
X153637500Y-108314000D01*
X153637500Y-108314000D01*
G37*
G36*
X143348000Y-108266500D02*
X142148000Y-108266500D01*
X142148000Y-106966500D01*
X143348000Y-106966500D01*
X143348000Y-108266500D01*
X143348000Y-108266500D01*
G37*
G36*
X152687500Y-106314000D02*
X151487500Y-106314000D01*
X151487500Y-105014000D01*
X152687500Y-105014000D01*
X152687500Y-106314000D01*
X152687500Y-106314000D01*
G37*
G36*
X154587500Y-106314000D02*
X153387500Y-106314000D01*
X153387500Y-105014000D01*
X154587500Y-105014000D01*
X154587500Y-106314000D01*
X154587500Y-106314000D01*
G37*
G36*
X144298000Y-106266500D02*
X143098000Y-106266500D01*
X143098000Y-104966500D01*
X144298000Y-104966500D01*
X144298000Y-106266500D01*
X144298000Y-106266500D01*
G37*
G36*
X142398000Y-106266500D02*
X141198000Y-106266500D01*
X141198000Y-104966500D01*
X142398000Y-104966500D01*
X142398000Y-106266500D01*
X142398000Y-106266500D01*
G37*
G36*
X131650500Y-105136000D02*
X122730500Y-105136000D01*
X122730500Y-103236000D01*
X131650500Y-103236000D01*
X131650500Y-105136000D01*
X131650500Y-105136000D01*
G37*
G36*
X178132500Y-105136000D02*
X169212500Y-105136000D01*
X169212500Y-103236000D01*
X178132500Y-103236000D01*
X178132500Y-105136000D01*
X178132500Y-105136000D01*
G37*
G36*
X76873497Y-102935497D02*
X76926153Y-102951470D01*
X76974665Y-102977400D01*
X77017196Y-103012304D01*
X77052100Y-103054835D01*
X77078030Y-103103347D01*
X77094003Y-103156003D01*
X77100000Y-103216890D01*
X77100000Y-104017110D01*
X77094003Y-104077997D01*
X77078030Y-104130653D01*
X77052100Y-104179165D01*
X77017196Y-104221696D01*
X76974665Y-104256600D01*
X76926153Y-104282530D01*
X76873497Y-104298503D01*
X76812610Y-104304500D01*
X75587390Y-104304500D01*
X75526503Y-104298503D01*
X75473847Y-104282530D01*
X75425335Y-104256600D01*
X75382804Y-104221696D01*
X75347900Y-104179165D01*
X75321970Y-104130653D01*
X75305997Y-104077997D01*
X75300000Y-104017110D01*
X75300000Y-103216890D01*
X75305997Y-103156003D01*
X75321970Y-103103347D01*
X75347900Y-103054835D01*
X75382804Y-103012304D01*
X75425335Y-102977400D01*
X75473847Y-102951470D01*
X75526503Y-102935497D01*
X75587390Y-102929500D01*
X76812610Y-102929500D01*
X76873497Y-102935497D01*
X76873497Y-102935497D01*
G37*
G36*
X82461497Y-102920497D02*
X82514153Y-102936470D01*
X82562665Y-102962400D01*
X82605196Y-102997304D01*
X82640100Y-103039835D01*
X82666030Y-103088347D01*
X82682003Y-103141003D01*
X82688000Y-103201890D01*
X82688000Y-104002110D01*
X82682003Y-104062997D01*
X82666030Y-104115653D01*
X82640100Y-104164165D01*
X82605196Y-104206696D01*
X82562665Y-104241600D01*
X82514153Y-104267530D01*
X82461497Y-104283503D01*
X82400610Y-104289500D01*
X81175390Y-104289500D01*
X81114503Y-104283503D01*
X81061847Y-104267530D01*
X81013335Y-104241600D01*
X80970804Y-104206696D01*
X80935900Y-104164165D01*
X80909970Y-104115653D01*
X80893997Y-104062997D01*
X80888000Y-104002110D01*
X80888000Y-103201890D01*
X80893997Y-103141003D01*
X80909970Y-103088347D01*
X80935900Y-103039835D01*
X80970804Y-102997304D01*
X81013335Y-102962400D01*
X81061847Y-102936470D01*
X81114503Y-102920497D01*
X81175390Y-102914500D01*
X82400610Y-102914500D01*
X82461497Y-102920497D01*
X82461497Y-102920497D01*
G37*
G36*
X79667497Y-102920497D02*
X79720153Y-102936470D01*
X79768665Y-102962400D01*
X79811196Y-102997304D01*
X79846100Y-103039835D01*
X79872030Y-103088347D01*
X79888003Y-103141003D01*
X79894000Y-103201890D01*
X79894000Y-104002110D01*
X79888003Y-104062997D01*
X79872030Y-104115653D01*
X79846100Y-104164165D01*
X79811196Y-104206696D01*
X79768665Y-104241600D01*
X79720153Y-104267530D01*
X79667497Y-104283503D01*
X79606610Y-104289500D01*
X78381390Y-104289500D01*
X78320503Y-104283503D01*
X78267847Y-104267530D01*
X78219335Y-104241600D01*
X78176804Y-104206696D01*
X78141900Y-104164165D01*
X78115970Y-104115653D01*
X78099997Y-104062997D01*
X78094000Y-104002110D01*
X78094000Y-103201890D01*
X78099997Y-103141003D01*
X78115970Y-103088347D01*
X78141900Y-103039835D01*
X78176804Y-102997304D01*
X78219335Y-102962400D01*
X78267847Y-102936470D01*
X78320503Y-102920497D01*
X78381390Y-102914500D01*
X79606610Y-102914500D01*
X79667497Y-102920497D01*
X79667497Y-102920497D01*
G37*
G36*
X74206497Y-102920497D02*
X74259153Y-102936470D01*
X74307665Y-102962400D01*
X74350196Y-102997304D01*
X74385100Y-103039835D01*
X74411030Y-103088347D01*
X74427003Y-103141003D01*
X74433000Y-103201890D01*
X74433000Y-104002110D01*
X74427003Y-104062997D01*
X74411030Y-104115653D01*
X74385100Y-104164165D01*
X74350196Y-104206696D01*
X74307665Y-104241600D01*
X74259153Y-104267530D01*
X74206497Y-104283503D01*
X74145610Y-104289500D01*
X72920390Y-104289500D01*
X72859503Y-104283503D01*
X72806847Y-104267530D01*
X72758335Y-104241600D01*
X72715804Y-104206696D01*
X72680900Y-104164165D01*
X72654970Y-104115653D01*
X72638997Y-104062997D01*
X72633000Y-104002110D01*
X72633000Y-103201890D01*
X72638997Y-103141003D01*
X72654970Y-103088347D01*
X72680900Y-103039835D01*
X72715804Y-102997304D01*
X72758335Y-102962400D01*
X72806847Y-102936470D01*
X72859503Y-102920497D01*
X72920390Y-102914500D01*
X74145610Y-102914500D01*
X74206497Y-102920497D01*
X74206497Y-102920497D01*
G37*
G36*
X227137000Y-102559500D02*
X225237000Y-102559500D01*
X225237000Y-100159500D01*
X227137000Y-100159500D01*
X227137000Y-102559500D01*
X227137000Y-102559500D01*
G37*
G36*
X229437000Y-102559500D02*
X227537000Y-102559500D01*
X227537000Y-100159500D01*
X229437000Y-100159500D01*
X229437000Y-102559500D01*
X229437000Y-102559500D01*
G37*
G36*
X224837000Y-102559500D02*
X222937000Y-102559500D01*
X222937000Y-100159500D01*
X224837000Y-100159500D01*
X224837000Y-102559500D01*
X224837000Y-102559500D01*
G37*
G36*
X232388878Y-100721808D02*
X232434802Y-100735739D01*
X232477115Y-100758355D01*
X232514205Y-100788795D01*
X232544645Y-100825885D01*
X232567261Y-100868198D01*
X232581192Y-100914122D01*
X232586500Y-100968011D01*
X232586500Y-102264989D01*
X232581192Y-102318878D01*
X232567261Y-102364802D01*
X232544645Y-102407115D01*
X232514205Y-102444205D01*
X232477115Y-102474645D01*
X232434802Y-102497261D01*
X232388878Y-102511192D01*
X232334989Y-102516500D01*
X231088011Y-102516500D01*
X231034122Y-102511192D01*
X230988198Y-102497261D01*
X230945885Y-102474645D01*
X230908795Y-102444205D01*
X230878355Y-102407115D01*
X230855739Y-102364802D01*
X230841808Y-102318878D01*
X230836500Y-102264989D01*
X230836500Y-100968011D01*
X230841808Y-100914122D01*
X230855739Y-100868198D01*
X230878355Y-100825885D01*
X230908795Y-100788795D01*
X230945885Y-100758355D01*
X230988198Y-100735739D01*
X231034122Y-100721808D01*
X231088011Y-100716500D01*
X232334989Y-100716500D01*
X232388878Y-100721808D01*
X232388878Y-100721808D01*
G37*
G36*
X221339878Y-100674808D02*
X221385802Y-100688739D01*
X221428115Y-100711355D01*
X221465205Y-100741795D01*
X221495645Y-100778885D01*
X221518261Y-100821198D01*
X221532192Y-100867122D01*
X221537500Y-100921011D01*
X221537500Y-102217989D01*
X221532192Y-102271878D01*
X221518261Y-102317802D01*
X221495645Y-102360115D01*
X221465205Y-102397205D01*
X221428115Y-102427645D01*
X221385802Y-102450261D01*
X221339878Y-102464192D01*
X221285989Y-102469500D01*
X220039011Y-102469500D01*
X219985122Y-102464192D01*
X219939198Y-102450261D01*
X219896885Y-102427645D01*
X219859795Y-102397205D01*
X219829355Y-102360115D01*
X219806739Y-102317802D01*
X219792808Y-102271878D01*
X219787500Y-102217989D01*
X219787500Y-100921011D01*
X219792808Y-100867122D01*
X219806739Y-100821198D01*
X219829355Y-100778885D01*
X219859795Y-100741795D01*
X219896885Y-100711355D01*
X219939198Y-100688739D01*
X219985122Y-100674808D01*
X220039011Y-100669500D01*
X221285989Y-100669500D01*
X221339878Y-100674808D01*
X221339878Y-100674808D01*
G37*
G36*
X76873497Y-101060497D02*
X76926153Y-101076470D01*
X76974665Y-101102400D01*
X77017196Y-101137304D01*
X77052100Y-101179835D01*
X77078030Y-101228347D01*
X77094003Y-101281003D01*
X77100000Y-101341890D01*
X77100000Y-102142110D01*
X77094003Y-102202997D01*
X77078030Y-102255653D01*
X77052100Y-102304165D01*
X77017196Y-102346696D01*
X76974665Y-102381600D01*
X76926153Y-102407530D01*
X76873497Y-102423503D01*
X76812610Y-102429500D01*
X75587390Y-102429500D01*
X75526503Y-102423503D01*
X75473847Y-102407530D01*
X75425335Y-102381600D01*
X75382804Y-102346696D01*
X75347900Y-102304165D01*
X75321970Y-102255653D01*
X75305997Y-102202997D01*
X75300000Y-102142110D01*
X75300000Y-101341890D01*
X75305997Y-101281003D01*
X75321970Y-101228347D01*
X75347900Y-101179835D01*
X75382804Y-101137304D01*
X75425335Y-101102400D01*
X75473847Y-101076470D01*
X75526503Y-101060497D01*
X75587390Y-101054500D01*
X76812610Y-101054500D01*
X76873497Y-101060497D01*
X76873497Y-101060497D01*
G37*
G36*
X74206497Y-101045497D02*
X74259153Y-101061470D01*
X74307665Y-101087400D01*
X74350196Y-101122304D01*
X74385100Y-101164835D01*
X74411030Y-101213347D01*
X74427003Y-101266003D01*
X74433000Y-101326890D01*
X74433000Y-102127110D01*
X74427003Y-102187997D01*
X74411030Y-102240653D01*
X74385100Y-102289165D01*
X74350196Y-102331696D01*
X74307665Y-102366600D01*
X74259153Y-102392530D01*
X74206497Y-102408503D01*
X74145610Y-102414500D01*
X72920390Y-102414500D01*
X72859503Y-102408503D01*
X72806847Y-102392530D01*
X72758335Y-102366600D01*
X72715804Y-102331696D01*
X72680900Y-102289165D01*
X72654970Y-102240653D01*
X72638997Y-102187997D01*
X72633000Y-102127110D01*
X72633000Y-101326890D01*
X72638997Y-101266003D01*
X72654970Y-101213347D01*
X72680900Y-101164835D01*
X72715804Y-101122304D01*
X72758335Y-101087400D01*
X72806847Y-101061470D01*
X72859503Y-101045497D01*
X72920390Y-101039500D01*
X74145610Y-101039500D01*
X74206497Y-101045497D01*
X74206497Y-101045497D01*
G37*
G36*
X82461497Y-101045497D02*
X82514153Y-101061470D01*
X82562665Y-101087400D01*
X82605196Y-101122304D01*
X82640100Y-101164835D01*
X82666030Y-101213347D01*
X82682003Y-101266003D01*
X82688000Y-101326890D01*
X82688000Y-102127110D01*
X82682003Y-102187997D01*
X82666030Y-102240653D01*
X82640100Y-102289165D01*
X82605196Y-102331696D01*
X82562665Y-102366600D01*
X82514153Y-102392530D01*
X82461497Y-102408503D01*
X82400610Y-102414500D01*
X81175390Y-102414500D01*
X81114503Y-102408503D01*
X81061847Y-102392530D01*
X81013335Y-102366600D01*
X80970804Y-102331696D01*
X80935900Y-102289165D01*
X80909970Y-102240653D01*
X80893997Y-102187997D01*
X80888000Y-102127110D01*
X80888000Y-101326890D01*
X80893997Y-101266003D01*
X80909970Y-101213347D01*
X80935900Y-101164835D01*
X80970804Y-101122304D01*
X81013335Y-101087400D01*
X81061847Y-101061470D01*
X81114503Y-101045497D01*
X81175390Y-101039500D01*
X82400610Y-101039500D01*
X82461497Y-101045497D01*
X82461497Y-101045497D01*
G37*
G36*
X79667497Y-101045497D02*
X79720153Y-101061470D01*
X79768665Y-101087400D01*
X79811196Y-101122304D01*
X79846100Y-101164835D01*
X79872030Y-101213347D01*
X79888003Y-101266003D01*
X79894000Y-101326890D01*
X79894000Y-102127110D01*
X79888003Y-102187997D01*
X79872030Y-102240653D01*
X79846100Y-102289165D01*
X79811196Y-102331696D01*
X79768665Y-102366600D01*
X79720153Y-102392530D01*
X79667497Y-102408503D01*
X79606610Y-102414500D01*
X78381390Y-102414500D01*
X78320503Y-102408503D01*
X78267847Y-102392530D01*
X78219335Y-102366600D01*
X78176804Y-102331696D01*
X78141900Y-102289165D01*
X78115970Y-102240653D01*
X78099997Y-102187997D01*
X78094000Y-102127110D01*
X78094000Y-101326890D01*
X78099997Y-101266003D01*
X78115970Y-101213347D01*
X78141900Y-101164835D01*
X78176804Y-101122304D01*
X78219335Y-101087400D01*
X78267847Y-101061470D01*
X78320503Y-101045497D01*
X78381390Y-101039500D01*
X79606610Y-101039500D01*
X79667497Y-101045497D01*
X79667497Y-101045497D01*
G37*
G36*
X151044947Y-99443722D02*
X151308833Y-99553027D01*
X151546324Y-99711713D01*
X151748287Y-99913676D01*
X151906973Y-100151167D01*
X152016278Y-100415053D01*
X152072000Y-100695186D01*
X152072000Y-100980814D01*
X152016278Y-101260947D01*
X151906973Y-101524833D01*
X151748287Y-101762324D01*
X151546324Y-101964287D01*
X151308833Y-102122973D01*
X151044947Y-102232278D01*
X150764814Y-102288000D01*
X150479186Y-102288000D01*
X150199053Y-102232278D01*
X149935167Y-102122973D01*
X149697676Y-101964287D01*
X149495713Y-101762324D01*
X149337027Y-101524833D01*
X149227722Y-101260947D01*
X149172000Y-100980814D01*
X149172000Y-100695186D01*
X149227722Y-100415053D01*
X149337027Y-100151167D01*
X149495713Y-99913676D01*
X149697676Y-99711713D01*
X149935167Y-99553027D01*
X150199053Y-99443722D01*
X150479186Y-99388000D01*
X150764814Y-99388000D01*
X151044947Y-99443722D01*
X151044947Y-99443722D01*
G37*
G36*
X232388878Y-98021808D02*
X232434802Y-98035739D01*
X232477115Y-98058355D01*
X232514205Y-98088795D01*
X232544645Y-98125885D01*
X232567261Y-98168198D01*
X232581192Y-98214122D01*
X232586500Y-98268011D01*
X232586500Y-99564989D01*
X232581192Y-99618878D01*
X232567261Y-99664802D01*
X232544645Y-99707115D01*
X232514205Y-99744205D01*
X232477115Y-99774645D01*
X232434802Y-99797261D01*
X232388878Y-99811192D01*
X232334989Y-99816500D01*
X231088011Y-99816500D01*
X231034122Y-99811192D01*
X230988198Y-99797261D01*
X230945885Y-99774645D01*
X230908795Y-99744205D01*
X230878355Y-99707115D01*
X230855739Y-99664802D01*
X230841808Y-99618878D01*
X230836500Y-99564989D01*
X230836500Y-98268011D01*
X230841808Y-98214122D01*
X230855739Y-98168198D01*
X230878355Y-98125885D01*
X230908795Y-98088795D01*
X230945885Y-98058355D01*
X230988198Y-98035739D01*
X231034122Y-98021808D01*
X231088011Y-98016500D01*
X232334989Y-98016500D01*
X232388878Y-98021808D01*
X232388878Y-98021808D01*
G37*
G36*
X221339878Y-97974808D02*
X221385802Y-97988739D01*
X221428115Y-98011355D01*
X221465205Y-98041795D01*
X221495645Y-98078885D01*
X221518261Y-98121198D01*
X221532192Y-98167122D01*
X221537500Y-98221011D01*
X221537500Y-99517989D01*
X221532192Y-99571878D01*
X221518261Y-99617802D01*
X221495645Y-99660115D01*
X221465205Y-99697205D01*
X221428115Y-99727645D01*
X221385802Y-99750261D01*
X221339878Y-99764192D01*
X221285989Y-99769500D01*
X220039011Y-99769500D01*
X219985122Y-99764192D01*
X219939198Y-99750261D01*
X219896885Y-99727645D01*
X219859795Y-99697205D01*
X219829355Y-99660115D01*
X219806739Y-99617802D01*
X219792808Y-99571878D01*
X219787500Y-99517989D01*
X219787500Y-98221011D01*
X219792808Y-98167122D01*
X219806739Y-98121198D01*
X219829355Y-98078885D01*
X219859795Y-98041795D01*
X219896885Y-98011355D01*
X219939198Y-97988739D01*
X219985122Y-97974808D01*
X220039011Y-97969500D01*
X221285989Y-97969500D01*
X221339878Y-97974808D01*
X221339878Y-97974808D01*
G37*
G36*
X76411000Y-98109000D02*
X74311000Y-98109000D01*
X74311000Y-96709000D01*
X76411000Y-96709000D01*
X76411000Y-98109000D01*
X76411000Y-98109000D01*
G37*
G36*
X82711000Y-98109000D02*
X80611000Y-98109000D01*
X80611000Y-96709000D01*
X82711000Y-96709000D01*
X82711000Y-98109000D01*
X82711000Y-98109000D01*
G37*
G36*
X174844850Y-95541244D02*
X174982021Y-95598062D01*
X175105472Y-95680549D01*
X175210451Y-95785528D01*
X175292938Y-95908979D01*
X175349756Y-96046150D01*
X175378720Y-96191764D01*
X175378720Y-96340236D01*
X175349756Y-96485850D01*
X175292938Y-96623021D01*
X175210451Y-96746472D01*
X175105472Y-96851451D01*
X174982021Y-96933938D01*
X174844850Y-96990756D01*
X174699236Y-97019720D01*
X174550764Y-97019720D01*
X174405150Y-96990756D01*
X174267979Y-96933938D01*
X174144528Y-96851451D01*
X174039549Y-96746472D01*
X173957062Y-96623021D01*
X173900244Y-96485850D01*
X173871280Y-96340236D01*
X173871280Y-96191764D01*
X173900244Y-96046150D01*
X173957062Y-95908979D01*
X174039549Y-95785528D01*
X174144528Y-95680549D01*
X174267979Y-95598062D01*
X174405150Y-95541244D01*
X174550764Y-95512280D01*
X174699236Y-95512280D01*
X174844850Y-95541244D01*
X174844850Y-95541244D01*
G37*
G36*
X171669850Y-95541244D02*
X171807021Y-95598062D01*
X171930472Y-95680549D01*
X172035451Y-95785528D01*
X172117938Y-95908979D01*
X172174756Y-96046150D01*
X172203720Y-96191764D01*
X172203720Y-96340236D01*
X172174756Y-96485850D01*
X172117938Y-96623021D01*
X172035451Y-96746472D01*
X171930472Y-96851451D01*
X171807021Y-96933938D01*
X171669850Y-96990756D01*
X171524236Y-97019720D01*
X171375764Y-97019720D01*
X171230150Y-96990756D01*
X171092979Y-96933938D01*
X170969528Y-96851451D01*
X170864549Y-96746472D01*
X170782062Y-96623021D01*
X170725244Y-96485850D01*
X170696280Y-96340236D01*
X170696280Y-96191764D01*
X170725244Y-96046150D01*
X170782062Y-95908979D01*
X170864549Y-95785528D01*
X170969528Y-95680549D01*
X171092979Y-95598062D01*
X171230150Y-95541244D01*
X171375764Y-95512280D01*
X171524236Y-95512280D01*
X171669850Y-95541244D01*
X171669850Y-95541244D01*
G37*
G36*
X129759850Y-95541244D02*
X129897021Y-95598062D01*
X130020472Y-95680549D01*
X130125451Y-95785528D01*
X130207938Y-95908979D01*
X130264756Y-96046150D01*
X130293720Y-96191764D01*
X130293720Y-96340236D01*
X130264756Y-96485850D01*
X130207938Y-96623021D01*
X130125451Y-96746472D01*
X130020472Y-96851451D01*
X129897021Y-96933938D01*
X129759850Y-96990756D01*
X129614236Y-97019720D01*
X129465764Y-97019720D01*
X129320150Y-96990756D01*
X129182979Y-96933938D01*
X129059528Y-96851451D01*
X128954549Y-96746472D01*
X128872062Y-96623021D01*
X128815244Y-96485850D01*
X128786280Y-96340236D01*
X128786280Y-96191764D01*
X128815244Y-96046150D01*
X128872062Y-95908979D01*
X128954549Y-95785528D01*
X129059528Y-95680549D01*
X129182979Y-95598062D01*
X129320150Y-95541244D01*
X129465764Y-95512280D01*
X129614236Y-95512280D01*
X129759850Y-95541244D01*
X129759850Y-95541244D01*
G37*
G36*
X126584850Y-95541244D02*
X126722021Y-95598062D01*
X126845472Y-95680549D01*
X126950451Y-95785528D01*
X127032938Y-95908979D01*
X127089756Y-96046150D01*
X127118720Y-96191764D01*
X127118720Y-96340236D01*
X127089756Y-96485850D01*
X127032938Y-96623021D01*
X126950451Y-96746472D01*
X126845472Y-96851451D01*
X126722021Y-96933938D01*
X126584850Y-96990756D01*
X126439236Y-97019720D01*
X126290764Y-97019720D01*
X126145150Y-96990756D01*
X126007979Y-96933938D01*
X125884528Y-96851451D01*
X125779549Y-96746472D01*
X125697062Y-96623021D01*
X125640244Y-96485850D01*
X125611280Y-96340236D01*
X125611280Y-96191764D01*
X125640244Y-96046150D01*
X125697062Y-95908979D01*
X125779549Y-95785528D01*
X125884528Y-95680549D01*
X126007979Y-95598062D01*
X126145150Y-95541244D01*
X126290764Y-95512280D01*
X126439236Y-95512280D01*
X126584850Y-95541244D01*
X126584850Y-95541244D01*
G37*
G36*
X228287000Y-96259500D02*
X224087000Y-96259500D01*
X224087000Y-93859500D01*
X228287000Y-93859500D01*
X228287000Y-96259500D01*
X228287000Y-96259500D01*
G37*
G36*
X76411000Y-94309000D02*
X74311000Y-94309000D01*
X74311000Y-92909000D01*
X76411000Y-92909000D01*
X76411000Y-94309000D01*
X76411000Y-94309000D01*
G37*
G36*
X82711000Y-94309000D02*
X80611000Y-94309000D01*
X80611000Y-92909000D01*
X82711000Y-92909000D01*
X82711000Y-94309000D01*
X82711000Y-94309000D01*
G37*
G36*
X215306947Y-90553722D02*
X215570833Y-90663027D01*
X215808324Y-90821713D01*
X216010287Y-91023676D01*
X216168973Y-91261167D01*
X216278278Y-91525053D01*
X216334000Y-91805186D01*
X216334000Y-92090814D01*
X216278278Y-92370947D01*
X216168973Y-92634833D01*
X216010287Y-92872324D01*
X215808324Y-93074287D01*
X215570833Y-93232973D01*
X215306947Y-93342278D01*
X215026814Y-93398000D01*
X214741186Y-93398000D01*
X214461053Y-93342278D01*
X214197167Y-93232973D01*
X213959676Y-93074287D01*
X213757713Y-92872324D01*
X213599027Y-92634833D01*
X213489722Y-92370947D01*
X213434000Y-92090814D01*
X213434000Y-91805186D01*
X213489722Y-91525053D01*
X213599027Y-91261167D01*
X213757713Y-91023676D01*
X213959676Y-90821713D01*
X214197167Y-90663027D01*
X214461053Y-90553722D01*
X214741186Y-90498000D01*
X215026814Y-90498000D01*
X215306947Y-90553722D01*
X215306947Y-90553722D01*
G37*
G36*
X170835878Y-88871808D02*
X170881802Y-88885739D01*
X170924115Y-88908355D01*
X170961205Y-88938795D01*
X170991645Y-88975885D01*
X171014261Y-89018198D01*
X171028192Y-89064122D01*
X171033500Y-89118011D01*
X171033500Y-92364989D01*
X171028192Y-92418878D01*
X171014261Y-92464802D01*
X170991645Y-92507115D01*
X170961205Y-92544205D01*
X170924115Y-92574645D01*
X170881802Y-92597261D01*
X170835878Y-92611192D01*
X170781989Y-92616500D01*
X169535011Y-92616500D01*
X169481122Y-92611192D01*
X169435198Y-92597261D01*
X169392885Y-92574645D01*
X169355795Y-92544205D01*
X169325355Y-92507115D01*
X169302739Y-92464802D01*
X169288808Y-92418878D01*
X169283500Y-92364989D01*
X169283500Y-89118011D01*
X169288808Y-89064122D01*
X169302739Y-89018198D01*
X169325355Y-88975885D01*
X169355795Y-88938795D01*
X169392885Y-88908355D01*
X169435198Y-88885739D01*
X169481122Y-88871808D01*
X169535011Y-88866500D01*
X170781989Y-88866500D01*
X170835878Y-88871808D01*
X170835878Y-88871808D01*
G37*
G36*
X176635878Y-88871808D02*
X176681802Y-88885739D01*
X176724115Y-88908355D01*
X176761205Y-88938795D01*
X176791645Y-88975885D01*
X176814261Y-89018198D01*
X176828192Y-89064122D01*
X176833500Y-89118011D01*
X176833500Y-92364989D01*
X176828192Y-92418878D01*
X176814261Y-92464802D01*
X176791645Y-92507115D01*
X176761205Y-92544205D01*
X176724115Y-92574645D01*
X176681802Y-92597261D01*
X176635878Y-92611192D01*
X176581989Y-92616500D01*
X175335011Y-92616500D01*
X175281122Y-92611192D01*
X175235198Y-92597261D01*
X175192885Y-92574645D01*
X175155795Y-92544205D01*
X175125355Y-92507115D01*
X175102739Y-92464802D01*
X175088808Y-92418878D01*
X175083500Y-92364989D01*
X175083500Y-89118011D01*
X175088808Y-89064122D01*
X175102739Y-89018198D01*
X175125355Y-88975885D01*
X175155795Y-88938795D01*
X175192885Y-88908355D01*
X175235198Y-88885739D01*
X175281122Y-88871808D01*
X175335011Y-88866500D01*
X176581989Y-88866500D01*
X176635878Y-88871808D01*
X176635878Y-88871808D01*
G37*
G36*
X125750878Y-88871808D02*
X125796802Y-88885739D01*
X125839115Y-88908355D01*
X125876205Y-88938795D01*
X125906645Y-88975885D01*
X125929261Y-89018198D01*
X125943192Y-89064122D01*
X125948500Y-89118011D01*
X125948500Y-92364989D01*
X125943192Y-92418878D01*
X125929261Y-92464802D01*
X125906645Y-92507115D01*
X125876205Y-92544205D01*
X125839115Y-92574645D01*
X125796802Y-92597261D01*
X125750878Y-92611192D01*
X125696989Y-92616500D01*
X124450011Y-92616500D01*
X124396122Y-92611192D01*
X124350198Y-92597261D01*
X124307885Y-92574645D01*
X124270795Y-92544205D01*
X124240355Y-92507115D01*
X124217739Y-92464802D01*
X124203808Y-92418878D01*
X124198500Y-92364989D01*
X124198500Y-89118011D01*
X124203808Y-89064122D01*
X124217739Y-89018198D01*
X124240355Y-88975885D01*
X124270795Y-88938795D01*
X124307885Y-88908355D01*
X124350198Y-88885739D01*
X124396122Y-88871808D01*
X124450011Y-88866500D01*
X125696989Y-88866500D01*
X125750878Y-88871808D01*
X125750878Y-88871808D01*
G37*
G36*
X131550878Y-88871808D02*
X131596802Y-88885739D01*
X131639115Y-88908355D01*
X131676205Y-88938795D01*
X131706645Y-88975885D01*
X131729261Y-89018198D01*
X131743192Y-89064122D01*
X131748500Y-89118011D01*
X131748500Y-92364989D01*
X131743192Y-92418878D01*
X131729261Y-92464802D01*
X131706645Y-92507115D01*
X131676205Y-92544205D01*
X131639115Y-92574645D01*
X131596802Y-92597261D01*
X131550878Y-92611192D01*
X131496989Y-92616500D01*
X130250011Y-92616500D01*
X130196122Y-92611192D01*
X130150198Y-92597261D01*
X130107885Y-92574645D01*
X130070795Y-92544205D01*
X130040355Y-92507115D01*
X130017739Y-92464802D01*
X130003808Y-92418878D01*
X129998500Y-92364989D01*
X129998500Y-89118011D01*
X130003808Y-89064122D01*
X130017739Y-89018198D01*
X130040355Y-88975885D01*
X130070795Y-88938795D01*
X130107885Y-88908355D01*
X130150198Y-88885739D01*
X130196122Y-88871808D01*
X130250011Y-88866500D01*
X131496989Y-88866500D01*
X131550878Y-88871808D01*
X131550878Y-88871808D01*
G37*
G36*
X79772497Y-90418997D02*
X79825153Y-90434970D01*
X79873665Y-90460900D01*
X79916196Y-90495804D01*
X79951100Y-90538335D01*
X79977030Y-90586847D01*
X79993003Y-90639503D01*
X79999000Y-90700390D01*
X79999000Y-91925610D01*
X79993003Y-91986497D01*
X79977030Y-92039153D01*
X79951100Y-92087665D01*
X79916196Y-92130196D01*
X79873665Y-92165100D01*
X79825153Y-92191030D01*
X79772497Y-92207003D01*
X79711610Y-92213000D01*
X78911390Y-92213000D01*
X78850503Y-92207003D01*
X78797847Y-92191030D01*
X78749335Y-92165100D01*
X78706804Y-92130196D01*
X78671900Y-92087665D01*
X78645970Y-92039153D01*
X78629997Y-91986497D01*
X78624000Y-91925610D01*
X78624000Y-90700390D01*
X78629997Y-90639503D01*
X78645970Y-90586847D01*
X78671900Y-90538335D01*
X78706804Y-90495804D01*
X78749335Y-90460900D01*
X78797847Y-90434970D01*
X78850503Y-90418997D01*
X78911390Y-90413000D01*
X79711610Y-90413000D01*
X79772497Y-90418997D01*
X79772497Y-90418997D01*
G37*
G36*
X77897497Y-90418997D02*
X77950153Y-90434970D01*
X77998665Y-90460900D01*
X78041196Y-90495804D01*
X78076100Y-90538335D01*
X78102030Y-90586847D01*
X78118003Y-90639503D01*
X78124000Y-90700390D01*
X78124000Y-91925610D01*
X78118003Y-91986497D01*
X78102030Y-92039153D01*
X78076100Y-92087665D01*
X78041196Y-92130196D01*
X77998665Y-92165100D01*
X77950153Y-92191030D01*
X77897497Y-92207003D01*
X77836610Y-92213000D01*
X77036390Y-92213000D01*
X76975503Y-92207003D01*
X76922847Y-92191030D01*
X76874335Y-92165100D01*
X76831804Y-92130196D01*
X76796900Y-92087665D01*
X76770970Y-92039153D01*
X76754997Y-91986497D01*
X76749000Y-91925610D01*
X76749000Y-90700390D01*
X76754997Y-90639503D01*
X76770970Y-90586847D01*
X76796900Y-90538335D01*
X76831804Y-90495804D01*
X76874335Y-90460900D01*
X76922847Y-90434970D01*
X76975503Y-90418997D01*
X77036390Y-90413000D01*
X77836610Y-90413000D01*
X77897497Y-90418997D01*
X77897497Y-90418997D01*
G37*
G36*
X222592012Y-87154557D02*
X222701207Y-87199787D01*
X222799481Y-87265452D01*
X222883048Y-87349019D01*
X222948713Y-87447293D01*
X222993943Y-87556488D01*
X223017000Y-87672404D01*
X223017000Y-87790597D01*
X223008742Y-87832115D01*
X223006340Y-87856501D01*
X223008742Y-87880887D01*
X223015855Y-87904336D01*
X223027407Y-87925947D01*
X223035848Y-87936232D01*
X223019165Y-87941293D01*
X222997554Y-87952844D01*
X222978612Y-87968390D01*
X222963066Y-87987332D01*
X222951515Y-88008943D01*
X222948714Y-88015705D01*
X222883048Y-88113981D01*
X222799481Y-88197548D01*
X222701207Y-88263213D01*
X222592012Y-88308443D01*
X222507752Y-88325203D01*
X222476095Y-88331500D01*
X222476094Y-88331500D01*
X222473922Y-88331932D01*
X222453926Y-88333902D01*
X222430477Y-88341015D01*
X222408866Y-88352566D01*
X222389924Y-88368112D01*
X222374378Y-88387054D01*
X222362827Y-88408665D01*
X222355714Y-88432114D01*
X222353312Y-88456500D01*
X222355714Y-88480886D01*
X222392000Y-88663309D01*
X222392000Y-88899691D01*
X222345885Y-89131526D01*
X222255427Y-89349912D01*
X222124099Y-89546458D01*
X221956958Y-89713599D01*
X221760412Y-89844927D01*
X221542026Y-89935385D01*
X221310191Y-89981500D01*
X221073809Y-89981500D01*
X220841974Y-89935385D01*
X220623588Y-89844927D01*
X220427042Y-89713599D01*
X220259901Y-89546458D01*
X220128573Y-89349912D01*
X220038115Y-89131526D01*
X219992000Y-88899691D01*
X219992000Y-88663309D01*
X220038115Y-88431474D01*
X220128573Y-88213088D01*
X220259901Y-88016542D01*
X220427042Y-87849401D01*
X220623588Y-87718073D01*
X220841974Y-87627615D01*
X221073809Y-87581500D01*
X221310191Y-87581500D01*
X221542024Y-87627615D01*
X221542026Y-87627616D01*
X221542027Y-87627616D01*
X221663583Y-87677966D01*
X221687029Y-87685078D01*
X221711416Y-87687480D01*
X221735802Y-87685078D01*
X221759251Y-87677965D01*
X221780862Y-87666414D01*
X221799804Y-87650869D01*
X221815350Y-87631927D01*
X221826901Y-87610316D01*
X221834014Y-87586867D01*
X221840057Y-87556488D01*
X221885287Y-87447293D01*
X221950952Y-87349019D01*
X222034519Y-87265452D01*
X222132793Y-87199787D01*
X222241988Y-87154557D01*
X222357904Y-87131500D01*
X222476096Y-87131500D01*
X222592012Y-87154557D01*
X222592012Y-87154557D01*
G37*
G36*
X227592012Y-87154557D02*
X227701207Y-87199787D01*
X227799481Y-87265452D01*
X227883048Y-87349019D01*
X227948713Y-87447293D01*
X227993943Y-87556488D01*
X227999986Y-87586867D01*
X228007099Y-87610316D01*
X228018651Y-87631927D01*
X228034196Y-87650869D01*
X228053138Y-87666414D01*
X228074749Y-87677965D01*
X228098198Y-87685078D01*
X228122584Y-87687480D01*
X228146971Y-87685078D01*
X228170417Y-87677966D01*
X228291973Y-87627616D01*
X228291974Y-87627616D01*
X228291976Y-87627615D01*
X228523809Y-87581500D01*
X228760191Y-87581500D01*
X228992026Y-87627615D01*
X229210412Y-87718073D01*
X229406958Y-87849401D01*
X229574099Y-88016542D01*
X229705427Y-88213088D01*
X229795885Y-88431474D01*
X229842000Y-88663309D01*
X229842000Y-88899691D01*
X229795885Y-89131526D01*
X229705427Y-89349912D01*
X229574099Y-89546458D01*
X229406958Y-89713599D01*
X229210412Y-89844927D01*
X228992026Y-89935385D01*
X228760191Y-89981500D01*
X228523809Y-89981500D01*
X228291974Y-89935385D01*
X228073588Y-89844927D01*
X227877042Y-89713599D01*
X227709901Y-89546458D01*
X227578573Y-89349912D01*
X227488115Y-89131526D01*
X227442000Y-88899691D01*
X227442000Y-88663309D01*
X227478286Y-88480886D01*
X227480688Y-88456500D01*
X227478286Y-88432114D01*
X227471173Y-88408664D01*
X227459622Y-88387054D01*
X227444076Y-88368112D01*
X227425134Y-88352566D01*
X227403523Y-88341015D01*
X227380074Y-88333902D01*
X227360078Y-88331932D01*
X227357906Y-88331500D01*
X227357905Y-88331500D01*
X227326248Y-88325203D01*
X227241988Y-88308443D01*
X227132793Y-88263213D01*
X227034519Y-88197548D01*
X226950952Y-88113981D01*
X226885286Y-88015705D01*
X226882485Y-88008943D01*
X226870934Y-87987332D01*
X226855388Y-87968390D01*
X226836446Y-87952844D01*
X226814835Y-87941293D01*
X226798152Y-87936232D01*
X226806594Y-87925946D01*
X226818145Y-87904335D01*
X226825258Y-87880886D01*
X226827660Y-87856500D01*
X226825258Y-87832115D01*
X226817000Y-87790597D01*
X226817000Y-87672404D01*
X226840057Y-87556488D01*
X226885287Y-87447293D01*
X226950952Y-87349019D01*
X227034519Y-87265452D01*
X227132793Y-87199787D01*
X227241988Y-87154557D01*
X227357904Y-87131500D01*
X227476096Y-87131500D01*
X227592012Y-87154557D01*
X227592012Y-87154557D01*
G37*
G36*
X226663066Y-87987332D02*
X226651515Y-88008943D01*
X226644402Y-88032392D01*
X226642000Y-88056778D01*
X226642000Y-89681500D01*
X223192000Y-89681500D01*
X223192000Y-88056778D01*
X223189598Y-88032392D01*
X223182485Y-88008943D01*
X223170934Y-87987332D01*
X223166148Y-87981500D01*
X226667852Y-87981500D01*
X226663066Y-87987332D01*
X226663066Y-87987332D01*
G37*
G36*
X199157378Y-84998308D02*
X199203302Y-85012239D01*
X199245615Y-85034855D01*
X199282705Y-85065295D01*
X199313145Y-85102385D01*
X199335761Y-85144698D01*
X199349692Y-85190622D01*
X199355000Y-85244511D01*
X199355000Y-88491489D01*
X199349692Y-88545378D01*
X199335761Y-88591302D01*
X199313145Y-88633615D01*
X199282705Y-88670705D01*
X199245615Y-88701145D01*
X199203302Y-88723761D01*
X199157378Y-88737692D01*
X199103489Y-88743000D01*
X197856511Y-88743000D01*
X197802622Y-88737692D01*
X197756698Y-88723761D01*
X197714385Y-88701145D01*
X197677295Y-88670705D01*
X197646855Y-88633615D01*
X197624239Y-88591302D01*
X197610308Y-88545378D01*
X197605000Y-88491489D01*
X197605000Y-85244511D01*
X197610308Y-85190622D01*
X197624239Y-85144698D01*
X197646855Y-85102385D01*
X197677295Y-85065295D01*
X197714385Y-85034855D01*
X197756698Y-85012239D01*
X197802622Y-84998308D01*
X197856511Y-84993000D01*
X199103489Y-84993000D01*
X199157378Y-84998308D01*
X199157378Y-84998308D01*
G37*
G36*
X83459878Y-84998308D02*
X83505802Y-85012239D01*
X83548115Y-85034855D01*
X83585205Y-85065295D01*
X83615645Y-85102385D01*
X83638261Y-85144698D01*
X83652192Y-85190622D01*
X83657500Y-85244511D01*
X83657500Y-88491489D01*
X83652192Y-88545378D01*
X83638261Y-88591302D01*
X83615645Y-88633615D01*
X83585205Y-88670705D01*
X83548115Y-88701145D01*
X83505802Y-88723761D01*
X83459878Y-88737692D01*
X83405989Y-88743000D01*
X82159011Y-88743000D01*
X82105122Y-88737692D01*
X82059198Y-88723761D01*
X82016885Y-88701145D01*
X81979795Y-88670705D01*
X81949355Y-88633615D01*
X81926739Y-88591302D01*
X81912808Y-88545378D01*
X81907500Y-88491489D01*
X81907500Y-85244511D01*
X81912808Y-85190622D01*
X81926739Y-85144698D01*
X81949355Y-85102385D01*
X81979795Y-85065295D01*
X82016885Y-85034855D01*
X82059198Y-85012239D01*
X82105122Y-84998308D01*
X82159011Y-84993000D01*
X83405989Y-84993000D01*
X83459878Y-84998308D01*
X83459878Y-84998308D01*
G37*
G36*
X89259878Y-84998308D02*
X89305802Y-85012239D01*
X89348115Y-85034855D01*
X89385205Y-85065295D01*
X89415645Y-85102385D01*
X89438261Y-85144698D01*
X89452192Y-85190622D01*
X89457500Y-85244511D01*
X89457500Y-88491489D01*
X89452192Y-88545378D01*
X89438261Y-88591302D01*
X89415645Y-88633615D01*
X89385205Y-88670705D01*
X89348115Y-88701145D01*
X89305802Y-88723761D01*
X89259878Y-88737692D01*
X89205989Y-88743000D01*
X87959011Y-88743000D01*
X87905122Y-88737692D01*
X87859198Y-88723761D01*
X87816885Y-88701145D01*
X87779795Y-88670705D01*
X87749355Y-88633615D01*
X87726739Y-88591302D01*
X87712808Y-88545378D01*
X87707500Y-88491489D01*
X87707500Y-85244511D01*
X87712808Y-85190622D01*
X87726739Y-85144698D01*
X87749355Y-85102385D01*
X87779795Y-85065295D01*
X87816885Y-85034855D01*
X87859198Y-85012239D01*
X87905122Y-84998308D01*
X87959011Y-84993000D01*
X89205989Y-84993000D01*
X89259878Y-84998308D01*
X89259878Y-84998308D01*
G37*
G36*
X103187378Y-84998308D02*
X103233302Y-85012239D01*
X103275615Y-85034855D01*
X103312705Y-85065295D01*
X103343145Y-85102385D01*
X103365761Y-85144698D01*
X103379692Y-85190622D01*
X103385000Y-85244511D01*
X103385000Y-88491489D01*
X103379692Y-88545378D01*
X103365761Y-88591302D01*
X103343145Y-88633615D01*
X103312705Y-88670705D01*
X103275615Y-88701145D01*
X103233302Y-88723761D01*
X103187378Y-88737692D01*
X103133489Y-88743000D01*
X101886511Y-88743000D01*
X101832622Y-88737692D01*
X101786698Y-88723761D01*
X101744385Y-88701145D01*
X101707295Y-88670705D01*
X101676855Y-88633615D01*
X101654239Y-88591302D01*
X101640308Y-88545378D01*
X101635000Y-88491489D01*
X101635000Y-85244511D01*
X101640308Y-85190622D01*
X101654239Y-85144698D01*
X101676855Y-85102385D01*
X101707295Y-85065295D01*
X101744385Y-85034855D01*
X101786698Y-85012239D01*
X101832622Y-84998308D01*
X101886511Y-84993000D01*
X103133489Y-84993000D01*
X103187378Y-84998308D01*
X103187378Y-84998308D01*
G37*
G36*
X108987378Y-84998308D02*
X109033302Y-85012239D01*
X109075615Y-85034855D01*
X109112705Y-85065295D01*
X109143145Y-85102385D01*
X109165761Y-85144698D01*
X109179692Y-85190622D01*
X109185000Y-85244511D01*
X109185000Y-88491489D01*
X109179692Y-88545378D01*
X109165761Y-88591302D01*
X109143145Y-88633615D01*
X109112705Y-88670705D01*
X109075615Y-88701145D01*
X109033302Y-88723761D01*
X108987378Y-88737692D01*
X108933489Y-88743000D01*
X107686511Y-88743000D01*
X107632622Y-88737692D01*
X107586698Y-88723761D01*
X107544385Y-88701145D01*
X107507295Y-88670705D01*
X107476855Y-88633615D01*
X107454239Y-88591302D01*
X107440308Y-88545378D01*
X107435000Y-88491489D01*
X107435000Y-85244511D01*
X107440308Y-85190622D01*
X107454239Y-85144698D01*
X107476855Y-85102385D01*
X107507295Y-85065295D01*
X107544385Y-85034855D01*
X107586698Y-85012239D01*
X107632622Y-84998308D01*
X107686511Y-84993000D01*
X108933489Y-84993000D01*
X108987378Y-84998308D01*
X108987378Y-84998308D01*
G37*
G36*
X154072378Y-84998308D02*
X154118302Y-85012239D01*
X154160615Y-85034855D01*
X154197705Y-85065295D01*
X154228145Y-85102385D01*
X154250761Y-85144698D01*
X154264692Y-85190622D01*
X154270000Y-85244511D01*
X154270000Y-88491489D01*
X154264692Y-88545378D01*
X154250761Y-88591302D01*
X154228145Y-88633615D01*
X154197705Y-88670705D01*
X154160615Y-88701145D01*
X154118302Y-88723761D01*
X154072378Y-88737692D01*
X154018489Y-88743000D01*
X152771511Y-88743000D01*
X152717622Y-88737692D01*
X152671698Y-88723761D01*
X152629385Y-88701145D01*
X152592295Y-88670705D01*
X152561855Y-88633615D01*
X152539239Y-88591302D01*
X152525308Y-88545378D01*
X152520000Y-88491489D01*
X152520000Y-85244511D01*
X152525308Y-85190622D01*
X152539239Y-85144698D01*
X152561855Y-85102385D01*
X152592295Y-85065295D01*
X152629385Y-85034855D01*
X152671698Y-85012239D01*
X152717622Y-84998308D01*
X152771511Y-84993000D01*
X154018489Y-84993000D01*
X154072378Y-84998308D01*
X154072378Y-84998308D01*
G37*
G36*
X193357378Y-84998308D02*
X193403302Y-85012239D01*
X193445615Y-85034855D01*
X193482705Y-85065295D01*
X193513145Y-85102385D01*
X193535761Y-85144698D01*
X193549692Y-85190622D01*
X193555000Y-85244511D01*
X193555000Y-88491489D01*
X193549692Y-88545378D01*
X193535761Y-88591302D01*
X193513145Y-88633615D01*
X193482705Y-88670705D01*
X193445615Y-88701145D01*
X193403302Y-88723761D01*
X193357378Y-88737692D01*
X193303489Y-88743000D01*
X192056511Y-88743000D01*
X192002622Y-88737692D01*
X191956698Y-88723761D01*
X191914385Y-88701145D01*
X191877295Y-88670705D01*
X191846855Y-88633615D01*
X191824239Y-88591302D01*
X191810308Y-88545378D01*
X191805000Y-88491489D01*
X191805000Y-85244511D01*
X191810308Y-85190622D01*
X191824239Y-85144698D01*
X191846855Y-85102385D01*
X191877295Y-85065295D01*
X191914385Y-85034855D01*
X191956698Y-85012239D01*
X192002622Y-84998308D01*
X192056511Y-84993000D01*
X193303489Y-84993000D01*
X193357378Y-84998308D01*
X193357378Y-84998308D01*
G37*
G36*
X148272378Y-84998308D02*
X148318302Y-85012239D01*
X148360615Y-85034855D01*
X148397705Y-85065295D01*
X148428145Y-85102385D01*
X148450761Y-85144698D01*
X148464692Y-85190622D01*
X148470000Y-85244511D01*
X148470000Y-88491489D01*
X148464692Y-88545378D01*
X148450761Y-88591302D01*
X148428145Y-88633615D01*
X148397705Y-88670705D01*
X148360615Y-88701145D01*
X148318302Y-88723761D01*
X148272378Y-88737692D01*
X148218489Y-88743000D01*
X146971511Y-88743000D01*
X146917622Y-88737692D01*
X146871698Y-88723761D01*
X146829385Y-88701145D01*
X146792295Y-88670705D01*
X146761855Y-88633615D01*
X146739239Y-88591302D01*
X146725308Y-88545378D01*
X146720000Y-88491489D01*
X146720000Y-85244511D01*
X146725308Y-85190622D01*
X146739239Y-85144698D01*
X146761855Y-85102385D01*
X146792295Y-85065295D01*
X146829385Y-85034855D01*
X146871698Y-85012239D01*
X146917622Y-84998308D01*
X146971511Y-84993000D01*
X148218489Y-84993000D01*
X148272378Y-84998308D01*
X148272378Y-84998308D01*
G37*
G36*
X218143878Y-84807808D02*
X218189802Y-84821739D01*
X218232115Y-84844355D01*
X218269205Y-84874795D01*
X218299645Y-84911885D01*
X218322261Y-84954198D01*
X218336192Y-85000122D01*
X218341500Y-85054011D01*
X218341500Y-88300989D01*
X218336192Y-88354878D01*
X218322261Y-88400802D01*
X218299645Y-88443115D01*
X218269205Y-88480205D01*
X218232115Y-88510645D01*
X218189802Y-88533261D01*
X218143878Y-88547192D01*
X218089989Y-88552500D01*
X216843011Y-88552500D01*
X216789122Y-88547192D01*
X216743198Y-88533261D01*
X216700885Y-88510645D01*
X216663795Y-88480205D01*
X216633355Y-88443115D01*
X216610739Y-88400802D01*
X216596808Y-88354878D01*
X216591500Y-88300989D01*
X216591500Y-85054011D01*
X216596808Y-85000122D01*
X216610739Y-84954198D01*
X216633355Y-84911885D01*
X216663795Y-84874795D01*
X216700885Y-84844355D01*
X216743198Y-84821739D01*
X216789122Y-84807808D01*
X216843011Y-84802500D01*
X218089989Y-84802500D01*
X218143878Y-84807808D01*
X218143878Y-84807808D01*
G37*
G36*
X212343878Y-84807808D02*
X212389802Y-84821739D01*
X212432115Y-84844355D01*
X212469205Y-84874795D01*
X212499645Y-84911885D01*
X212522261Y-84954198D01*
X212536192Y-85000122D01*
X212541500Y-85054011D01*
X212541500Y-88300989D01*
X212536192Y-88354878D01*
X212522261Y-88400802D01*
X212499645Y-88443115D01*
X212469205Y-88480205D01*
X212432115Y-88510645D01*
X212389802Y-88533261D01*
X212343878Y-88547192D01*
X212289989Y-88552500D01*
X211043011Y-88552500D01*
X210989122Y-88547192D01*
X210943198Y-88533261D01*
X210900885Y-88510645D01*
X210863795Y-88480205D01*
X210833355Y-88443115D01*
X210810739Y-88400802D01*
X210796808Y-88354878D01*
X210791500Y-88300989D01*
X210791500Y-85054011D01*
X210796808Y-85000122D01*
X210810739Y-84954198D01*
X210833355Y-84911885D01*
X210863795Y-84874795D01*
X210900885Y-84844355D01*
X210943198Y-84821739D01*
X210989122Y-84807808D01*
X211043011Y-84802500D01*
X212289989Y-84802500D01*
X212343878Y-84807808D01*
X212343878Y-84807808D01*
G37*
G36*
X179746947Y-85473722D02*
X180010833Y-85583027D01*
X180248324Y-85741713D01*
X180450287Y-85943676D01*
X180608973Y-86181167D01*
X180718278Y-86445053D01*
X180774000Y-86725186D01*
X180774000Y-87010814D01*
X180718278Y-87290947D01*
X180608973Y-87554833D01*
X180450287Y-87792324D01*
X180248324Y-87994287D01*
X180010833Y-88152973D01*
X179746947Y-88262278D01*
X179466814Y-88318000D01*
X179181186Y-88318000D01*
X178901053Y-88262278D01*
X178637167Y-88152973D01*
X178399676Y-87994287D01*
X178197713Y-87792324D01*
X178039027Y-87554833D01*
X177929722Y-87290947D01*
X177874000Y-87010814D01*
X177874000Y-86725186D01*
X177929722Y-86445053D01*
X178039027Y-86181167D01*
X178197713Y-85943676D01*
X178399676Y-85741713D01*
X178637167Y-85583027D01*
X178901053Y-85473722D01*
X179181186Y-85418000D01*
X179466814Y-85418000D01*
X179746947Y-85473722D01*
X179746947Y-85473722D01*
G37*
G36*
X122342947Y-85473722D02*
X122606833Y-85583027D01*
X122844324Y-85741713D01*
X123046287Y-85943676D01*
X123204973Y-86181167D01*
X123314278Y-86445053D01*
X123370000Y-86725186D01*
X123370000Y-87010814D01*
X123314278Y-87290947D01*
X123204973Y-87554833D01*
X123046287Y-87792324D01*
X122844324Y-87994287D01*
X122606833Y-88152973D01*
X122342947Y-88262278D01*
X122062814Y-88318000D01*
X121777186Y-88318000D01*
X121497053Y-88262278D01*
X121233167Y-88152973D01*
X120995676Y-87994287D01*
X120793713Y-87792324D01*
X120635027Y-87554833D01*
X120525722Y-87290947D01*
X120470000Y-87010814D01*
X120470000Y-86725186D01*
X120525722Y-86445053D01*
X120635027Y-86181167D01*
X120793713Y-85943676D01*
X120995676Y-85741713D01*
X121233167Y-85583027D01*
X121497053Y-85473722D01*
X121777186Y-85418000D01*
X122062814Y-85418000D01*
X122342947Y-85473722D01*
X122342947Y-85473722D01*
G37*
G36*
X229112857Y-83923772D02*
X229313042Y-84006691D01*
X229493213Y-84127078D01*
X229646422Y-84280287D01*
X229766809Y-84460458D01*
X229849728Y-84660643D01*
X229892000Y-84873158D01*
X229892000Y-85089842D01*
X229849728Y-85302357D01*
X229766809Y-85502542D01*
X229766807Y-85502545D01*
X229713031Y-85583027D01*
X229646422Y-85682713D01*
X229493213Y-85835922D01*
X229313042Y-85956309D01*
X229112857Y-86039228D01*
X228900342Y-86081500D01*
X228683658Y-86081500D01*
X228471143Y-86039228D01*
X228270958Y-85956309D01*
X228090787Y-85835922D01*
X227937578Y-85682713D01*
X227870970Y-85583027D01*
X227817193Y-85502545D01*
X227817191Y-85502542D01*
X227734272Y-85302357D01*
X227692000Y-85089842D01*
X227692000Y-84873158D01*
X227734272Y-84660643D01*
X227817191Y-84460458D01*
X227937578Y-84280287D01*
X228090787Y-84127078D01*
X228270958Y-84006691D01*
X228471143Y-83923772D01*
X228683658Y-83881500D01*
X228900342Y-83881500D01*
X229112857Y-83923772D01*
X229112857Y-83923772D01*
G37*
G36*
X221362857Y-83923772D02*
X221563042Y-84006691D01*
X221743213Y-84127078D01*
X221896422Y-84280287D01*
X222016809Y-84460458D01*
X222099728Y-84660643D01*
X222142000Y-84873158D01*
X222142000Y-85089842D01*
X222099728Y-85302357D01*
X222016809Y-85502542D01*
X222016807Y-85502545D01*
X221963031Y-85583027D01*
X221896422Y-85682713D01*
X221743213Y-85835922D01*
X221563042Y-85956309D01*
X221362857Y-86039228D01*
X221150342Y-86081500D01*
X220933658Y-86081500D01*
X220721143Y-86039228D01*
X220520958Y-85956309D01*
X220340787Y-85835922D01*
X220187578Y-85682713D01*
X220120970Y-85583027D01*
X220067193Y-85502545D01*
X220067191Y-85502542D01*
X219984272Y-85302357D01*
X219942000Y-85089842D01*
X219942000Y-84873158D01*
X219984272Y-84660643D01*
X220067191Y-84460458D01*
X220187578Y-84280287D01*
X220340787Y-84127078D01*
X220520958Y-84006691D01*
X220721143Y-83923772D01*
X220933658Y-83881500D01*
X221150342Y-83881500D01*
X221362857Y-83923772D01*
X221362857Y-83923772D01*
G37*
M02*
