%TF.GenerationSoftware,KiCad,Pcbnew,(5.0.1)-4*%
%TF.CreationDate,2019-04-12T07:50:59+02:00*%
%TF.ProjectId,nixie,6E697869652E6B696361645F70636200,rev?*%
%TF.SameCoordinates,Original*%
%TF.FileFunction,Copper,L2,Bot,Signal*%
%TF.FilePolarity,Positive*%
%FSLAX46Y46*%
G04 Gerber Fmt 4.6, Leading zero omitted, Abs format (unit mm)*
G04 Created by KiCad (PCBNEW (5.0.1)-4) date 12/04/2019 7:50:59*
%MOMM*%
%LPD*%
G01*
G04 APERTURE LIST*
%ADD10C,0.200000*%
%ADD11R,2.500000X1.100000*%
%ADD12R,1.100000X2.500000*%
%ADD13C,1.346200*%
%ADD14C,1.107440*%
%ADD15C,0.100000*%
%ADD16C,0.975000*%
%ADD17C,2.000000*%
%ADD18C,1.800000*%
%ADD19C,1.350000*%
%ADD20R,1.700000X1.700000*%
%ADD21O,1.700000X1.700000*%
%ADD22C,0.600000*%
%ADD23C,0.700000*%
%ADD24C,0.381000*%
%ADD25C,0.250000*%
%ADD26C,0.254000*%
G04 APERTURE END LIST*
D10*
X71251000Y-120249000D02*
G75*
G02X67251000Y-116249000I0J4000000D01*
G01*
X71251000Y-120249000D02*
X230251000Y-120249000D01*
X234251000Y-87249000D02*
X234251000Y-116249000D01*
X67251000Y-87249000D02*
G75*
G02X71251000Y-83249000I4000000J0D01*
G01*
X234251000Y-116249000D02*
G75*
G02X230251000Y-120249000I-4000000J0D01*
G01*
X67251000Y-87249000D02*
X67251000Y-116249000D01*
X71251000Y-83249000D02*
X230251000Y-83249000D01*
X230251000Y-83249000D02*
G75*
G02X234251000Y-87249000I0J-4000000D01*
G01*
D11*
X84583500Y-92202000D03*
X84583500Y-94202000D03*
X84583500Y-96202000D03*
X84583500Y-98202000D03*
X84583500Y-100202000D03*
X84583500Y-102202000D03*
X84583500Y-104202000D03*
X84583500Y-106202000D03*
X69183500Y-106202000D03*
X69183500Y-104202000D03*
X69183500Y-102202000D03*
X69183500Y-100202000D03*
X69183500Y-98202000D03*
X69183500Y-96202000D03*
X69183500Y-94202000D03*
X69183500Y-92202000D03*
D12*
X81893500Y-107902000D03*
X79893500Y-107902000D03*
X77893500Y-107902000D03*
X75893500Y-107902000D03*
X73893500Y-107902000D03*
X71893500Y-107902000D03*
D13*
X101295200Y-90845640D03*
X91109800Y-90845640D03*
X90058240Y-93616780D03*
X90416380Y-96555560D03*
X92097860Y-98993960D03*
X94721680Y-100370640D03*
X97683320Y-100370640D03*
X100307140Y-98993960D03*
X101988620Y-96555560D03*
X102346760Y-93616780D03*
X96202500Y-88173560D03*
X99077780Y-88882220D03*
X93327220Y-88882220D03*
X119710200Y-90845640D03*
X109524800Y-90845640D03*
X108473240Y-93616780D03*
X108831380Y-96555560D03*
X110512860Y-98993960D03*
X113136680Y-100370640D03*
X116098320Y-100370640D03*
X118722140Y-98993960D03*
X120403620Y-96555560D03*
X120761760Y-93616780D03*
X114617500Y-88173560D03*
X117492780Y-88882220D03*
X111742220Y-88882220D03*
X146380200Y-90845640D03*
X136194800Y-90845640D03*
X135143240Y-93616780D03*
X135501380Y-96555560D03*
X137182860Y-98993960D03*
X139806680Y-100370640D03*
X142768320Y-100370640D03*
X145392140Y-98993960D03*
X147073620Y-96555560D03*
X147431760Y-93616780D03*
X141287500Y-88173560D03*
X144162780Y-88882220D03*
X138412220Y-88882220D03*
D14*
X129540000Y-96266000D03*
X126365000Y-96266000D03*
D13*
X164795200Y-90845640D03*
X154609800Y-90845640D03*
X153558240Y-93616780D03*
X153916380Y-96555560D03*
X155597860Y-98993960D03*
X158221680Y-100370640D03*
X161183320Y-100370640D03*
X163807140Y-98993960D03*
X165488620Y-96555560D03*
X165846760Y-93616780D03*
X159702500Y-88173560D03*
X162577780Y-88882220D03*
X156827220Y-88882220D03*
X191465200Y-90845640D03*
X181279800Y-90845640D03*
X180228240Y-93616780D03*
X180586380Y-96555560D03*
X182267860Y-98993960D03*
X184891680Y-100370640D03*
X187853320Y-100370640D03*
X190477140Y-98993960D03*
X192158620Y-96555560D03*
X192516760Y-93616780D03*
X186372500Y-88173560D03*
X189247780Y-88882220D03*
X183497220Y-88882220D03*
X209880200Y-90845640D03*
X199694800Y-90845640D03*
X198643240Y-93616780D03*
X199001380Y-96555560D03*
X200682860Y-98993960D03*
X203306680Y-100370640D03*
X206268320Y-100370640D03*
X208892140Y-98993960D03*
X210573620Y-96555560D03*
X210931760Y-93616780D03*
X204787500Y-88173560D03*
X207662780Y-88882220D03*
X201912220Y-88882220D03*
D14*
X174625000Y-96266000D03*
X171450000Y-96266000D03*
D15*
G36*
X87483142Y-107695674D02*
X87506803Y-107699184D01*
X87530007Y-107704996D01*
X87552529Y-107713054D01*
X87574153Y-107723282D01*
X87594670Y-107735579D01*
X87613883Y-107749829D01*
X87631607Y-107765893D01*
X87647671Y-107783617D01*
X87661921Y-107802830D01*
X87674218Y-107823347D01*
X87684446Y-107844971D01*
X87692504Y-107867493D01*
X87698316Y-107890697D01*
X87701826Y-107914358D01*
X87703000Y-107938250D01*
X87703000Y-108850750D01*
X87701826Y-108874642D01*
X87698316Y-108898303D01*
X87692504Y-108921507D01*
X87684446Y-108944029D01*
X87674218Y-108965653D01*
X87661921Y-108986170D01*
X87647671Y-109005383D01*
X87631607Y-109023107D01*
X87613883Y-109039171D01*
X87594670Y-109053421D01*
X87574153Y-109065718D01*
X87552529Y-109075946D01*
X87530007Y-109084004D01*
X87506803Y-109089816D01*
X87483142Y-109093326D01*
X87459250Y-109094500D01*
X86971750Y-109094500D01*
X86947858Y-109093326D01*
X86924197Y-109089816D01*
X86900993Y-109084004D01*
X86878471Y-109075946D01*
X86856847Y-109065718D01*
X86836330Y-109053421D01*
X86817117Y-109039171D01*
X86799393Y-109023107D01*
X86783329Y-109005383D01*
X86769079Y-108986170D01*
X86756782Y-108965653D01*
X86746554Y-108944029D01*
X86738496Y-108921507D01*
X86732684Y-108898303D01*
X86729174Y-108874642D01*
X86728000Y-108850750D01*
X86728000Y-107938250D01*
X86729174Y-107914358D01*
X86732684Y-107890697D01*
X86738496Y-107867493D01*
X86746554Y-107844971D01*
X86756782Y-107823347D01*
X86769079Y-107802830D01*
X86783329Y-107783617D01*
X86799393Y-107765893D01*
X86817117Y-107749829D01*
X86836330Y-107735579D01*
X86856847Y-107723282D01*
X86878471Y-107713054D01*
X86900993Y-107704996D01*
X86924197Y-107699184D01*
X86947858Y-107695674D01*
X86971750Y-107694500D01*
X87459250Y-107694500D01*
X87483142Y-107695674D01*
X87483142Y-107695674D01*
G37*
D16*
X87215500Y-108394500D03*
D15*
G36*
X89358142Y-107695674D02*
X89381803Y-107699184D01*
X89405007Y-107704996D01*
X89427529Y-107713054D01*
X89449153Y-107723282D01*
X89469670Y-107735579D01*
X89488883Y-107749829D01*
X89506607Y-107765893D01*
X89522671Y-107783617D01*
X89536921Y-107802830D01*
X89549218Y-107823347D01*
X89559446Y-107844971D01*
X89567504Y-107867493D01*
X89573316Y-107890697D01*
X89576826Y-107914358D01*
X89578000Y-107938250D01*
X89578000Y-108850750D01*
X89576826Y-108874642D01*
X89573316Y-108898303D01*
X89567504Y-108921507D01*
X89559446Y-108944029D01*
X89549218Y-108965653D01*
X89536921Y-108986170D01*
X89522671Y-109005383D01*
X89506607Y-109023107D01*
X89488883Y-109039171D01*
X89469670Y-109053421D01*
X89449153Y-109065718D01*
X89427529Y-109075946D01*
X89405007Y-109084004D01*
X89381803Y-109089816D01*
X89358142Y-109093326D01*
X89334250Y-109094500D01*
X88846750Y-109094500D01*
X88822858Y-109093326D01*
X88799197Y-109089816D01*
X88775993Y-109084004D01*
X88753471Y-109075946D01*
X88731847Y-109065718D01*
X88711330Y-109053421D01*
X88692117Y-109039171D01*
X88674393Y-109023107D01*
X88658329Y-109005383D01*
X88644079Y-108986170D01*
X88631782Y-108965653D01*
X88621554Y-108944029D01*
X88613496Y-108921507D01*
X88607684Y-108898303D01*
X88604174Y-108874642D01*
X88603000Y-108850750D01*
X88603000Y-107938250D01*
X88604174Y-107914358D01*
X88607684Y-107890697D01*
X88613496Y-107867493D01*
X88621554Y-107844971D01*
X88631782Y-107823347D01*
X88644079Y-107802830D01*
X88658329Y-107783617D01*
X88674393Y-107765893D01*
X88692117Y-107749829D01*
X88711330Y-107735579D01*
X88731847Y-107723282D01*
X88753471Y-107713054D01*
X88775993Y-107704996D01*
X88799197Y-107699184D01*
X88822858Y-107695674D01*
X88846750Y-107694500D01*
X89334250Y-107694500D01*
X89358142Y-107695674D01*
X89358142Y-107695674D01*
G37*
D16*
X89090500Y-108394500D03*
D15*
G36*
X85379642Y-110287674D02*
X85403303Y-110291184D01*
X85426507Y-110296996D01*
X85449029Y-110305054D01*
X85470653Y-110315282D01*
X85491170Y-110327579D01*
X85510383Y-110341829D01*
X85528107Y-110357893D01*
X85544171Y-110375617D01*
X85558421Y-110394830D01*
X85570718Y-110415347D01*
X85580946Y-110436971D01*
X85589004Y-110459493D01*
X85594816Y-110482697D01*
X85598326Y-110506358D01*
X85599500Y-110530250D01*
X85599500Y-111017750D01*
X85598326Y-111041642D01*
X85594816Y-111065303D01*
X85589004Y-111088507D01*
X85580946Y-111111029D01*
X85570718Y-111132653D01*
X85558421Y-111153170D01*
X85544171Y-111172383D01*
X85528107Y-111190107D01*
X85510383Y-111206171D01*
X85491170Y-111220421D01*
X85470653Y-111232718D01*
X85449029Y-111242946D01*
X85426507Y-111251004D01*
X85403303Y-111256816D01*
X85379642Y-111260326D01*
X85355750Y-111261500D01*
X84443250Y-111261500D01*
X84419358Y-111260326D01*
X84395697Y-111256816D01*
X84372493Y-111251004D01*
X84349971Y-111242946D01*
X84328347Y-111232718D01*
X84307830Y-111220421D01*
X84288617Y-111206171D01*
X84270893Y-111190107D01*
X84254829Y-111172383D01*
X84240579Y-111153170D01*
X84228282Y-111132653D01*
X84218054Y-111111029D01*
X84209996Y-111088507D01*
X84204184Y-111065303D01*
X84200674Y-111041642D01*
X84199500Y-111017750D01*
X84199500Y-110530250D01*
X84200674Y-110506358D01*
X84204184Y-110482697D01*
X84209996Y-110459493D01*
X84218054Y-110436971D01*
X84228282Y-110415347D01*
X84240579Y-110394830D01*
X84254829Y-110375617D01*
X84270893Y-110357893D01*
X84288617Y-110341829D01*
X84307830Y-110327579D01*
X84328347Y-110315282D01*
X84349971Y-110305054D01*
X84372493Y-110296996D01*
X84395697Y-110291184D01*
X84419358Y-110287674D01*
X84443250Y-110286500D01*
X85355750Y-110286500D01*
X85379642Y-110287674D01*
X85379642Y-110287674D01*
G37*
D16*
X84899500Y-110774000D03*
D15*
G36*
X85379642Y-112162674D02*
X85403303Y-112166184D01*
X85426507Y-112171996D01*
X85449029Y-112180054D01*
X85470653Y-112190282D01*
X85491170Y-112202579D01*
X85510383Y-112216829D01*
X85528107Y-112232893D01*
X85544171Y-112250617D01*
X85558421Y-112269830D01*
X85570718Y-112290347D01*
X85580946Y-112311971D01*
X85589004Y-112334493D01*
X85594816Y-112357697D01*
X85598326Y-112381358D01*
X85599500Y-112405250D01*
X85599500Y-112892750D01*
X85598326Y-112916642D01*
X85594816Y-112940303D01*
X85589004Y-112963507D01*
X85580946Y-112986029D01*
X85570718Y-113007653D01*
X85558421Y-113028170D01*
X85544171Y-113047383D01*
X85528107Y-113065107D01*
X85510383Y-113081171D01*
X85491170Y-113095421D01*
X85470653Y-113107718D01*
X85449029Y-113117946D01*
X85426507Y-113126004D01*
X85403303Y-113131816D01*
X85379642Y-113135326D01*
X85355750Y-113136500D01*
X84443250Y-113136500D01*
X84419358Y-113135326D01*
X84395697Y-113131816D01*
X84372493Y-113126004D01*
X84349971Y-113117946D01*
X84328347Y-113107718D01*
X84307830Y-113095421D01*
X84288617Y-113081171D01*
X84270893Y-113065107D01*
X84254829Y-113047383D01*
X84240579Y-113028170D01*
X84228282Y-113007653D01*
X84218054Y-112986029D01*
X84209996Y-112963507D01*
X84204184Y-112940303D01*
X84200674Y-112916642D01*
X84199500Y-112892750D01*
X84199500Y-112405250D01*
X84200674Y-112381358D01*
X84204184Y-112357697D01*
X84209996Y-112334493D01*
X84218054Y-112311971D01*
X84228282Y-112290347D01*
X84240579Y-112269830D01*
X84254829Y-112250617D01*
X84270893Y-112232893D01*
X84288617Y-112216829D01*
X84307830Y-112202579D01*
X84328347Y-112190282D01*
X84349971Y-112180054D01*
X84372493Y-112171996D01*
X84395697Y-112166184D01*
X84419358Y-112162674D01*
X84443250Y-112161500D01*
X85355750Y-112161500D01*
X85379642Y-112162674D01*
X85379642Y-112162674D01*
G37*
D16*
X84899500Y-112649000D03*
D17*
X228642000Y-88781500D03*
X221192000Y-88781500D03*
D18*
X228792000Y-84981500D03*
X221042000Y-84981500D03*
D15*
G36*
X87919642Y-91749174D02*
X87943303Y-91752684D01*
X87966507Y-91758496D01*
X87989029Y-91766554D01*
X88010653Y-91776782D01*
X88031170Y-91789079D01*
X88050383Y-91803329D01*
X88068107Y-91819393D01*
X88084171Y-91837117D01*
X88098421Y-91856330D01*
X88110718Y-91876847D01*
X88120946Y-91898471D01*
X88129004Y-91920993D01*
X88134816Y-91944197D01*
X88138326Y-91967858D01*
X88139500Y-91991750D01*
X88139500Y-92479250D01*
X88138326Y-92503142D01*
X88134816Y-92526803D01*
X88129004Y-92550007D01*
X88120946Y-92572529D01*
X88110718Y-92594153D01*
X88098421Y-92614670D01*
X88084171Y-92633883D01*
X88068107Y-92651607D01*
X88050383Y-92667671D01*
X88031170Y-92681921D01*
X88010653Y-92694218D01*
X87989029Y-92704446D01*
X87966507Y-92712504D01*
X87943303Y-92718316D01*
X87919642Y-92721826D01*
X87895750Y-92723000D01*
X86983250Y-92723000D01*
X86959358Y-92721826D01*
X86935697Y-92718316D01*
X86912493Y-92712504D01*
X86889971Y-92704446D01*
X86868347Y-92694218D01*
X86847830Y-92681921D01*
X86828617Y-92667671D01*
X86810893Y-92651607D01*
X86794829Y-92633883D01*
X86780579Y-92614670D01*
X86768282Y-92594153D01*
X86758054Y-92572529D01*
X86749996Y-92550007D01*
X86744184Y-92526803D01*
X86740674Y-92503142D01*
X86739500Y-92479250D01*
X86739500Y-91991750D01*
X86740674Y-91967858D01*
X86744184Y-91944197D01*
X86749996Y-91920993D01*
X86758054Y-91898471D01*
X86768282Y-91876847D01*
X86780579Y-91856330D01*
X86794829Y-91837117D01*
X86810893Y-91819393D01*
X86828617Y-91803329D01*
X86847830Y-91789079D01*
X86868347Y-91776782D01*
X86889971Y-91766554D01*
X86912493Y-91758496D01*
X86935697Y-91752684D01*
X86959358Y-91749174D01*
X86983250Y-91748000D01*
X87895750Y-91748000D01*
X87919642Y-91749174D01*
X87919642Y-91749174D01*
G37*
D16*
X87439500Y-92235500D03*
D15*
G36*
X87919642Y-89874174D02*
X87943303Y-89877684D01*
X87966507Y-89883496D01*
X87989029Y-89891554D01*
X88010653Y-89901782D01*
X88031170Y-89914079D01*
X88050383Y-89928329D01*
X88068107Y-89944393D01*
X88084171Y-89962117D01*
X88098421Y-89981330D01*
X88110718Y-90001847D01*
X88120946Y-90023471D01*
X88129004Y-90045993D01*
X88134816Y-90069197D01*
X88138326Y-90092858D01*
X88139500Y-90116750D01*
X88139500Y-90604250D01*
X88138326Y-90628142D01*
X88134816Y-90651803D01*
X88129004Y-90675007D01*
X88120946Y-90697529D01*
X88110718Y-90719153D01*
X88098421Y-90739670D01*
X88084171Y-90758883D01*
X88068107Y-90776607D01*
X88050383Y-90792671D01*
X88031170Y-90806921D01*
X88010653Y-90819218D01*
X87989029Y-90829446D01*
X87966507Y-90837504D01*
X87943303Y-90843316D01*
X87919642Y-90846826D01*
X87895750Y-90848000D01*
X86983250Y-90848000D01*
X86959358Y-90846826D01*
X86935697Y-90843316D01*
X86912493Y-90837504D01*
X86889971Y-90829446D01*
X86868347Y-90819218D01*
X86847830Y-90806921D01*
X86828617Y-90792671D01*
X86810893Y-90776607D01*
X86794829Y-90758883D01*
X86780579Y-90739670D01*
X86768282Y-90719153D01*
X86758054Y-90697529D01*
X86749996Y-90675007D01*
X86744184Y-90651803D01*
X86740674Y-90628142D01*
X86739500Y-90604250D01*
X86739500Y-90116750D01*
X86740674Y-90092858D01*
X86744184Y-90069197D01*
X86749996Y-90045993D01*
X86758054Y-90023471D01*
X86768282Y-90001847D01*
X86780579Y-89981330D01*
X86794829Y-89962117D01*
X86810893Y-89944393D01*
X86828617Y-89928329D01*
X86847830Y-89914079D01*
X86868347Y-89901782D01*
X86889971Y-89891554D01*
X86912493Y-89883496D01*
X86935697Y-89877684D01*
X86959358Y-89874174D01*
X86983250Y-89873000D01*
X87895750Y-89873000D01*
X87919642Y-89874174D01*
X87919642Y-89874174D01*
G37*
D16*
X87439500Y-90360500D03*
D15*
G36*
X153844505Y-85194204D02*
X153868773Y-85197804D01*
X153892572Y-85203765D01*
X153915671Y-85212030D01*
X153937850Y-85222520D01*
X153958893Y-85235132D01*
X153978599Y-85249747D01*
X153996777Y-85266223D01*
X154013253Y-85284401D01*
X154027868Y-85304107D01*
X154040480Y-85325150D01*
X154050970Y-85347329D01*
X154059235Y-85370428D01*
X154065196Y-85394227D01*
X154068796Y-85418495D01*
X154070000Y-85442999D01*
X154070000Y-88293001D01*
X154068796Y-88317505D01*
X154065196Y-88341773D01*
X154059235Y-88365572D01*
X154050970Y-88388671D01*
X154040480Y-88410850D01*
X154027868Y-88431893D01*
X154013253Y-88451599D01*
X153996777Y-88469777D01*
X153978599Y-88486253D01*
X153958893Y-88500868D01*
X153937850Y-88513480D01*
X153915671Y-88523970D01*
X153892572Y-88532235D01*
X153868773Y-88538196D01*
X153844505Y-88541796D01*
X153820001Y-88543000D01*
X152969999Y-88543000D01*
X152945495Y-88541796D01*
X152921227Y-88538196D01*
X152897428Y-88532235D01*
X152874329Y-88523970D01*
X152852150Y-88513480D01*
X152831107Y-88500868D01*
X152811401Y-88486253D01*
X152793223Y-88469777D01*
X152776747Y-88451599D01*
X152762132Y-88431893D01*
X152749520Y-88410850D01*
X152739030Y-88388671D01*
X152730765Y-88365572D01*
X152724804Y-88341773D01*
X152721204Y-88317505D01*
X152720000Y-88293001D01*
X152720000Y-85442999D01*
X152721204Y-85418495D01*
X152724804Y-85394227D01*
X152730765Y-85370428D01*
X152739030Y-85347329D01*
X152749520Y-85325150D01*
X152762132Y-85304107D01*
X152776747Y-85284401D01*
X152793223Y-85266223D01*
X152811401Y-85249747D01*
X152831107Y-85235132D01*
X152852150Y-85222520D01*
X152874329Y-85212030D01*
X152897428Y-85203765D01*
X152921227Y-85197804D01*
X152945495Y-85194204D01*
X152969999Y-85193000D01*
X153820001Y-85193000D01*
X153844505Y-85194204D01*
X153844505Y-85194204D01*
G37*
D19*
X153395000Y-86868000D03*
D15*
G36*
X148044505Y-85194204D02*
X148068773Y-85197804D01*
X148092572Y-85203765D01*
X148115671Y-85212030D01*
X148137850Y-85222520D01*
X148158893Y-85235132D01*
X148178599Y-85249747D01*
X148196777Y-85266223D01*
X148213253Y-85284401D01*
X148227868Y-85304107D01*
X148240480Y-85325150D01*
X148250970Y-85347329D01*
X148259235Y-85370428D01*
X148265196Y-85394227D01*
X148268796Y-85418495D01*
X148270000Y-85442999D01*
X148270000Y-88293001D01*
X148268796Y-88317505D01*
X148265196Y-88341773D01*
X148259235Y-88365572D01*
X148250970Y-88388671D01*
X148240480Y-88410850D01*
X148227868Y-88431893D01*
X148213253Y-88451599D01*
X148196777Y-88469777D01*
X148178599Y-88486253D01*
X148158893Y-88500868D01*
X148137850Y-88513480D01*
X148115671Y-88523970D01*
X148092572Y-88532235D01*
X148068773Y-88538196D01*
X148044505Y-88541796D01*
X148020001Y-88543000D01*
X147169999Y-88543000D01*
X147145495Y-88541796D01*
X147121227Y-88538196D01*
X147097428Y-88532235D01*
X147074329Y-88523970D01*
X147052150Y-88513480D01*
X147031107Y-88500868D01*
X147011401Y-88486253D01*
X146993223Y-88469777D01*
X146976747Y-88451599D01*
X146962132Y-88431893D01*
X146949520Y-88410850D01*
X146939030Y-88388671D01*
X146930765Y-88365572D01*
X146924804Y-88341773D01*
X146921204Y-88317505D01*
X146920000Y-88293001D01*
X146920000Y-85442999D01*
X146921204Y-85418495D01*
X146924804Y-85394227D01*
X146930765Y-85370428D01*
X146939030Y-85347329D01*
X146949520Y-85325150D01*
X146962132Y-85304107D01*
X146976747Y-85284401D01*
X146993223Y-85266223D01*
X147011401Y-85249747D01*
X147031107Y-85235132D01*
X147052150Y-85222520D01*
X147074329Y-85212030D01*
X147097428Y-85203765D01*
X147121227Y-85197804D01*
X147145495Y-85194204D01*
X147169999Y-85193000D01*
X148020001Y-85193000D01*
X148044505Y-85194204D01*
X148044505Y-85194204D01*
G37*
D19*
X147595000Y-86868000D03*
D15*
G36*
X88173642Y-99780174D02*
X88197303Y-99783684D01*
X88220507Y-99789496D01*
X88243029Y-99797554D01*
X88264653Y-99807782D01*
X88285170Y-99820079D01*
X88304383Y-99834329D01*
X88322107Y-99850393D01*
X88338171Y-99868117D01*
X88352421Y-99887330D01*
X88364718Y-99907847D01*
X88374946Y-99929471D01*
X88383004Y-99951993D01*
X88388816Y-99975197D01*
X88392326Y-99998858D01*
X88393500Y-100022750D01*
X88393500Y-100510250D01*
X88392326Y-100534142D01*
X88388816Y-100557803D01*
X88383004Y-100581007D01*
X88374946Y-100603529D01*
X88364718Y-100625153D01*
X88352421Y-100645670D01*
X88338171Y-100664883D01*
X88322107Y-100682607D01*
X88304383Y-100698671D01*
X88285170Y-100712921D01*
X88264653Y-100725218D01*
X88243029Y-100735446D01*
X88220507Y-100743504D01*
X88197303Y-100749316D01*
X88173642Y-100752826D01*
X88149750Y-100754000D01*
X87237250Y-100754000D01*
X87213358Y-100752826D01*
X87189697Y-100749316D01*
X87166493Y-100743504D01*
X87143971Y-100735446D01*
X87122347Y-100725218D01*
X87101830Y-100712921D01*
X87082617Y-100698671D01*
X87064893Y-100682607D01*
X87048829Y-100664883D01*
X87034579Y-100645670D01*
X87022282Y-100625153D01*
X87012054Y-100603529D01*
X87003996Y-100581007D01*
X86998184Y-100557803D01*
X86994674Y-100534142D01*
X86993500Y-100510250D01*
X86993500Y-100022750D01*
X86994674Y-99998858D01*
X86998184Y-99975197D01*
X87003996Y-99951993D01*
X87012054Y-99929471D01*
X87022282Y-99907847D01*
X87034579Y-99887330D01*
X87048829Y-99868117D01*
X87064893Y-99850393D01*
X87082617Y-99834329D01*
X87101830Y-99820079D01*
X87122347Y-99807782D01*
X87143971Y-99797554D01*
X87166493Y-99789496D01*
X87189697Y-99783684D01*
X87213358Y-99780174D01*
X87237250Y-99779000D01*
X88149750Y-99779000D01*
X88173642Y-99780174D01*
X88173642Y-99780174D01*
G37*
D16*
X87693500Y-100266500D03*
D15*
G36*
X88173642Y-101655174D02*
X88197303Y-101658684D01*
X88220507Y-101664496D01*
X88243029Y-101672554D01*
X88264653Y-101682782D01*
X88285170Y-101695079D01*
X88304383Y-101709329D01*
X88322107Y-101725393D01*
X88338171Y-101743117D01*
X88352421Y-101762330D01*
X88364718Y-101782847D01*
X88374946Y-101804471D01*
X88383004Y-101826993D01*
X88388816Y-101850197D01*
X88392326Y-101873858D01*
X88393500Y-101897750D01*
X88393500Y-102385250D01*
X88392326Y-102409142D01*
X88388816Y-102432803D01*
X88383004Y-102456007D01*
X88374946Y-102478529D01*
X88364718Y-102500153D01*
X88352421Y-102520670D01*
X88338171Y-102539883D01*
X88322107Y-102557607D01*
X88304383Y-102573671D01*
X88285170Y-102587921D01*
X88264653Y-102600218D01*
X88243029Y-102610446D01*
X88220507Y-102618504D01*
X88197303Y-102624316D01*
X88173642Y-102627826D01*
X88149750Y-102629000D01*
X87237250Y-102629000D01*
X87213358Y-102627826D01*
X87189697Y-102624316D01*
X87166493Y-102618504D01*
X87143971Y-102610446D01*
X87122347Y-102600218D01*
X87101830Y-102587921D01*
X87082617Y-102573671D01*
X87064893Y-102557607D01*
X87048829Y-102539883D01*
X87034579Y-102520670D01*
X87022282Y-102500153D01*
X87012054Y-102478529D01*
X87003996Y-102456007D01*
X86998184Y-102432803D01*
X86994674Y-102409142D01*
X86993500Y-102385250D01*
X86993500Y-101897750D01*
X86994674Y-101873858D01*
X86998184Y-101850197D01*
X87003996Y-101826993D01*
X87012054Y-101804471D01*
X87022282Y-101782847D01*
X87034579Y-101762330D01*
X87048829Y-101743117D01*
X87064893Y-101725393D01*
X87082617Y-101709329D01*
X87101830Y-101695079D01*
X87122347Y-101682782D01*
X87143971Y-101672554D01*
X87166493Y-101664496D01*
X87189697Y-101658684D01*
X87213358Y-101655174D01*
X87237250Y-101654000D01*
X88149750Y-101654000D01*
X88173642Y-101655174D01*
X88173642Y-101655174D01*
G37*
D16*
X87693500Y-102141500D03*
D15*
G36*
X88237142Y-105592174D02*
X88260803Y-105595684D01*
X88284007Y-105601496D01*
X88306529Y-105609554D01*
X88328153Y-105619782D01*
X88348670Y-105632079D01*
X88367883Y-105646329D01*
X88385607Y-105662393D01*
X88401671Y-105680117D01*
X88415921Y-105699330D01*
X88428218Y-105719847D01*
X88438446Y-105741471D01*
X88446504Y-105763993D01*
X88452316Y-105787197D01*
X88455826Y-105810858D01*
X88457000Y-105834750D01*
X88457000Y-106322250D01*
X88455826Y-106346142D01*
X88452316Y-106369803D01*
X88446504Y-106393007D01*
X88438446Y-106415529D01*
X88428218Y-106437153D01*
X88415921Y-106457670D01*
X88401671Y-106476883D01*
X88385607Y-106494607D01*
X88367883Y-106510671D01*
X88348670Y-106524921D01*
X88328153Y-106537218D01*
X88306529Y-106547446D01*
X88284007Y-106555504D01*
X88260803Y-106561316D01*
X88237142Y-106564826D01*
X88213250Y-106566000D01*
X87300750Y-106566000D01*
X87276858Y-106564826D01*
X87253197Y-106561316D01*
X87229993Y-106555504D01*
X87207471Y-106547446D01*
X87185847Y-106537218D01*
X87165330Y-106524921D01*
X87146117Y-106510671D01*
X87128393Y-106494607D01*
X87112329Y-106476883D01*
X87098079Y-106457670D01*
X87085782Y-106437153D01*
X87075554Y-106415529D01*
X87067496Y-106393007D01*
X87061684Y-106369803D01*
X87058174Y-106346142D01*
X87057000Y-106322250D01*
X87057000Y-105834750D01*
X87058174Y-105810858D01*
X87061684Y-105787197D01*
X87067496Y-105763993D01*
X87075554Y-105741471D01*
X87085782Y-105719847D01*
X87098079Y-105699330D01*
X87112329Y-105680117D01*
X87128393Y-105662393D01*
X87146117Y-105646329D01*
X87165330Y-105632079D01*
X87185847Y-105619782D01*
X87207471Y-105609554D01*
X87229993Y-105601496D01*
X87253197Y-105595684D01*
X87276858Y-105592174D01*
X87300750Y-105591000D01*
X88213250Y-105591000D01*
X88237142Y-105592174D01*
X88237142Y-105592174D01*
G37*
D16*
X87757000Y-106078500D03*
D15*
G36*
X88237142Y-103717174D02*
X88260803Y-103720684D01*
X88284007Y-103726496D01*
X88306529Y-103734554D01*
X88328153Y-103744782D01*
X88348670Y-103757079D01*
X88367883Y-103771329D01*
X88385607Y-103787393D01*
X88401671Y-103805117D01*
X88415921Y-103824330D01*
X88428218Y-103844847D01*
X88438446Y-103866471D01*
X88446504Y-103888993D01*
X88452316Y-103912197D01*
X88455826Y-103935858D01*
X88457000Y-103959750D01*
X88457000Y-104447250D01*
X88455826Y-104471142D01*
X88452316Y-104494803D01*
X88446504Y-104518007D01*
X88438446Y-104540529D01*
X88428218Y-104562153D01*
X88415921Y-104582670D01*
X88401671Y-104601883D01*
X88385607Y-104619607D01*
X88367883Y-104635671D01*
X88348670Y-104649921D01*
X88328153Y-104662218D01*
X88306529Y-104672446D01*
X88284007Y-104680504D01*
X88260803Y-104686316D01*
X88237142Y-104689826D01*
X88213250Y-104691000D01*
X87300750Y-104691000D01*
X87276858Y-104689826D01*
X87253197Y-104686316D01*
X87229993Y-104680504D01*
X87207471Y-104672446D01*
X87185847Y-104662218D01*
X87165330Y-104649921D01*
X87146117Y-104635671D01*
X87128393Y-104619607D01*
X87112329Y-104601883D01*
X87098079Y-104582670D01*
X87085782Y-104562153D01*
X87075554Y-104540529D01*
X87067496Y-104518007D01*
X87061684Y-104494803D01*
X87058174Y-104471142D01*
X87057000Y-104447250D01*
X87057000Y-103959750D01*
X87058174Y-103935858D01*
X87061684Y-103912197D01*
X87067496Y-103888993D01*
X87075554Y-103866471D01*
X87085782Y-103844847D01*
X87098079Y-103824330D01*
X87112329Y-103805117D01*
X87128393Y-103787393D01*
X87146117Y-103771329D01*
X87165330Y-103757079D01*
X87185847Y-103744782D01*
X87207471Y-103734554D01*
X87229993Y-103726496D01*
X87253197Y-103720684D01*
X87276858Y-103717174D01*
X87300750Y-103716000D01*
X88213250Y-103716000D01*
X88237142Y-103717174D01*
X88237142Y-103717174D01*
G37*
D16*
X87757000Y-104203500D03*
D15*
G36*
X69885642Y-109081174D02*
X69909303Y-109084684D01*
X69932507Y-109090496D01*
X69955029Y-109098554D01*
X69976653Y-109108782D01*
X69997170Y-109121079D01*
X70016383Y-109135329D01*
X70034107Y-109151393D01*
X70050171Y-109169117D01*
X70064421Y-109188330D01*
X70076718Y-109208847D01*
X70086946Y-109230471D01*
X70095004Y-109252993D01*
X70100816Y-109276197D01*
X70104326Y-109299858D01*
X70105500Y-109323750D01*
X70105500Y-109811250D01*
X70104326Y-109835142D01*
X70100816Y-109858803D01*
X70095004Y-109882007D01*
X70086946Y-109904529D01*
X70076718Y-109926153D01*
X70064421Y-109946670D01*
X70050171Y-109965883D01*
X70034107Y-109983607D01*
X70016383Y-109999671D01*
X69997170Y-110013921D01*
X69976653Y-110026218D01*
X69955029Y-110036446D01*
X69932507Y-110044504D01*
X69909303Y-110050316D01*
X69885642Y-110053826D01*
X69861750Y-110055000D01*
X68949250Y-110055000D01*
X68925358Y-110053826D01*
X68901697Y-110050316D01*
X68878493Y-110044504D01*
X68855971Y-110036446D01*
X68834347Y-110026218D01*
X68813830Y-110013921D01*
X68794617Y-109999671D01*
X68776893Y-109983607D01*
X68760829Y-109965883D01*
X68746579Y-109946670D01*
X68734282Y-109926153D01*
X68724054Y-109904529D01*
X68715996Y-109882007D01*
X68710184Y-109858803D01*
X68706674Y-109835142D01*
X68705500Y-109811250D01*
X68705500Y-109323750D01*
X68706674Y-109299858D01*
X68710184Y-109276197D01*
X68715996Y-109252993D01*
X68724054Y-109230471D01*
X68734282Y-109208847D01*
X68746579Y-109188330D01*
X68760829Y-109169117D01*
X68776893Y-109151393D01*
X68794617Y-109135329D01*
X68813830Y-109121079D01*
X68834347Y-109108782D01*
X68855971Y-109098554D01*
X68878493Y-109090496D01*
X68901697Y-109084684D01*
X68925358Y-109081174D01*
X68949250Y-109080000D01*
X69861750Y-109080000D01*
X69885642Y-109081174D01*
X69885642Y-109081174D01*
G37*
D16*
X69405500Y-109567500D03*
D15*
G36*
X69885642Y-110956174D02*
X69909303Y-110959684D01*
X69932507Y-110965496D01*
X69955029Y-110973554D01*
X69976653Y-110983782D01*
X69997170Y-110996079D01*
X70016383Y-111010329D01*
X70034107Y-111026393D01*
X70050171Y-111044117D01*
X70064421Y-111063330D01*
X70076718Y-111083847D01*
X70086946Y-111105471D01*
X70095004Y-111127993D01*
X70100816Y-111151197D01*
X70104326Y-111174858D01*
X70105500Y-111198750D01*
X70105500Y-111686250D01*
X70104326Y-111710142D01*
X70100816Y-111733803D01*
X70095004Y-111757007D01*
X70086946Y-111779529D01*
X70076718Y-111801153D01*
X70064421Y-111821670D01*
X70050171Y-111840883D01*
X70034107Y-111858607D01*
X70016383Y-111874671D01*
X69997170Y-111888921D01*
X69976653Y-111901218D01*
X69955029Y-111911446D01*
X69932507Y-111919504D01*
X69909303Y-111925316D01*
X69885642Y-111928826D01*
X69861750Y-111930000D01*
X68949250Y-111930000D01*
X68925358Y-111928826D01*
X68901697Y-111925316D01*
X68878493Y-111919504D01*
X68855971Y-111911446D01*
X68834347Y-111901218D01*
X68813830Y-111888921D01*
X68794617Y-111874671D01*
X68776893Y-111858607D01*
X68760829Y-111840883D01*
X68746579Y-111821670D01*
X68734282Y-111801153D01*
X68724054Y-111779529D01*
X68715996Y-111757007D01*
X68710184Y-111733803D01*
X68706674Y-111710142D01*
X68705500Y-111686250D01*
X68705500Y-111198750D01*
X68706674Y-111174858D01*
X68710184Y-111151197D01*
X68715996Y-111127993D01*
X68724054Y-111105471D01*
X68734282Y-111083847D01*
X68746579Y-111063330D01*
X68760829Y-111044117D01*
X68776893Y-111026393D01*
X68794617Y-111010329D01*
X68813830Y-110996079D01*
X68834347Y-110983782D01*
X68855971Y-110973554D01*
X68878493Y-110965496D01*
X68901697Y-110959684D01*
X68925358Y-110956174D01*
X68949250Y-110955000D01*
X69861750Y-110955000D01*
X69885642Y-110956174D01*
X69885642Y-110956174D01*
G37*
D16*
X69405500Y-111442500D03*
D15*
G36*
X119472142Y-115950674D02*
X119495803Y-115954184D01*
X119519007Y-115959996D01*
X119541529Y-115968054D01*
X119563153Y-115978282D01*
X119583670Y-115990579D01*
X119602883Y-116004829D01*
X119620607Y-116020893D01*
X119636671Y-116038617D01*
X119650921Y-116057830D01*
X119663218Y-116078347D01*
X119673446Y-116099971D01*
X119681504Y-116122493D01*
X119687316Y-116145697D01*
X119690826Y-116169358D01*
X119692000Y-116193250D01*
X119692000Y-117105750D01*
X119690826Y-117129642D01*
X119687316Y-117153303D01*
X119681504Y-117176507D01*
X119673446Y-117199029D01*
X119663218Y-117220653D01*
X119650921Y-117241170D01*
X119636671Y-117260383D01*
X119620607Y-117278107D01*
X119602883Y-117294171D01*
X119583670Y-117308421D01*
X119563153Y-117320718D01*
X119541529Y-117330946D01*
X119519007Y-117339004D01*
X119495803Y-117344816D01*
X119472142Y-117348326D01*
X119448250Y-117349500D01*
X118960750Y-117349500D01*
X118936858Y-117348326D01*
X118913197Y-117344816D01*
X118889993Y-117339004D01*
X118867471Y-117330946D01*
X118845847Y-117320718D01*
X118825330Y-117308421D01*
X118806117Y-117294171D01*
X118788393Y-117278107D01*
X118772329Y-117260383D01*
X118758079Y-117241170D01*
X118745782Y-117220653D01*
X118735554Y-117199029D01*
X118727496Y-117176507D01*
X118721684Y-117153303D01*
X118718174Y-117129642D01*
X118717000Y-117105750D01*
X118717000Y-116193250D01*
X118718174Y-116169358D01*
X118721684Y-116145697D01*
X118727496Y-116122493D01*
X118735554Y-116099971D01*
X118745782Y-116078347D01*
X118758079Y-116057830D01*
X118772329Y-116038617D01*
X118788393Y-116020893D01*
X118806117Y-116004829D01*
X118825330Y-115990579D01*
X118845847Y-115978282D01*
X118867471Y-115968054D01*
X118889993Y-115959996D01*
X118913197Y-115954184D01*
X118936858Y-115950674D01*
X118960750Y-115949500D01*
X119448250Y-115949500D01*
X119472142Y-115950674D01*
X119472142Y-115950674D01*
G37*
D16*
X119204500Y-116649500D03*
D15*
G36*
X121347142Y-115950674D02*
X121370803Y-115954184D01*
X121394007Y-115959996D01*
X121416529Y-115968054D01*
X121438153Y-115978282D01*
X121458670Y-115990579D01*
X121477883Y-116004829D01*
X121495607Y-116020893D01*
X121511671Y-116038617D01*
X121525921Y-116057830D01*
X121538218Y-116078347D01*
X121548446Y-116099971D01*
X121556504Y-116122493D01*
X121562316Y-116145697D01*
X121565826Y-116169358D01*
X121567000Y-116193250D01*
X121567000Y-117105750D01*
X121565826Y-117129642D01*
X121562316Y-117153303D01*
X121556504Y-117176507D01*
X121548446Y-117199029D01*
X121538218Y-117220653D01*
X121525921Y-117241170D01*
X121511671Y-117260383D01*
X121495607Y-117278107D01*
X121477883Y-117294171D01*
X121458670Y-117308421D01*
X121438153Y-117320718D01*
X121416529Y-117330946D01*
X121394007Y-117339004D01*
X121370803Y-117344816D01*
X121347142Y-117348326D01*
X121323250Y-117349500D01*
X120835750Y-117349500D01*
X120811858Y-117348326D01*
X120788197Y-117344816D01*
X120764993Y-117339004D01*
X120742471Y-117330946D01*
X120720847Y-117320718D01*
X120700330Y-117308421D01*
X120681117Y-117294171D01*
X120663393Y-117278107D01*
X120647329Y-117260383D01*
X120633079Y-117241170D01*
X120620782Y-117220653D01*
X120610554Y-117199029D01*
X120602496Y-117176507D01*
X120596684Y-117153303D01*
X120593174Y-117129642D01*
X120592000Y-117105750D01*
X120592000Y-116193250D01*
X120593174Y-116169358D01*
X120596684Y-116145697D01*
X120602496Y-116122493D01*
X120610554Y-116099971D01*
X120620782Y-116078347D01*
X120633079Y-116057830D01*
X120647329Y-116038617D01*
X120663393Y-116020893D01*
X120681117Y-116004829D01*
X120700330Y-115990579D01*
X120720847Y-115978282D01*
X120742471Y-115968054D01*
X120764993Y-115959996D01*
X120788197Y-115954184D01*
X120811858Y-115950674D01*
X120835750Y-115949500D01*
X121323250Y-115949500D01*
X121347142Y-115950674D01*
X121347142Y-115950674D01*
G37*
D16*
X121079500Y-116649500D03*
D20*
X219011500Y-116332000D03*
D21*
X216471500Y-116332000D03*
X213931500Y-116332000D03*
X211391500Y-116332000D03*
X223202500Y-116332000D03*
X225742500Y-116332000D03*
X228282500Y-116332000D03*
D20*
X230822500Y-116332000D03*
X207200500Y-116332000D03*
D21*
X204660500Y-116332000D03*
X202120500Y-116332000D03*
X199580500Y-116332000D03*
D22*
X126365000Y-108902500D03*
X177482500Y-112649000D03*
X182308500Y-117221000D03*
X128968500Y-117602000D03*
X152971500Y-118212968D03*
X82804004Y-110744000D03*
X133985000Y-116722990D03*
X127952500Y-117602000D03*
X171259500Y-117348000D03*
X124777500Y-117602000D03*
X68262500Y-107886500D03*
X77152500Y-112712500D03*
X77152500Y-113792000D03*
X77152500Y-114808000D03*
X77152500Y-115824000D03*
X77152500Y-116903500D03*
X174498000Y-117348000D03*
X145796000Y-103378000D03*
X147066000Y-103378000D03*
X154432000Y-103378000D03*
X159575500Y-114744500D03*
X163004500Y-114681000D03*
X163004500Y-115570000D03*
X159575500Y-115633500D03*
X124650500Y-114808000D03*
X169799000Y-106426000D03*
X169608500Y-107251500D03*
X170370500Y-106997500D03*
X181610000Y-112903000D03*
X181610000Y-111950500D03*
X90487500Y-106934000D03*
X91313000Y-106934000D03*
X130429000Y-106172000D03*
X131191000Y-106934000D03*
X123317000Y-112903000D03*
X124015500Y-112903000D03*
X113919000Y-116014500D03*
X118554500Y-114998500D03*
X119507000Y-114998500D03*
X114554000Y-116649500D03*
X115189000Y-117284500D03*
X115887500Y-117983000D03*
X85090000Y-89916000D03*
X85725000Y-90487500D03*
X85788500Y-89662000D03*
X81153000Y-91948000D03*
X81915000Y-91948000D03*
X75819000Y-91313000D03*
X69024500Y-107886500D03*
X69786500Y-107886500D03*
X71064500Y-95186500D03*
X73215500Y-95186500D03*
X136842500Y-110236000D03*
X137858500Y-108966000D03*
X137350500Y-109601000D03*
X137731500Y-110236000D03*
X140208000Y-105918000D03*
X155511500Y-106426000D03*
X180086000Y-117983000D03*
X179260500Y-117983000D03*
X134366000Y-114236500D03*
X135636000Y-112585500D03*
X116141500Y-115633500D03*
X116903500Y-116141500D03*
X117538500Y-116649500D03*
X181229000Y-116141500D03*
X182054500Y-116141500D03*
X69088000Y-114046000D03*
X69850000Y-111506000D03*
D23*
X151193500Y-83947000D03*
D22*
X176847500Y-118237000D03*
X123253500Y-117602000D03*
X81788000Y-104648000D03*
X168275000Y-117602000D03*
X139001500Y-116722990D03*
X138557000Y-114236500D03*
X73342500Y-105029000D03*
X177736500Y-117475000D03*
X157021957Y-112365205D03*
X131254500Y-114417010D03*
X96774000Y-105473500D03*
X86423500Y-101536500D03*
X90995500Y-103251000D03*
X130365500Y-117602000D03*
X152209500Y-117602000D03*
X149606000Y-117602000D03*
X176085500Y-117475000D03*
X161036000Y-113792000D03*
X145542000Y-116141979D03*
X129603500Y-114867021D03*
X80327500Y-101092000D03*
X173672500Y-114681000D03*
X127190500Y-114554000D03*
X164084000Y-113167000D03*
X142367008Y-115506500D03*
X86487000Y-104203500D03*
X172910500Y-117475000D03*
X126428500Y-117602000D03*
X101409500Y-115824000D03*
X80899000Y-90106504D03*
X87435021Y-94234000D03*
X73596500Y-90297000D03*
X87249654Y-95441158D03*
X123210559Y-111506000D03*
X93726000Y-109347000D03*
X79484396Y-109982000D03*
X126555500Y-111252000D03*
X126555500Y-110299500D03*
X122872500Y-110236000D03*
X95821500Y-108648500D03*
X79375000Y-111760000D03*
X175196500Y-109410500D03*
X171894500Y-109410500D03*
X87957500Y-93492562D03*
X86741000Y-98425000D03*
D24*
X126365000Y-96266000D02*
X126365000Y-108902500D01*
X126365000Y-108902500D02*
X126365000Y-108902500D01*
X154170000Y-86868000D02*
X153395000Y-86868000D01*
X159348847Y-86868000D02*
X154170000Y-86868000D01*
X159702500Y-87221653D02*
X159348847Y-86868000D01*
X159702500Y-88173560D02*
X159702500Y-87221653D01*
X171450000Y-96266000D02*
X171450000Y-107632500D01*
X176466500Y-112649000D02*
X177482500Y-112649000D01*
X171450000Y-107632500D02*
X176466500Y-112649000D01*
X109918500Y-110744000D02*
X83228268Y-110744000D01*
X83228268Y-110744000D02*
X82804004Y-110744000D01*
X182435500Y-117221000D02*
X179853010Y-119803490D01*
X179853010Y-119803490D02*
X118977990Y-119803490D01*
X118442500Y-117411500D02*
X119204500Y-116649500D01*
X116586000Y-117411500D02*
X118442500Y-117411500D01*
X116586000Y-117411500D02*
X109918500Y-110744000D01*
X118977990Y-119803490D02*
X116586000Y-117411500D01*
D25*
X128968500Y-117602000D02*
X129716023Y-118349523D01*
X152547236Y-118212968D02*
X152971500Y-118212968D01*
X152410681Y-118349523D02*
X152547236Y-118212968D01*
X129716023Y-118349523D02*
X152410681Y-118349523D01*
X129847510Y-116722990D02*
X133560736Y-116722990D01*
X133560736Y-116722990D02*
X133985000Y-116722990D01*
X128968500Y-117602000D02*
X129847510Y-116722990D01*
X71064500Y-95186500D02*
X73215500Y-95186500D01*
D24*
X148399500Y-83947000D02*
X151193500Y-83947000D01*
X147595000Y-86868000D02*
X147595000Y-84751500D01*
X147595000Y-84751500D02*
X148399500Y-83947000D01*
D25*
X175796521Y-119287979D02*
X176547501Y-118536999D01*
X124939479Y-119287979D02*
X175796521Y-119287979D01*
X123253500Y-117602000D02*
X124939479Y-119287979D01*
X176547501Y-118536999D02*
X176847500Y-118237000D01*
X88743000Y-102141500D02*
X87693500Y-102141500D01*
X89281000Y-102679500D02*
X88743000Y-102141500D01*
X89281000Y-105354500D02*
X89281000Y-102679500D01*
X87757000Y-106078500D02*
X88557000Y-106078500D01*
X88557000Y-106078500D02*
X89281000Y-105354500D01*
X86833500Y-106202000D02*
X83883500Y-106202000D01*
X86957000Y-106078500D02*
X86833500Y-106202000D01*
X87757000Y-106078500D02*
X86957000Y-106078500D01*
X87215500Y-106620000D02*
X87757000Y-106078500D01*
X87215500Y-106620000D02*
X87215500Y-108394500D01*
X82917736Y-106202000D02*
X83883500Y-106202000D01*
X81788000Y-105072264D02*
X82917736Y-106202000D01*
X81788000Y-104648000D02*
X81788000Y-105072264D01*
D24*
X168275000Y-117602000D02*
X167505489Y-116832489D01*
X139110999Y-116832489D02*
X139001500Y-116722990D01*
X167505489Y-116832489D02*
X139110999Y-116832489D01*
D25*
X86608512Y-97277922D02*
X86608512Y-95198401D01*
X86608512Y-95198401D02*
X86810011Y-94996902D01*
X86810011Y-92864989D02*
X86883263Y-92791737D01*
X86883263Y-92791737D02*
X87439500Y-92235500D01*
X89027000Y-99696410D02*
X86608512Y-97277922D01*
X89027000Y-100808000D02*
X89027000Y-99696410D01*
X87693500Y-102141500D02*
X89027000Y-100808000D01*
X86810011Y-94996902D02*
X86810011Y-92864989D01*
X138557000Y-114236500D02*
X135418002Y-114236500D01*
X134729501Y-113547999D02*
X134002499Y-113547999D01*
X110172500Y-110109000D02*
X88930000Y-110109000D01*
X113797510Y-113734010D02*
X110172500Y-110109000D01*
X88930000Y-110109000D02*
X87771737Y-108950737D01*
X87771737Y-108950737D02*
X87215500Y-108394500D01*
X133816488Y-113734010D02*
X113797510Y-113734010D01*
X134002499Y-113547999D02*
X133816488Y-113734010D01*
X135418002Y-114236500D02*
X134729501Y-113547999D01*
X69883500Y-102202000D02*
X70295000Y-101790500D01*
X69883500Y-102202000D02*
X70960000Y-102202000D01*
X70960000Y-102202000D02*
X71755000Y-102997000D01*
X71755000Y-103441500D02*
X73342500Y-105029000D01*
X71755000Y-102997000D02*
X71755000Y-103441500D01*
X172626705Y-112365205D02*
X177736500Y-117475000D01*
X157021957Y-112365205D02*
X172626705Y-112365205D01*
X131762491Y-114925001D02*
X131554499Y-114717009D01*
X151223295Y-112365205D02*
X148717000Y-114871500D01*
X131554499Y-114717009D02*
X131254500Y-114417010D01*
X148717000Y-114871500D02*
X134656002Y-114871500D01*
X134656002Y-114871500D02*
X134602501Y-114925001D01*
X134602501Y-114925001D02*
X131762491Y-114925001D01*
X157021957Y-112365205D02*
X151223295Y-112365205D01*
X85758000Y-102202000D02*
X86423500Y-101536500D01*
X83883500Y-102202000D02*
X85758000Y-102202000D01*
X86423500Y-101536500D02*
X86423500Y-100584000D01*
X86741000Y-100266500D02*
X87693500Y-100266500D01*
X86423500Y-100584000D02*
X86741000Y-100266500D01*
X86423500Y-101536500D02*
X86423500Y-101536500D01*
X93218000Y-105473500D02*
X96774000Y-105473500D01*
X90995500Y-103251000D02*
X93218000Y-105473500D01*
X152209500Y-117602000D02*
X152209500Y-117602000D01*
X130789764Y-117602000D02*
X130365500Y-117602000D01*
X149606000Y-117602000D02*
X130789764Y-117602000D01*
X152209500Y-117602000D02*
X149606000Y-117602000D01*
X175577500Y-117475000D02*
X176085500Y-117475000D01*
X161036000Y-113792000D02*
X171894500Y-113792000D01*
X171894500Y-113792000D02*
X175577500Y-117475000D01*
X149097521Y-116141979D02*
X145966264Y-116141979D01*
X145966264Y-116141979D02*
X145542000Y-116141979D01*
X161036000Y-113792000D02*
X151447500Y-113792000D01*
X151447500Y-113792000D02*
X149097521Y-116141979D01*
X139301502Y-116097988D02*
X130834467Y-116097988D01*
X139520492Y-116316978D02*
X139301502Y-116097988D01*
X130834467Y-116097988D02*
X129903499Y-115167020D01*
X145117736Y-116141979D02*
X144942737Y-116316978D01*
X144942737Y-116316978D02*
X139520492Y-116316978D01*
X145542000Y-116141979D02*
X145117736Y-116141979D01*
X129903499Y-115167020D02*
X129603500Y-114867021D01*
X69883500Y-100202000D02*
X78929500Y-100202000D01*
X79437500Y-100202000D02*
X80327500Y-101092000D01*
X78929500Y-100202000D02*
X79437500Y-100202000D01*
X148971000Y-115506500D02*
X142791272Y-115506500D01*
X142791272Y-115506500D02*
X142367008Y-115506500D01*
X151384000Y-113093500D02*
X148971000Y-115506500D01*
X172085000Y-113093500D02*
X151384000Y-113093500D01*
X173672500Y-114681000D02*
X172085000Y-113093500D01*
X141942744Y-115506500D02*
X142367008Y-115506500D01*
X130053511Y-114242011D02*
X131318000Y-115506500D01*
X127190500Y-114554000D02*
X127502489Y-114242011D01*
X131318000Y-115506500D02*
X141942744Y-115506500D01*
X127502489Y-114242011D02*
X130053511Y-114242011D01*
X83883500Y-104202000D02*
X83885000Y-104203500D01*
X86487000Y-104203500D02*
X87757000Y-104203500D01*
X83885000Y-104203500D02*
X86487000Y-104203500D01*
X84968502Y-96202000D02*
X83883500Y-96202000D01*
X86414490Y-92624100D02*
X86360001Y-92678589D01*
X86414490Y-91756160D02*
X86414490Y-92624100D01*
X86423500Y-91747150D02*
X86414490Y-91756160D01*
X86423500Y-91376500D02*
X86423500Y-91747150D01*
X86360001Y-92678589D02*
X86360001Y-94810501D01*
X86360001Y-94810501D02*
X84968502Y-96202000D01*
X87439500Y-90360500D02*
X86423500Y-91376500D01*
X69961737Y-109011263D02*
X69405500Y-109567500D01*
X70866000Y-108107000D02*
X69961737Y-109011263D01*
X69883500Y-104202000D02*
X70866000Y-105184500D01*
X70866000Y-105184500D02*
X70866000Y-108107000D01*
X126728499Y-117901999D02*
X126428500Y-117602000D01*
X127664468Y-118837968D02*
X126728499Y-117901999D01*
X171547532Y-118837968D02*
X127664468Y-118837968D01*
X172910500Y-117475000D02*
X171547532Y-118837968D01*
X126428500Y-116459000D02*
X126428500Y-117602000D01*
X126062763Y-116093263D02*
X126428500Y-116459000D01*
X121079500Y-116649500D02*
X121635737Y-116093263D01*
X121635737Y-116093263D02*
X126062763Y-116093263D01*
X83693000Y-115824000D02*
X101409500Y-115824000D01*
X80899000Y-113030000D02*
X83693000Y-115824000D01*
X80899000Y-103187500D02*
X80899000Y-113030000D01*
X83883500Y-100202000D02*
X83883500Y-100203000D01*
X83883500Y-100203000D02*
X80899000Y-103187500D01*
X80599001Y-90406503D02*
X80899000Y-90106504D01*
X74756997Y-90406503D02*
X80599001Y-90406503D01*
X69883500Y-94202000D02*
X70961500Y-94202000D01*
X70961500Y-94202000D02*
X74756997Y-90406503D01*
X93599000Y-102933500D02*
X87947500Y-97282000D01*
X120396000Y-106108500D02*
X99822000Y-106108500D01*
X99822000Y-106108500D02*
X96647000Y-102933500D01*
X204660500Y-116332000D02*
X203035489Y-114706989D01*
X96647000Y-102933500D02*
X93599000Y-102933500D01*
X149790989Y-111956011D02*
X126243511Y-111956011D01*
X126243511Y-111956011D02*
X120396000Y-106108500D01*
X172784911Y-111125001D02*
X150621999Y-111125001D01*
X87947500Y-97282000D02*
X87947500Y-94746479D01*
X203035489Y-114706989D02*
X176366899Y-114706989D01*
X87947500Y-94746479D02*
X87735020Y-94533999D01*
X87735020Y-94533999D02*
X87435021Y-94234000D01*
X150621999Y-111125001D02*
X149790989Y-111956011D01*
X176366899Y-114706989D02*
X172784911Y-111125001D01*
X224892501Y-117181999D02*
X225742500Y-116332000D01*
X223456500Y-118618000D02*
X224892501Y-117181999D01*
X205994000Y-118618000D02*
X223456500Y-118618000D01*
X204660500Y-116332000D02*
X204660500Y-117284500D01*
X204660500Y-117284500D02*
X205994000Y-118618000D01*
X69883500Y-92202000D02*
X69883500Y-92041500D01*
X71267236Y-92202000D02*
X69883500Y-92202000D01*
X73172236Y-90297000D02*
X71267236Y-92202000D01*
X73596500Y-90297000D02*
X73172236Y-90297000D01*
X202120500Y-116332000D02*
X201612500Y-115824000D01*
X99553850Y-106680000D02*
X96257361Y-103383511D01*
X202120500Y-116332000D02*
X200945500Y-115157000D01*
X176180499Y-115157000D02*
X172763704Y-111740204D01*
X150895796Y-111740204D02*
X149352000Y-113284000D01*
X96257361Y-103383511D02*
X93350511Y-103383511D01*
X149352000Y-113284000D02*
X135101913Y-113284000D01*
X135101913Y-113284000D02*
X134915901Y-113097988D01*
X200945500Y-115157000D02*
X176180499Y-115157000D01*
X93350511Y-103383511D02*
X87249654Y-97282654D01*
X87249654Y-95865422D02*
X87249654Y-95441158D01*
X120241502Y-106680000D02*
X99553850Y-106680000D01*
X126659490Y-113097988D02*
X120241502Y-106680000D01*
X134915901Y-113097988D02*
X126659490Y-113097988D01*
X172763704Y-111740204D02*
X150895796Y-111740204D01*
X87249654Y-97282654D02*
X87249654Y-95865422D01*
X227432501Y-117181999D02*
X228282500Y-116332000D01*
X225488500Y-119126000D02*
X227432501Y-117181999D01*
X203712419Y-119126000D02*
X225488500Y-119126000D01*
X202120500Y-116332000D02*
X202120500Y-117534081D01*
X202120500Y-117534081D02*
X203712419Y-119126000D01*
X78919673Y-109417277D02*
X79484396Y-109982000D01*
X72758501Y-99077001D02*
X80789001Y-99077001D01*
X69883500Y-96202000D02*
X72758501Y-99077001D01*
X81915000Y-100203000D02*
X81915000Y-101535090D01*
X81915000Y-101535090D02*
X78930500Y-104519590D01*
X80789001Y-99077001D02*
X81915000Y-100203000D01*
X78930500Y-104519590D02*
X78919673Y-109417277D01*
X122745500Y-111506000D02*
X123210559Y-111506000D01*
X93726000Y-109347000D02*
X120586500Y-109347000D01*
X120586500Y-109347000D02*
X122745500Y-111506000D01*
X149415500Y-111506000D02*
X126809500Y-111506000D01*
X216471500Y-115129919D02*
X215578081Y-114236500D01*
X150246510Y-110674990D02*
X149415500Y-111506000D01*
X126809500Y-111506000D02*
X126555500Y-111252000D01*
X216471500Y-116332000D02*
X216471500Y-115129919D01*
X215578081Y-114236500D02*
X176532820Y-114236500D01*
X176532820Y-114236500D02*
X172971310Y-110674990D01*
X172971310Y-110674990D02*
X150246510Y-110674990D01*
X76898500Y-105915180D02*
X76898500Y-108140500D01*
X69883500Y-98202000D02*
X71247090Y-98202000D01*
X72676590Y-99631500D02*
X80327500Y-99631500D01*
X80327500Y-99631500D02*
X81089500Y-100393500D01*
X71247090Y-98202000D02*
X72676590Y-99631500D01*
X81089500Y-100393500D02*
X81089500Y-101724180D01*
X81089500Y-101724180D02*
X76898500Y-105915180D01*
X76898500Y-108140500D02*
X76898500Y-109292002D01*
X173105230Y-110172500D02*
X150112590Y-110172500D01*
X149287090Y-110998000D02*
X127254000Y-110998000D01*
X176460797Y-113528067D02*
X173105230Y-110172500D01*
X219011500Y-115232000D02*
X217307567Y-113528067D01*
X219011500Y-116332000D02*
X219011500Y-115232000D01*
X150112590Y-110172500D02*
X149287090Y-110998000D01*
X217307567Y-113528067D02*
X176460797Y-113528067D01*
X127254000Y-110998000D02*
X126555500Y-110299500D01*
X122872500Y-110236000D02*
X121475500Y-108839000D01*
X121475500Y-108839000D02*
X118681500Y-108839000D01*
X95825318Y-108644682D02*
X95821500Y-108648500D01*
X118681500Y-108839000D02*
X118487182Y-108644682D01*
X118487182Y-108644682D02*
X95825318Y-108644682D01*
X76898500Y-109707764D02*
X76898500Y-109292002D01*
X78950736Y-111760000D02*
X76898500Y-109707764D01*
X79375000Y-111760000D02*
X78950736Y-111760000D01*
X230822500Y-115232000D02*
X228493500Y-112903000D01*
X230822500Y-116332000D02*
X230822500Y-115232000D01*
X228493500Y-112903000D02*
X188785500Y-112903000D01*
X188785500Y-112903000D02*
X185293000Y-109410500D01*
X185293000Y-109410500D02*
X175196500Y-109410500D01*
X124451411Y-109527501D02*
X120460910Y-105537000D01*
X126665001Y-109527501D02*
X124451411Y-109527501D01*
X127851503Y-108340999D02*
X126665001Y-109527501D01*
X169772997Y-108340999D02*
X127851503Y-108340999D01*
X171894500Y-109410500D02*
X170842498Y-109410500D01*
X170842498Y-109410500D02*
X169772997Y-108340999D01*
X120460910Y-105537000D02*
X100139500Y-105537000D01*
X100139500Y-105537000D02*
X99886910Y-105537000D01*
X99886910Y-105537000D02*
X96838910Y-102489000D01*
X96833400Y-102483490D02*
X93785400Y-102483490D01*
X96838910Y-102489000D02*
X96833400Y-102483490D01*
X93785400Y-102483490D02*
X92932955Y-101631045D01*
X88842010Y-97540100D02*
X88842010Y-94428600D01*
X92932955Y-101631045D02*
X88842010Y-97540100D01*
X88842010Y-94428600D02*
X88544731Y-94089467D01*
X88544731Y-94089467D02*
X88544731Y-94079793D01*
X88544731Y-94079793D02*
X87957500Y-93492562D01*
X84106500Y-98425000D02*
X83883500Y-98202000D01*
X86741000Y-98425000D02*
X84106500Y-98425000D01*
D26*
G36*
X198301293Y-115802135D02*
X198195896Y-116332000D01*
X198301293Y-116861865D01*
X198601437Y-117311063D01*
X199050635Y-117611207D01*
X199446753Y-117690000D01*
X199714247Y-117690000D01*
X200110365Y-117611207D01*
X200559563Y-117311063D01*
X200850500Y-116875644D01*
X201141437Y-117311063D01*
X201475113Y-117534018D01*
X201475100Y-117534081D01*
X201524228Y-117781065D01*
X201628818Y-117937595D01*
X201628820Y-117937597D01*
X201664134Y-117990448D01*
X201716985Y-118025762D01*
X203220740Y-119529518D01*
X203256052Y-119582367D01*
X203308900Y-119617679D01*
X203308903Y-119617682D01*
X203343801Y-119641000D01*
X181003327Y-119641000D01*
X182718640Y-117925688D01*
X182766195Y-117905990D01*
X182993490Y-117678695D01*
X183032200Y-117585241D01*
X183093471Y-117493542D01*
X183114987Y-117385373D01*
X183116500Y-117381721D01*
X183116500Y-117377768D01*
X183147683Y-117221001D01*
X183116500Y-117064234D01*
X183116500Y-117060279D01*
X183114986Y-117056625D01*
X183093471Y-116948460D01*
X183032202Y-116856764D01*
X182993490Y-116763305D01*
X182766195Y-116536010D01*
X182469221Y-116413000D01*
X182147779Y-116413000D01*
X181850805Y-116536010D01*
X181623510Y-116763305D01*
X181500500Y-117060279D01*
X181500500Y-117168172D01*
X179563683Y-119104990D01*
X176874707Y-119104990D01*
X176934697Y-119045000D01*
X177008221Y-119045000D01*
X177305195Y-118921990D01*
X177532490Y-118694695D01*
X177655500Y-118397721D01*
X177655500Y-118283000D01*
X177897221Y-118283000D01*
X178194195Y-118159990D01*
X178421490Y-117932695D01*
X178544500Y-117635721D01*
X178544500Y-117314279D01*
X178421490Y-117017305D01*
X178194195Y-116790010D01*
X177897221Y-116667000D01*
X177823698Y-116667000D01*
X176946698Y-115790000D01*
X198309401Y-115790000D01*
X198301293Y-115802135D01*
X198301293Y-115802135D01*
G37*
X198301293Y-115802135D02*
X198195896Y-116332000D01*
X198301293Y-116861865D01*
X198601437Y-117311063D01*
X199050635Y-117611207D01*
X199446753Y-117690000D01*
X199714247Y-117690000D01*
X200110365Y-117611207D01*
X200559563Y-117311063D01*
X200850500Y-116875644D01*
X201141437Y-117311063D01*
X201475113Y-117534018D01*
X201475100Y-117534081D01*
X201524228Y-117781065D01*
X201628818Y-117937595D01*
X201628820Y-117937597D01*
X201664134Y-117990448D01*
X201716985Y-118025762D01*
X203220740Y-119529518D01*
X203256052Y-119582367D01*
X203308900Y-119617679D01*
X203308903Y-119617682D01*
X203343801Y-119641000D01*
X181003327Y-119641000D01*
X182718640Y-117925688D01*
X182766195Y-117905990D01*
X182993490Y-117678695D01*
X183032200Y-117585241D01*
X183093471Y-117493542D01*
X183114987Y-117385373D01*
X183116500Y-117381721D01*
X183116500Y-117377768D01*
X183147683Y-117221001D01*
X183116500Y-117064234D01*
X183116500Y-117060279D01*
X183114986Y-117056625D01*
X183093471Y-116948460D01*
X183032202Y-116856764D01*
X182993490Y-116763305D01*
X182766195Y-116536010D01*
X182469221Y-116413000D01*
X182147779Y-116413000D01*
X181850805Y-116536010D01*
X181623510Y-116763305D01*
X181500500Y-117060279D01*
X181500500Y-117168172D01*
X179563683Y-119104990D01*
X176874707Y-119104990D01*
X176934697Y-119045000D01*
X177008221Y-119045000D01*
X177305195Y-118921990D01*
X177532490Y-118694695D01*
X177655500Y-118397721D01*
X177655500Y-118283000D01*
X177897221Y-118283000D01*
X178194195Y-118159990D01*
X178421490Y-117932695D01*
X178544500Y-117635721D01*
X178544500Y-117314279D01*
X178421490Y-117017305D01*
X178194195Y-116790010D01*
X177897221Y-116667000D01*
X177823698Y-116667000D01*
X176946698Y-115790000D01*
X198309401Y-115790000D01*
X198301293Y-115802135D01*
G36*
X69310500Y-106075000D02*
X69330500Y-106075000D01*
X69330500Y-106329000D01*
X69310500Y-106329000D01*
X69310500Y-107228250D01*
X69469250Y-107387000D01*
X70233001Y-107387000D01*
X70233001Y-107844802D01*
X69558225Y-108519579D01*
X69558222Y-108519581D01*
X69515755Y-108562048D01*
X68949250Y-108562048D01*
X68657759Y-108620029D01*
X68410645Y-108785145D01*
X68245529Y-109032259D01*
X68187548Y-109323750D01*
X68187548Y-109811250D01*
X68245529Y-110102741D01*
X68410645Y-110349855D01*
X68447562Y-110374522D01*
X68345801Y-110416673D01*
X68167173Y-110595302D01*
X68070500Y-110828691D01*
X68070500Y-111156750D01*
X68229250Y-111315500D01*
X69278500Y-111315500D01*
X69278500Y-111295500D01*
X69532500Y-111295500D01*
X69532500Y-111315500D01*
X70581750Y-111315500D01*
X70740500Y-111156750D01*
X70740500Y-110828691D01*
X70643827Y-110595302D01*
X70465199Y-110416673D01*
X70363438Y-110374522D01*
X70400355Y-110349855D01*
X70565471Y-110102741D01*
X70623452Y-109811250D01*
X70623452Y-109323750D01*
X70610344Y-109257852D01*
X70825548Y-109042648D01*
X70825548Y-109152000D01*
X70864975Y-109350212D01*
X70977253Y-109518247D01*
X71145288Y-109630525D01*
X71343500Y-109669952D01*
X72443500Y-109669952D01*
X72641712Y-109630525D01*
X72809747Y-109518247D01*
X72893500Y-109392902D01*
X72977253Y-109518247D01*
X73145288Y-109630525D01*
X73343500Y-109669952D01*
X74443500Y-109669952D01*
X74641712Y-109630525D01*
X74809747Y-109518247D01*
X74893500Y-109392902D01*
X74977253Y-109518247D01*
X75145288Y-109630525D01*
X75343500Y-109669952D01*
X76260621Y-109669952D01*
X76253100Y-109707764D01*
X76265500Y-109770103D01*
X76265500Y-109770107D01*
X76302227Y-109954747D01*
X76442133Y-110164131D01*
X76494987Y-110199447D01*
X78459055Y-112163516D01*
X78494369Y-112216367D01*
X78703752Y-112356273D01*
X78859585Y-112387270D01*
X78917305Y-112444990D01*
X79214279Y-112568000D01*
X79535721Y-112568000D01*
X79832695Y-112444990D01*
X80059990Y-112217695D01*
X80183000Y-111920721D01*
X80183000Y-111599279D01*
X80059990Y-111302305D01*
X79832695Y-111075010D01*
X79535721Y-110952000D01*
X79214279Y-110952000D01*
X79089583Y-111003650D01*
X77755884Y-109669952D01*
X78327204Y-109669952D01*
X78392989Y-109768406D01*
X78462299Y-109872634D01*
X78515659Y-109908459D01*
X78676396Y-110069196D01*
X78676396Y-110142721D01*
X78799406Y-110439695D01*
X79026701Y-110666990D01*
X79323675Y-110790000D01*
X79645117Y-110790000D01*
X79942091Y-110666990D01*
X80169386Y-110439695D01*
X80266001Y-110206445D01*
X80266001Y-112967656D01*
X80253600Y-113030000D01*
X80302728Y-113276984D01*
X80407318Y-113433514D01*
X80407320Y-113433516D01*
X80442634Y-113486367D01*
X80495485Y-113521681D01*
X83201319Y-116227516D01*
X83236633Y-116280367D01*
X83446016Y-116420273D01*
X83630656Y-116457000D01*
X83630661Y-116457000D01*
X83693000Y-116469400D01*
X83755339Y-116457000D01*
X100899815Y-116457000D01*
X100951805Y-116508990D01*
X101248779Y-116632000D01*
X101570221Y-116632000D01*
X101867195Y-116508990D01*
X102094490Y-116281695D01*
X102217500Y-115984721D01*
X102217500Y-115663279D01*
X102094490Y-115366305D01*
X101867195Y-115139010D01*
X101570221Y-115016000D01*
X101248779Y-115016000D01*
X100951805Y-115139010D01*
X100899815Y-115191000D01*
X83955197Y-115191000D01*
X81698947Y-112934750D01*
X83564500Y-112934750D01*
X83564500Y-113262809D01*
X83661173Y-113496198D01*
X83839801Y-113674827D01*
X84073190Y-113771500D01*
X84613750Y-113771500D01*
X84772500Y-113612750D01*
X84772500Y-112776000D01*
X85026500Y-112776000D01*
X85026500Y-113612750D01*
X85185250Y-113771500D01*
X85725810Y-113771500D01*
X85959199Y-113674827D01*
X86137827Y-113496198D01*
X86234500Y-113262809D01*
X86234500Y-112934750D01*
X86075750Y-112776000D01*
X85026500Y-112776000D01*
X84772500Y-112776000D01*
X83723250Y-112776000D01*
X83564500Y-112934750D01*
X81698947Y-112934750D01*
X81532000Y-112767804D01*
X81532000Y-109669952D01*
X82443500Y-109669952D01*
X82641712Y-109630525D01*
X82809747Y-109518247D01*
X82922025Y-109350212D01*
X82961452Y-109152000D01*
X82961452Y-107109565D01*
X82967253Y-107118247D01*
X83135288Y-107230525D01*
X83333500Y-107269952D01*
X85833500Y-107269952D01*
X86031712Y-107230525D01*
X86199747Y-107118247D01*
X86312025Y-106950212D01*
X86334942Y-106835000D01*
X86582500Y-106835000D01*
X86582500Y-107299849D01*
X86433145Y-107399645D01*
X86268029Y-107646759D01*
X86210048Y-107938250D01*
X86210048Y-108850750D01*
X86268029Y-109142241D01*
X86433145Y-109389355D01*
X86680259Y-109554471D01*
X86971750Y-109612452D01*
X87459250Y-109612452D01*
X87525148Y-109599344D01*
X87971303Y-110045500D01*
X85930340Y-110045500D01*
X85894355Y-109991645D01*
X85647241Y-109826529D01*
X85355750Y-109768548D01*
X84443250Y-109768548D01*
X84151759Y-109826529D01*
X83904645Y-109991645D01*
X83868660Y-110045500D01*
X83229083Y-110045500D01*
X82964725Y-109936000D01*
X82643283Y-109936000D01*
X82346309Y-110059010D01*
X82119014Y-110286305D01*
X81996004Y-110583279D01*
X81996004Y-110904721D01*
X82119014Y-111201695D01*
X82346309Y-111428990D01*
X82643283Y-111552000D01*
X82964725Y-111552000D01*
X83229083Y-111442500D01*
X83828570Y-111442500D01*
X83904645Y-111556355D01*
X83941562Y-111581022D01*
X83839801Y-111623173D01*
X83661173Y-111801802D01*
X83564500Y-112035191D01*
X83564500Y-112363250D01*
X83723250Y-112522000D01*
X84772500Y-112522000D01*
X84772500Y-112502000D01*
X85026500Y-112502000D01*
X85026500Y-112522000D01*
X86075750Y-112522000D01*
X86234500Y-112363250D01*
X86234500Y-112035191D01*
X86137827Y-111801802D01*
X85959199Y-111623173D01*
X85857438Y-111581022D01*
X85894355Y-111556355D01*
X85970430Y-111442500D01*
X109629173Y-111442500D01*
X116043441Y-117856769D01*
X116082410Y-117915090D01*
X116140733Y-117954060D01*
X117827672Y-119641000D01*
X71281796Y-119641000D01*
X70569575Y-119568655D01*
X69915984Y-119363832D01*
X69316926Y-119031769D01*
X68796875Y-118586031D01*
X68377073Y-118044826D01*
X68074671Y-117430264D01*
X67900131Y-116760196D01*
X67859000Y-116225644D01*
X67859000Y-111728250D01*
X68070500Y-111728250D01*
X68070500Y-112056309D01*
X68167173Y-112289698D01*
X68345801Y-112468327D01*
X68579190Y-112565000D01*
X69119750Y-112565000D01*
X69278500Y-112406250D01*
X69278500Y-111569500D01*
X69532500Y-111569500D01*
X69532500Y-112406250D01*
X69691250Y-112565000D01*
X70231810Y-112565000D01*
X70465199Y-112468327D01*
X70643827Y-112289698D01*
X70740500Y-112056309D01*
X70740500Y-111728250D01*
X70581750Y-111569500D01*
X69532500Y-111569500D01*
X69278500Y-111569500D01*
X68229250Y-111569500D01*
X68070500Y-111728250D01*
X67859000Y-111728250D01*
X67859000Y-107387000D01*
X68897750Y-107387000D01*
X69056500Y-107228250D01*
X69056500Y-106329000D01*
X69036500Y-106329000D01*
X69036500Y-106075000D01*
X69056500Y-106075000D01*
X69056500Y-106055000D01*
X69310500Y-106055000D01*
X69310500Y-106075000D01*
X69310500Y-106075000D01*
G37*
X69310500Y-106075000D02*
X69330500Y-106075000D01*
X69330500Y-106329000D01*
X69310500Y-106329000D01*
X69310500Y-107228250D01*
X69469250Y-107387000D01*
X70233001Y-107387000D01*
X70233001Y-107844802D01*
X69558225Y-108519579D01*
X69558222Y-108519581D01*
X69515755Y-108562048D01*
X68949250Y-108562048D01*
X68657759Y-108620029D01*
X68410645Y-108785145D01*
X68245529Y-109032259D01*
X68187548Y-109323750D01*
X68187548Y-109811250D01*
X68245529Y-110102741D01*
X68410645Y-110349855D01*
X68447562Y-110374522D01*
X68345801Y-110416673D01*
X68167173Y-110595302D01*
X68070500Y-110828691D01*
X68070500Y-111156750D01*
X68229250Y-111315500D01*
X69278500Y-111315500D01*
X69278500Y-111295500D01*
X69532500Y-111295500D01*
X69532500Y-111315500D01*
X70581750Y-111315500D01*
X70740500Y-111156750D01*
X70740500Y-110828691D01*
X70643827Y-110595302D01*
X70465199Y-110416673D01*
X70363438Y-110374522D01*
X70400355Y-110349855D01*
X70565471Y-110102741D01*
X70623452Y-109811250D01*
X70623452Y-109323750D01*
X70610344Y-109257852D01*
X70825548Y-109042648D01*
X70825548Y-109152000D01*
X70864975Y-109350212D01*
X70977253Y-109518247D01*
X71145288Y-109630525D01*
X71343500Y-109669952D01*
X72443500Y-109669952D01*
X72641712Y-109630525D01*
X72809747Y-109518247D01*
X72893500Y-109392902D01*
X72977253Y-109518247D01*
X73145288Y-109630525D01*
X73343500Y-109669952D01*
X74443500Y-109669952D01*
X74641712Y-109630525D01*
X74809747Y-109518247D01*
X74893500Y-109392902D01*
X74977253Y-109518247D01*
X75145288Y-109630525D01*
X75343500Y-109669952D01*
X76260621Y-109669952D01*
X76253100Y-109707764D01*
X76265500Y-109770103D01*
X76265500Y-109770107D01*
X76302227Y-109954747D01*
X76442133Y-110164131D01*
X76494987Y-110199447D01*
X78459055Y-112163516D01*
X78494369Y-112216367D01*
X78703752Y-112356273D01*
X78859585Y-112387270D01*
X78917305Y-112444990D01*
X79214279Y-112568000D01*
X79535721Y-112568000D01*
X79832695Y-112444990D01*
X80059990Y-112217695D01*
X80183000Y-111920721D01*
X80183000Y-111599279D01*
X80059990Y-111302305D01*
X79832695Y-111075010D01*
X79535721Y-110952000D01*
X79214279Y-110952000D01*
X79089583Y-111003650D01*
X77755884Y-109669952D01*
X78327204Y-109669952D01*
X78392989Y-109768406D01*
X78462299Y-109872634D01*
X78515659Y-109908459D01*
X78676396Y-110069196D01*
X78676396Y-110142721D01*
X78799406Y-110439695D01*
X79026701Y-110666990D01*
X79323675Y-110790000D01*
X79645117Y-110790000D01*
X79942091Y-110666990D01*
X80169386Y-110439695D01*
X80266001Y-110206445D01*
X80266001Y-112967656D01*
X80253600Y-113030000D01*
X80302728Y-113276984D01*
X80407318Y-113433514D01*
X80407320Y-113433516D01*
X80442634Y-113486367D01*
X80495485Y-113521681D01*
X83201319Y-116227516D01*
X83236633Y-116280367D01*
X83446016Y-116420273D01*
X83630656Y-116457000D01*
X83630661Y-116457000D01*
X83693000Y-116469400D01*
X83755339Y-116457000D01*
X100899815Y-116457000D01*
X100951805Y-116508990D01*
X101248779Y-116632000D01*
X101570221Y-116632000D01*
X101867195Y-116508990D01*
X102094490Y-116281695D01*
X102217500Y-115984721D01*
X102217500Y-115663279D01*
X102094490Y-115366305D01*
X101867195Y-115139010D01*
X101570221Y-115016000D01*
X101248779Y-115016000D01*
X100951805Y-115139010D01*
X100899815Y-115191000D01*
X83955197Y-115191000D01*
X81698947Y-112934750D01*
X83564500Y-112934750D01*
X83564500Y-113262809D01*
X83661173Y-113496198D01*
X83839801Y-113674827D01*
X84073190Y-113771500D01*
X84613750Y-113771500D01*
X84772500Y-113612750D01*
X84772500Y-112776000D01*
X85026500Y-112776000D01*
X85026500Y-113612750D01*
X85185250Y-113771500D01*
X85725810Y-113771500D01*
X85959199Y-113674827D01*
X86137827Y-113496198D01*
X86234500Y-113262809D01*
X86234500Y-112934750D01*
X86075750Y-112776000D01*
X85026500Y-112776000D01*
X84772500Y-112776000D01*
X83723250Y-112776000D01*
X83564500Y-112934750D01*
X81698947Y-112934750D01*
X81532000Y-112767804D01*
X81532000Y-109669952D01*
X82443500Y-109669952D01*
X82641712Y-109630525D01*
X82809747Y-109518247D01*
X82922025Y-109350212D01*
X82961452Y-109152000D01*
X82961452Y-107109565D01*
X82967253Y-107118247D01*
X83135288Y-107230525D01*
X83333500Y-107269952D01*
X85833500Y-107269952D01*
X86031712Y-107230525D01*
X86199747Y-107118247D01*
X86312025Y-106950212D01*
X86334942Y-106835000D01*
X86582500Y-106835000D01*
X86582500Y-107299849D01*
X86433145Y-107399645D01*
X86268029Y-107646759D01*
X86210048Y-107938250D01*
X86210048Y-108850750D01*
X86268029Y-109142241D01*
X86433145Y-109389355D01*
X86680259Y-109554471D01*
X86971750Y-109612452D01*
X87459250Y-109612452D01*
X87525148Y-109599344D01*
X87971303Y-110045500D01*
X85930340Y-110045500D01*
X85894355Y-109991645D01*
X85647241Y-109826529D01*
X85355750Y-109768548D01*
X84443250Y-109768548D01*
X84151759Y-109826529D01*
X83904645Y-109991645D01*
X83868660Y-110045500D01*
X83229083Y-110045500D01*
X82964725Y-109936000D01*
X82643283Y-109936000D01*
X82346309Y-110059010D01*
X82119014Y-110286305D01*
X81996004Y-110583279D01*
X81996004Y-110904721D01*
X82119014Y-111201695D01*
X82346309Y-111428990D01*
X82643283Y-111552000D01*
X82964725Y-111552000D01*
X83229083Y-111442500D01*
X83828570Y-111442500D01*
X83904645Y-111556355D01*
X83941562Y-111581022D01*
X83839801Y-111623173D01*
X83661173Y-111801802D01*
X83564500Y-112035191D01*
X83564500Y-112363250D01*
X83723250Y-112522000D01*
X84772500Y-112522000D01*
X84772500Y-112502000D01*
X85026500Y-112502000D01*
X85026500Y-112522000D01*
X86075750Y-112522000D01*
X86234500Y-112363250D01*
X86234500Y-112035191D01*
X86137827Y-111801802D01*
X85959199Y-111623173D01*
X85857438Y-111581022D01*
X85894355Y-111556355D01*
X85970430Y-111442500D01*
X109629173Y-111442500D01*
X116043441Y-117856769D01*
X116082410Y-117915090D01*
X116140733Y-117954060D01*
X117827672Y-119641000D01*
X71281796Y-119641000D01*
X70569575Y-119568655D01*
X69915984Y-119363832D01*
X69316926Y-119031769D01*
X68796875Y-118586031D01*
X68377073Y-118044826D01*
X68074671Y-117430264D01*
X67900131Y-116760196D01*
X67859000Y-116225644D01*
X67859000Y-111728250D01*
X68070500Y-111728250D01*
X68070500Y-112056309D01*
X68167173Y-112289698D01*
X68345801Y-112468327D01*
X68579190Y-112565000D01*
X69119750Y-112565000D01*
X69278500Y-112406250D01*
X69278500Y-111569500D01*
X69532500Y-111569500D01*
X69532500Y-112406250D01*
X69691250Y-112565000D01*
X70231810Y-112565000D01*
X70465199Y-112468327D01*
X70643827Y-112289698D01*
X70740500Y-112056309D01*
X70740500Y-111728250D01*
X70581750Y-111569500D01*
X69532500Y-111569500D01*
X69278500Y-111569500D01*
X68229250Y-111569500D01*
X68070500Y-111728250D01*
X67859000Y-111728250D01*
X67859000Y-107387000D01*
X68897750Y-107387000D01*
X69056500Y-107228250D01*
X69056500Y-106329000D01*
X69036500Y-106329000D01*
X69036500Y-106075000D01*
X69056500Y-106075000D01*
X69056500Y-106055000D01*
X69310500Y-106055000D01*
X69310500Y-106075000D01*
G36*
X147149731Y-84208942D02*
X147091411Y-84247910D01*
X147052442Y-84306231D01*
X146937028Y-84478960D01*
X146886820Y-84731376D01*
X146876117Y-84733505D01*
X146626976Y-84899976D01*
X146460505Y-85149117D01*
X146402048Y-85442999D01*
X146402048Y-88293001D01*
X146460505Y-88586883D01*
X146626976Y-88836024D01*
X146876117Y-89002495D01*
X147169999Y-89060952D01*
X148020001Y-89060952D01*
X148313883Y-89002495D01*
X148563024Y-88836024D01*
X148729495Y-88586883D01*
X148787952Y-88293001D01*
X148787952Y-85442999D01*
X152202048Y-85442999D01*
X152202048Y-88293001D01*
X152260505Y-88586883D01*
X152426976Y-88836024D01*
X152676117Y-89002495D01*
X152969999Y-89060952D01*
X153820001Y-89060952D01*
X154113883Y-89002495D01*
X154363024Y-88836024D01*
X154489135Y-88647285D01*
X155646120Y-88647285D01*
X155646120Y-89117155D01*
X155825932Y-89551259D01*
X156158181Y-89883508D01*
X156592285Y-90063320D01*
X157062155Y-90063320D01*
X157496259Y-89883508D01*
X157828508Y-89551259D01*
X158008320Y-89117155D01*
X158008320Y-88647285D01*
X157828508Y-88213181D01*
X157496259Y-87880932D01*
X157062155Y-87701120D01*
X156592285Y-87701120D01*
X156158181Y-87880932D01*
X155825932Y-88213181D01*
X155646120Y-88647285D01*
X154489135Y-88647285D01*
X154529495Y-88586883D01*
X154587952Y-88293001D01*
X154587952Y-87566500D01*
X158675539Y-87566500D01*
X158521400Y-87938625D01*
X158521400Y-88408495D01*
X158701212Y-88842599D01*
X159033461Y-89174848D01*
X159467565Y-89354660D01*
X159937435Y-89354660D01*
X160371539Y-89174848D01*
X160703788Y-88842599D01*
X160784689Y-88647285D01*
X161396680Y-88647285D01*
X161396680Y-89117155D01*
X161576492Y-89551259D01*
X161908741Y-89883508D01*
X162342845Y-90063320D01*
X162812715Y-90063320D01*
X163246819Y-89883508D01*
X163579068Y-89551259D01*
X163758880Y-89117155D01*
X163758880Y-88647285D01*
X182316120Y-88647285D01*
X182316120Y-89117155D01*
X182495932Y-89551259D01*
X182828181Y-89883508D01*
X183262285Y-90063320D01*
X183732155Y-90063320D01*
X184166259Y-89883508D01*
X184498508Y-89551259D01*
X184678320Y-89117155D01*
X184678320Y-88647285D01*
X184498508Y-88213181D01*
X184223952Y-87938625D01*
X185191400Y-87938625D01*
X185191400Y-88408495D01*
X185371212Y-88842599D01*
X185703461Y-89174848D01*
X186137565Y-89354660D01*
X186607435Y-89354660D01*
X187041539Y-89174848D01*
X187373788Y-88842599D01*
X187454689Y-88647285D01*
X188066680Y-88647285D01*
X188066680Y-89117155D01*
X188246492Y-89551259D01*
X188578741Y-89883508D01*
X189012845Y-90063320D01*
X189482715Y-90063320D01*
X189916819Y-89883508D01*
X190249068Y-89551259D01*
X190428880Y-89117155D01*
X190428880Y-88647285D01*
X200731120Y-88647285D01*
X200731120Y-89117155D01*
X200910932Y-89551259D01*
X201243181Y-89883508D01*
X201677285Y-90063320D01*
X202147155Y-90063320D01*
X202581259Y-89883508D01*
X202913508Y-89551259D01*
X203093320Y-89117155D01*
X203093320Y-88647285D01*
X202913508Y-88213181D01*
X202638952Y-87938625D01*
X203606400Y-87938625D01*
X203606400Y-88408495D01*
X203786212Y-88842599D01*
X204118461Y-89174848D01*
X204552565Y-89354660D01*
X205022435Y-89354660D01*
X205456539Y-89174848D01*
X205788788Y-88842599D01*
X205869689Y-88647285D01*
X206481680Y-88647285D01*
X206481680Y-89117155D01*
X206661492Y-89551259D01*
X206993741Y-89883508D01*
X207427845Y-90063320D01*
X207897715Y-90063320D01*
X208331819Y-89883508D01*
X208664068Y-89551259D01*
X208843880Y-89117155D01*
X208843880Y-88647285D01*
X208789898Y-88516961D01*
X219546092Y-88516961D01*
X219570144Y-89166960D01*
X219772613Y-89655764D01*
X220039468Y-89754427D01*
X221012395Y-88781500D01*
X220039468Y-87808573D01*
X219772613Y-87907236D01*
X219546092Y-88516961D01*
X208789898Y-88516961D01*
X208664068Y-88213181D01*
X208331819Y-87880932D01*
X207897715Y-87701120D01*
X207427845Y-87701120D01*
X206993741Y-87880932D01*
X206661492Y-88213181D01*
X206481680Y-88647285D01*
X205869689Y-88647285D01*
X205968600Y-88408495D01*
X205968600Y-87938625D01*
X205840336Y-87628968D01*
X220219073Y-87628968D01*
X221192000Y-88601895D01*
X221206143Y-88587753D01*
X221385748Y-88767358D01*
X221371605Y-88781500D01*
X222344532Y-89754427D01*
X222611387Y-89655764D01*
X222837908Y-89046039D01*
X222819464Y-88547606D01*
X222931341Y-88501265D01*
X223186765Y-88245841D01*
X223325000Y-87912112D01*
X223325000Y-87550888D01*
X226509000Y-87550888D01*
X226509000Y-87912112D01*
X226647235Y-88245841D01*
X226902659Y-88501265D01*
X226996957Y-88540324D01*
X227020144Y-89166960D01*
X227222613Y-89655764D01*
X227489468Y-89754427D01*
X228462395Y-88781500D01*
X228821605Y-88781500D01*
X229794532Y-89754427D01*
X230061387Y-89655764D01*
X230287908Y-89046039D01*
X230263856Y-88396040D01*
X230061387Y-87907236D01*
X229794532Y-87808573D01*
X228821605Y-88781500D01*
X228462395Y-88781500D01*
X228448253Y-88767358D01*
X228627858Y-88587753D01*
X228642000Y-88601895D01*
X229614927Y-87628968D01*
X229516264Y-87362113D01*
X228906539Y-87135592D01*
X228256540Y-87159644D01*
X228166532Y-87196926D01*
X227931341Y-86961735D01*
X227597612Y-86823500D01*
X227236388Y-86823500D01*
X226902659Y-86961735D01*
X226647235Y-87217159D01*
X226509000Y-87550888D01*
X223325000Y-87550888D01*
X223186765Y-87217159D01*
X222931341Y-86961735D01*
X222597612Y-86823500D01*
X222236388Y-86823500D01*
X221902659Y-86961735D01*
X221655052Y-87209342D01*
X221456539Y-87135592D01*
X220806540Y-87159644D01*
X220317736Y-87362113D01*
X220219073Y-87628968D01*
X205840336Y-87628968D01*
X205788788Y-87504521D01*
X205456539Y-87172272D01*
X205022435Y-86992460D01*
X204552565Y-86992460D01*
X204118461Y-87172272D01*
X203786212Y-87504521D01*
X203606400Y-87938625D01*
X202638952Y-87938625D01*
X202581259Y-87880932D01*
X202147155Y-87701120D01*
X201677285Y-87701120D01*
X201243181Y-87880932D01*
X200910932Y-88213181D01*
X200731120Y-88647285D01*
X190428880Y-88647285D01*
X190249068Y-88213181D01*
X189916819Y-87880932D01*
X189482715Y-87701120D01*
X189012845Y-87701120D01*
X188578741Y-87880932D01*
X188246492Y-88213181D01*
X188066680Y-88647285D01*
X187454689Y-88647285D01*
X187553600Y-88408495D01*
X187553600Y-87938625D01*
X187373788Y-87504521D01*
X187041539Y-87172272D01*
X186607435Y-86992460D01*
X186137565Y-86992460D01*
X185703461Y-87172272D01*
X185371212Y-87504521D01*
X185191400Y-87938625D01*
X184223952Y-87938625D01*
X184166259Y-87880932D01*
X183732155Y-87701120D01*
X183262285Y-87701120D01*
X182828181Y-87880932D01*
X182495932Y-88213181D01*
X182316120Y-88647285D01*
X163758880Y-88647285D01*
X163579068Y-88213181D01*
X163246819Y-87880932D01*
X162812715Y-87701120D01*
X162342845Y-87701120D01*
X161908741Y-87880932D01*
X161576492Y-88213181D01*
X161396680Y-88647285D01*
X160784689Y-88647285D01*
X160883600Y-88408495D01*
X160883600Y-87938625D01*
X160703788Y-87504521D01*
X160413134Y-87213867D01*
X160401000Y-87152863D01*
X160401000Y-87152859D01*
X160360472Y-86949112D01*
X160206090Y-86718063D01*
X160147766Y-86679092D01*
X159986986Y-86518312D01*
X177566000Y-86518312D01*
X177566000Y-87217688D01*
X177833640Y-87863827D01*
X178328173Y-88358360D01*
X178974312Y-88626000D01*
X179673688Y-88626000D01*
X180319827Y-88358360D01*
X180814360Y-87863827D01*
X181082000Y-87217688D01*
X181082000Y-86518312D01*
X180892848Y-86061659D01*
X220141446Y-86061659D01*
X220227852Y-86318143D01*
X220801336Y-86527958D01*
X221411460Y-86502339D01*
X221856148Y-86318143D01*
X221942554Y-86061659D01*
X227891446Y-86061659D01*
X227977852Y-86318143D01*
X228551336Y-86527958D01*
X229161460Y-86502339D01*
X229606148Y-86318143D01*
X229692554Y-86061659D01*
X228792000Y-85161105D01*
X227891446Y-86061659D01*
X221942554Y-86061659D01*
X221042000Y-85161105D01*
X220141446Y-86061659D01*
X180892848Y-86061659D01*
X180814360Y-85872173D01*
X180319827Y-85377640D01*
X179673688Y-85110000D01*
X178974312Y-85110000D01*
X178328173Y-85377640D01*
X177833640Y-85872173D01*
X177566000Y-86518312D01*
X159986986Y-86518312D01*
X159891408Y-86422734D01*
X159852437Y-86364410D01*
X159621388Y-86210028D01*
X159417641Y-86169500D01*
X159417637Y-86169500D01*
X159348847Y-86155817D01*
X159280057Y-86169500D01*
X154587952Y-86169500D01*
X154587952Y-85442999D01*
X154529495Y-85149117D01*
X154363024Y-84899976D01*
X154124855Y-84740836D01*
X219495542Y-84740836D01*
X219521161Y-85350960D01*
X219705357Y-85795648D01*
X219961841Y-85882054D01*
X220862395Y-84981500D01*
X221221605Y-84981500D01*
X222122159Y-85882054D01*
X222378643Y-85795648D01*
X222588458Y-85222164D01*
X222568248Y-84740836D01*
X227245542Y-84740836D01*
X227271161Y-85350960D01*
X227455357Y-85795648D01*
X227711841Y-85882054D01*
X228612395Y-84981500D01*
X228971605Y-84981500D01*
X229872159Y-85882054D01*
X230128643Y-85795648D01*
X230338458Y-85222164D01*
X230312839Y-84612040D01*
X230128643Y-84167352D01*
X229872159Y-84080946D01*
X228971605Y-84981500D01*
X228612395Y-84981500D01*
X227711841Y-84080946D01*
X227455357Y-84167352D01*
X227245542Y-84740836D01*
X222568248Y-84740836D01*
X222562839Y-84612040D01*
X222378643Y-84167352D01*
X222122159Y-84080946D01*
X221221605Y-84981500D01*
X220862395Y-84981500D01*
X219961841Y-84080946D01*
X219705357Y-84167352D01*
X219495542Y-84740836D01*
X154124855Y-84740836D01*
X154113883Y-84733505D01*
X153820001Y-84675048D01*
X152969999Y-84675048D01*
X152676117Y-84733505D01*
X152426976Y-84899976D01*
X152260505Y-85149117D01*
X152202048Y-85442999D01*
X148787952Y-85442999D01*
X148729495Y-85149117D01*
X148563024Y-84899976D01*
X148485891Y-84848437D01*
X148688828Y-84645500D01*
X150678605Y-84645500D01*
X150707482Y-84674377D01*
X151022833Y-84805000D01*
X151364167Y-84805000D01*
X151679518Y-84674377D01*
X151920877Y-84433018D01*
X152051500Y-84117667D01*
X152051500Y-83857000D01*
X220156384Y-83857000D01*
X220141446Y-83901341D01*
X221042000Y-84801895D01*
X221942554Y-83901341D01*
X221927616Y-83857000D01*
X227906384Y-83857000D01*
X227891446Y-83901341D01*
X228792000Y-84801895D01*
X229692554Y-83901341D01*
X229677616Y-83857000D01*
X230220205Y-83857000D01*
X230932430Y-83929346D01*
X231586018Y-84134169D01*
X232185074Y-84466231D01*
X232705123Y-84911966D01*
X233124924Y-85453169D01*
X233427329Y-86067736D01*
X233601869Y-86737805D01*
X233643000Y-87272356D01*
X233643001Y-116218194D01*
X233570655Y-116930425D01*
X233365832Y-117584016D01*
X233033769Y-118183074D01*
X232588031Y-118703125D01*
X232046826Y-119122927D01*
X231432264Y-119425329D01*
X230762196Y-119599869D01*
X230227644Y-119641000D01*
X225857117Y-119641000D01*
X225944867Y-119582367D01*
X225980183Y-119529513D01*
X227874291Y-117635406D01*
X228148753Y-117690000D01*
X228416247Y-117690000D01*
X228812365Y-117611207D01*
X229261563Y-117311063D01*
X229454548Y-117022240D01*
X229454548Y-117182000D01*
X229493975Y-117380212D01*
X229606253Y-117548247D01*
X229774288Y-117660525D01*
X229972500Y-117699952D01*
X231672500Y-117699952D01*
X231870712Y-117660525D01*
X232038747Y-117548247D01*
X232151025Y-117380212D01*
X232190452Y-117182000D01*
X232190452Y-115482000D01*
X232151025Y-115283788D01*
X232038747Y-115115753D01*
X231870712Y-115003475D01*
X231672500Y-114964048D01*
X231404763Y-114964048D01*
X231378672Y-114925001D01*
X231314182Y-114828484D01*
X231314179Y-114828481D01*
X231278867Y-114775633D01*
X231226018Y-114740321D01*
X228985183Y-112499487D01*
X228949867Y-112446633D01*
X228740484Y-112306727D01*
X228555844Y-112270000D01*
X228555839Y-112270000D01*
X228493500Y-112257600D01*
X228431161Y-112270000D01*
X189047697Y-112270000D01*
X185784683Y-109006987D01*
X185749367Y-108954133D01*
X185539984Y-108814227D01*
X185355344Y-108777500D01*
X185355339Y-108777500D01*
X185293000Y-108765100D01*
X185230661Y-108777500D01*
X175706185Y-108777500D01*
X175654195Y-108725510D01*
X175357221Y-108602500D01*
X175035779Y-108602500D01*
X174738805Y-108725510D01*
X174511510Y-108952805D01*
X174388500Y-109249779D01*
X174388500Y-109571221D01*
X174396951Y-109591623D01*
X172148500Y-107343173D01*
X172148500Y-98759025D01*
X181086760Y-98759025D01*
X181086760Y-99228895D01*
X181266572Y-99662999D01*
X181598821Y-99995248D01*
X182032925Y-100175060D01*
X182502795Y-100175060D01*
X182597806Y-100135705D01*
X183710580Y-100135705D01*
X183710580Y-100605575D01*
X183890392Y-101039679D01*
X184222641Y-101371928D01*
X184656745Y-101551740D01*
X185126615Y-101551740D01*
X185560719Y-101371928D01*
X185892968Y-101039679D01*
X186072780Y-100605575D01*
X186072780Y-100135705D01*
X186672220Y-100135705D01*
X186672220Y-100605575D01*
X186852032Y-101039679D01*
X187184281Y-101371928D01*
X187618385Y-101551740D01*
X188088255Y-101551740D01*
X188522359Y-101371928D01*
X188854608Y-101039679D01*
X189034420Y-100605575D01*
X189034420Y-100135705D01*
X188854608Y-99701601D01*
X188522359Y-99369352D01*
X188088255Y-99189540D01*
X187618385Y-99189540D01*
X187184281Y-99369352D01*
X186852032Y-99701601D01*
X186672220Y-100135705D01*
X186072780Y-100135705D01*
X185892968Y-99701601D01*
X185560719Y-99369352D01*
X185126615Y-99189540D01*
X184656745Y-99189540D01*
X184222641Y-99369352D01*
X183890392Y-99701601D01*
X183710580Y-100135705D01*
X182597806Y-100135705D01*
X182936899Y-99995248D01*
X183269148Y-99662999D01*
X183448960Y-99228895D01*
X183448960Y-98759025D01*
X189296040Y-98759025D01*
X189296040Y-99228895D01*
X189475852Y-99662999D01*
X189808101Y-99995248D01*
X190242205Y-100175060D01*
X190712075Y-100175060D01*
X191146179Y-99995248D01*
X191478428Y-99662999D01*
X191658240Y-99228895D01*
X191658240Y-98759025D01*
X199501760Y-98759025D01*
X199501760Y-99228895D01*
X199681572Y-99662999D01*
X200013821Y-99995248D01*
X200447925Y-100175060D01*
X200917795Y-100175060D01*
X201012806Y-100135705D01*
X202125580Y-100135705D01*
X202125580Y-100605575D01*
X202305392Y-101039679D01*
X202637641Y-101371928D01*
X203071745Y-101551740D01*
X203541615Y-101551740D01*
X203975719Y-101371928D01*
X204307968Y-101039679D01*
X204487780Y-100605575D01*
X204487780Y-100135705D01*
X205087220Y-100135705D01*
X205087220Y-100605575D01*
X205267032Y-101039679D01*
X205599281Y-101371928D01*
X206033385Y-101551740D01*
X206503255Y-101551740D01*
X206937359Y-101371928D01*
X207269608Y-101039679D01*
X207449420Y-100605575D01*
X207449420Y-100135705D01*
X207269608Y-99701601D01*
X206937359Y-99369352D01*
X206503255Y-99189540D01*
X206033385Y-99189540D01*
X205599281Y-99369352D01*
X205267032Y-99701601D01*
X205087220Y-100135705D01*
X204487780Y-100135705D01*
X204307968Y-99701601D01*
X203975719Y-99369352D01*
X203541615Y-99189540D01*
X203071745Y-99189540D01*
X202637641Y-99369352D01*
X202305392Y-99701601D01*
X202125580Y-100135705D01*
X201012806Y-100135705D01*
X201351899Y-99995248D01*
X201684148Y-99662999D01*
X201863960Y-99228895D01*
X201863960Y-98759025D01*
X207711040Y-98759025D01*
X207711040Y-99228895D01*
X207890852Y-99662999D01*
X208223101Y-99995248D01*
X208657205Y-100175060D01*
X209127075Y-100175060D01*
X209561179Y-99995248D01*
X209893428Y-99662999D01*
X210073240Y-99228895D01*
X210073240Y-98759025D01*
X209893428Y-98324921D01*
X209561179Y-97992672D01*
X209127075Y-97812860D01*
X208657205Y-97812860D01*
X208223101Y-97992672D01*
X207890852Y-98324921D01*
X207711040Y-98759025D01*
X201863960Y-98759025D01*
X201684148Y-98324921D01*
X201351899Y-97992672D01*
X200917795Y-97812860D01*
X200447925Y-97812860D01*
X200013821Y-97992672D01*
X199681572Y-98324921D01*
X199501760Y-98759025D01*
X191658240Y-98759025D01*
X191478428Y-98324921D01*
X191146179Y-97992672D01*
X190712075Y-97812860D01*
X190242205Y-97812860D01*
X189808101Y-97992672D01*
X189475852Y-98324921D01*
X189296040Y-98759025D01*
X183448960Y-98759025D01*
X183269148Y-98324921D01*
X182936899Y-97992672D01*
X182502795Y-97812860D01*
X182032925Y-97812860D01*
X181598821Y-97992672D01*
X181266572Y-98324921D01*
X181086760Y-98759025D01*
X172148500Y-98759025D01*
X172148500Y-97068998D01*
X172350082Y-96867416D01*
X172511720Y-96477189D01*
X172511720Y-96054811D01*
X173563280Y-96054811D01*
X173563280Y-96477189D01*
X173724918Y-96867416D01*
X174023584Y-97166082D01*
X174413811Y-97327720D01*
X174836189Y-97327720D01*
X175226416Y-97166082D01*
X175525082Y-96867416D01*
X175686720Y-96477189D01*
X175686720Y-96320625D01*
X179405280Y-96320625D01*
X179405280Y-96790495D01*
X179585092Y-97224599D01*
X179917341Y-97556848D01*
X180351445Y-97736660D01*
X180821315Y-97736660D01*
X181255419Y-97556848D01*
X181587668Y-97224599D01*
X181767480Y-96790495D01*
X181767480Y-96320625D01*
X190977520Y-96320625D01*
X190977520Y-96790495D01*
X191157332Y-97224599D01*
X191489581Y-97556848D01*
X191923685Y-97736660D01*
X192393555Y-97736660D01*
X192827659Y-97556848D01*
X193159908Y-97224599D01*
X193339720Y-96790495D01*
X193339720Y-96320625D01*
X197820280Y-96320625D01*
X197820280Y-96790495D01*
X198000092Y-97224599D01*
X198332341Y-97556848D01*
X198766445Y-97736660D01*
X199236315Y-97736660D01*
X199670419Y-97556848D01*
X200002668Y-97224599D01*
X200182480Y-96790495D01*
X200182480Y-96320625D01*
X209392520Y-96320625D01*
X209392520Y-96790495D01*
X209572332Y-97224599D01*
X209904581Y-97556848D01*
X210338685Y-97736660D01*
X210808555Y-97736660D01*
X211242659Y-97556848D01*
X211574908Y-97224599D01*
X211754720Y-96790495D01*
X211754720Y-96320625D01*
X211574908Y-95886521D01*
X211242659Y-95554272D01*
X210808555Y-95374460D01*
X210338685Y-95374460D01*
X209904581Y-95554272D01*
X209572332Y-95886521D01*
X209392520Y-96320625D01*
X200182480Y-96320625D01*
X200002668Y-95886521D01*
X199670419Y-95554272D01*
X199236315Y-95374460D01*
X198766445Y-95374460D01*
X198332341Y-95554272D01*
X198000092Y-95886521D01*
X197820280Y-96320625D01*
X193339720Y-96320625D01*
X193159908Y-95886521D01*
X192827659Y-95554272D01*
X192393555Y-95374460D01*
X191923685Y-95374460D01*
X191489581Y-95554272D01*
X191157332Y-95886521D01*
X190977520Y-96320625D01*
X181767480Y-96320625D01*
X181587668Y-95886521D01*
X181255419Y-95554272D01*
X180821315Y-95374460D01*
X180351445Y-95374460D01*
X179917341Y-95554272D01*
X179585092Y-95886521D01*
X179405280Y-96320625D01*
X175686720Y-96320625D01*
X175686720Y-96054811D01*
X175525082Y-95664584D01*
X175226416Y-95365918D01*
X174836189Y-95204280D01*
X174413811Y-95204280D01*
X174023584Y-95365918D01*
X173724918Y-95664584D01*
X173563280Y-96054811D01*
X172511720Y-96054811D01*
X172350082Y-95664584D01*
X172051416Y-95365918D01*
X171661189Y-95204280D01*
X171238811Y-95204280D01*
X170848584Y-95365918D01*
X170549918Y-95664584D01*
X170388280Y-96054811D01*
X170388280Y-96477189D01*
X170549918Y-96867416D01*
X170751500Y-97068998D01*
X170751501Y-107563705D01*
X170737817Y-107632500D01*
X170792028Y-107905040D01*
X170854999Y-107999282D01*
X170946411Y-108136090D01*
X171004731Y-108175058D01*
X171520511Y-108690838D01*
X171436805Y-108725510D01*
X171384815Y-108777500D01*
X171104695Y-108777500D01*
X170264680Y-107937486D01*
X170229364Y-107884632D01*
X170019981Y-107744726D01*
X169835341Y-107707999D01*
X169835336Y-107707999D01*
X169772997Y-107695599D01*
X169710658Y-107707999D01*
X127913841Y-107707999D01*
X127851502Y-107695599D01*
X127789163Y-107707999D01*
X127789159Y-107707999D01*
X127604519Y-107744726D01*
X127395136Y-107884632D01*
X127359822Y-107937484D01*
X127063500Y-108233805D01*
X127063500Y-98759025D01*
X136001760Y-98759025D01*
X136001760Y-99228895D01*
X136181572Y-99662999D01*
X136513821Y-99995248D01*
X136947925Y-100175060D01*
X137417795Y-100175060D01*
X137512806Y-100135705D01*
X138625580Y-100135705D01*
X138625580Y-100605575D01*
X138805392Y-101039679D01*
X139137641Y-101371928D01*
X139571745Y-101551740D01*
X140041615Y-101551740D01*
X140475719Y-101371928D01*
X140807968Y-101039679D01*
X140987780Y-100605575D01*
X140987780Y-100135705D01*
X141587220Y-100135705D01*
X141587220Y-100605575D01*
X141767032Y-101039679D01*
X142099281Y-101371928D01*
X142533385Y-101551740D01*
X143003255Y-101551740D01*
X143437359Y-101371928D01*
X143769608Y-101039679D01*
X143949420Y-100605575D01*
X143949420Y-100488312D01*
X148864000Y-100488312D01*
X148864000Y-101187688D01*
X149131640Y-101833827D01*
X149626173Y-102328360D01*
X150272312Y-102596000D01*
X150971688Y-102596000D01*
X151617827Y-102328360D01*
X152112360Y-101833827D01*
X152380000Y-101187688D01*
X152380000Y-100488312D01*
X152112360Y-99842173D01*
X151617827Y-99347640D01*
X150971688Y-99080000D01*
X150272312Y-99080000D01*
X149626173Y-99347640D01*
X149131640Y-99842173D01*
X148864000Y-100488312D01*
X143949420Y-100488312D01*
X143949420Y-100135705D01*
X143769608Y-99701601D01*
X143437359Y-99369352D01*
X143003255Y-99189540D01*
X142533385Y-99189540D01*
X142099281Y-99369352D01*
X141767032Y-99701601D01*
X141587220Y-100135705D01*
X140987780Y-100135705D01*
X140807968Y-99701601D01*
X140475719Y-99369352D01*
X140041615Y-99189540D01*
X139571745Y-99189540D01*
X139137641Y-99369352D01*
X138805392Y-99701601D01*
X138625580Y-100135705D01*
X137512806Y-100135705D01*
X137851899Y-99995248D01*
X138184148Y-99662999D01*
X138363960Y-99228895D01*
X138363960Y-98759025D01*
X144211040Y-98759025D01*
X144211040Y-99228895D01*
X144390852Y-99662999D01*
X144723101Y-99995248D01*
X145157205Y-100175060D01*
X145627075Y-100175060D01*
X146061179Y-99995248D01*
X146393428Y-99662999D01*
X146573240Y-99228895D01*
X146573240Y-98759025D01*
X154416760Y-98759025D01*
X154416760Y-99228895D01*
X154596572Y-99662999D01*
X154928821Y-99995248D01*
X155362925Y-100175060D01*
X155832795Y-100175060D01*
X155927806Y-100135705D01*
X157040580Y-100135705D01*
X157040580Y-100605575D01*
X157220392Y-101039679D01*
X157552641Y-101371928D01*
X157986745Y-101551740D01*
X158456615Y-101551740D01*
X158890719Y-101371928D01*
X159222968Y-101039679D01*
X159402780Y-100605575D01*
X159402780Y-100135705D01*
X160002220Y-100135705D01*
X160002220Y-100605575D01*
X160182032Y-101039679D01*
X160514281Y-101371928D01*
X160948385Y-101551740D01*
X161418255Y-101551740D01*
X161852359Y-101371928D01*
X162184608Y-101039679D01*
X162364420Y-100605575D01*
X162364420Y-100135705D01*
X162184608Y-99701601D01*
X161852359Y-99369352D01*
X161418255Y-99189540D01*
X160948385Y-99189540D01*
X160514281Y-99369352D01*
X160182032Y-99701601D01*
X160002220Y-100135705D01*
X159402780Y-100135705D01*
X159222968Y-99701601D01*
X158890719Y-99369352D01*
X158456615Y-99189540D01*
X157986745Y-99189540D01*
X157552641Y-99369352D01*
X157220392Y-99701601D01*
X157040580Y-100135705D01*
X155927806Y-100135705D01*
X156266899Y-99995248D01*
X156599148Y-99662999D01*
X156778960Y-99228895D01*
X156778960Y-98759025D01*
X162626040Y-98759025D01*
X162626040Y-99228895D01*
X162805852Y-99662999D01*
X163138101Y-99995248D01*
X163572205Y-100175060D01*
X164042075Y-100175060D01*
X164476179Y-99995248D01*
X164808428Y-99662999D01*
X164988240Y-99228895D01*
X164988240Y-98759025D01*
X164808428Y-98324921D01*
X164476179Y-97992672D01*
X164042075Y-97812860D01*
X163572205Y-97812860D01*
X163138101Y-97992672D01*
X162805852Y-98324921D01*
X162626040Y-98759025D01*
X156778960Y-98759025D01*
X156599148Y-98324921D01*
X156266899Y-97992672D01*
X155832795Y-97812860D01*
X155362925Y-97812860D01*
X154928821Y-97992672D01*
X154596572Y-98324921D01*
X154416760Y-98759025D01*
X146573240Y-98759025D01*
X146393428Y-98324921D01*
X146061179Y-97992672D01*
X145627075Y-97812860D01*
X145157205Y-97812860D01*
X144723101Y-97992672D01*
X144390852Y-98324921D01*
X144211040Y-98759025D01*
X138363960Y-98759025D01*
X138184148Y-98324921D01*
X137851899Y-97992672D01*
X137417795Y-97812860D01*
X136947925Y-97812860D01*
X136513821Y-97992672D01*
X136181572Y-98324921D01*
X136001760Y-98759025D01*
X127063500Y-98759025D01*
X127063500Y-97068998D01*
X127265082Y-96867416D01*
X127426720Y-96477189D01*
X127426720Y-96054811D01*
X128478280Y-96054811D01*
X128478280Y-96477189D01*
X128639918Y-96867416D01*
X128938584Y-97166082D01*
X129328811Y-97327720D01*
X129751189Y-97327720D01*
X130141416Y-97166082D01*
X130440082Y-96867416D01*
X130601720Y-96477189D01*
X130601720Y-96320625D01*
X134320280Y-96320625D01*
X134320280Y-96790495D01*
X134500092Y-97224599D01*
X134832341Y-97556848D01*
X135266445Y-97736660D01*
X135736315Y-97736660D01*
X136170419Y-97556848D01*
X136502668Y-97224599D01*
X136682480Y-96790495D01*
X136682480Y-96320625D01*
X145892520Y-96320625D01*
X145892520Y-96790495D01*
X146072332Y-97224599D01*
X146404581Y-97556848D01*
X146838685Y-97736660D01*
X147308555Y-97736660D01*
X147742659Y-97556848D01*
X148074908Y-97224599D01*
X148254720Y-96790495D01*
X148254720Y-96320625D01*
X152735280Y-96320625D01*
X152735280Y-96790495D01*
X152915092Y-97224599D01*
X153247341Y-97556848D01*
X153681445Y-97736660D01*
X154151315Y-97736660D01*
X154585419Y-97556848D01*
X154917668Y-97224599D01*
X155097480Y-96790495D01*
X155097480Y-96320625D01*
X164307520Y-96320625D01*
X164307520Y-96790495D01*
X164487332Y-97224599D01*
X164819581Y-97556848D01*
X165253685Y-97736660D01*
X165723555Y-97736660D01*
X166157659Y-97556848D01*
X166489908Y-97224599D01*
X166669720Y-96790495D01*
X166669720Y-96320625D01*
X166489908Y-95886521D01*
X166157659Y-95554272D01*
X165723555Y-95374460D01*
X165253685Y-95374460D01*
X164819581Y-95554272D01*
X164487332Y-95886521D01*
X164307520Y-96320625D01*
X155097480Y-96320625D01*
X154917668Y-95886521D01*
X154585419Y-95554272D01*
X154151315Y-95374460D01*
X153681445Y-95374460D01*
X153247341Y-95554272D01*
X152915092Y-95886521D01*
X152735280Y-96320625D01*
X148254720Y-96320625D01*
X148074908Y-95886521D01*
X147742659Y-95554272D01*
X147308555Y-95374460D01*
X146838685Y-95374460D01*
X146404581Y-95554272D01*
X146072332Y-95886521D01*
X145892520Y-96320625D01*
X136682480Y-96320625D01*
X136502668Y-95886521D01*
X136170419Y-95554272D01*
X135736315Y-95374460D01*
X135266445Y-95374460D01*
X134832341Y-95554272D01*
X134500092Y-95886521D01*
X134320280Y-96320625D01*
X130601720Y-96320625D01*
X130601720Y-96054811D01*
X130440082Y-95664584D01*
X130141416Y-95365918D01*
X129751189Y-95204280D01*
X129328811Y-95204280D01*
X128938584Y-95365918D01*
X128639918Y-95664584D01*
X128478280Y-96054811D01*
X127426720Y-96054811D01*
X127265082Y-95664584D01*
X126966416Y-95365918D01*
X126576189Y-95204280D01*
X126153811Y-95204280D01*
X125763584Y-95365918D01*
X125464918Y-95664584D01*
X125303280Y-96054811D01*
X125303280Y-96477189D01*
X125464918Y-96867416D01*
X125666500Y-97068998D01*
X125666501Y-108477419D01*
X125557000Y-108741779D01*
X125557000Y-108894501D01*
X124713608Y-108894501D01*
X120952593Y-105133487D01*
X120917277Y-105080633D01*
X120707894Y-104940727D01*
X120523254Y-104904000D01*
X120523249Y-104904000D01*
X120460910Y-104891600D01*
X120398571Y-104904000D01*
X100149107Y-104904000D01*
X97325083Y-102079977D01*
X97289767Y-102027123D01*
X97080384Y-101887217D01*
X96895744Y-101850490D01*
X96895739Y-101850490D01*
X96833400Y-101838090D01*
X96771061Y-101850490D01*
X94047597Y-101850490D01*
X93424639Y-101227533D01*
X93424637Y-101227530D01*
X92360635Y-100163528D01*
X92427805Y-100135705D01*
X93540580Y-100135705D01*
X93540580Y-100605575D01*
X93720392Y-101039679D01*
X94052641Y-101371928D01*
X94486745Y-101551740D01*
X94956615Y-101551740D01*
X95390719Y-101371928D01*
X95722968Y-101039679D01*
X95902780Y-100605575D01*
X95902780Y-100135705D01*
X96502220Y-100135705D01*
X96502220Y-100605575D01*
X96682032Y-101039679D01*
X97014281Y-101371928D01*
X97448385Y-101551740D01*
X97918255Y-101551740D01*
X98352359Y-101371928D01*
X98684608Y-101039679D01*
X98864420Y-100605575D01*
X98864420Y-100135705D01*
X98684608Y-99701601D01*
X98352359Y-99369352D01*
X97918255Y-99189540D01*
X97448385Y-99189540D01*
X97014281Y-99369352D01*
X96682032Y-99701601D01*
X96502220Y-100135705D01*
X95902780Y-100135705D01*
X95722968Y-99701601D01*
X95390719Y-99369352D01*
X94956615Y-99189540D01*
X94486745Y-99189540D01*
X94052641Y-99369352D01*
X93720392Y-99701601D01*
X93540580Y-100135705D01*
X92427805Y-100135705D01*
X92766899Y-99995248D01*
X93099148Y-99662999D01*
X93278960Y-99228895D01*
X93278960Y-98759025D01*
X99126040Y-98759025D01*
X99126040Y-99228895D01*
X99305852Y-99662999D01*
X99638101Y-99995248D01*
X100072205Y-100175060D01*
X100542075Y-100175060D01*
X100976179Y-99995248D01*
X101308428Y-99662999D01*
X101488240Y-99228895D01*
X101488240Y-98759025D01*
X109331760Y-98759025D01*
X109331760Y-99228895D01*
X109511572Y-99662999D01*
X109843821Y-99995248D01*
X110277925Y-100175060D01*
X110747795Y-100175060D01*
X110842806Y-100135705D01*
X111955580Y-100135705D01*
X111955580Y-100605575D01*
X112135392Y-101039679D01*
X112467641Y-101371928D01*
X112901745Y-101551740D01*
X113371615Y-101551740D01*
X113805719Y-101371928D01*
X114137968Y-101039679D01*
X114317780Y-100605575D01*
X114317780Y-100135705D01*
X114917220Y-100135705D01*
X114917220Y-100605575D01*
X115097032Y-101039679D01*
X115429281Y-101371928D01*
X115863385Y-101551740D01*
X116333255Y-101551740D01*
X116767359Y-101371928D01*
X117099608Y-101039679D01*
X117279420Y-100605575D01*
X117279420Y-100135705D01*
X117099608Y-99701601D01*
X116767359Y-99369352D01*
X116333255Y-99189540D01*
X115863385Y-99189540D01*
X115429281Y-99369352D01*
X115097032Y-99701601D01*
X114917220Y-100135705D01*
X114317780Y-100135705D01*
X114137968Y-99701601D01*
X113805719Y-99369352D01*
X113371615Y-99189540D01*
X112901745Y-99189540D01*
X112467641Y-99369352D01*
X112135392Y-99701601D01*
X111955580Y-100135705D01*
X110842806Y-100135705D01*
X111181899Y-99995248D01*
X111514148Y-99662999D01*
X111693960Y-99228895D01*
X111693960Y-98759025D01*
X117541040Y-98759025D01*
X117541040Y-99228895D01*
X117720852Y-99662999D01*
X118053101Y-99995248D01*
X118487205Y-100175060D01*
X118957075Y-100175060D01*
X119391179Y-99995248D01*
X119723428Y-99662999D01*
X119903240Y-99228895D01*
X119903240Y-98759025D01*
X119723428Y-98324921D01*
X119391179Y-97992672D01*
X118957075Y-97812860D01*
X118487205Y-97812860D01*
X118053101Y-97992672D01*
X117720852Y-98324921D01*
X117541040Y-98759025D01*
X111693960Y-98759025D01*
X111514148Y-98324921D01*
X111181899Y-97992672D01*
X110747795Y-97812860D01*
X110277925Y-97812860D01*
X109843821Y-97992672D01*
X109511572Y-98324921D01*
X109331760Y-98759025D01*
X101488240Y-98759025D01*
X101308428Y-98324921D01*
X100976179Y-97992672D01*
X100542075Y-97812860D01*
X100072205Y-97812860D01*
X99638101Y-97992672D01*
X99305852Y-98324921D01*
X99126040Y-98759025D01*
X93278960Y-98759025D01*
X93099148Y-98324921D01*
X92766899Y-97992672D01*
X92332795Y-97812860D01*
X91862925Y-97812860D01*
X91428821Y-97992672D01*
X91096572Y-98324921D01*
X90928292Y-98731185D01*
X89758630Y-97561524D01*
X90181445Y-97736660D01*
X90651315Y-97736660D01*
X91085419Y-97556848D01*
X91417668Y-97224599D01*
X91597480Y-96790495D01*
X91597480Y-96320625D01*
X100807520Y-96320625D01*
X100807520Y-96790495D01*
X100987332Y-97224599D01*
X101319581Y-97556848D01*
X101753685Y-97736660D01*
X102223555Y-97736660D01*
X102657659Y-97556848D01*
X102989908Y-97224599D01*
X103169720Y-96790495D01*
X103169720Y-96320625D01*
X107650280Y-96320625D01*
X107650280Y-96790495D01*
X107830092Y-97224599D01*
X108162341Y-97556848D01*
X108596445Y-97736660D01*
X109066315Y-97736660D01*
X109500419Y-97556848D01*
X109832668Y-97224599D01*
X110012480Y-96790495D01*
X110012480Y-96320625D01*
X119222520Y-96320625D01*
X119222520Y-96790495D01*
X119402332Y-97224599D01*
X119734581Y-97556848D01*
X120168685Y-97736660D01*
X120638555Y-97736660D01*
X121072659Y-97556848D01*
X121404908Y-97224599D01*
X121584720Y-96790495D01*
X121584720Y-96320625D01*
X121404908Y-95886521D01*
X121072659Y-95554272D01*
X120638555Y-95374460D01*
X120168685Y-95374460D01*
X119734581Y-95554272D01*
X119402332Y-95886521D01*
X119222520Y-96320625D01*
X110012480Y-96320625D01*
X109832668Y-95886521D01*
X109500419Y-95554272D01*
X109066315Y-95374460D01*
X108596445Y-95374460D01*
X108162341Y-95554272D01*
X107830092Y-95886521D01*
X107650280Y-96320625D01*
X103169720Y-96320625D01*
X102989908Y-95886521D01*
X102657659Y-95554272D01*
X102223555Y-95374460D01*
X101753685Y-95374460D01*
X101319581Y-95554272D01*
X100987332Y-95886521D01*
X100807520Y-96320625D01*
X91597480Y-96320625D01*
X91417668Y-95886521D01*
X91085419Y-95554272D01*
X90651315Y-95374460D01*
X90181445Y-95374460D01*
X89747341Y-95554272D01*
X89475010Y-95826603D01*
X89475010Y-94653611D01*
X89823305Y-94797880D01*
X90293175Y-94797880D01*
X90727279Y-94618068D01*
X91059528Y-94285819D01*
X91239340Y-93851715D01*
X91239340Y-93381845D01*
X101165660Y-93381845D01*
X101165660Y-93851715D01*
X101345472Y-94285819D01*
X101677721Y-94618068D01*
X102111825Y-94797880D01*
X102581695Y-94797880D01*
X103015799Y-94618068D01*
X103348048Y-94285819D01*
X103527860Y-93851715D01*
X103527860Y-93381845D01*
X107292140Y-93381845D01*
X107292140Y-93851715D01*
X107471952Y-94285819D01*
X107804201Y-94618068D01*
X108238305Y-94797880D01*
X108708175Y-94797880D01*
X109142279Y-94618068D01*
X109474528Y-94285819D01*
X109654340Y-93851715D01*
X109654340Y-93381845D01*
X119580660Y-93381845D01*
X119580660Y-93851715D01*
X119760472Y-94285819D01*
X120092721Y-94618068D01*
X120526825Y-94797880D01*
X120996695Y-94797880D01*
X121430799Y-94618068D01*
X121763048Y-94285819D01*
X121942860Y-93851715D01*
X121942860Y-93381845D01*
X133962140Y-93381845D01*
X133962140Y-93851715D01*
X134141952Y-94285819D01*
X134474201Y-94618068D01*
X134908305Y-94797880D01*
X135378175Y-94797880D01*
X135812279Y-94618068D01*
X136144528Y-94285819D01*
X136324340Y-93851715D01*
X136324340Y-93381845D01*
X146250660Y-93381845D01*
X146250660Y-93851715D01*
X146430472Y-94285819D01*
X146762721Y-94618068D01*
X147196825Y-94797880D01*
X147666695Y-94797880D01*
X148100799Y-94618068D01*
X148433048Y-94285819D01*
X148612860Y-93851715D01*
X148612860Y-93381845D01*
X152377140Y-93381845D01*
X152377140Y-93851715D01*
X152556952Y-94285819D01*
X152889201Y-94618068D01*
X153323305Y-94797880D01*
X153793175Y-94797880D01*
X154227279Y-94618068D01*
X154559528Y-94285819D01*
X154739340Y-93851715D01*
X154739340Y-93381845D01*
X164665660Y-93381845D01*
X164665660Y-93851715D01*
X164845472Y-94285819D01*
X165177721Y-94618068D01*
X165611825Y-94797880D01*
X166081695Y-94797880D01*
X166515799Y-94618068D01*
X166848048Y-94285819D01*
X167027860Y-93851715D01*
X167027860Y-93381845D01*
X179047140Y-93381845D01*
X179047140Y-93851715D01*
X179226952Y-94285819D01*
X179559201Y-94618068D01*
X179993305Y-94797880D01*
X180463175Y-94797880D01*
X180897279Y-94618068D01*
X181229528Y-94285819D01*
X181409340Y-93851715D01*
X181409340Y-93381845D01*
X191335660Y-93381845D01*
X191335660Y-93851715D01*
X191515472Y-94285819D01*
X191847721Y-94618068D01*
X192281825Y-94797880D01*
X192751695Y-94797880D01*
X193185799Y-94618068D01*
X193518048Y-94285819D01*
X193697860Y-93851715D01*
X193697860Y-93381845D01*
X197462140Y-93381845D01*
X197462140Y-93851715D01*
X197641952Y-94285819D01*
X197974201Y-94618068D01*
X198408305Y-94797880D01*
X198878175Y-94797880D01*
X199312279Y-94618068D01*
X199644528Y-94285819D01*
X199824340Y-93851715D01*
X199824340Y-93381845D01*
X209750660Y-93381845D01*
X209750660Y-93851715D01*
X209930472Y-94285819D01*
X210262721Y-94618068D01*
X210696825Y-94797880D01*
X211166695Y-94797880D01*
X211600799Y-94618068D01*
X211933048Y-94285819D01*
X212112860Y-93851715D01*
X212112860Y-93381845D01*
X211933048Y-92947741D01*
X211600799Y-92615492D01*
X211166695Y-92435680D01*
X210696825Y-92435680D01*
X210262721Y-92615492D01*
X209930472Y-92947741D01*
X209750660Y-93381845D01*
X199824340Y-93381845D01*
X199644528Y-92947741D01*
X199312279Y-92615492D01*
X198878175Y-92435680D01*
X198408305Y-92435680D01*
X197974201Y-92615492D01*
X197641952Y-92947741D01*
X197462140Y-93381845D01*
X193697860Y-93381845D01*
X193518048Y-92947741D01*
X193185799Y-92615492D01*
X192751695Y-92435680D01*
X192281825Y-92435680D01*
X191847721Y-92615492D01*
X191515472Y-92947741D01*
X191335660Y-93381845D01*
X181409340Y-93381845D01*
X181229528Y-92947741D01*
X180897279Y-92615492D01*
X180463175Y-92435680D01*
X179993305Y-92435680D01*
X179559201Y-92615492D01*
X179226952Y-92947741D01*
X179047140Y-93381845D01*
X167027860Y-93381845D01*
X166848048Y-92947741D01*
X166515799Y-92615492D01*
X166081695Y-92435680D01*
X165611825Y-92435680D01*
X165177721Y-92615492D01*
X164845472Y-92947741D01*
X164665660Y-93381845D01*
X154739340Y-93381845D01*
X154559528Y-92947741D01*
X154227279Y-92615492D01*
X153793175Y-92435680D01*
X153323305Y-92435680D01*
X152889201Y-92615492D01*
X152556952Y-92947741D01*
X152377140Y-93381845D01*
X148612860Y-93381845D01*
X148433048Y-92947741D01*
X148100799Y-92615492D01*
X147666695Y-92435680D01*
X147196825Y-92435680D01*
X146762721Y-92615492D01*
X146430472Y-92947741D01*
X146250660Y-93381845D01*
X136324340Y-93381845D01*
X136144528Y-92947741D01*
X135812279Y-92615492D01*
X135378175Y-92435680D01*
X134908305Y-92435680D01*
X134474201Y-92615492D01*
X134141952Y-92947741D01*
X133962140Y-93381845D01*
X121942860Y-93381845D01*
X121763048Y-92947741D01*
X121430799Y-92615492D01*
X120996695Y-92435680D01*
X120526825Y-92435680D01*
X120092721Y-92615492D01*
X119760472Y-92947741D01*
X119580660Y-93381845D01*
X109654340Y-93381845D01*
X109474528Y-92947741D01*
X109142279Y-92615492D01*
X108708175Y-92435680D01*
X108238305Y-92435680D01*
X107804201Y-92615492D01*
X107471952Y-92947741D01*
X107292140Y-93381845D01*
X103527860Y-93381845D01*
X103348048Y-92947741D01*
X103015799Y-92615492D01*
X102581695Y-92435680D01*
X102111825Y-92435680D01*
X101677721Y-92615492D01*
X101345472Y-92947741D01*
X101165660Y-93381845D01*
X91239340Y-93381845D01*
X91059528Y-92947741D01*
X90727279Y-92615492D01*
X90293175Y-92435680D01*
X89823305Y-92435680D01*
X89389201Y-92615492D01*
X89056952Y-92947741D01*
X88877140Y-93381845D01*
X88877140Y-93517005D01*
X88765500Y-93405365D01*
X88765500Y-93331841D01*
X88642490Y-93034867D01*
X88510908Y-92903285D01*
X88599471Y-92770741D01*
X88657452Y-92479250D01*
X88657452Y-91991750D01*
X88599471Y-91700259D01*
X88434355Y-91453145D01*
X88202164Y-91298000D01*
X88434355Y-91142855D01*
X88599471Y-90895741D01*
X88656168Y-90610705D01*
X89928700Y-90610705D01*
X89928700Y-91080575D01*
X90108512Y-91514679D01*
X90440761Y-91846928D01*
X90874865Y-92026740D01*
X91344735Y-92026740D01*
X91778839Y-91846928D01*
X92111088Y-91514679D01*
X92290900Y-91080575D01*
X92290900Y-90610705D01*
X100114100Y-90610705D01*
X100114100Y-91080575D01*
X100293912Y-91514679D01*
X100626161Y-91846928D01*
X101060265Y-92026740D01*
X101530135Y-92026740D01*
X101964239Y-91846928D01*
X102296488Y-91514679D01*
X102476300Y-91080575D01*
X102476300Y-90610705D01*
X108343700Y-90610705D01*
X108343700Y-91080575D01*
X108523512Y-91514679D01*
X108855761Y-91846928D01*
X109289865Y-92026740D01*
X109759735Y-92026740D01*
X110193839Y-91846928D01*
X110526088Y-91514679D01*
X110705900Y-91080575D01*
X110705900Y-90610705D01*
X118529100Y-90610705D01*
X118529100Y-91080575D01*
X118708912Y-91514679D01*
X119041161Y-91846928D01*
X119475265Y-92026740D01*
X119945135Y-92026740D01*
X120379239Y-91846928D01*
X120711488Y-91514679D01*
X120891300Y-91080575D01*
X120891300Y-90610705D01*
X135013700Y-90610705D01*
X135013700Y-91080575D01*
X135193512Y-91514679D01*
X135525761Y-91846928D01*
X135959865Y-92026740D01*
X136429735Y-92026740D01*
X136863839Y-91846928D01*
X137196088Y-91514679D01*
X137375900Y-91080575D01*
X137375900Y-90610705D01*
X145199100Y-90610705D01*
X145199100Y-91080575D01*
X145378912Y-91514679D01*
X145711161Y-91846928D01*
X146145265Y-92026740D01*
X146615135Y-92026740D01*
X147049239Y-91846928D01*
X147381488Y-91514679D01*
X147561300Y-91080575D01*
X147561300Y-90610705D01*
X153428700Y-90610705D01*
X153428700Y-91080575D01*
X153608512Y-91514679D01*
X153940761Y-91846928D01*
X154374865Y-92026740D01*
X154844735Y-92026740D01*
X155278839Y-91846928D01*
X155611088Y-91514679D01*
X155790900Y-91080575D01*
X155790900Y-90610705D01*
X163614100Y-90610705D01*
X163614100Y-91080575D01*
X163793912Y-91514679D01*
X164126161Y-91846928D01*
X164560265Y-92026740D01*
X165030135Y-92026740D01*
X165464239Y-91846928D01*
X165796488Y-91514679D01*
X165976300Y-91080575D01*
X165976300Y-90610705D01*
X180098700Y-90610705D01*
X180098700Y-91080575D01*
X180278512Y-91514679D01*
X180610761Y-91846928D01*
X181044865Y-92026740D01*
X181514735Y-92026740D01*
X181948839Y-91846928D01*
X182281088Y-91514679D01*
X182460900Y-91080575D01*
X182460900Y-90610705D01*
X190284100Y-90610705D01*
X190284100Y-91080575D01*
X190463912Y-91514679D01*
X190796161Y-91846928D01*
X191230265Y-92026740D01*
X191700135Y-92026740D01*
X192134239Y-91846928D01*
X192466488Y-91514679D01*
X192646300Y-91080575D01*
X192646300Y-90610705D01*
X198513700Y-90610705D01*
X198513700Y-91080575D01*
X198693512Y-91514679D01*
X199025761Y-91846928D01*
X199459865Y-92026740D01*
X199929735Y-92026740D01*
X200363839Y-91846928D01*
X200696088Y-91514679D01*
X200875900Y-91080575D01*
X200875900Y-90610705D01*
X208699100Y-90610705D01*
X208699100Y-91080575D01*
X208878912Y-91514679D01*
X209211161Y-91846928D01*
X209645265Y-92026740D01*
X210115135Y-92026740D01*
X210549239Y-91846928D01*
X210797855Y-91598312D01*
X213126000Y-91598312D01*
X213126000Y-92297688D01*
X213393640Y-92943827D01*
X213888173Y-93438360D01*
X214534312Y-93706000D01*
X215233688Y-93706000D01*
X215879827Y-93438360D01*
X216374360Y-92943827D01*
X216642000Y-92297688D01*
X216642000Y-91598312D01*
X216374360Y-90952173D01*
X215879827Y-90457640D01*
X215233688Y-90190000D01*
X214534312Y-90190000D01*
X213888173Y-90457640D01*
X213393640Y-90952173D01*
X213126000Y-91598312D01*
X210797855Y-91598312D01*
X210881488Y-91514679D01*
X211061300Y-91080575D01*
X211061300Y-90610705D01*
X210881488Y-90176601D01*
X210638919Y-89934032D01*
X220219073Y-89934032D01*
X220317736Y-90200887D01*
X220927461Y-90427408D01*
X221577460Y-90403356D01*
X222066264Y-90200887D01*
X222164927Y-89934032D01*
X227669073Y-89934032D01*
X227767736Y-90200887D01*
X228377461Y-90427408D01*
X229027460Y-90403356D01*
X229516264Y-90200887D01*
X229614927Y-89934032D01*
X228642000Y-88961105D01*
X227669073Y-89934032D01*
X222164927Y-89934032D01*
X221192000Y-88961105D01*
X220219073Y-89934032D01*
X210638919Y-89934032D01*
X210549239Y-89844352D01*
X210115135Y-89664540D01*
X209645265Y-89664540D01*
X209211161Y-89844352D01*
X208878912Y-90176601D01*
X208699100Y-90610705D01*
X200875900Y-90610705D01*
X200696088Y-90176601D01*
X200363839Y-89844352D01*
X199929735Y-89664540D01*
X199459865Y-89664540D01*
X199025761Y-89844352D01*
X198693512Y-90176601D01*
X198513700Y-90610705D01*
X192646300Y-90610705D01*
X192466488Y-90176601D01*
X192134239Y-89844352D01*
X191700135Y-89664540D01*
X191230265Y-89664540D01*
X190796161Y-89844352D01*
X190463912Y-90176601D01*
X190284100Y-90610705D01*
X182460900Y-90610705D01*
X182281088Y-90176601D01*
X181948839Y-89844352D01*
X181514735Y-89664540D01*
X181044865Y-89664540D01*
X180610761Y-89844352D01*
X180278512Y-90176601D01*
X180098700Y-90610705D01*
X165976300Y-90610705D01*
X165796488Y-90176601D01*
X165464239Y-89844352D01*
X165030135Y-89664540D01*
X164560265Y-89664540D01*
X164126161Y-89844352D01*
X163793912Y-90176601D01*
X163614100Y-90610705D01*
X155790900Y-90610705D01*
X155611088Y-90176601D01*
X155278839Y-89844352D01*
X154844735Y-89664540D01*
X154374865Y-89664540D01*
X153940761Y-89844352D01*
X153608512Y-90176601D01*
X153428700Y-90610705D01*
X147561300Y-90610705D01*
X147381488Y-90176601D01*
X147049239Y-89844352D01*
X146615135Y-89664540D01*
X146145265Y-89664540D01*
X145711161Y-89844352D01*
X145378912Y-90176601D01*
X145199100Y-90610705D01*
X137375900Y-90610705D01*
X137196088Y-90176601D01*
X136863839Y-89844352D01*
X136429735Y-89664540D01*
X135959865Y-89664540D01*
X135525761Y-89844352D01*
X135193512Y-90176601D01*
X135013700Y-90610705D01*
X120891300Y-90610705D01*
X120711488Y-90176601D01*
X120379239Y-89844352D01*
X119945135Y-89664540D01*
X119475265Y-89664540D01*
X119041161Y-89844352D01*
X118708912Y-90176601D01*
X118529100Y-90610705D01*
X110705900Y-90610705D01*
X110526088Y-90176601D01*
X110193839Y-89844352D01*
X109759735Y-89664540D01*
X109289865Y-89664540D01*
X108855761Y-89844352D01*
X108523512Y-90176601D01*
X108343700Y-90610705D01*
X102476300Y-90610705D01*
X102296488Y-90176601D01*
X101964239Y-89844352D01*
X101530135Y-89664540D01*
X101060265Y-89664540D01*
X100626161Y-89844352D01*
X100293912Y-90176601D01*
X100114100Y-90610705D01*
X92290900Y-90610705D01*
X92111088Y-90176601D01*
X91778839Y-89844352D01*
X91344735Y-89664540D01*
X90874865Y-89664540D01*
X90440761Y-89844352D01*
X90108512Y-90176601D01*
X89928700Y-90610705D01*
X88656168Y-90610705D01*
X88657452Y-90604250D01*
X88657452Y-90116750D01*
X88599471Y-89825259D01*
X88434355Y-89578145D01*
X88187241Y-89413029D01*
X87895750Y-89355048D01*
X86983250Y-89355048D01*
X86691759Y-89413029D01*
X86444645Y-89578145D01*
X86279529Y-89825259D01*
X86221548Y-90116750D01*
X86221548Y-90604250D01*
X86234656Y-90670148D01*
X86019987Y-90884817D01*
X85967133Y-90920133D01*
X85827227Y-91129517D01*
X85826326Y-91134048D01*
X83333500Y-91134048D01*
X83135288Y-91173475D01*
X82967253Y-91285753D01*
X82854975Y-91453788D01*
X82815548Y-91652000D01*
X82815548Y-92752000D01*
X82854975Y-92950212D01*
X82967253Y-93118247D01*
X83092598Y-93202000D01*
X82967253Y-93285753D01*
X82854975Y-93453788D01*
X82815548Y-93652000D01*
X82815548Y-94752000D01*
X82854975Y-94950212D01*
X82967253Y-95118247D01*
X83092598Y-95202000D01*
X82967253Y-95285753D01*
X82854975Y-95453788D01*
X82815548Y-95652000D01*
X82815548Y-96752000D01*
X82854975Y-96950212D01*
X82967253Y-97118247D01*
X83092598Y-97202000D01*
X82967253Y-97285753D01*
X82854975Y-97453788D01*
X82815548Y-97652000D01*
X82815548Y-98752000D01*
X82854975Y-98950212D01*
X82967253Y-99118247D01*
X83092598Y-99202000D01*
X82967253Y-99285753D01*
X82854975Y-99453788D01*
X82815548Y-99652000D01*
X82815548Y-100375755D01*
X82548000Y-100643303D01*
X82548000Y-100265338D01*
X82560400Y-100202999D01*
X82548000Y-100140660D01*
X82548000Y-100140656D01*
X82511273Y-99956016D01*
X82371367Y-99746633D01*
X82318516Y-99711319D01*
X81280684Y-98673488D01*
X81245368Y-98620634D01*
X81035985Y-98480728D01*
X80851345Y-98444001D01*
X80851340Y-98444001D01*
X80789001Y-98431601D01*
X80726662Y-98444001D01*
X73020699Y-98444001D01*
X70951452Y-96374756D01*
X70951452Y-95652000D01*
X70912025Y-95453788D01*
X70799747Y-95285753D01*
X70674402Y-95202000D01*
X70799747Y-95118247D01*
X70912025Y-94950212D01*
X70933580Y-94841846D01*
X70961500Y-94847400D01*
X71023839Y-94835000D01*
X71023844Y-94835000D01*
X71208484Y-94798273D01*
X71417867Y-94658367D01*
X71453183Y-94605513D01*
X75019194Y-91039503D01*
X80536662Y-91039503D01*
X80599001Y-91051903D01*
X80661340Y-91039503D01*
X80661345Y-91039503D01*
X80845985Y-91002776D01*
X80978093Y-90914504D01*
X81059721Y-90914504D01*
X81356695Y-90791494D01*
X81583990Y-90564199D01*
X81707000Y-90267225D01*
X81707000Y-89945783D01*
X81621145Y-89738510D01*
X84900004Y-89725499D01*
X84948101Y-89715833D01*
X84989303Y-89688303D01*
X85016833Y-89647101D01*
X85026500Y-89598500D01*
X85026500Y-88647285D01*
X92146120Y-88647285D01*
X92146120Y-89117155D01*
X92325932Y-89551259D01*
X92658181Y-89883508D01*
X93092285Y-90063320D01*
X93562155Y-90063320D01*
X93996259Y-89883508D01*
X94328508Y-89551259D01*
X94508320Y-89117155D01*
X94508320Y-88647285D01*
X94328508Y-88213181D01*
X94053952Y-87938625D01*
X95021400Y-87938625D01*
X95021400Y-88408495D01*
X95201212Y-88842599D01*
X95533461Y-89174848D01*
X95967565Y-89354660D01*
X96437435Y-89354660D01*
X96871539Y-89174848D01*
X97203788Y-88842599D01*
X97284689Y-88647285D01*
X97896680Y-88647285D01*
X97896680Y-89117155D01*
X98076492Y-89551259D01*
X98408741Y-89883508D01*
X98842845Y-90063320D01*
X99312715Y-90063320D01*
X99746819Y-89883508D01*
X100079068Y-89551259D01*
X100258880Y-89117155D01*
X100258880Y-88647285D01*
X110561120Y-88647285D01*
X110561120Y-89117155D01*
X110740932Y-89551259D01*
X111073181Y-89883508D01*
X111507285Y-90063320D01*
X111977155Y-90063320D01*
X112411259Y-89883508D01*
X112743508Y-89551259D01*
X112923320Y-89117155D01*
X112923320Y-88647285D01*
X112743508Y-88213181D01*
X112468952Y-87938625D01*
X113436400Y-87938625D01*
X113436400Y-88408495D01*
X113616212Y-88842599D01*
X113948461Y-89174848D01*
X114382565Y-89354660D01*
X114852435Y-89354660D01*
X115286539Y-89174848D01*
X115618788Y-88842599D01*
X115699689Y-88647285D01*
X116311680Y-88647285D01*
X116311680Y-89117155D01*
X116491492Y-89551259D01*
X116823741Y-89883508D01*
X117257845Y-90063320D01*
X117727715Y-90063320D01*
X118161819Y-89883508D01*
X118494068Y-89551259D01*
X118673880Y-89117155D01*
X118673880Y-88647285D01*
X137231120Y-88647285D01*
X137231120Y-89117155D01*
X137410932Y-89551259D01*
X137743181Y-89883508D01*
X138177285Y-90063320D01*
X138647155Y-90063320D01*
X139081259Y-89883508D01*
X139413508Y-89551259D01*
X139593320Y-89117155D01*
X139593320Y-88647285D01*
X139413508Y-88213181D01*
X139138952Y-87938625D01*
X140106400Y-87938625D01*
X140106400Y-88408495D01*
X140286212Y-88842599D01*
X140618461Y-89174848D01*
X141052565Y-89354660D01*
X141522435Y-89354660D01*
X141956539Y-89174848D01*
X142288788Y-88842599D01*
X142369689Y-88647285D01*
X142981680Y-88647285D01*
X142981680Y-89117155D01*
X143161492Y-89551259D01*
X143493741Y-89883508D01*
X143927845Y-90063320D01*
X144397715Y-90063320D01*
X144831819Y-89883508D01*
X145164068Y-89551259D01*
X145343880Y-89117155D01*
X145343880Y-88647285D01*
X145164068Y-88213181D01*
X144831819Y-87880932D01*
X144397715Y-87701120D01*
X143927845Y-87701120D01*
X143493741Y-87880932D01*
X143161492Y-88213181D01*
X142981680Y-88647285D01*
X142369689Y-88647285D01*
X142468600Y-88408495D01*
X142468600Y-87938625D01*
X142288788Y-87504521D01*
X141956539Y-87172272D01*
X141522435Y-86992460D01*
X141052565Y-86992460D01*
X140618461Y-87172272D01*
X140286212Y-87504521D01*
X140106400Y-87938625D01*
X139138952Y-87938625D01*
X139081259Y-87880932D01*
X138647155Y-87701120D01*
X138177285Y-87701120D01*
X137743181Y-87880932D01*
X137410932Y-88213181D01*
X137231120Y-88647285D01*
X118673880Y-88647285D01*
X118494068Y-88213181D01*
X118161819Y-87880932D01*
X117727715Y-87701120D01*
X117257845Y-87701120D01*
X116823741Y-87880932D01*
X116491492Y-88213181D01*
X116311680Y-88647285D01*
X115699689Y-88647285D01*
X115798600Y-88408495D01*
X115798600Y-87938625D01*
X115618788Y-87504521D01*
X115286539Y-87172272D01*
X114852435Y-86992460D01*
X114382565Y-86992460D01*
X113948461Y-87172272D01*
X113616212Y-87504521D01*
X113436400Y-87938625D01*
X112468952Y-87938625D01*
X112411259Y-87880932D01*
X111977155Y-87701120D01*
X111507285Y-87701120D01*
X111073181Y-87880932D01*
X110740932Y-88213181D01*
X110561120Y-88647285D01*
X100258880Y-88647285D01*
X100079068Y-88213181D01*
X99746819Y-87880932D01*
X99312715Y-87701120D01*
X98842845Y-87701120D01*
X98408741Y-87880932D01*
X98076492Y-88213181D01*
X97896680Y-88647285D01*
X97284689Y-88647285D01*
X97383600Y-88408495D01*
X97383600Y-87938625D01*
X97203788Y-87504521D01*
X96871539Y-87172272D01*
X96437435Y-86992460D01*
X95967565Y-86992460D01*
X95533461Y-87172272D01*
X95201212Y-87504521D01*
X95021400Y-87938625D01*
X94053952Y-87938625D01*
X93996259Y-87880932D01*
X93562155Y-87701120D01*
X93092285Y-87701120D01*
X92658181Y-87880932D01*
X92325932Y-88213181D01*
X92146120Y-88647285D01*
X85026500Y-88647285D01*
X85026500Y-86518312D01*
X120162000Y-86518312D01*
X120162000Y-87217688D01*
X120429640Y-87863827D01*
X120924173Y-88358360D01*
X121570312Y-88626000D01*
X122269688Y-88626000D01*
X122915827Y-88358360D01*
X123410360Y-87863827D01*
X123678000Y-87217688D01*
X123678000Y-86518312D01*
X123410360Y-85872173D01*
X122915827Y-85377640D01*
X122269688Y-85110000D01*
X121570312Y-85110000D01*
X120924173Y-85377640D01*
X120429640Y-85872173D01*
X120162000Y-86518312D01*
X85026500Y-86518312D01*
X85026500Y-83857000D01*
X147501673Y-83857000D01*
X147149731Y-84208942D01*
X147149731Y-84208942D01*
G37*
X147149731Y-84208942D02*
X147091411Y-84247910D01*
X147052442Y-84306231D01*
X146937028Y-84478960D01*
X146886820Y-84731376D01*
X146876117Y-84733505D01*
X146626976Y-84899976D01*
X146460505Y-85149117D01*
X146402048Y-85442999D01*
X146402048Y-88293001D01*
X146460505Y-88586883D01*
X146626976Y-88836024D01*
X146876117Y-89002495D01*
X147169999Y-89060952D01*
X148020001Y-89060952D01*
X148313883Y-89002495D01*
X148563024Y-88836024D01*
X148729495Y-88586883D01*
X148787952Y-88293001D01*
X148787952Y-85442999D01*
X152202048Y-85442999D01*
X152202048Y-88293001D01*
X152260505Y-88586883D01*
X152426976Y-88836024D01*
X152676117Y-89002495D01*
X152969999Y-89060952D01*
X153820001Y-89060952D01*
X154113883Y-89002495D01*
X154363024Y-88836024D01*
X154489135Y-88647285D01*
X155646120Y-88647285D01*
X155646120Y-89117155D01*
X155825932Y-89551259D01*
X156158181Y-89883508D01*
X156592285Y-90063320D01*
X157062155Y-90063320D01*
X157496259Y-89883508D01*
X157828508Y-89551259D01*
X158008320Y-89117155D01*
X158008320Y-88647285D01*
X157828508Y-88213181D01*
X157496259Y-87880932D01*
X157062155Y-87701120D01*
X156592285Y-87701120D01*
X156158181Y-87880932D01*
X155825932Y-88213181D01*
X155646120Y-88647285D01*
X154489135Y-88647285D01*
X154529495Y-88586883D01*
X154587952Y-88293001D01*
X154587952Y-87566500D01*
X158675539Y-87566500D01*
X158521400Y-87938625D01*
X158521400Y-88408495D01*
X158701212Y-88842599D01*
X159033461Y-89174848D01*
X159467565Y-89354660D01*
X159937435Y-89354660D01*
X160371539Y-89174848D01*
X160703788Y-88842599D01*
X160784689Y-88647285D01*
X161396680Y-88647285D01*
X161396680Y-89117155D01*
X161576492Y-89551259D01*
X161908741Y-89883508D01*
X162342845Y-90063320D01*
X162812715Y-90063320D01*
X163246819Y-89883508D01*
X163579068Y-89551259D01*
X163758880Y-89117155D01*
X163758880Y-88647285D01*
X182316120Y-88647285D01*
X182316120Y-89117155D01*
X182495932Y-89551259D01*
X182828181Y-89883508D01*
X183262285Y-90063320D01*
X183732155Y-90063320D01*
X184166259Y-89883508D01*
X184498508Y-89551259D01*
X184678320Y-89117155D01*
X184678320Y-88647285D01*
X184498508Y-88213181D01*
X184223952Y-87938625D01*
X185191400Y-87938625D01*
X185191400Y-88408495D01*
X185371212Y-88842599D01*
X185703461Y-89174848D01*
X186137565Y-89354660D01*
X186607435Y-89354660D01*
X187041539Y-89174848D01*
X187373788Y-88842599D01*
X187454689Y-88647285D01*
X188066680Y-88647285D01*
X188066680Y-89117155D01*
X188246492Y-89551259D01*
X188578741Y-89883508D01*
X189012845Y-90063320D01*
X189482715Y-90063320D01*
X189916819Y-89883508D01*
X190249068Y-89551259D01*
X190428880Y-89117155D01*
X190428880Y-88647285D01*
X200731120Y-88647285D01*
X200731120Y-89117155D01*
X200910932Y-89551259D01*
X201243181Y-89883508D01*
X201677285Y-90063320D01*
X202147155Y-90063320D01*
X202581259Y-89883508D01*
X202913508Y-89551259D01*
X203093320Y-89117155D01*
X203093320Y-88647285D01*
X202913508Y-88213181D01*
X202638952Y-87938625D01*
X203606400Y-87938625D01*
X203606400Y-88408495D01*
X203786212Y-88842599D01*
X204118461Y-89174848D01*
X204552565Y-89354660D01*
X205022435Y-89354660D01*
X205456539Y-89174848D01*
X205788788Y-88842599D01*
X205869689Y-88647285D01*
X206481680Y-88647285D01*
X206481680Y-89117155D01*
X206661492Y-89551259D01*
X206993741Y-89883508D01*
X207427845Y-90063320D01*
X207897715Y-90063320D01*
X208331819Y-89883508D01*
X208664068Y-89551259D01*
X208843880Y-89117155D01*
X208843880Y-88647285D01*
X208789898Y-88516961D01*
X219546092Y-88516961D01*
X219570144Y-89166960D01*
X219772613Y-89655764D01*
X220039468Y-89754427D01*
X221012395Y-88781500D01*
X220039468Y-87808573D01*
X219772613Y-87907236D01*
X219546092Y-88516961D01*
X208789898Y-88516961D01*
X208664068Y-88213181D01*
X208331819Y-87880932D01*
X207897715Y-87701120D01*
X207427845Y-87701120D01*
X206993741Y-87880932D01*
X206661492Y-88213181D01*
X206481680Y-88647285D01*
X205869689Y-88647285D01*
X205968600Y-88408495D01*
X205968600Y-87938625D01*
X205840336Y-87628968D01*
X220219073Y-87628968D01*
X221192000Y-88601895D01*
X221206143Y-88587753D01*
X221385748Y-88767358D01*
X221371605Y-88781500D01*
X222344532Y-89754427D01*
X222611387Y-89655764D01*
X222837908Y-89046039D01*
X222819464Y-88547606D01*
X222931341Y-88501265D01*
X223186765Y-88245841D01*
X223325000Y-87912112D01*
X223325000Y-87550888D01*
X226509000Y-87550888D01*
X226509000Y-87912112D01*
X226647235Y-88245841D01*
X226902659Y-88501265D01*
X226996957Y-88540324D01*
X227020144Y-89166960D01*
X227222613Y-89655764D01*
X227489468Y-89754427D01*
X228462395Y-88781500D01*
X228821605Y-88781500D01*
X229794532Y-89754427D01*
X230061387Y-89655764D01*
X230287908Y-89046039D01*
X230263856Y-88396040D01*
X230061387Y-87907236D01*
X229794532Y-87808573D01*
X228821605Y-88781500D01*
X228462395Y-88781500D01*
X228448253Y-88767358D01*
X228627858Y-88587753D01*
X228642000Y-88601895D01*
X229614927Y-87628968D01*
X229516264Y-87362113D01*
X228906539Y-87135592D01*
X228256540Y-87159644D01*
X228166532Y-87196926D01*
X227931341Y-86961735D01*
X227597612Y-86823500D01*
X227236388Y-86823500D01*
X226902659Y-86961735D01*
X226647235Y-87217159D01*
X226509000Y-87550888D01*
X223325000Y-87550888D01*
X223186765Y-87217159D01*
X222931341Y-86961735D01*
X222597612Y-86823500D01*
X222236388Y-86823500D01*
X221902659Y-86961735D01*
X221655052Y-87209342D01*
X221456539Y-87135592D01*
X220806540Y-87159644D01*
X220317736Y-87362113D01*
X220219073Y-87628968D01*
X205840336Y-87628968D01*
X205788788Y-87504521D01*
X205456539Y-87172272D01*
X205022435Y-86992460D01*
X204552565Y-86992460D01*
X204118461Y-87172272D01*
X203786212Y-87504521D01*
X203606400Y-87938625D01*
X202638952Y-87938625D01*
X202581259Y-87880932D01*
X202147155Y-87701120D01*
X201677285Y-87701120D01*
X201243181Y-87880932D01*
X200910932Y-88213181D01*
X200731120Y-88647285D01*
X190428880Y-88647285D01*
X190249068Y-88213181D01*
X189916819Y-87880932D01*
X189482715Y-87701120D01*
X189012845Y-87701120D01*
X188578741Y-87880932D01*
X188246492Y-88213181D01*
X188066680Y-88647285D01*
X187454689Y-88647285D01*
X187553600Y-88408495D01*
X187553600Y-87938625D01*
X187373788Y-87504521D01*
X187041539Y-87172272D01*
X186607435Y-86992460D01*
X186137565Y-86992460D01*
X185703461Y-87172272D01*
X185371212Y-87504521D01*
X185191400Y-87938625D01*
X184223952Y-87938625D01*
X184166259Y-87880932D01*
X183732155Y-87701120D01*
X183262285Y-87701120D01*
X182828181Y-87880932D01*
X182495932Y-88213181D01*
X182316120Y-88647285D01*
X163758880Y-88647285D01*
X163579068Y-88213181D01*
X163246819Y-87880932D01*
X162812715Y-87701120D01*
X162342845Y-87701120D01*
X161908741Y-87880932D01*
X161576492Y-88213181D01*
X161396680Y-88647285D01*
X160784689Y-88647285D01*
X160883600Y-88408495D01*
X160883600Y-87938625D01*
X160703788Y-87504521D01*
X160413134Y-87213867D01*
X160401000Y-87152863D01*
X160401000Y-87152859D01*
X160360472Y-86949112D01*
X160206090Y-86718063D01*
X160147766Y-86679092D01*
X159986986Y-86518312D01*
X177566000Y-86518312D01*
X177566000Y-87217688D01*
X177833640Y-87863827D01*
X178328173Y-88358360D01*
X178974312Y-88626000D01*
X179673688Y-88626000D01*
X180319827Y-88358360D01*
X180814360Y-87863827D01*
X181082000Y-87217688D01*
X181082000Y-86518312D01*
X180892848Y-86061659D01*
X220141446Y-86061659D01*
X220227852Y-86318143D01*
X220801336Y-86527958D01*
X221411460Y-86502339D01*
X221856148Y-86318143D01*
X221942554Y-86061659D01*
X227891446Y-86061659D01*
X227977852Y-86318143D01*
X228551336Y-86527958D01*
X229161460Y-86502339D01*
X229606148Y-86318143D01*
X229692554Y-86061659D01*
X228792000Y-85161105D01*
X227891446Y-86061659D01*
X221942554Y-86061659D01*
X221042000Y-85161105D01*
X220141446Y-86061659D01*
X180892848Y-86061659D01*
X180814360Y-85872173D01*
X180319827Y-85377640D01*
X179673688Y-85110000D01*
X178974312Y-85110000D01*
X178328173Y-85377640D01*
X177833640Y-85872173D01*
X177566000Y-86518312D01*
X159986986Y-86518312D01*
X159891408Y-86422734D01*
X159852437Y-86364410D01*
X159621388Y-86210028D01*
X159417641Y-86169500D01*
X159417637Y-86169500D01*
X159348847Y-86155817D01*
X159280057Y-86169500D01*
X154587952Y-86169500D01*
X154587952Y-85442999D01*
X154529495Y-85149117D01*
X154363024Y-84899976D01*
X154124855Y-84740836D01*
X219495542Y-84740836D01*
X219521161Y-85350960D01*
X219705357Y-85795648D01*
X219961841Y-85882054D01*
X220862395Y-84981500D01*
X221221605Y-84981500D01*
X222122159Y-85882054D01*
X222378643Y-85795648D01*
X222588458Y-85222164D01*
X222568248Y-84740836D01*
X227245542Y-84740836D01*
X227271161Y-85350960D01*
X227455357Y-85795648D01*
X227711841Y-85882054D01*
X228612395Y-84981500D01*
X228971605Y-84981500D01*
X229872159Y-85882054D01*
X230128643Y-85795648D01*
X230338458Y-85222164D01*
X230312839Y-84612040D01*
X230128643Y-84167352D01*
X229872159Y-84080946D01*
X228971605Y-84981500D01*
X228612395Y-84981500D01*
X227711841Y-84080946D01*
X227455357Y-84167352D01*
X227245542Y-84740836D01*
X222568248Y-84740836D01*
X222562839Y-84612040D01*
X222378643Y-84167352D01*
X222122159Y-84080946D01*
X221221605Y-84981500D01*
X220862395Y-84981500D01*
X219961841Y-84080946D01*
X219705357Y-84167352D01*
X219495542Y-84740836D01*
X154124855Y-84740836D01*
X154113883Y-84733505D01*
X153820001Y-84675048D01*
X152969999Y-84675048D01*
X152676117Y-84733505D01*
X152426976Y-84899976D01*
X152260505Y-85149117D01*
X152202048Y-85442999D01*
X148787952Y-85442999D01*
X148729495Y-85149117D01*
X148563024Y-84899976D01*
X148485891Y-84848437D01*
X148688828Y-84645500D01*
X150678605Y-84645500D01*
X150707482Y-84674377D01*
X151022833Y-84805000D01*
X151364167Y-84805000D01*
X151679518Y-84674377D01*
X151920877Y-84433018D01*
X152051500Y-84117667D01*
X152051500Y-83857000D01*
X220156384Y-83857000D01*
X220141446Y-83901341D01*
X221042000Y-84801895D01*
X221942554Y-83901341D01*
X221927616Y-83857000D01*
X227906384Y-83857000D01*
X227891446Y-83901341D01*
X228792000Y-84801895D01*
X229692554Y-83901341D01*
X229677616Y-83857000D01*
X230220205Y-83857000D01*
X230932430Y-83929346D01*
X231586018Y-84134169D01*
X232185074Y-84466231D01*
X232705123Y-84911966D01*
X233124924Y-85453169D01*
X233427329Y-86067736D01*
X233601869Y-86737805D01*
X233643000Y-87272356D01*
X233643001Y-116218194D01*
X233570655Y-116930425D01*
X233365832Y-117584016D01*
X233033769Y-118183074D01*
X232588031Y-118703125D01*
X232046826Y-119122927D01*
X231432264Y-119425329D01*
X230762196Y-119599869D01*
X230227644Y-119641000D01*
X225857117Y-119641000D01*
X225944867Y-119582367D01*
X225980183Y-119529513D01*
X227874291Y-117635406D01*
X228148753Y-117690000D01*
X228416247Y-117690000D01*
X228812365Y-117611207D01*
X229261563Y-117311063D01*
X229454548Y-117022240D01*
X229454548Y-117182000D01*
X229493975Y-117380212D01*
X229606253Y-117548247D01*
X229774288Y-117660525D01*
X229972500Y-117699952D01*
X231672500Y-117699952D01*
X231870712Y-117660525D01*
X232038747Y-117548247D01*
X232151025Y-117380212D01*
X232190452Y-117182000D01*
X232190452Y-115482000D01*
X232151025Y-115283788D01*
X232038747Y-115115753D01*
X231870712Y-115003475D01*
X231672500Y-114964048D01*
X231404763Y-114964048D01*
X231378672Y-114925001D01*
X231314182Y-114828484D01*
X231314179Y-114828481D01*
X231278867Y-114775633D01*
X231226018Y-114740321D01*
X228985183Y-112499487D01*
X228949867Y-112446633D01*
X228740484Y-112306727D01*
X228555844Y-112270000D01*
X228555839Y-112270000D01*
X228493500Y-112257600D01*
X228431161Y-112270000D01*
X189047697Y-112270000D01*
X185784683Y-109006987D01*
X185749367Y-108954133D01*
X185539984Y-108814227D01*
X185355344Y-108777500D01*
X185355339Y-108777500D01*
X185293000Y-108765100D01*
X185230661Y-108777500D01*
X175706185Y-108777500D01*
X175654195Y-108725510D01*
X175357221Y-108602500D01*
X175035779Y-108602500D01*
X174738805Y-108725510D01*
X174511510Y-108952805D01*
X174388500Y-109249779D01*
X174388500Y-109571221D01*
X174396951Y-109591623D01*
X172148500Y-107343173D01*
X172148500Y-98759025D01*
X181086760Y-98759025D01*
X181086760Y-99228895D01*
X181266572Y-99662999D01*
X181598821Y-99995248D01*
X182032925Y-100175060D01*
X182502795Y-100175060D01*
X182597806Y-100135705D01*
X183710580Y-100135705D01*
X183710580Y-100605575D01*
X183890392Y-101039679D01*
X184222641Y-101371928D01*
X184656745Y-101551740D01*
X185126615Y-101551740D01*
X185560719Y-101371928D01*
X185892968Y-101039679D01*
X186072780Y-100605575D01*
X186072780Y-100135705D01*
X186672220Y-100135705D01*
X186672220Y-100605575D01*
X186852032Y-101039679D01*
X187184281Y-101371928D01*
X187618385Y-101551740D01*
X188088255Y-101551740D01*
X188522359Y-101371928D01*
X188854608Y-101039679D01*
X189034420Y-100605575D01*
X189034420Y-100135705D01*
X188854608Y-99701601D01*
X188522359Y-99369352D01*
X188088255Y-99189540D01*
X187618385Y-99189540D01*
X187184281Y-99369352D01*
X186852032Y-99701601D01*
X186672220Y-100135705D01*
X186072780Y-100135705D01*
X185892968Y-99701601D01*
X185560719Y-99369352D01*
X185126615Y-99189540D01*
X184656745Y-99189540D01*
X184222641Y-99369352D01*
X183890392Y-99701601D01*
X183710580Y-100135705D01*
X182597806Y-100135705D01*
X182936899Y-99995248D01*
X183269148Y-99662999D01*
X183448960Y-99228895D01*
X183448960Y-98759025D01*
X189296040Y-98759025D01*
X189296040Y-99228895D01*
X189475852Y-99662999D01*
X189808101Y-99995248D01*
X190242205Y-100175060D01*
X190712075Y-100175060D01*
X191146179Y-99995248D01*
X191478428Y-99662999D01*
X191658240Y-99228895D01*
X191658240Y-98759025D01*
X199501760Y-98759025D01*
X199501760Y-99228895D01*
X199681572Y-99662999D01*
X200013821Y-99995248D01*
X200447925Y-100175060D01*
X200917795Y-100175060D01*
X201012806Y-100135705D01*
X202125580Y-100135705D01*
X202125580Y-100605575D01*
X202305392Y-101039679D01*
X202637641Y-101371928D01*
X203071745Y-101551740D01*
X203541615Y-101551740D01*
X203975719Y-101371928D01*
X204307968Y-101039679D01*
X204487780Y-100605575D01*
X204487780Y-100135705D01*
X205087220Y-100135705D01*
X205087220Y-100605575D01*
X205267032Y-101039679D01*
X205599281Y-101371928D01*
X206033385Y-101551740D01*
X206503255Y-101551740D01*
X206937359Y-101371928D01*
X207269608Y-101039679D01*
X207449420Y-100605575D01*
X207449420Y-100135705D01*
X207269608Y-99701601D01*
X206937359Y-99369352D01*
X206503255Y-99189540D01*
X206033385Y-99189540D01*
X205599281Y-99369352D01*
X205267032Y-99701601D01*
X205087220Y-100135705D01*
X204487780Y-100135705D01*
X204307968Y-99701601D01*
X203975719Y-99369352D01*
X203541615Y-99189540D01*
X203071745Y-99189540D01*
X202637641Y-99369352D01*
X202305392Y-99701601D01*
X202125580Y-100135705D01*
X201012806Y-100135705D01*
X201351899Y-99995248D01*
X201684148Y-99662999D01*
X201863960Y-99228895D01*
X201863960Y-98759025D01*
X207711040Y-98759025D01*
X207711040Y-99228895D01*
X207890852Y-99662999D01*
X208223101Y-99995248D01*
X208657205Y-100175060D01*
X209127075Y-100175060D01*
X209561179Y-99995248D01*
X209893428Y-99662999D01*
X210073240Y-99228895D01*
X210073240Y-98759025D01*
X209893428Y-98324921D01*
X209561179Y-97992672D01*
X209127075Y-97812860D01*
X208657205Y-97812860D01*
X208223101Y-97992672D01*
X207890852Y-98324921D01*
X207711040Y-98759025D01*
X201863960Y-98759025D01*
X201684148Y-98324921D01*
X201351899Y-97992672D01*
X200917795Y-97812860D01*
X200447925Y-97812860D01*
X200013821Y-97992672D01*
X199681572Y-98324921D01*
X199501760Y-98759025D01*
X191658240Y-98759025D01*
X191478428Y-98324921D01*
X191146179Y-97992672D01*
X190712075Y-97812860D01*
X190242205Y-97812860D01*
X189808101Y-97992672D01*
X189475852Y-98324921D01*
X189296040Y-98759025D01*
X183448960Y-98759025D01*
X183269148Y-98324921D01*
X182936899Y-97992672D01*
X182502795Y-97812860D01*
X182032925Y-97812860D01*
X181598821Y-97992672D01*
X181266572Y-98324921D01*
X181086760Y-98759025D01*
X172148500Y-98759025D01*
X172148500Y-97068998D01*
X172350082Y-96867416D01*
X172511720Y-96477189D01*
X172511720Y-96054811D01*
X173563280Y-96054811D01*
X173563280Y-96477189D01*
X173724918Y-96867416D01*
X174023584Y-97166082D01*
X174413811Y-97327720D01*
X174836189Y-97327720D01*
X175226416Y-97166082D01*
X175525082Y-96867416D01*
X175686720Y-96477189D01*
X175686720Y-96320625D01*
X179405280Y-96320625D01*
X179405280Y-96790495D01*
X179585092Y-97224599D01*
X179917341Y-97556848D01*
X180351445Y-97736660D01*
X180821315Y-97736660D01*
X181255419Y-97556848D01*
X181587668Y-97224599D01*
X181767480Y-96790495D01*
X181767480Y-96320625D01*
X190977520Y-96320625D01*
X190977520Y-96790495D01*
X191157332Y-97224599D01*
X191489581Y-97556848D01*
X191923685Y-97736660D01*
X192393555Y-97736660D01*
X192827659Y-97556848D01*
X193159908Y-97224599D01*
X193339720Y-96790495D01*
X193339720Y-96320625D01*
X197820280Y-96320625D01*
X197820280Y-96790495D01*
X198000092Y-97224599D01*
X198332341Y-97556848D01*
X198766445Y-97736660D01*
X199236315Y-97736660D01*
X199670419Y-97556848D01*
X200002668Y-97224599D01*
X200182480Y-96790495D01*
X200182480Y-96320625D01*
X209392520Y-96320625D01*
X209392520Y-96790495D01*
X209572332Y-97224599D01*
X209904581Y-97556848D01*
X210338685Y-97736660D01*
X210808555Y-97736660D01*
X211242659Y-97556848D01*
X211574908Y-97224599D01*
X211754720Y-96790495D01*
X211754720Y-96320625D01*
X211574908Y-95886521D01*
X211242659Y-95554272D01*
X210808555Y-95374460D01*
X210338685Y-95374460D01*
X209904581Y-95554272D01*
X209572332Y-95886521D01*
X209392520Y-96320625D01*
X200182480Y-96320625D01*
X200002668Y-95886521D01*
X199670419Y-95554272D01*
X199236315Y-95374460D01*
X198766445Y-95374460D01*
X198332341Y-95554272D01*
X198000092Y-95886521D01*
X197820280Y-96320625D01*
X193339720Y-96320625D01*
X193159908Y-95886521D01*
X192827659Y-95554272D01*
X192393555Y-95374460D01*
X191923685Y-95374460D01*
X191489581Y-95554272D01*
X191157332Y-95886521D01*
X190977520Y-96320625D01*
X181767480Y-96320625D01*
X181587668Y-95886521D01*
X181255419Y-95554272D01*
X180821315Y-95374460D01*
X180351445Y-95374460D01*
X179917341Y-95554272D01*
X179585092Y-95886521D01*
X179405280Y-96320625D01*
X175686720Y-96320625D01*
X175686720Y-96054811D01*
X175525082Y-95664584D01*
X175226416Y-95365918D01*
X174836189Y-95204280D01*
X174413811Y-95204280D01*
X174023584Y-95365918D01*
X173724918Y-95664584D01*
X173563280Y-96054811D01*
X172511720Y-96054811D01*
X172350082Y-95664584D01*
X172051416Y-95365918D01*
X171661189Y-95204280D01*
X171238811Y-95204280D01*
X170848584Y-95365918D01*
X170549918Y-95664584D01*
X170388280Y-96054811D01*
X170388280Y-96477189D01*
X170549918Y-96867416D01*
X170751500Y-97068998D01*
X170751501Y-107563705D01*
X170737817Y-107632500D01*
X170792028Y-107905040D01*
X170854999Y-107999282D01*
X170946411Y-108136090D01*
X171004731Y-108175058D01*
X171520511Y-108690838D01*
X171436805Y-108725510D01*
X171384815Y-108777500D01*
X171104695Y-108777500D01*
X170264680Y-107937486D01*
X170229364Y-107884632D01*
X170019981Y-107744726D01*
X169835341Y-107707999D01*
X169835336Y-107707999D01*
X169772997Y-107695599D01*
X169710658Y-107707999D01*
X127913841Y-107707999D01*
X127851502Y-107695599D01*
X127789163Y-107707999D01*
X127789159Y-107707999D01*
X127604519Y-107744726D01*
X127395136Y-107884632D01*
X127359822Y-107937484D01*
X127063500Y-108233805D01*
X127063500Y-98759025D01*
X136001760Y-98759025D01*
X136001760Y-99228895D01*
X136181572Y-99662999D01*
X136513821Y-99995248D01*
X136947925Y-100175060D01*
X137417795Y-100175060D01*
X137512806Y-100135705D01*
X138625580Y-100135705D01*
X138625580Y-100605575D01*
X138805392Y-101039679D01*
X139137641Y-101371928D01*
X139571745Y-101551740D01*
X140041615Y-101551740D01*
X140475719Y-101371928D01*
X140807968Y-101039679D01*
X140987780Y-100605575D01*
X140987780Y-100135705D01*
X141587220Y-100135705D01*
X141587220Y-100605575D01*
X141767032Y-101039679D01*
X142099281Y-101371928D01*
X142533385Y-101551740D01*
X143003255Y-101551740D01*
X143437359Y-101371928D01*
X143769608Y-101039679D01*
X143949420Y-100605575D01*
X143949420Y-100488312D01*
X148864000Y-100488312D01*
X148864000Y-101187688D01*
X149131640Y-101833827D01*
X149626173Y-102328360D01*
X150272312Y-102596000D01*
X150971688Y-102596000D01*
X151617827Y-102328360D01*
X152112360Y-101833827D01*
X152380000Y-101187688D01*
X152380000Y-100488312D01*
X152112360Y-99842173D01*
X151617827Y-99347640D01*
X150971688Y-99080000D01*
X150272312Y-99080000D01*
X149626173Y-99347640D01*
X149131640Y-99842173D01*
X148864000Y-100488312D01*
X143949420Y-100488312D01*
X143949420Y-100135705D01*
X143769608Y-99701601D01*
X143437359Y-99369352D01*
X143003255Y-99189540D01*
X142533385Y-99189540D01*
X142099281Y-99369352D01*
X141767032Y-99701601D01*
X141587220Y-100135705D01*
X140987780Y-100135705D01*
X140807968Y-99701601D01*
X140475719Y-99369352D01*
X140041615Y-99189540D01*
X139571745Y-99189540D01*
X139137641Y-99369352D01*
X138805392Y-99701601D01*
X138625580Y-100135705D01*
X137512806Y-100135705D01*
X137851899Y-99995248D01*
X138184148Y-99662999D01*
X138363960Y-99228895D01*
X138363960Y-98759025D01*
X144211040Y-98759025D01*
X144211040Y-99228895D01*
X144390852Y-99662999D01*
X144723101Y-99995248D01*
X145157205Y-100175060D01*
X145627075Y-100175060D01*
X146061179Y-99995248D01*
X146393428Y-99662999D01*
X146573240Y-99228895D01*
X146573240Y-98759025D01*
X154416760Y-98759025D01*
X154416760Y-99228895D01*
X154596572Y-99662999D01*
X154928821Y-99995248D01*
X155362925Y-100175060D01*
X155832795Y-100175060D01*
X155927806Y-100135705D01*
X157040580Y-100135705D01*
X157040580Y-100605575D01*
X157220392Y-101039679D01*
X157552641Y-101371928D01*
X157986745Y-101551740D01*
X158456615Y-101551740D01*
X158890719Y-101371928D01*
X159222968Y-101039679D01*
X159402780Y-100605575D01*
X159402780Y-100135705D01*
X160002220Y-100135705D01*
X160002220Y-100605575D01*
X160182032Y-101039679D01*
X160514281Y-101371928D01*
X160948385Y-101551740D01*
X161418255Y-101551740D01*
X161852359Y-101371928D01*
X162184608Y-101039679D01*
X162364420Y-100605575D01*
X162364420Y-100135705D01*
X162184608Y-99701601D01*
X161852359Y-99369352D01*
X161418255Y-99189540D01*
X160948385Y-99189540D01*
X160514281Y-99369352D01*
X160182032Y-99701601D01*
X160002220Y-100135705D01*
X159402780Y-100135705D01*
X159222968Y-99701601D01*
X158890719Y-99369352D01*
X158456615Y-99189540D01*
X157986745Y-99189540D01*
X157552641Y-99369352D01*
X157220392Y-99701601D01*
X157040580Y-100135705D01*
X155927806Y-100135705D01*
X156266899Y-99995248D01*
X156599148Y-99662999D01*
X156778960Y-99228895D01*
X156778960Y-98759025D01*
X162626040Y-98759025D01*
X162626040Y-99228895D01*
X162805852Y-99662999D01*
X163138101Y-99995248D01*
X163572205Y-100175060D01*
X164042075Y-100175060D01*
X164476179Y-99995248D01*
X164808428Y-99662999D01*
X164988240Y-99228895D01*
X164988240Y-98759025D01*
X164808428Y-98324921D01*
X164476179Y-97992672D01*
X164042075Y-97812860D01*
X163572205Y-97812860D01*
X163138101Y-97992672D01*
X162805852Y-98324921D01*
X162626040Y-98759025D01*
X156778960Y-98759025D01*
X156599148Y-98324921D01*
X156266899Y-97992672D01*
X155832795Y-97812860D01*
X155362925Y-97812860D01*
X154928821Y-97992672D01*
X154596572Y-98324921D01*
X154416760Y-98759025D01*
X146573240Y-98759025D01*
X146393428Y-98324921D01*
X146061179Y-97992672D01*
X145627075Y-97812860D01*
X145157205Y-97812860D01*
X144723101Y-97992672D01*
X144390852Y-98324921D01*
X144211040Y-98759025D01*
X138363960Y-98759025D01*
X138184148Y-98324921D01*
X137851899Y-97992672D01*
X137417795Y-97812860D01*
X136947925Y-97812860D01*
X136513821Y-97992672D01*
X136181572Y-98324921D01*
X136001760Y-98759025D01*
X127063500Y-98759025D01*
X127063500Y-97068998D01*
X127265082Y-96867416D01*
X127426720Y-96477189D01*
X127426720Y-96054811D01*
X128478280Y-96054811D01*
X128478280Y-96477189D01*
X128639918Y-96867416D01*
X128938584Y-97166082D01*
X129328811Y-97327720D01*
X129751189Y-97327720D01*
X130141416Y-97166082D01*
X130440082Y-96867416D01*
X130601720Y-96477189D01*
X130601720Y-96320625D01*
X134320280Y-96320625D01*
X134320280Y-96790495D01*
X134500092Y-97224599D01*
X134832341Y-97556848D01*
X135266445Y-97736660D01*
X135736315Y-97736660D01*
X136170419Y-97556848D01*
X136502668Y-97224599D01*
X136682480Y-96790495D01*
X136682480Y-96320625D01*
X145892520Y-96320625D01*
X145892520Y-96790495D01*
X146072332Y-97224599D01*
X146404581Y-97556848D01*
X146838685Y-97736660D01*
X147308555Y-97736660D01*
X147742659Y-97556848D01*
X148074908Y-97224599D01*
X148254720Y-96790495D01*
X148254720Y-96320625D01*
X152735280Y-96320625D01*
X152735280Y-96790495D01*
X152915092Y-97224599D01*
X153247341Y-97556848D01*
X153681445Y-97736660D01*
X154151315Y-97736660D01*
X154585419Y-97556848D01*
X154917668Y-97224599D01*
X155097480Y-96790495D01*
X155097480Y-96320625D01*
X164307520Y-96320625D01*
X164307520Y-96790495D01*
X164487332Y-97224599D01*
X164819581Y-97556848D01*
X165253685Y-97736660D01*
X165723555Y-97736660D01*
X166157659Y-97556848D01*
X166489908Y-97224599D01*
X166669720Y-96790495D01*
X166669720Y-96320625D01*
X166489908Y-95886521D01*
X166157659Y-95554272D01*
X165723555Y-95374460D01*
X165253685Y-95374460D01*
X164819581Y-95554272D01*
X164487332Y-95886521D01*
X164307520Y-96320625D01*
X155097480Y-96320625D01*
X154917668Y-95886521D01*
X154585419Y-95554272D01*
X154151315Y-95374460D01*
X153681445Y-95374460D01*
X153247341Y-95554272D01*
X152915092Y-95886521D01*
X152735280Y-96320625D01*
X148254720Y-96320625D01*
X148074908Y-95886521D01*
X147742659Y-95554272D01*
X147308555Y-95374460D01*
X146838685Y-95374460D01*
X146404581Y-95554272D01*
X146072332Y-95886521D01*
X145892520Y-96320625D01*
X136682480Y-96320625D01*
X136502668Y-95886521D01*
X136170419Y-95554272D01*
X135736315Y-95374460D01*
X135266445Y-95374460D01*
X134832341Y-95554272D01*
X134500092Y-95886521D01*
X134320280Y-96320625D01*
X130601720Y-96320625D01*
X130601720Y-96054811D01*
X130440082Y-95664584D01*
X130141416Y-95365918D01*
X129751189Y-95204280D01*
X129328811Y-95204280D01*
X128938584Y-95365918D01*
X128639918Y-95664584D01*
X128478280Y-96054811D01*
X127426720Y-96054811D01*
X127265082Y-95664584D01*
X126966416Y-95365918D01*
X126576189Y-95204280D01*
X126153811Y-95204280D01*
X125763584Y-95365918D01*
X125464918Y-95664584D01*
X125303280Y-96054811D01*
X125303280Y-96477189D01*
X125464918Y-96867416D01*
X125666500Y-97068998D01*
X125666501Y-108477419D01*
X125557000Y-108741779D01*
X125557000Y-108894501D01*
X124713608Y-108894501D01*
X120952593Y-105133487D01*
X120917277Y-105080633D01*
X120707894Y-104940727D01*
X120523254Y-104904000D01*
X120523249Y-104904000D01*
X120460910Y-104891600D01*
X120398571Y-104904000D01*
X100149107Y-104904000D01*
X97325083Y-102079977D01*
X97289767Y-102027123D01*
X97080384Y-101887217D01*
X96895744Y-101850490D01*
X96895739Y-101850490D01*
X96833400Y-101838090D01*
X96771061Y-101850490D01*
X94047597Y-101850490D01*
X93424639Y-101227533D01*
X93424637Y-101227530D01*
X92360635Y-100163528D01*
X92427805Y-100135705D01*
X93540580Y-100135705D01*
X93540580Y-100605575D01*
X93720392Y-101039679D01*
X94052641Y-101371928D01*
X94486745Y-101551740D01*
X94956615Y-101551740D01*
X95390719Y-101371928D01*
X95722968Y-101039679D01*
X95902780Y-100605575D01*
X95902780Y-100135705D01*
X96502220Y-100135705D01*
X96502220Y-100605575D01*
X96682032Y-101039679D01*
X97014281Y-101371928D01*
X97448385Y-101551740D01*
X97918255Y-101551740D01*
X98352359Y-101371928D01*
X98684608Y-101039679D01*
X98864420Y-100605575D01*
X98864420Y-100135705D01*
X98684608Y-99701601D01*
X98352359Y-99369352D01*
X97918255Y-99189540D01*
X97448385Y-99189540D01*
X97014281Y-99369352D01*
X96682032Y-99701601D01*
X96502220Y-100135705D01*
X95902780Y-100135705D01*
X95722968Y-99701601D01*
X95390719Y-99369352D01*
X94956615Y-99189540D01*
X94486745Y-99189540D01*
X94052641Y-99369352D01*
X93720392Y-99701601D01*
X93540580Y-100135705D01*
X92427805Y-100135705D01*
X92766899Y-99995248D01*
X93099148Y-99662999D01*
X93278960Y-99228895D01*
X93278960Y-98759025D01*
X99126040Y-98759025D01*
X99126040Y-99228895D01*
X99305852Y-99662999D01*
X99638101Y-99995248D01*
X100072205Y-100175060D01*
X100542075Y-100175060D01*
X100976179Y-99995248D01*
X101308428Y-99662999D01*
X101488240Y-99228895D01*
X101488240Y-98759025D01*
X109331760Y-98759025D01*
X109331760Y-99228895D01*
X109511572Y-99662999D01*
X109843821Y-99995248D01*
X110277925Y-100175060D01*
X110747795Y-100175060D01*
X110842806Y-100135705D01*
X111955580Y-100135705D01*
X111955580Y-100605575D01*
X112135392Y-101039679D01*
X112467641Y-101371928D01*
X112901745Y-101551740D01*
X113371615Y-101551740D01*
X113805719Y-101371928D01*
X114137968Y-101039679D01*
X114317780Y-100605575D01*
X114317780Y-100135705D01*
X114917220Y-100135705D01*
X114917220Y-100605575D01*
X115097032Y-101039679D01*
X115429281Y-101371928D01*
X115863385Y-101551740D01*
X116333255Y-101551740D01*
X116767359Y-101371928D01*
X117099608Y-101039679D01*
X117279420Y-100605575D01*
X117279420Y-100135705D01*
X117099608Y-99701601D01*
X116767359Y-99369352D01*
X116333255Y-99189540D01*
X115863385Y-99189540D01*
X115429281Y-99369352D01*
X115097032Y-99701601D01*
X114917220Y-100135705D01*
X114317780Y-100135705D01*
X114137968Y-99701601D01*
X113805719Y-99369352D01*
X113371615Y-99189540D01*
X112901745Y-99189540D01*
X112467641Y-99369352D01*
X112135392Y-99701601D01*
X111955580Y-100135705D01*
X110842806Y-100135705D01*
X111181899Y-99995248D01*
X111514148Y-99662999D01*
X111693960Y-99228895D01*
X111693960Y-98759025D01*
X117541040Y-98759025D01*
X117541040Y-99228895D01*
X117720852Y-99662999D01*
X118053101Y-99995248D01*
X118487205Y-100175060D01*
X118957075Y-100175060D01*
X119391179Y-99995248D01*
X119723428Y-99662999D01*
X119903240Y-99228895D01*
X119903240Y-98759025D01*
X119723428Y-98324921D01*
X119391179Y-97992672D01*
X118957075Y-97812860D01*
X118487205Y-97812860D01*
X118053101Y-97992672D01*
X117720852Y-98324921D01*
X117541040Y-98759025D01*
X111693960Y-98759025D01*
X111514148Y-98324921D01*
X111181899Y-97992672D01*
X110747795Y-97812860D01*
X110277925Y-97812860D01*
X109843821Y-97992672D01*
X109511572Y-98324921D01*
X109331760Y-98759025D01*
X101488240Y-98759025D01*
X101308428Y-98324921D01*
X100976179Y-97992672D01*
X100542075Y-97812860D01*
X100072205Y-97812860D01*
X99638101Y-97992672D01*
X99305852Y-98324921D01*
X99126040Y-98759025D01*
X93278960Y-98759025D01*
X93099148Y-98324921D01*
X92766899Y-97992672D01*
X92332795Y-97812860D01*
X91862925Y-97812860D01*
X91428821Y-97992672D01*
X91096572Y-98324921D01*
X90928292Y-98731185D01*
X89758630Y-97561524D01*
X90181445Y-97736660D01*
X90651315Y-97736660D01*
X91085419Y-97556848D01*
X91417668Y-97224599D01*
X91597480Y-96790495D01*
X91597480Y-96320625D01*
X100807520Y-96320625D01*
X100807520Y-96790495D01*
X100987332Y-97224599D01*
X101319581Y-97556848D01*
X101753685Y-97736660D01*
X102223555Y-97736660D01*
X102657659Y-97556848D01*
X102989908Y-97224599D01*
X103169720Y-96790495D01*
X103169720Y-96320625D01*
X107650280Y-96320625D01*
X107650280Y-96790495D01*
X107830092Y-97224599D01*
X108162341Y-97556848D01*
X108596445Y-97736660D01*
X109066315Y-97736660D01*
X109500419Y-97556848D01*
X109832668Y-97224599D01*
X110012480Y-96790495D01*
X110012480Y-96320625D01*
X119222520Y-96320625D01*
X119222520Y-96790495D01*
X119402332Y-97224599D01*
X119734581Y-97556848D01*
X120168685Y-97736660D01*
X120638555Y-97736660D01*
X121072659Y-97556848D01*
X121404908Y-97224599D01*
X121584720Y-96790495D01*
X121584720Y-96320625D01*
X121404908Y-95886521D01*
X121072659Y-95554272D01*
X120638555Y-95374460D01*
X120168685Y-95374460D01*
X119734581Y-95554272D01*
X119402332Y-95886521D01*
X119222520Y-96320625D01*
X110012480Y-96320625D01*
X109832668Y-95886521D01*
X109500419Y-95554272D01*
X109066315Y-95374460D01*
X108596445Y-95374460D01*
X108162341Y-95554272D01*
X107830092Y-95886521D01*
X107650280Y-96320625D01*
X103169720Y-96320625D01*
X102989908Y-95886521D01*
X102657659Y-95554272D01*
X102223555Y-95374460D01*
X101753685Y-95374460D01*
X101319581Y-95554272D01*
X100987332Y-95886521D01*
X100807520Y-96320625D01*
X91597480Y-96320625D01*
X91417668Y-95886521D01*
X91085419Y-95554272D01*
X90651315Y-95374460D01*
X90181445Y-95374460D01*
X89747341Y-95554272D01*
X89475010Y-95826603D01*
X89475010Y-94653611D01*
X89823305Y-94797880D01*
X90293175Y-94797880D01*
X90727279Y-94618068D01*
X91059528Y-94285819D01*
X91239340Y-93851715D01*
X91239340Y-93381845D01*
X101165660Y-93381845D01*
X101165660Y-93851715D01*
X101345472Y-94285819D01*
X101677721Y-94618068D01*
X102111825Y-94797880D01*
X102581695Y-94797880D01*
X103015799Y-94618068D01*
X103348048Y-94285819D01*
X103527860Y-93851715D01*
X103527860Y-93381845D01*
X107292140Y-93381845D01*
X107292140Y-93851715D01*
X107471952Y-94285819D01*
X107804201Y-94618068D01*
X108238305Y-94797880D01*
X108708175Y-94797880D01*
X109142279Y-94618068D01*
X109474528Y-94285819D01*
X109654340Y-93851715D01*
X109654340Y-93381845D01*
X119580660Y-93381845D01*
X119580660Y-93851715D01*
X119760472Y-94285819D01*
X120092721Y-94618068D01*
X120526825Y-94797880D01*
X120996695Y-94797880D01*
X121430799Y-94618068D01*
X121763048Y-94285819D01*
X121942860Y-93851715D01*
X121942860Y-93381845D01*
X133962140Y-93381845D01*
X133962140Y-93851715D01*
X134141952Y-94285819D01*
X134474201Y-94618068D01*
X134908305Y-94797880D01*
X135378175Y-94797880D01*
X135812279Y-94618068D01*
X136144528Y-94285819D01*
X136324340Y-93851715D01*
X136324340Y-93381845D01*
X146250660Y-93381845D01*
X146250660Y-93851715D01*
X146430472Y-94285819D01*
X146762721Y-94618068D01*
X147196825Y-94797880D01*
X147666695Y-94797880D01*
X148100799Y-94618068D01*
X148433048Y-94285819D01*
X148612860Y-93851715D01*
X148612860Y-93381845D01*
X152377140Y-93381845D01*
X152377140Y-93851715D01*
X152556952Y-94285819D01*
X152889201Y-94618068D01*
X153323305Y-94797880D01*
X153793175Y-94797880D01*
X154227279Y-94618068D01*
X154559528Y-94285819D01*
X154739340Y-93851715D01*
X154739340Y-93381845D01*
X164665660Y-93381845D01*
X164665660Y-93851715D01*
X164845472Y-94285819D01*
X165177721Y-94618068D01*
X165611825Y-94797880D01*
X166081695Y-94797880D01*
X166515799Y-94618068D01*
X166848048Y-94285819D01*
X167027860Y-93851715D01*
X167027860Y-93381845D01*
X179047140Y-93381845D01*
X179047140Y-93851715D01*
X179226952Y-94285819D01*
X179559201Y-94618068D01*
X179993305Y-94797880D01*
X180463175Y-94797880D01*
X180897279Y-94618068D01*
X181229528Y-94285819D01*
X181409340Y-93851715D01*
X181409340Y-93381845D01*
X191335660Y-93381845D01*
X191335660Y-93851715D01*
X191515472Y-94285819D01*
X191847721Y-94618068D01*
X192281825Y-94797880D01*
X192751695Y-94797880D01*
X193185799Y-94618068D01*
X193518048Y-94285819D01*
X193697860Y-93851715D01*
X193697860Y-93381845D01*
X197462140Y-93381845D01*
X197462140Y-93851715D01*
X197641952Y-94285819D01*
X197974201Y-94618068D01*
X198408305Y-94797880D01*
X198878175Y-94797880D01*
X199312279Y-94618068D01*
X199644528Y-94285819D01*
X199824340Y-93851715D01*
X199824340Y-93381845D01*
X209750660Y-93381845D01*
X209750660Y-93851715D01*
X209930472Y-94285819D01*
X210262721Y-94618068D01*
X210696825Y-94797880D01*
X211166695Y-94797880D01*
X211600799Y-94618068D01*
X211933048Y-94285819D01*
X212112860Y-93851715D01*
X212112860Y-93381845D01*
X211933048Y-92947741D01*
X211600799Y-92615492D01*
X211166695Y-92435680D01*
X210696825Y-92435680D01*
X210262721Y-92615492D01*
X209930472Y-92947741D01*
X209750660Y-93381845D01*
X199824340Y-93381845D01*
X199644528Y-92947741D01*
X199312279Y-92615492D01*
X198878175Y-92435680D01*
X198408305Y-92435680D01*
X197974201Y-92615492D01*
X197641952Y-92947741D01*
X197462140Y-93381845D01*
X193697860Y-93381845D01*
X193518048Y-92947741D01*
X193185799Y-92615492D01*
X192751695Y-92435680D01*
X192281825Y-92435680D01*
X191847721Y-92615492D01*
X191515472Y-92947741D01*
X191335660Y-93381845D01*
X181409340Y-93381845D01*
X181229528Y-92947741D01*
X180897279Y-92615492D01*
X180463175Y-92435680D01*
X179993305Y-92435680D01*
X179559201Y-92615492D01*
X179226952Y-92947741D01*
X179047140Y-93381845D01*
X167027860Y-93381845D01*
X166848048Y-92947741D01*
X166515799Y-92615492D01*
X166081695Y-92435680D01*
X165611825Y-92435680D01*
X165177721Y-92615492D01*
X164845472Y-92947741D01*
X164665660Y-93381845D01*
X154739340Y-93381845D01*
X154559528Y-92947741D01*
X154227279Y-92615492D01*
X153793175Y-92435680D01*
X153323305Y-92435680D01*
X152889201Y-92615492D01*
X152556952Y-92947741D01*
X152377140Y-93381845D01*
X148612860Y-93381845D01*
X148433048Y-92947741D01*
X148100799Y-92615492D01*
X147666695Y-92435680D01*
X147196825Y-92435680D01*
X146762721Y-92615492D01*
X146430472Y-92947741D01*
X146250660Y-93381845D01*
X136324340Y-93381845D01*
X136144528Y-92947741D01*
X135812279Y-92615492D01*
X135378175Y-92435680D01*
X134908305Y-92435680D01*
X134474201Y-92615492D01*
X134141952Y-92947741D01*
X133962140Y-93381845D01*
X121942860Y-93381845D01*
X121763048Y-92947741D01*
X121430799Y-92615492D01*
X120996695Y-92435680D01*
X120526825Y-92435680D01*
X120092721Y-92615492D01*
X119760472Y-92947741D01*
X119580660Y-93381845D01*
X109654340Y-93381845D01*
X109474528Y-92947741D01*
X109142279Y-92615492D01*
X108708175Y-92435680D01*
X108238305Y-92435680D01*
X107804201Y-92615492D01*
X107471952Y-92947741D01*
X107292140Y-93381845D01*
X103527860Y-93381845D01*
X103348048Y-92947741D01*
X103015799Y-92615492D01*
X102581695Y-92435680D01*
X102111825Y-92435680D01*
X101677721Y-92615492D01*
X101345472Y-92947741D01*
X101165660Y-93381845D01*
X91239340Y-93381845D01*
X91059528Y-92947741D01*
X90727279Y-92615492D01*
X90293175Y-92435680D01*
X89823305Y-92435680D01*
X89389201Y-92615492D01*
X89056952Y-92947741D01*
X88877140Y-93381845D01*
X88877140Y-93517005D01*
X88765500Y-93405365D01*
X88765500Y-93331841D01*
X88642490Y-93034867D01*
X88510908Y-92903285D01*
X88599471Y-92770741D01*
X88657452Y-92479250D01*
X88657452Y-91991750D01*
X88599471Y-91700259D01*
X88434355Y-91453145D01*
X88202164Y-91298000D01*
X88434355Y-91142855D01*
X88599471Y-90895741D01*
X88656168Y-90610705D01*
X89928700Y-90610705D01*
X89928700Y-91080575D01*
X90108512Y-91514679D01*
X90440761Y-91846928D01*
X90874865Y-92026740D01*
X91344735Y-92026740D01*
X91778839Y-91846928D01*
X92111088Y-91514679D01*
X92290900Y-91080575D01*
X92290900Y-90610705D01*
X100114100Y-90610705D01*
X100114100Y-91080575D01*
X100293912Y-91514679D01*
X100626161Y-91846928D01*
X101060265Y-92026740D01*
X101530135Y-92026740D01*
X101964239Y-91846928D01*
X102296488Y-91514679D01*
X102476300Y-91080575D01*
X102476300Y-90610705D01*
X108343700Y-90610705D01*
X108343700Y-91080575D01*
X108523512Y-91514679D01*
X108855761Y-91846928D01*
X109289865Y-92026740D01*
X109759735Y-92026740D01*
X110193839Y-91846928D01*
X110526088Y-91514679D01*
X110705900Y-91080575D01*
X110705900Y-90610705D01*
X118529100Y-90610705D01*
X118529100Y-91080575D01*
X118708912Y-91514679D01*
X119041161Y-91846928D01*
X119475265Y-92026740D01*
X119945135Y-92026740D01*
X120379239Y-91846928D01*
X120711488Y-91514679D01*
X120891300Y-91080575D01*
X120891300Y-90610705D01*
X135013700Y-90610705D01*
X135013700Y-91080575D01*
X135193512Y-91514679D01*
X135525761Y-91846928D01*
X135959865Y-92026740D01*
X136429735Y-92026740D01*
X136863839Y-91846928D01*
X137196088Y-91514679D01*
X137375900Y-91080575D01*
X137375900Y-90610705D01*
X145199100Y-90610705D01*
X145199100Y-91080575D01*
X145378912Y-91514679D01*
X145711161Y-91846928D01*
X146145265Y-92026740D01*
X146615135Y-92026740D01*
X147049239Y-91846928D01*
X147381488Y-91514679D01*
X147561300Y-91080575D01*
X147561300Y-90610705D01*
X153428700Y-90610705D01*
X153428700Y-91080575D01*
X153608512Y-91514679D01*
X153940761Y-91846928D01*
X154374865Y-92026740D01*
X154844735Y-92026740D01*
X155278839Y-91846928D01*
X155611088Y-91514679D01*
X155790900Y-91080575D01*
X155790900Y-90610705D01*
X163614100Y-90610705D01*
X163614100Y-91080575D01*
X163793912Y-91514679D01*
X164126161Y-91846928D01*
X164560265Y-92026740D01*
X165030135Y-92026740D01*
X165464239Y-91846928D01*
X165796488Y-91514679D01*
X165976300Y-91080575D01*
X165976300Y-90610705D01*
X180098700Y-90610705D01*
X180098700Y-91080575D01*
X180278512Y-91514679D01*
X180610761Y-91846928D01*
X181044865Y-92026740D01*
X181514735Y-92026740D01*
X181948839Y-91846928D01*
X182281088Y-91514679D01*
X182460900Y-91080575D01*
X182460900Y-90610705D01*
X190284100Y-90610705D01*
X190284100Y-91080575D01*
X190463912Y-91514679D01*
X190796161Y-91846928D01*
X191230265Y-92026740D01*
X191700135Y-92026740D01*
X192134239Y-91846928D01*
X192466488Y-91514679D01*
X192646300Y-91080575D01*
X192646300Y-90610705D01*
X198513700Y-90610705D01*
X198513700Y-91080575D01*
X198693512Y-91514679D01*
X199025761Y-91846928D01*
X199459865Y-92026740D01*
X199929735Y-92026740D01*
X200363839Y-91846928D01*
X200696088Y-91514679D01*
X200875900Y-91080575D01*
X200875900Y-90610705D01*
X208699100Y-90610705D01*
X208699100Y-91080575D01*
X208878912Y-91514679D01*
X209211161Y-91846928D01*
X209645265Y-92026740D01*
X210115135Y-92026740D01*
X210549239Y-91846928D01*
X210797855Y-91598312D01*
X213126000Y-91598312D01*
X213126000Y-92297688D01*
X213393640Y-92943827D01*
X213888173Y-93438360D01*
X214534312Y-93706000D01*
X215233688Y-93706000D01*
X215879827Y-93438360D01*
X216374360Y-92943827D01*
X216642000Y-92297688D01*
X216642000Y-91598312D01*
X216374360Y-90952173D01*
X215879827Y-90457640D01*
X215233688Y-90190000D01*
X214534312Y-90190000D01*
X213888173Y-90457640D01*
X213393640Y-90952173D01*
X213126000Y-91598312D01*
X210797855Y-91598312D01*
X210881488Y-91514679D01*
X211061300Y-91080575D01*
X211061300Y-90610705D01*
X210881488Y-90176601D01*
X210638919Y-89934032D01*
X220219073Y-89934032D01*
X220317736Y-90200887D01*
X220927461Y-90427408D01*
X221577460Y-90403356D01*
X222066264Y-90200887D01*
X222164927Y-89934032D01*
X227669073Y-89934032D01*
X227767736Y-90200887D01*
X228377461Y-90427408D01*
X229027460Y-90403356D01*
X229516264Y-90200887D01*
X229614927Y-89934032D01*
X228642000Y-88961105D01*
X227669073Y-89934032D01*
X222164927Y-89934032D01*
X221192000Y-88961105D01*
X220219073Y-89934032D01*
X210638919Y-89934032D01*
X210549239Y-89844352D01*
X210115135Y-89664540D01*
X209645265Y-89664540D01*
X209211161Y-89844352D01*
X208878912Y-90176601D01*
X208699100Y-90610705D01*
X200875900Y-90610705D01*
X200696088Y-90176601D01*
X200363839Y-89844352D01*
X199929735Y-89664540D01*
X199459865Y-89664540D01*
X199025761Y-89844352D01*
X198693512Y-90176601D01*
X198513700Y-90610705D01*
X192646300Y-90610705D01*
X192466488Y-90176601D01*
X192134239Y-89844352D01*
X191700135Y-89664540D01*
X191230265Y-89664540D01*
X190796161Y-89844352D01*
X190463912Y-90176601D01*
X190284100Y-90610705D01*
X182460900Y-90610705D01*
X182281088Y-90176601D01*
X181948839Y-89844352D01*
X181514735Y-89664540D01*
X181044865Y-89664540D01*
X180610761Y-89844352D01*
X180278512Y-90176601D01*
X180098700Y-90610705D01*
X165976300Y-90610705D01*
X165796488Y-90176601D01*
X165464239Y-89844352D01*
X165030135Y-89664540D01*
X164560265Y-89664540D01*
X164126161Y-89844352D01*
X163793912Y-90176601D01*
X163614100Y-90610705D01*
X155790900Y-90610705D01*
X155611088Y-90176601D01*
X155278839Y-89844352D01*
X154844735Y-89664540D01*
X154374865Y-89664540D01*
X153940761Y-89844352D01*
X153608512Y-90176601D01*
X153428700Y-90610705D01*
X147561300Y-90610705D01*
X147381488Y-90176601D01*
X147049239Y-89844352D01*
X146615135Y-89664540D01*
X146145265Y-89664540D01*
X145711161Y-89844352D01*
X145378912Y-90176601D01*
X145199100Y-90610705D01*
X137375900Y-90610705D01*
X137196088Y-90176601D01*
X136863839Y-89844352D01*
X136429735Y-89664540D01*
X135959865Y-89664540D01*
X135525761Y-89844352D01*
X135193512Y-90176601D01*
X135013700Y-90610705D01*
X120891300Y-90610705D01*
X120711488Y-90176601D01*
X120379239Y-89844352D01*
X119945135Y-89664540D01*
X119475265Y-89664540D01*
X119041161Y-89844352D01*
X118708912Y-90176601D01*
X118529100Y-90610705D01*
X110705900Y-90610705D01*
X110526088Y-90176601D01*
X110193839Y-89844352D01*
X109759735Y-89664540D01*
X109289865Y-89664540D01*
X108855761Y-89844352D01*
X108523512Y-90176601D01*
X108343700Y-90610705D01*
X102476300Y-90610705D01*
X102296488Y-90176601D01*
X101964239Y-89844352D01*
X101530135Y-89664540D01*
X101060265Y-89664540D01*
X100626161Y-89844352D01*
X100293912Y-90176601D01*
X100114100Y-90610705D01*
X92290900Y-90610705D01*
X92111088Y-90176601D01*
X91778839Y-89844352D01*
X91344735Y-89664540D01*
X90874865Y-89664540D01*
X90440761Y-89844352D01*
X90108512Y-90176601D01*
X89928700Y-90610705D01*
X88656168Y-90610705D01*
X88657452Y-90604250D01*
X88657452Y-90116750D01*
X88599471Y-89825259D01*
X88434355Y-89578145D01*
X88187241Y-89413029D01*
X87895750Y-89355048D01*
X86983250Y-89355048D01*
X86691759Y-89413029D01*
X86444645Y-89578145D01*
X86279529Y-89825259D01*
X86221548Y-90116750D01*
X86221548Y-90604250D01*
X86234656Y-90670148D01*
X86019987Y-90884817D01*
X85967133Y-90920133D01*
X85827227Y-91129517D01*
X85826326Y-91134048D01*
X83333500Y-91134048D01*
X83135288Y-91173475D01*
X82967253Y-91285753D01*
X82854975Y-91453788D01*
X82815548Y-91652000D01*
X82815548Y-92752000D01*
X82854975Y-92950212D01*
X82967253Y-93118247D01*
X83092598Y-93202000D01*
X82967253Y-93285753D01*
X82854975Y-93453788D01*
X82815548Y-93652000D01*
X82815548Y-94752000D01*
X82854975Y-94950212D01*
X82967253Y-95118247D01*
X83092598Y-95202000D01*
X82967253Y-95285753D01*
X82854975Y-95453788D01*
X82815548Y-95652000D01*
X82815548Y-96752000D01*
X82854975Y-96950212D01*
X82967253Y-97118247D01*
X83092598Y-97202000D01*
X82967253Y-97285753D01*
X82854975Y-97453788D01*
X82815548Y-97652000D01*
X82815548Y-98752000D01*
X82854975Y-98950212D01*
X82967253Y-99118247D01*
X83092598Y-99202000D01*
X82967253Y-99285753D01*
X82854975Y-99453788D01*
X82815548Y-99652000D01*
X82815548Y-100375755D01*
X82548000Y-100643303D01*
X82548000Y-100265338D01*
X82560400Y-100202999D01*
X82548000Y-100140660D01*
X82548000Y-100140656D01*
X82511273Y-99956016D01*
X82371367Y-99746633D01*
X82318516Y-99711319D01*
X81280684Y-98673488D01*
X81245368Y-98620634D01*
X81035985Y-98480728D01*
X80851345Y-98444001D01*
X80851340Y-98444001D01*
X80789001Y-98431601D01*
X80726662Y-98444001D01*
X73020699Y-98444001D01*
X70951452Y-96374756D01*
X70951452Y-95652000D01*
X70912025Y-95453788D01*
X70799747Y-95285753D01*
X70674402Y-95202000D01*
X70799747Y-95118247D01*
X70912025Y-94950212D01*
X70933580Y-94841846D01*
X70961500Y-94847400D01*
X71023839Y-94835000D01*
X71023844Y-94835000D01*
X71208484Y-94798273D01*
X71417867Y-94658367D01*
X71453183Y-94605513D01*
X75019194Y-91039503D01*
X80536662Y-91039503D01*
X80599001Y-91051903D01*
X80661340Y-91039503D01*
X80661345Y-91039503D01*
X80845985Y-91002776D01*
X80978093Y-90914504D01*
X81059721Y-90914504D01*
X81356695Y-90791494D01*
X81583990Y-90564199D01*
X81707000Y-90267225D01*
X81707000Y-89945783D01*
X81621145Y-89738510D01*
X84900004Y-89725499D01*
X84948101Y-89715833D01*
X84989303Y-89688303D01*
X85016833Y-89647101D01*
X85026500Y-89598500D01*
X85026500Y-88647285D01*
X92146120Y-88647285D01*
X92146120Y-89117155D01*
X92325932Y-89551259D01*
X92658181Y-89883508D01*
X93092285Y-90063320D01*
X93562155Y-90063320D01*
X93996259Y-89883508D01*
X94328508Y-89551259D01*
X94508320Y-89117155D01*
X94508320Y-88647285D01*
X94328508Y-88213181D01*
X94053952Y-87938625D01*
X95021400Y-87938625D01*
X95021400Y-88408495D01*
X95201212Y-88842599D01*
X95533461Y-89174848D01*
X95967565Y-89354660D01*
X96437435Y-89354660D01*
X96871539Y-89174848D01*
X97203788Y-88842599D01*
X97284689Y-88647285D01*
X97896680Y-88647285D01*
X97896680Y-89117155D01*
X98076492Y-89551259D01*
X98408741Y-89883508D01*
X98842845Y-90063320D01*
X99312715Y-90063320D01*
X99746819Y-89883508D01*
X100079068Y-89551259D01*
X100258880Y-89117155D01*
X100258880Y-88647285D01*
X110561120Y-88647285D01*
X110561120Y-89117155D01*
X110740932Y-89551259D01*
X111073181Y-89883508D01*
X111507285Y-90063320D01*
X111977155Y-90063320D01*
X112411259Y-89883508D01*
X112743508Y-89551259D01*
X112923320Y-89117155D01*
X112923320Y-88647285D01*
X112743508Y-88213181D01*
X112468952Y-87938625D01*
X113436400Y-87938625D01*
X113436400Y-88408495D01*
X113616212Y-88842599D01*
X113948461Y-89174848D01*
X114382565Y-89354660D01*
X114852435Y-89354660D01*
X115286539Y-89174848D01*
X115618788Y-88842599D01*
X115699689Y-88647285D01*
X116311680Y-88647285D01*
X116311680Y-89117155D01*
X116491492Y-89551259D01*
X116823741Y-89883508D01*
X117257845Y-90063320D01*
X117727715Y-90063320D01*
X118161819Y-89883508D01*
X118494068Y-89551259D01*
X118673880Y-89117155D01*
X118673880Y-88647285D01*
X137231120Y-88647285D01*
X137231120Y-89117155D01*
X137410932Y-89551259D01*
X137743181Y-89883508D01*
X138177285Y-90063320D01*
X138647155Y-90063320D01*
X139081259Y-89883508D01*
X139413508Y-89551259D01*
X139593320Y-89117155D01*
X139593320Y-88647285D01*
X139413508Y-88213181D01*
X139138952Y-87938625D01*
X140106400Y-87938625D01*
X140106400Y-88408495D01*
X140286212Y-88842599D01*
X140618461Y-89174848D01*
X141052565Y-89354660D01*
X141522435Y-89354660D01*
X141956539Y-89174848D01*
X142288788Y-88842599D01*
X142369689Y-88647285D01*
X142981680Y-88647285D01*
X142981680Y-89117155D01*
X143161492Y-89551259D01*
X143493741Y-89883508D01*
X143927845Y-90063320D01*
X144397715Y-90063320D01*
X144831819Y-89883508D01*
X145164068Y-89551259D01*
X145343880Y-89117155D01*
X145343880Y-88647285D01*
X145164068Y-88213181D01*
X144831819Y-87880932D01*
X144397715Y-87701120D01*
X143927845Y-87701120D01*
X143493741Y-87880932D01*
X143161492Y-88213181D01*
X142981680Y-88647285D01*
X142369689Y-88647285D01*
X142468600Y-88408495D01*
X142468600Y-87938625D01*
X142288788Y-87504521D01*
X141956539Y-87172272D01*
X141522435Y-86992460D01*
X141052565Y-86992460D01*
X140618461Y-87172272D01*
X140286212Y-87504521D01*
X140106400Y-87938625D01*
X139138952Y-87938625D01*
X139081259Y-87880932D01*
X138647155Y-87701120D01*
X138177285Y-87701120D01*
X137743181Y-87880932D01*
X137410932Y-88213181D01*
X137231120Y-88647285D01*
X118673880Y-88647285D01*
X118494068Y-88213181D01*
X118161819Y-87880932D01*
X117727715Y-87701120D01*
X117257845Y-87701120D01*
X116823741Y-87880932D01*
X116491492Y-88213181D01*
X116311680Y-88647285D01*
X115699689Y-88647285D01*
X115798600Y-88408495D01*
X115798600Y-87938625D01*
X115618788Y-87504521D01*
X115286539Y-87172272D01*
X114852435Y-86992460D01*
X114382565Y-86992460D01*
X113948461Y-87172272D01*
X113616212Y-87504521D01*
X113436400Y-87938625D01*
X112468952Y-87938625D01*
X112411259Y-87880932D01*
X111977155Y-87701120D01*
X111507285Y-87701120D01*
X111073181Y-87880932D01*
X110740932Y-88213181D01*
X110561120Y-88647285D01*
X100258880Y-88647285D01*
X100079068Y-88213181D01*
X99746819Y-87880932D01*
X99312715Y-87701120D01*
X98842845Y-87701120D01*
X98408741Y-87880932D01*
X98076492Y-88213181D01*
X97896680Y-88647285D01*
X97284689Y-88647285D01*
X97383600Y-88408495D01*
X97383600Y-87938625D01*
X97203788Y-87504521D01*
X96871539Y-87172272D01*
X96437435Y-86992460D01*
X95967565Y-86992460D01*
X95533461Y-87172272D01*
X95201212Y-87504521D01*
X95021400Y-87938625D01*
X94053952Y-87938625D01*
X93996259Y-87880932D01*
X93562155Y-87701120D01*
X93092285Y-87701120D01*
X92658181Y-87880932D01*
X92325932Y-88213181D01*
X92146120Y-88647285D01*
X85026500Y-88647285D01*
X85026500Y-86518312D01*
X120162000Y-86518312D01*
X120162000Y-87217688D01*
X120429640Y-87863827D01*
X120924173Y-88358360D01*
X121570312Y-88626000D01*
X122269688Y-88626000D01*
X122915827Y-88358360D01*
X123410360Y-87863827D01*
X123678000Y-87217688D01*
X123678000Y-86518312D01*
X123410360Y-85872173D01*
X122915827Y-85377640D01*
X122269688Y-85110000D01*
X121570312Y-85110000D01*
X120924173Y-85377640D01*
X120429640Y-85872173D01*
X120162000Y-86518312D01*
X85026500Y-86518312D01*
X85026500Y-83857000D01*
X147501673Y-83857000D01*
X147149731Y-84208942D01*
G36*
X125795501Y-117092314D02*
X125743510Y-117144305D01*
X125620500Y-117441279D01*
X125620500Y-117762721D01*
X125743510Y-118059695D01*
X125970805Y-118286990D01*
X126267779Y-118410000D01*
X126341304Y-118410000D01*
X126586283Y-118654979D01*
X125201676Y-118654979D01*
X124061500Y-117514804D01*
X124061500Y-117441279D01*
X123938490Y-117144305D01*
X123711195Y-116917010D01*
X123414221Y-116794000D01*
X123092779Y-116794000D01*
X122795805Y-116917010D01*
X122568510Y-117144305D01*
X122445500Y-117441279D01*
X122445500Y-117762721D01*
X122568510Y-118059695D01*
X122795805Y-118286990D01*
X123092779Y-118410000D01*
X123166304Y-118410000D01*
X123861293Y-119104990D01*
X119267319Y-119104990D01*
X118272328Y-118110000D01*
X118373710Y-118110000D01*
X118442500Y-118123683D01*
X118511290Y-118110000D01*
X118511294Y-118110000D01*
X118715041Y-118069472D01*
X118946090Y-117915090D01*
X118977921Y-117867452D01*
X119448250Y-117867452D01*
X119739741Y-117809471D01*
X119986855Y-117644355D01*
X120142000Y-117412164D01*
X120297145Y-117644355D01*
X120544259Y-117809471D01*
X120835750Y-117867452D01*
X121323250Y-117867452D01*
X121614741Y-117809471D01*
X121861855Y-117644355D01*
X122026971Y-117397241D01*
X122084952Y-117105750D01*
X122084952Y-116726263D01*
X125795500Y-116726263D01*
X125795501Y-117092314D01*
X125795501Y-117092314D01*
G37*
X125795501Y-117092314D02*
X125743510Y-117144305D01*
X125620500Y-117441279D01*
X125620500Y-117762721D01*
X125743510Y-118059695D01*
X125970805Y-118286990D01*
X126267779Y-118410000D01*
X126341304Y-118410000D01*
X126586283Y-118654979D01*
X125201676Y-118654979D01*
X124061500Y-117514804D01*
X124061500Y-117441279D01*
X123938490Y-117144305D01*
X123711195Y-116917010D01*
X123414221Y-116794000D01*
X123092779Y-116794000D01*
X122795805Y-116917010D01*
X122568510Y-117144305D01*
X122445500Y-117441279D01*
X122445500Y-117762721D01*
X122568510Y-118059695D01*
X122795805Y-118286990D01*
X123092779Y-118410000D01*
X123166304Y-118410000D01*
X123861293Y-119104990D01*
X119267319Y-119104990D01*
X118272328Y-118110000D01*
X118373710Y-118110000D01*
X118442500Y-118123683D01*
X118511290Y-118110000D01*
X118511294Y-118110000D01*
X118715041Y-118069472D01*
X118946090Y-117915090D01*
X118977921Y-117867452D01*
X119448250Y-117867452D01*
X119739741Y-117809471D01*
X119986855Y-117644355D01*
X120142000Y-117412164D01*
X120297145Y-117644355D01*
X120544259Y-117809471D01*
X120835750Y-117867452D01*
X121323250Y-117867452D01*
X121614741Y-117809471D01*
X121861855Y-117644355D01*
X122026971Y-117397241D01*
X122084952Y-117105750D01*
X122084952Y-116726263D01*
X125795500Y-116726263D01*
X125795501Y-117092314D01*
G36*
X160578305Y-114476990D02*
X160875279Y-114600000D01*
X161196721Y-114600000D01*
X161493695Y-114476990D01*
X161545685Y-114425000D01*
X171632304Y-114425000D01*
X175085818Y-117878515D01*
X175121133Y-117931367D01*
X175173984Y-117966681D01*
X175173985Y-117966682D01*
X175330515Y-118071273D01*
X175355683Y-118076279D01*
X175515156Y-118108000D01*
X175515159Y-118108000D01*
X175577500Y-118120400D01*
X175586437Y-118118622D01*
X175627805Y-118159990D01*
X175911715Y-118277589D01*
X175534325Y-118654979D01*
X172625717Y-118654979D01*
X172997697Y-118283000D01*
X173071221Y-118283000D01*
X173368195Y-118159990D01*
X173595490Y-117932695D01*
X173718500Y-117635721D01*
X173718500Y-117314279D01*
X173595490Y-117017305D01*
X173368195Y-116790010D01*
X173071221Y-116667000D01*
X172749779Y-116667000D01*
X172452805Y-116790010D01*
X172225510Y-117017305D01*
X172102500Y-117314279D01*
X172102500Y-117387803D01*
X171285336Y-118204968D01*
X168814717Y-118204968D01*
X168959990Y-118059695D01*
X169083000Y-117762721D01*
X169083000Y-117441279D01*
X168959990Y-117144305D01*
X168732695Y-116917010D01*
X168468338Y-116807510D01*
X168048049Y-116387222D01*
X168009079Y-116328899D01*
X167778030Y-116174517D01*
X167574283Y-116133989D01*
X167574279Y-116133989D01*
X167505489Y-116120306D01*
X167436699Y-116133989D01*
X150000707Y-116133989D01*
X151709697Y-114425000D01*
X160526315Y-114425000D01*
X160578305Y-114476990D01*
X160578305Y-114476990D01*
G37*
X160578305Y-114476990D02*
X160875279Y-114600000D01*
X161196721Y-114600000D01*
X161493695Y-114476990D01*
X161545685Y-114425000D01*
X171632304Y-114425000D01*
X175085818Y-117878515D01*
X175121133Y-117931367D01*
X175173984Y-117966681D01*
X175173985Y-117966682D01*
X175330515Y-118071273D01*
X175355683Y-118076279D01*
X175515156Y-118108000D01*
X175515159Y-118108000D01*
X175577500Y-118120400D01*
X175586437Y-118118622D01*
X175627805Y-118159990D01*
X175911715Y-118277589D01*
X175534325Y-118654979D01*
X172625717Y-118654979D01*
X172997697Y-118283000D01*
X173071221Y-118283000D01*
X173368195Y-118159990D01*
X173595490Y-117932695D01*
X173718500Y-117635721D01*
X173718500Y-117314279D01*
X173595490Y-117017305D01*
X173368195Y-116790010D01*
X173071221Y-116667000D01*
X172749779Y-116667000D01*
X172452805Y-116790010D01*
X172225510Y-117017305D01*
X172102500Y-117314279D01*
X172102500Y-117387803D01*
X171285336Y-118204968D01*
X168814717Y-118204968D01*
X168959990Y-118059695D01*
X169083000Y-117762721D01*
X169083000Y-117441279D01*
X168959990Y-117144305D01*
X168732695Y-116917010D01*
X168468338Y-116807510D01*
X168048049Y-116387222D01*
X168009079Y-116328899D01*
X167778030Y-116174517D01*
X167574283Y-116133989D01*
X167574279Y-116133989D01*
X167505489Y-116120306D01*
X167436699Y-116133989D01*
X150000707Y-116133989D01*
X151709697Y-114425000D01*
X160526315Y-114425000D01*
X160578305Y-114476990D01*
G36*
X126382500Y-114393279D02*
X126382500Y-114714721D01*
X126505510Y-115011695D01*
X126732805Y-115238990D01*
X127029779Y-115362000D01*
X127351221Y-115362000D01*
X127648195Y-115238990D01*
X127875490Y-115011695D01*
X127932106Y-114875011D01*
X128795500Y-114875011D01*
X128795500Y-115027742D01*
X128918510Y-115324716D01*
X129145805Y-115552011D01*
X129442779Y-115675021D01*
X129516304Y-115675021D01*
X129931272Y-116089990D01*
X129909849Y-116089990D01*
X129847510Y-116077590D01*
X129785171Y-116089990D01*
X129785166Y-116089990D01*
X129600526Y-116126717D01*
X129391143Y-116266623D01*
X129355829Y-116319475D01*
X128881304Y-116794000D01*
X128807779Y-116794000D01*
X128510805Y-116917010D01*
X128283510Y-117144305D01*
X128160500Y-117441279D01*
X128160500Y-117762721D01*
X128283510Y-118059695D01*
X128428783Y-118204968D01*
X127926665Y-118204968D01*
X127236500Y-117514804D01*
X127236500Y-117441279D01*
X127113490Y-117144305D01*
X127061500Y-117092315D01*
X127061500Y-116521338D01*
X127073900Y-116458999D01*
X127061500Y-116396660D01*
X127061500Y-116396656D01*
X127024773Y-116212016D01*
X126884867Y-116002633D01*
X126832013Y-115967317D01*
X126554446Y-115689750D01*
X126519130Y-115636896D01*
X126309747Y-115496990D01*
X126125107Y-115460263D01*
X126125102Y-115460263D01*
X126062763Y-115447863D01*
X126000424Y-115460263D01*
X121698076Y-115460263D01*
X121635737Y-115447863D01*
X121573398Y-115460263D01*
X121573393Y-115460263D01*
X121520502Y-115470784D01*
X121323250Y-115431548D01*
X120835750Y-115431548D01*
X120544259Y-115489529D01*
X120297145Y-115654645D01*
X120142000Y-115886836D01*
X119986855Y-115654645D01*
X119739741Y-115489529D01*
X119448250Y-115431548D01*
X118960750Y-115431548D01*
X118669259Y-115489529D01*
X118422145Y-115654645D01*
X118257029Y-115901759D01*
X118199048Y-116193250D01*
X118199048Y-116667125D01*
X118153173Y-116713000D01*
X116875328Y-116713000D01*
X114529338Y-114367010D01*
X126393381Y-114367010D01*
X126382500Y-114393279D01*
X126382500Y-114393279D01*
G37*
X126382500Y-114393279D02*
X126382500Y-114714721D01*
X126505510Y-115011695D01*
X126732805Y-115238990D01*
X127029779Y-115362000D01*
X127351221Y-115362000D01*
X127648195Y-115238990D01*
X127875490Y-115011695D01*
X127932106Y-114875011D01*
X128795500Y-114875011D01*
X128795500Y-115027742D01*
X128918510Y-115324716D01*
X129145805Y-115552011D01*
X129442779Y-115675021D01*
X129516304Y-115675021D01*
X129931272Y-116089990D01*
X129909849Y-116089990D01*
X129847510Y-116077590D01*
X129785171Y-116089990D01*
X129785166Y-116089990D01*
X129600526Y-116126717D01*
X129391143Y-116266623D01*
X129355829Y-116319475D01*
X128881304Y-116794000D01*
X128807779Y-116794000D01*
X128510805Y-116917010D01*
X128283510Y-117144305D01*
X128160500Y-117441279D01*
X128160500Y-117762721D01*
X128283510Y-118059695D01*
X128428783Y-118204968D01*
X127926665Y-118204968D01*
X127236500Y-117514804D01*
X127236500Y-117441279D01*
X127113490Y-117144305D01*
X127061500Y-117092315D01*
X127061500Y-116521338D01*
X127073900Y-116458999D01*
X127061500Y-116396660D01*
X127061500Y-116396656D01*
X127024773Y-116212016D01*
X126884867Y-116002633D01*
X126832013Y-115967317D01*
X126554446Y-115689750D01*
X126519130Y-115636896D01*
X126309747Y-115496990D01*
X126125107Y-115460263D01*
X126125102Y-115460263D01*
X126062763Y-115447863D01*
X126000424Y-115460263D01*
X121698076Y-115460263D01*
X121635737Y-115447863D01*
X121573398Y-115460263D01*
X121573393Y-115460263D01*
X121520502Y-115470784D01*
X121323250Y-115431548D01*
X120835750Y-115431548D01*
X120544259Y-115489529D01*
X120297145Y-115654645D01*
X120142000Y-115886836D01*
X119986855Y-115654645D01*
X119739741Y-115489529D01*
X119448250Y-115431548D01*
X118960750Y-115431548D01*
X118669259Y-115489529D01*
X118422145Y-115654645D01*
X118257029Y-115901759D01*
X118199048Y-116193250D01*
X118199048Y-116667125D01*
X118153173Y-116713000D01*
X116875328Y-116713000D01*
X114529338Y-114367010D01*
X126393381Y-114367010D01*
X126382500Y-114393279D01*
G36*
X229729023Y-115033720D02*
X229606253Y-115115753D01*
X229493975Y-115283788D01*
X229454548Y-115482000D01*
X229454548Y-115641760D01*
X229261563Y-115352937D01*
X228812365Y-115052793D01*
X228416247Y-114974000D01*
X228148753Y-114974000D01*
X227752635Y-115052793D01*
X227303437Y-115352937D01*
X227012500Y-115788356D01*
X226721563Y-115352937D01*
X226272365Y-115052793D01*
X225876247Y-114974000D01*
X225608753Y-114974000D01*
X225212635Y-115052793D01*
X224763437Y-115352937D01*
X224521701Y-115714721D01*
X224397683Y-115450642D01*
X223969424Y-115060355D01*
X223559390Y-114890524D01*
X223329500Y-115011845D01*
X223329500Y-116205000D01*
X223349500Y-116205000D01*
X223349500Y-116459000D01*
X223329500Y-116459000D01*
X223329500Y-117652155D01*
X223458874Y-117720430D01*
X223194304Y-117985000D01*
X206256197Y-117985000D01*
X205992035Y-117720838D01*
X206224190Y-117817000D01*
X206914750Y-117817000D01*
X207073500Y-117658250D01*
X207073500Y-116459000D01*
X207327500Y-116459000D01*
X207327500Y-117658250D01*
X207486250Y-117817000D01*
X208176810Y-117817000D01*
X208410199Y-117720327D01*
X208588827Y-117541698D01*
X208685500Y-117308309D01*
X208685500Y-116617750D01*
X208526750Y-116459000D01*
X207327500Y-116459000D01*
X207073500Y-116459000D01*
X207053500Y-116459000D01*
X207053500Y-116205000D01*
X207073500Y-116205000D01*
X207073500Y-116185000D01*
X207327500Y-116185000D01*
X207327500Y-116205000D01*
X208526750Y-116205000D01*
X208685500Y-116046250D01*
X208685500Y-115355691D01*
X208588827Y-115122302D01*
X208410199Y-114943673D01*
X208231130Y-114869500D01*
X213804498Y-114869500D01*
X213804498Y-115011844D01*
X213574610Y-114890524D01*
X213164576Y-115060355D01*
X212736317Y-115450642D01*
X212612299Y-115714721D01*
X212370563Y-115352937D01*
X211921365Y-115052793D01*
X211525247Y-114974000D01*
X211257753Y-114974000D01*
X210861635Y-115052793D01*
X210412437Y-115352937D01*
X210112293Y-115802135D01*
X210006896Y-116332000D01*
X210112293Y-116861865D01*
X210412437Y-117311063D01*
X210861635Y-117611207D01*
X211257753Y-117690000D01*
X211525247Y-117690000D01*
X211921365Y-117611207D01*
X212370563Y-117311063D01*
X212612299Y-116949279D01*
X212736317Y-117213358D01*
X213164576Y-117603645D01*
X213574610Y-117773476D01*
X213804500Y-117652155D01*
X213804500Y-116459000D01*
X213784500Y-116459000D01*
X213784500Y-116205000D01*
X213804500Y-116205000D01*
X213804500Y-116185000D01*
X214058500Y-116185000D01*
X214058500Y-116205000D01*
X214078500Y-116205000D01*
X214078500Y-116459000D01*
X214058500Y-116459000D01*
X214058500Y-117652155D01*
X214288390Y-117773476D01*
X214698424Y-117603645D01*
X215126683Y-117213358D01*
X215250701Y-116949279D01*
X215492437Y-117311063D01*
X215941635Y-117611207D01*
X216337753Y-117690000D01*
X216605247Y-117690000D01*
X217001365Y-117611207D01*
X217450563Y-117311063D01*
X217643548Y-117022240D01*
X217643548Y-117182000D01*
X217682975Y-117380212D01*
X217795253Y-117548247D01*
X217963288Y-117660525D01*
X218161500Y-117699952D01*
X219861500Y-117699952D01*
X220059712Y-117660525D01*
X220227747Y-117548247D01*
X220340025Y-117380212D01*
X220379452Y-117182000D01*
X220379452Y-116688892D01*
X221761014Y-116688892D01*
X222007317Y-117213358D01*
X222435576Y-117603645D01*
X222845610Y-117773476D01*
X223075500Y-117652155D01*
X223075500Y-116459000D01*
X221881681Y-116459000D01*
X221761014Y-116688892D01*
X220379452Y-116688892D01*
X220379452Y-115975108D01*
X221761014Y-115975108D01*
X221881681Y-116205000D01*
X223075500Y-116205000D01*
X223075500Y-115011845D01*
X222845610Y-114890524D01*
X222435576Y-115060355D01*
X222007317Y-115450642D01*
X221761014Y-115975108D01*
X220379452Y-115975108D01*
X220379452Y-115482000D01*
X220340025Y-115283788D01*
X220227747Y-115115753D01*
X220059712Y-115003475D01*
X219861500Y-114964048D01*
X219593763Y-114964048D01*
X219467867Y-114775633D01*
X219415016Y-114740319D01*
X218210696Y-113536000D01*
X228231304Y-113536000D01*
X229729023Y-115033720D01*
X229729023Y-115033720D01*
G37*
X229729023Y-115033720D02*
X229606253Y-115115753D01*
X229493975Y-115283788D01*
X229454548Y-115482000D01*
X229454548Y-115641760D01*
X229261563Y-115352937D01*
X228812365Y-115052793D01*
X228416247Y-114974000D01*
X228148753Y-114974000D01*
X227752635Y-115052793D01*
X227303437Y-115352937D01*
X227012500Y-115788356D01*
X226721563Y-115352937D01*
X226272365Y-115052793D01*
X225876247Y-114974000D01*
X225608753Y-114974000D01*
X225212635Y-115052793D01*
X224763437Y-115352937D01*
X224521701Y-115714721D01*
X224397683Y-115450642D01*
X223969424Y-115060355D01*
X223559390Y-114890524D01*
X223329500Y-115011845D01*
X223329500Y-116205000D01*
X223349500Y-116205000D01*
X223349500Y-116459000D01*
X223329500Y-116459000D01*
X223329500Y-117652155D01*
X223458874Y-117720430D01*
X223194304Y-117985000D01*
X206256197Y-117985000D01*
X205992035Y-117720838D01*
X206224190Y-117817000D01*
X206914750Y-117817000D01*
X207073500Y-117658250D01*
X207073500Y-116459000D01*
X207327500Y-116459000D01*
X207327500Y-117658250D01*
X207486250Y-117817000D01*
X208176810Y-117817000D01*
X208410199Y-117720327D01*
X208588827Y-117541698D01*
X208685500Y-117308309D01*
X208685500Y-116617750D01*
X208526750Y-116459000D01*
X207327500Y-116459000D01*
X207073500Y-116459000D01*
X207053500Y-116459000D01*
X207053500Y-116205000D01*
X207073500Y-116205000D01*
X207073500Y-116185000D01*
X207327500Y-116185000D01*
X207327500Y-116205000D01*
X208526750Y-116205000D01*
X208685500Y-116046250D01*
X208685500Y-115355691D01*
X208588827Y-115122302D01*
X208410199Y-114943673D01*
X208231130Y-114869500D01*
X213804498Y-114869500D01*
X213804498Y-115011844D01*
X213574610Y-114890524D01*
X213164576Y-115060355D01*
X212736317Y-115450642D01*
X212612299Y-115714721D01*
X212370563Y-115352937D01*
X211921365Y-115052793D01*
X211525247Y-114974000D01*
X211257753Y-114974000D01*
X210861635Y-115052793D01*
X210412437Y-115352937D01*
X210112293Y-115802135D01*
X210006896Y-116332000D01*
X210112293Y-116861865D01*
X210412437Y-117311063D01*
X210861635Y-117611207D01*
X211257753Y-117690000D01*
X211525247Y-117690000D01*
X211921365Y-117611207D01*
X212370563Y-117311063D01*
X212612299Y-116949279D01*
X212736317Y-117213358D01*
X213164576Y-117603645D01*
X213574610Y-117773476D01*
X213804500Y-117652155D01*
X213804500Y-116459000D01*
X213784500Y-116459000D01*
X213784500Y-116205000D01*
X213804500Y-116205000D01*
X213804500Y-116185000D01*
X214058500Y-116185000D01*
X214058500Y-116205000D01*
X214078500Y-116205000D01*
X214078500Y-116459000D01*
X214058500Y-116459000D01*
X214058500Y-117652155D01*
X214288390Y-117773476D01*
X214698424Y-117603645D01*
X215126683Y-117213358D01*
X215250701Y-116949279D01*
X215492437Y-117311063D01*
X215941635Y-117611207D01*
X216337753Y-117690000D01*
X216605247Y-117690000D01*
X217001365Y-117611207D01*
X217450563Y-117311063D01*
X217643548Y-117022240D01*
X217643548Y-117182000D01*
X217682975Y-117380212D01*
X217795253Y-117548247D01*
X217963288Y-117660525D01*
X218161500Y-117699952D01*
X219861500Y-117699952D01*
X220059712Y-117660525D01*
X220227747Y-117548247D01*
X220340025Y-117380212D01*
X220379452Y-117182000D01*
X220379452Y-116688892D01*
X221761014Y-116688892D01*
X222007317Y-117213358D01*
X222435576Y-117603645D01*
X222845610Y-117773476D01*
X223075500Y-117652155D01*
X223075500Y-116459000D01*
X221881681Y-116459000D01*
X221761014Y-116688892D01*
X220379452Y-116688892D01*
X220379452Y-115975108D01*
X221761014Y-115975108D01*
X221881681Y-116205000D01*
X223075500Y-116205000D01*
X223075500Y-115011845D01*
X222845610Y-114890524D01*
X222435576Y-115060355D01*
X222007317Y-115450642D01*
X221761014Y-115975108D01*
X220379452Y-115975108D01*
X220379452Y-115482000D01*
X220340025Y-115283788D01*
X220227747Y-115115753D01*
X220059712Y-115003475D01*
X219861500Y-114964048D01*
X219593763Y-114964048D01*
X219467867Y-114775633D01*
X219415016Y-114740319D01*
X218210696Y-113536000D01*
X228231304Y-113536000D01*
X229729023Y-115033720D01*
G36*
X134536229Y-114249923D02*
X134409018Y-114275227D01*
X134383914Y-114292001D01*
X134120765Y-114292001D01*
X134272855Y-114190377D01*
X134279121Y-114180999D01*
X134467304Y-114180999D01*
X134536229Y-114249923D01*
X134536229Y-114249923D01*
G37*
X134536229Y-114249923D02*
X134409018Y-114275227D01*
X134383914Y-114292001D01*
X134120765Y-114292001D01*
X134272855Y-114190377D01*
X134279121Y-114180999D01*
X134467304Y-114180999D01*
X134536229Y-114249923D01*
G36*
X122253819Y-111909516D02*
X122289133Y-111962367D01*
X122341984Y-111997681D01*
X122341985Y-111997682D01*
X122398121Y-112035191D01*
X122498516Y-112102273D01*
X122683156Y-112139000D01*
X122683160Y-112139000D01*
X122705272Y-112143398D01*
X122752864Y-112190990D01*
X123049838Y-112314000D01*
X123371280Y-112314000D01*
X123668254Y-112190990D01*
X123895549Y-111963695D01*
X124018559Y-111666721D01*
X124018559Y-111352254D01*
X125767315Y-113101010D01*
X114059707Y-113101010D01*
X110938696Y-109980000D01*
X120324304Y-109980000D01*
X122253819Y-111909516D01*
X122253819Y-111909516D01*
G37*
X122253819Y-111909516D02*
X122289133Y-111962367D01*
X122341984Y-111997681D01*
X122341985Y-111997682D01*
X122398121Y-112035191D01*
X122498516Y-112102273D01*
X122683156Y-112139000D01*
X122683160Y-112139000D01*
X122705272Y-112143398D01*
X122752864Y-112190990D01*
X123049838Y-112314000D01*
X123371280Y-112314000D01*
X123668254Y-112190990D01*
X123895549Y-111963695D01*
X124018559Y-111666721D01*
X124018559Y-111352254D01*
X125767315Y-113101010D01*
X114059707Y-113101010D01*
X110938696Y-109980000D01*
X120324304Y-109980000D01*
X122253819Y-111909516D01*
G36*
X187882370Y-112895067D02*
X178255149Y-112895067D01*
X178290500Y-112809721D01*
X178290500Y-112488279D01*
X178167490Y-112191305D01*
X177940195Y-111964010D01*
X177643221Y-111841000D01*
X177321779Y-111841000D01*
X177057421Y-111950500D01*
X176755828Y-111950500D01*
X175015377Y-110210049D01*
X175035779Y-110218500D01*
X175357221Y-110218500D01*
X175654195Y-110095490D01*
X175706185Y-110043500D01*
X185030804Y-110043500D01*
X187882370Y-112895067D01*
X187882370Y-112895067D01*
G37*
X187882370Y-112895067D02*
X178255149Y-112895067D01*
X178290500Y-112809721D01*
X178290500Y-112488279D01*
X178167490Y-112191305D01*
X177940195Y-111964010D01*
X177643221Y-111841000D01*
X177321779Y-111841000D01*
X177057421Y-111950500D01*
X176755828Y-111950500D01*
X175015377Y-110210049D01*
X175035779Y-110218500D01*
X175357221Y-110218500D01*
X175654195Y-110095490D01*
X175706185Y-110043500D01*
X185030804Y-110043500D01*
X187882370Y-112895067D01*
G36*
X170076301Y-109539500D02*
X150174928Y-109539500D01*
X150112589Y-109527100D01*
X150050250Y-109539500D01*
X150050246Y-109539500D01*
X149865606Y-109576227D01*
X149804109Y-109617318D01*
X149733855Y-109664261D01*
X149656223Y-109716133D01*
X149620909Y-109768985D01*
X149024894Y-110365000D01*
X127516197Y-110365000D01*
X127363500Y-110212303D01*
X127363500Y-110138779D01*
X127242073Y-109845626D01*
X128113700Y-108973999D01*
X169510801Y-108973999D01*
X170076301Y-109539500D01*
X170076301Y-109539500D01*
G37*
X170076301Y-109539500D02*
X150174928Y-109539500D01*
X150112589Y-109527100D01*
X150050250Y-109539500D01*
X150050246Y-109539500D01*
X149865606Y-109576227D01*
X149804109Y-109617318D01*
X149733855Y-109664261D01*
X149656223Y-109716133D01*
X149620909Y-109768985D01*
X149024894Y-110365000D01*
X127516197Y-110365000D01*
X127363500Y-110212303D01*
X127363500Y-110138779D01*
X127242073Y-109845626D01*
X128113700Y-108973999D01*
X169510801Y-108973999D01*
X170076301Y-109539500D01*
G36*
X92858830Y-103787027D02*
X92894144Y-103839878D01*
X93103527Y-103979784D01*
X93288167Y-104016511D01*
X93288172Y-104016511D01*
X93350511Y-104028911D01*
X93412850Y-104016511D01*
X95995165Y-104016511D01*
X96644153Y-104665500D01*
X96613279Y-104665500D01*
X96316305Y-104788510D01*
X96264315Y-104840500D01*
X93480197Y-104840500D01*
X91803500Y-103163804D01*
X91803500Y-103090279D01*
X91680490Y-102793305D01*
X91453195Y-102566010D01*
X91156221Y-102443000D01*
X90834779Y-102443000D01*
X90537805Y-102566010D01*
X90310510Y-102793305D01*
X90187500Y-103090279D01*
X90187500Y-103411721D01*
X90310510Y-103708695D01*
X90537805Y-103935990D01*
X90834779Y-104059000D01*
X90908304Y-104059000D01*
X92726319Y-105877016D01*
X92761633Y-105929867D01*
X92971016Y-106069773D01*
X93155656Y-106106500D01*
X93155661Y-106106500D01*
X93218000Y-106118900D01*
X93280339Y-106106500D01*
X96264315Y-106106500D01*
X96316305Y-106158490D01*
X96613279Y-106281500D01*
X96934721Y-106281500D01*
X97231695Y-106158490D01*
X97458990Y-105931195D01*
X97582000Y-105634221D01*
X97582000Y-105603347D01*
X99062171Y-107083519D01*
X99097483Y-107136367D01*
X99150331Y-107171679D01*
X99150334Y-107171682D01*
X99244392Y-107234529D01*
X99306866Y-107276273D01*
X99491506Y-107313000D01*
X99491510Y-107313000D01*
X99553849Y-107325400D01*
X99616188Y-107313000D01*
X119979306Y-107313000D01*
X120872306Y-108206000D01*
X118955366Y-108206000D01*
X118943549Y-108188315D01*
X118734166Y-108048409D01*
X118549526Y-108011682D01*
X118549521Y-108011682D01*
X118487182Y-107999282D01*
X118424843Y-108011682D01*
X96327367Y-108011682D01*
X96279195Y-107963510D01*
X95982221Y-107840500D01*
X95660779Y-107840500D01*
X95363805Y-107963510D01*
X95136510Y-108190805D01*
X95013500Y-108487779D01*
X95013500Y-108714000D01*
X94235685Y-108714000D01*
X94183695Y-108662010D01*
X93886721Y-108539000D01*
X93565279Y-108539000D01*
X93268305Y-108662010D01*
X93041010Y-108889305D01*
X92918000Y-109186279D01*
X92918000Y-109476000D01*
X90094526Y-109476000D01*
X90116327Y-109454199D01*
X90213000Y-109220810D01*
X90213000Y-108680250D01*
X90054250Y-108521500D01*
X89217500Y-108521500D01*
X89217500Y-108541500D01*
X88963500Y-108541500D01*
X88963500Y-108521500D01*
X88943500Y-108521500D01*
X88943500Y-108267500D01*
X88963500Y-108267500D01*
X88963500Y-107218250D01*
X89217500Y-107218250D01*
X89217500Y-108267500D01*
X90054250Y-108267500D01*
X90213000Y-108108750D01*
X90213000Y-107568190D01*
X90116327Y-107334801D01*
X89937698Y-107156173D01*
X89704309Y-107059500D01*
X89376250Y-107059500D01*
X89217500Y-107218250D01*
X88963500Y-107218250D01*
X88804750Y-107059500D01*
X88476691Y-107059500D01*
X88243302Y-107156173D01*
X88064673Y-107334801D01*
X88022522Y-107436562D01*
X87997855Y-107399645D01*
X87848500Y-107299849D01*
X87848500Y-107083952D01*
X88213250Y-107083952D01*
X88504741Y-107025971D01*
X88751855Y-106860855D01*
X88916971Y-106613741D01*
X88920289Y-106597060D01*
X89013367Y-106534867D01*
X89048683Y-106482013D01*
X89684516Y-105846181D01*
X89737367Y-105810867D01*
X89780955Y-105745633D01*
X89877273Y-105601485D01*
X89900994Y-105482228D01*
X89914000Y-105416844D01*
X89914000Y-105416841D01*
X89926400Y-105354500D01*
X89914000Y-105292160D01*
X89914000Y-102741839D01*
X89926400Y-102679500D01*
X89914000Y-102617161D01*
X89914000Y-102617156D01*
X89877273Y-102432516D01*
X89807678Y-102328360D01*
X89772682Y-102275985D01*
X89772681Y-102275984D01*
X89737367Y-102223133D01*
X89684515Y-102187818D01*
X89234682Y-101737986D01*
X89199367Y-101685133D01*
X89106869Y-101623328D01*
X89430516Y-101299681D01*
X89483367Y-101264367D01*
X89544100Y-101173475D01*
X89623272Y-101054985D01*
X89623273Y-101054984D01*
X89660000Y-100870344D01*
X89660000Y-100870339D01*
X89672400Y-100808000D01*
X89660000Y-100745661D01*
X89660000Y-100588196D01*
X92858830Y-103787027D01*
X92858830Y-103787027D01*
G37*
X92858830Y-103787027D02*
X92894144Y-103839878D01*
X93103527Y-103979784D01*
X93288167Y-104016511D01*
X93288172Y-104016511D01*
X93350511Y-104028911D01*
X93412850Y-104016511D01*
X95995165Y-104016511D01*
X96644153Y-104665500D01*
X96613279Y-104665500D01*
X96316305Y-104788510D01*
X96264315Y-104840500D01*
X93480197Y-104840500D01*
X91803500Y-103163804D01*
X91803500Y-103090279D01*
X91680490Y-102793305D01*
X91453195Y-102566010D01*
X91156221Y-102443000D01*
X90834779Y-102443000D01*
X90537805Y-102566010D01*
X90310510Y-102793305D01*
X90187500Y-103090279D01*
X90187500Y-103411721D01*
X90310510Y-103708695D01*
X90537805Y-103935990D01*
X90834779Y-104059000D01*
X90908304Y-104059000D01*
X92726319Y-105877016D01*
X92761633Y-105929867D01*
X92971016Y-106069773D01*
X93155656Y-106106500D01*
X93155661Y-106106500D01*
X93218000Y-106118900D01*
X93280339Y-106106500D01*
X96264315Y-106106500D01*
X96316305Y-106158490D01*
X96613279Y-106281500D01*
X96934721Y-106281500D01*
X97231695Y-106158490D01*
X97458990Y-105931195D01*
X97582000Y-105634221D01*
X97582000Y-105603347D01*
X99062171Y-107083519D01*
X99097483Y-107136367D01*
X99150331Y-107171679D01*
X99150334Y-107171682D01*
X99244392Y-107234529D01*
X99306866Y-107276273D01*
X99491506Y-107313000D01*
X99491510Y-107313000D01*
X99553849Y-107325400D01*
X99616188Y-107313000D01*
X119979306Y-107313000D01*
X120872306Y-108206000D01*
X118955366Y-108206000D01*
X118943549Y-108188315D01*
X118734166Y-108048409D01*
X118549526Y-108011682D01*
X118549521Y-108011682D01*
X118487182Y-107999282D01*
X118424843Y-108011682D01*
X96327367Y-108011682D01*
X96279195Y-107963510D01*
X95982221Y-107840500D01*
X95660779Y-107840500D01*
X95363805Y-107963510D01*
X95136510Y-108190805D01*
X95013500Y-108487779D01*
X95013500Y-108714000D01*
X94235685Y-108714000D01*
X94183695Y-108662010D01*
X93886721Y-108539000D01*
X93565279Y-108539000D01*
X93268305Y-108662010D01*
X93041010Y-108889305D01*
X92918000Y-109186279D01*
X92918000Y-109476000D01*
X90094526Y-109476000D01*
X90116327Y-109454199D01*
X90213000Y-109220810D01*
X90213000Y-108680250D01*
X90054250Y-108521500D01*
X89217500Y-108521500D01*
X89217500Y-108541500D01*
X88963500Y-108541500D01*
X88963500Y-108521500D01*
X88943500Y-108521500D01*
X88943500Y-108267500D01*
X88963500Y-108267500D01*
X88963500Y-107218250D01*
X89217500Y-107218250D01*
X89217500Y-108267500D01*
X90054250Y-108267500D01*
X90213000Y-108108750D01*
X90213000Y-107568190D01*
X90116327Y-107334801D01*
X89937698Y-107156173D01*
X89704309Y-107059500D01*
X89376250Y-107059500D01*
X89217500Y-107218250D01*
X88963500Y-107218250D01*
X88804750Y-107059500D01*
X88476691Y-107059500D01*
X88243302Y-107156173D01*
X88064673Y-107334801D01*
X88022522Y-107436562D01*
X87997855Y-107399645D01*
X87848500Y-107299849D01*
X87848500Y-107083952D01*
X88213250Y-107083952D01*
X88504741Y-107025971D01*
X88751855Y-106860855D01*
X88916971Y-106613741D01*
X88920289Y-106597060D01*
X89013367Y-106534867D01*
X89048683Y-106482013D01*
X89684516Y-105846181D01*
X89737367Y-105810867D01*
X89780955Y-105745633D01*
X89877273Y-105601485D01*
X89900994Y-105482228D01*
X89914000Y-105416844D01*
X89914000Y-105416841D01*
X89926400Y-105354500D01*
X89914000Y-105292160D01*
X89914000Y-102741839D01*
X89926400Y-102679500D01*
X89914000Y-102617161D01*
X89914000Y-102617156D01*
X89877273Y-102432516D01*
X89807678Y-102328360D01*
X89772682Y-102275985D01*
X89772681Y-102275984D01*
X89737367Y-102223133D01*
X89684515Y-102187818D01*
X89234682Y-101737986D01*
X89199367Y-101685133D01*
X89106869Y-101623328D01*
X89430516Y-101299681D01*
X89483367Y-101264367D01*
X89544100Y-101173475D01*
X89623272Y-101054985D01*
X89623273Y-101054984D01*
X89660000Y-100870344D01*
X89660000Y-100870339D01*
X89672400Y-100808000D01*
X89660000Y-100745661D01*
X89660000Y-100588196D01*
X92858830Y-103787027D01*
M02*
