%TF.GenerationSoftware,KiCad,Pcbnew,(5.0.1)-4*%
%TF.CreationDate,2019-04-12T07:50:59+02:00*%
%TF.ProjectId,nixie,6E697869652E6B696361645F70636200,rev?*%
%TF.SameCoordinates,Original*%
%TF.FileFunction,Paste,Top*%
%TF.FilePolarity,Positive*%
%FSLAX46Y46*%
G04 Gerber Fmt 4.6, Leading zero omitted, Abs format (unit mm)*
G04 Created by KiCad (PCBNEW (5.0.1)-4) date 12/04/2019 7:50:59*
%MOMM*%
%LPD*%
G01*
G04 APERTURE LIST*
%ADD10C,0.200000*%
%ADD11R,1.500000X0.520000*%
%ADD12R,0.520000X1.500000*%
%ADD13C,0.100000*%
%ADD14C,1.350000*%
%ADD15R,2.510000X1.000000*%
%ADD16C,1.107440*%
%ADD17C,0.975000*%
%ADD18R,0.450000X1.300000*%
%ADD19R,0.800000X0.900000*%
%ADD20R,1.700000X1.000000*%
%ADD21R,3.800000X2.000000*%
%ADD22R,1.500000X2.000000*%
G04 APERTURE END LIST*
D10*
X71251000Y-120249000D02*
G75*
G02X67251000Y-116249000I0J4000000D01*
G01*
X71251000Y-120249000D02*
X230251000Y-120249000D01*
X234251000Y-87249000D02*
X234251000Y-116249000D01*
X67251000Y-87249000D02*
G75*
G02X71251000Y-83249000I4000000J0D01*
G01*
X234251000Y-116249000D02*
G75*
G02X230251000Y-120249000I-4000000J0D01*
G01*
X67251000Y-87249000D02*
X67251000Y-116249000D01*
X71251000Y-83249000D02*
X230251000Y-83249000D01*
X230251000Y-83249000D02*
G75*
G02X234251000Y-87249000I0J-4000000D01*
G01*
D11*
X133240500Y-106236000D03*
X133240500Y-107036000D03*
X133240500Y-107836000D03*
X133240500Y-108636000D03*
X133240500Y-109436000D03*
X133240500Y-110236000D03*
X133240500Y-111036000D03*
X133240500Y-111836000D03*
X133240500Y-112636000D03*
X133240500Y-113436000D03*
X133240500Y-114236000D03*
D12*
X131190500Y-116286000D03*
X130390500Y-116286000D03*
X129590500Y-116286000D03*
X128790500Y-116286000D03*
X127990500Y-116286000D03*
X127190500Y-116286000D03*
X126390500Y-116286000D03*
X125590500Y-116286000D03*
X124790500Y-116286000D03*
X123990500Y-116286000D03*
X123190500Y-116286000D03*
D11*
X121140500Y-114236000D03*
X121140500Y-113436000D03*
X121140500Y-112636000D03*
X121140500Y-111836000D03*
X121140500Y-111036000D03*
X121140500Y-110236000D03*
X121140500Y-109436000D03*
X121140500Y-108636000D03*
X121140500Y-107836000D03*
X121140500Y-107036000D03*
X121140500Y-106236000D03*
D12*
X123190500Y-104186000D03*
X123990500Y-104186000D03*
X124790500Y-104186000D03*
X125590500Y-104186000D03*
X126390500Y-104186000D03*
X127190500Y-104186000D03*
X127990500Y-104186000D03*
X128790500Y-104186000D03*
X129590500Y-104186000D03*
X130390500Y-104186000D03*
X131190500Y-104186000D03*
D11*
X179722500Y-106236000D03*
X179722500Y-107036000D03*
X179722500Y-107836000D03*
X179722500Y-108636000D03*
X179722500Y-109436000D03*
X179722500Y-110236000D03*
X179722500Y-111036000D03*
X179722500Y-111836000D03*
X179722500Y-112636000D03*
X179722500Y-113436000D03*
X179722500Y-114236000D03*
D12*
X177672500Y-116286000D03*
X176872500Y-116286000D03*
X176072500Y-116286000D03*
X175272500Y-116286000D03*
X174472500Y-116286000D03*
X173672500Y-116286000D03*
X172872500Y-116286000D03*
X172072500Y-116286000D03*
X171272500Y-116286000D03*
X170472500Y-116286000D03*
X169672500Y-116286000D03*
D11*
X167622500Y-114236000D03*
X167622500Y-113436000D03*
X167622500Y-112636000D03*
X167622500Y-111836000D03*
X167622500Y-111036000D03*
X167622500Y-110236000D03*
X167622500Y-109436000D03*
X167622500Y-108636000D03*
X167622500Y-107836000D03*
X167622500Y-107036000D03*
X167622500Y-106236000D03*
D12*
X169672500Y-104186000D03*
X170472500Y-104186000D03*
X171272500Y-104186000D03*
X172072500Y-104186000D03*
X172872500Y-104186000D03*
X173672500Y-104186000D03*
X174472500Y-104186000D03*
X175272500Y-104186000D03*
X176072500Y-104186000D03*
X176872500Y-104186000D03*
X177672500Y-104186000D03*
D13*
G36*
X221112005Y-100870704D02*
X221136273Y-100874304D01*
X221160072Y-100880265D01*
X221183171Y-100888530D01*
X221205350Y-100899020D01*
X221226393Y-100911632D01*
X221246099Y-100926247D01*
X221264277Y-100942723D01*
X221280753Y-100960901D01*
X221295368Y-100980607D01*
X221307980Y-101001650D01*
X221318470Y-101023829D01*
X221326735Y-101046928D01*
X221332696Y-101070727D01*
X221336296Y-101094995D01*
X221337500Y-101119499D01*
X221337500Y-102019501D01*
X221336296Y-102044005D01*
X221332696Y-102068273D01*
X221326735Y-102092072D01*
X221318470Y-102115171D01*
X221307980Y-102137350D01*
X221295368Y-102158393D01*
X221280753Y-102178099D01*
X221264277Y-102196277D01*
X221246099Y-102212753D01*
X221226393Y-102227368D01*
X221205350Y-102239980D01*
X221183171Y-102250470D01*
X221160072Y-102258735D01*
X221136273Y-102264696D01*
X221112005Y-102268296D01*
X221087501Y-102269500D01*
X220237499Y-102269500D01*
X220212995Y-102268296D01*
X220188727Y-102264696D01*
X220164928Y-102258735D01*
X220141829Y-102250470D01*
X220119650Y-102239980D01*
X220098607Y-102227368D01*
X220078901Y-102212753D01*
X220060723Y-102196277D01*
X220044247Y-102178099D01*
X220029632Y-102158393D01*
X220017020Y-102137350D01*
X220006530Y-102115171D01*
X219998265Y-102092072D01*
X219992304Y-102068273D01*
X219988704Y-102044005D01*
X219987500Y-102019501D01*
X219987500Y-101119499D01*
X219988704Y-101094995D01*
X219992304Y-101070727D01*
X219998265Y-101046928D01*
X220006530Y-101023829D01*
X220017020Y-101001650D01*
X220029632Y-100980607D01*
X220044247Y-100960901D01*
X220060723Y-100942723D01*
X220078901Y-100926247D01*
X220098607Y-100911632D01*
X220119650Y-100899020D01*
X220141829Y-100888530D01*
X220164928Y-100880265D01*
X220188727Y-100874304D01*
X220212995Y-100870704D01*
X220237499Y-100869500D01*
X221087501Y-100869500D01*
X221112005Y-100870704D01*
X221112005Y-100870704D01*
G37*
D14*
X220662500Y-101569500D03*
D13*
G36*
X221112005Y-98170704D02*
X221136273Y-98174304D01*
X221160072Y-98180265D01*
X221183171Y-98188530D01*
X221205350Y-98199020D01*
X221226393Y-98211632D01*
X221246099Y-98226247D01*
X221264277Y-98242723D01*
X221280753Y-98260901D01*
X221295368Y-98280607D01*
X221307980Y-98301650D01*
X221318470Y-98323829D01*
X221326735Y-98346928D01*
X221332696Y-98370727D01*
X221336296Y-98394995D01*
X221337500Y-98419499D01*
X221337500Y-99319501D01*
X221336296Y-99344005D01*
X221332696Y-99368273D01*
X221326735Y-99392072D01*
X221318470Y-99415171D01*
X221307980Y-99437350D01*
X221295368Y-99458393D01*
X221280753Y-99478099D01*
X221264277Y-99496277D01*
X221246099Y-99512753D01*
X221226393Y-99527368D01*
X221205350Y-99539980D01*
X221183171Y-99550470D01*
X221160072Y-99558735D01*
X221136273Y-99564696D01*
X221112005Y-99568296D01*
X221087501Y-99569500D01*
X220237499Y-99569500D01*
X220212995Y-99568296D01*
X220188727Y-99564696D01*
X220164928Y-99558735D01*
X220141829Y-99550470D01*
X220119650Y-99539980D01*
X220098607Y-99527368D01*
X220078901Y-99512753D01*
X220060723Y-99496277D01*
X220044247Y-99478099D01*
X220029632Y-99458393D01*
X220017020Y-99437350D01*
X220006530Y-99415171D01*
X219998265Y-99392072D01*
X219992304Y-99368273D01*
X219988704Y-99344005D01*
X219987500Y-99319501D01*
X219987500Y-98419499D01*
X219988704Y-98394995D01*
X219992304Y-98370727D01*
X219998265Y-98346928D01*
X220006530Y-98323829D01*
X220017020Y-98301650D01*
X220029632Y-98280607D01*
X220044247Y-98260901D01*
X220060723Y-98242723D01*
X220078901Y-98226247D01*
X220098607Y-98211632D01*
X220119650Y-98199020D01*
X220141829Y-98188530D01*
X220164928Y-98180265D01*
X220188727Y-98174304D01*
X220212995Y-98170704D01*
X220237499Y-98169500D01*
X221087501Y-98169500D01*
X221112005Y-98170704D01*
X221112005Y-98170704D01*
G37*
D14*
X220662500Y-98869500D03*
D15*
X104457500Y-115824000D03*
X104457500Y-113284000D03*
X73977500Y-118364000D03*
X73977500Y-113284000D03*
X73973500Y-115824000D03*
X73973500Y-110744000D03*
D16*
X129540000Y-96266000D03*
X126365000Y-96266000D03*
X174625000Y-96266000D03*
X171450000Y-96266000D03*
D13*
G36*
X137528142Y-113925674D02*
X137551803Y-113929184D01*
X137575007Y-113934996D01*
X137597529Y-113943054D01*
X137619153Y-113953282D01*
X137639670Y-113965579D01*
X137658883Y-113979829D01*
X137676607Y-113995893D01*
X137692671Y-114013617D01*
X137706921Y-114032830D01*
X137719218Y-114053347D01*
X137729446Y-114074971D01*
X137737504Y-114097493D01*
X137743316Y-114120697D01*
X137746826Y-114144358D01*
X137748000Y-114168250D01*
X137748000Y-114655750D01*
X137746826Y-114679642D01*
X137743316Y-114703303D01*
X137737504Y-114726507D01*
X137729446Y-114749029D01*
X137719218Y-114770653D01*
X137706921Y-114791170D01*
X137692671Y-114810383D01*
X137676607Y-114828107D01*
X137658883Y-114844171D01*
X137639670Y-114858421D01*
X137619153Y-114870718D01*
X137597529Y-114880946D01*
X137575007Y-114889004D01*
X137551803Y-114894816D01*
X137528142Y-114898326D01*
X137504250Y-114899500D01*
X136591750Y-114899500D01*
X136567858Y-114898326D01*
X136544197Y-114894816D01*
X136520993Y-114889004D01*
X136498471Y-114880946D01*
X136476847Y-114870718D01*
X136456330Y-114858421D01*
X136437117Y-114844171D01*
X136419393Y-114828107D01*
X136403329Y-114810383D01*
X136389079Y-114791170D01*
X136376782Y-114770653D01*
X136366554Y-114749029D01*
X136358496Y-114726507D01*
X136352684Y-114703303D01*
X136349174Y-114679642D01*
X136348000Y-114655750D01*
X136348000Y-114168250D01*
X136349174Y-114144358D01*
X136352684Y-114120697D01*
X136358496Y-114097493D01*
X136366554Y-114074971D01*
X136376782Y-114053347D01*
X136389079Y-114032830D01*
X136403329Y-114013617D01*
X136419393Y-113995893D01*
X136437117Y-113979829D01*
X136456330Y-113965579D01*
X136476847Y-113953282D01*
X136498471Y-113943054D01*
X136520993Y-113934996D01*
X136544197Y-113929184D01*
X136567858Y-113925674D01*
X136591750Y-113924500D01*
X137504250Y-113924500D01*
X137528142Y-113925674D01*
X137528142Y-113925674D01*
G37*
D17*
X137048000Y-114412000D03*
D13*
G36*
X137528142Y-112050674D02*
X137551803Y-112054184D01*
X137575007Y-112059996D01*
X137597529Y-112068054D01*
X137619153Y-112078282D01*
X137639670Y-112090579D01*
X137658883Y-112104829D01*
X137676607Y-112120893D01*
X137692671Y-112138617D01*
X137706921Y-112157830D01*
X137719218Y-112178347D01*
X137729446Y-112199971D01*
X137737504Y-112222493D01*
X137743316Y-112245697D01*
X137746826Y-112269358D01*
X137748000Y-112293250D01*
X137748000Y-112780750D01*
X137746826Y-112804642D01*
X137743316Y-112828303D01*
X137737504Y-112851507D01*
X137729446Y-112874029D01*
X137719218Y-112895653D01*
X137706921Y-112916170D01*
X137692671Y-112935383D01*
X137676607Y-112953107D01*
X137658883Y-112969171D01*
X137639670Y-112983421D01*
X137619153Y-112995718D01*
X137597529Y-113005946D01*
X137575007Y-113014004D01*
X137551803Y-113019816D01*
X137528142Y-113023326D01*
X137504250Y-113024500D01*
X136591750Y-113024500D01*
X136567858Y-113023326D01*
X136544197Y-113019816D01*
X136520993Y-113014004D01*
X136498471Y-113005946D01*
X136476847Y-112995718D01*
X136456330Y-112983421D01*
X136437117Y-112969171D01*
X136419393Y-112953107D01*
X136403329Y-112935383D01*
X136389079Y-112916170D01*
X136376782Y-112895653D01*
X136366554Y-112874029D01*
X136358496Y-112851507D01*
X136352684Y-112828303D01*
X136349174Y-112804642D01*
X136348000Y-112780750D01*
X136348000Y-112293250D01*
X136349174Y-112269358D01*
X136352684Y-112245697D01*
X136358496Y-112222493D01*
X136366554Y-112199971D01*
X136376782Y-112178347D01*
X136389079Y-112157830D01*
X136403329Y-112138617D01*
X136419393Y-112120893D01*
X136437117Y-112104829D01*
X136456330Y-112090579D01*
X136476847Y-112078282D01*
X136498471Y-112068054D01*
X136520993Y-112059996D01*
X136544197Y-112054184D01*
X136567858Y-112050674D01*
X136591750Y-112049500D01*
X137504250Y-112049500D01*
X137528142Y-112050674D01*
X137528142Y-112050674D01*
G37*
D17*
X137048000Y-112537000D03*
D13*
G36*
X183931642Y-112319674D02*
X183955303Y-112323184D01*
X183978507Y-112328996D01*
X184001029Y-112337054D01*
X184022653Y-112347282D01*
X184043170Y-112359579D01*
X184062383Y-112373829D01*
X184080107Y-112389893D01*
X184096171Y-112407617D01*
X184110421Y-112426830D01*
X184122718Y-112447347D01*
X184132946Y-112468971D01*
X184141004Y-112491493D01*
X184146816Y-112514697D01*
X184150326Y-112538358D01*
X184151500Y-112562250D01*
X184151500Y-113049750D01*
X184150326Y-113073642D01*
X184146816Y-113097303D01*
X184141004Y-113120507D01*
X184132946Y-113143029D01*
X184122718Y-113164653D01*
X184110421Y-113185170D01*
X184096171Y-113204383D01*
X184080107Y-113222107D01*
X184062383Y-113238171D01*
X184043170Y-113252421D01*
X184022653Y-113264718D01*
X184001029Y-113274946D01*
X183978507Y-113283004D01*
X183955303Y-113288816D01*
X183931642Y-113292326D01*
X183907750Y-113293500D01*
X182995250Y-113293500D01*
X182971358Y-113292326D01*
X182947697Y-113288816D01*
X182924493Y-113283004D01*
X182901971Y-113274946D01*
X182880347Y-113264718D01*
X182859830Y-113252421D01*
X182840617Y-113238171D01*
X182822893Y-113222107D01*
X182806829Y-113204383D01*
X182792579Y-113185170D01*
X182780282Y-113164653D01*
X182770054Y-113143029D01*
X182761996Y-113120507D01*
X182756184Y-113097303D01*
X182752674Y-113073642D01*
X182751500Y-113049750D01*
X182751500Y-112562250D01*
X182752674Y-112538358D01*
X182756184Y-112514697D01*
X182761996Y-112491493D01*
X182770054Y-112468971D01*
X182780282Y-112447347D01*
X182792579Y-112426830D01*
X182806829Y-112407617D01*
X182822893Y-112389893D01*
X182840617Y-112373829D01*
X182859830Y-112359579D01*
X182880347Y-112347282D01*
X182901971Y-112337054D01*
X182924493Y-112328996D01*
X182947697Y-112323184D01*
X182971358Y-112319674D01*
X182995250Y-112318500D01*
X183907750Y-112318500D01*
X183931642Y-112319674D01*
X183931642Y-112319674D01*
G37*
D17*
X183451500Y-112806000D03*
D13*
G36*
X183931642Y-114194674D02*
X183955303Y-114198184D01*
X183978507Y-114203996D01*
X184001029Y-114212054D01*
X184022653Y-114222282D01*
X184043170Y-114234579D01*
X184062383Y-114248829D01*
X184080107Y-114264893D01*
X184096171Y-114282617D01*
X184110421Y-114301830D01*
X184122718Y-114322347D01*
X184132946Y-114343971D01*
X184141004Y-114366493D01*
X184146816Y-114389697D01*
X184150326Y-114413358D01*
X184151500Y-114437250D01*
X184151500Y-114924750D01*
X184150326Y-114948642D01*
X184146816Y-114972303D01*
X184141004Y-114995507D01*
X184132946Y-115018029D01*
X184122718Y-115039653D01*
X184110421Y-115060170D01*
X184096171Y-115079383D01*
X184080107Y-115097107D01*
X184062383Y-115113171D01*
X184043170Y-115127421D01*
X184022653Y-115139718D01*
X184001029Y-115149946D01*
X183978507Y-115158004D01*
X183955303Y-115163816D01*
X183931642Y-115167326D01*
X183907750Y-115168500D01*
X182995250Y-115168500D01*
X182971358Y-115167326D01*
X182947697Y-115163816D01*
X182924493Y-115158004D01*
X182901971Y-115149946D01*
X182880347Y-115139718D01*
X182859830Y-115127421D01*
X182840617Y-115113171D01*
X182822893Y-115097107D01*
X182806829Y-115079383D01*
X182792579Y-115060170D01*
X182780282Y-115039653D01*
X182770054Y-115018029D01*
X182761996Y-114995507D01*
X182756184Y-114972303D01*
X182752674Y-114948642D01*
X182751500Y-114924750D01*
X182751500Y-114437250D01*
X182752674Y-114413358D01*
X182756184Y-114389697D01*
X182761996Y-114366493D01*
X182770054Y-114343971D01*
X182780282Y-114322347D01*
X182792579Y-114301830D01*
X182806829Y-114282617D01*
X182822893Y-114264893D01*
X182840617Y-114248829D01*
X182859830Y-114234579D01*
X182880347Y-114222282D01*
X182901971Y-114212054D01*
X182924493Y-114203996D01*
X182947697Y-114198184D01*
X182971358Y-114194674D01*
X182995250Y-114193500D01*
X183907750Y-114193500D01*
X183931642Y-114194674D01*
X183931642Y-114194674D01*
G37*
D17*
X183451500Y-114681000D03*
D13*
G36*
X69885642Y-116798174D02*
X69909303Y-116801684D01*
X69932507Y-116807496D01*
X69955029Y-116815554D01*
X69976653Y-116825782D01*
X69997170Y-116838079D01*
X70016383Y-116852329D01*
X70034107Y-116868393D01*
X70050171Y-116886117D01*
X70064421Y-116905330D01*
X70076718Y-116925847D01*
X70086946Y-116947471D01*
X70095004Y-116969993D01*
X70100816Y-116993197D01*
X70104326Y-117016858D01*
X70105500Y-117040750D01*
X70105500Y-117528250D01*
X70104326Y-117552142D01*
X70100816Y-117575803D01*
X70095004Y-117599007D01*
X70086946Y-117621529D01*
X70076718Y-117643153D01*
X70064421Y-117663670D01*
X70050171Y-117682883D01*
X70034107Y-117700607D01*
X70016383Y-117716671D01*
X69997170Y-117730921D01*
X69976653Y-117743218D01*
X69955029Y-117753446D01*
X69932507Y-117761504D01*
X69909303Y-117767316D01*
X69885642Y-117770826D01*
X69861750Y-117772000D01*
X68949250Y-117772000D01*
X68925358Y-117770826D01*
X68901697Y-117767316D01*
X68878493Y-117761504D01*
X68855971Y-117753446D01*
X68834347Y-117743218D01*
X68813830Y-117730921D01*
X68794617Y-117716671D01*
X68776893Y-117700607D01*
X68760829Y-117682883D01*
X68746579Y-117663670D01*
X68734282Y-117643153D01*
X68724054Y-117621529D01*
X68715996Y-117599007D01*
X68710184Y-117575803D01*
X68706674Y-117552142D01*
X68705500Y-117528250D01*
X68705500Y-117040750D01*
X68706674Y-117016858D01*
X68710184Y-116993197D01*
X68715996Y-116969993D01*
X68724054Y-116947471D01*
X68734282Y-116925847D01*
X68746579Y-116905330D01*
X68760829Y-116886117D01*
X68776893Y-116868393D01*
X68794617Y-116852329D01*
X68813830Y-116838079D01*
X68834347Y-116825782D01*
X68855971Y-116815554D01*
X68878493Y-116807496D01*
X68901697Y-116801684D01*
X68925358Y-116798174D01*
X68949250Y-116797000D01*
X69861750Y-116797000D01*
X69885642Y-116798174D01*
X69885642Y-116798174D01*
G37*
D17*
X69405500Y-117284500D03*
D13*
G36*
X69885642Y-114923174D02*
X69909303Y-114926684D01*
X69932507Y-114932496D01*
X69955029Y-114940554D01*
X69976653Y-114950782D01*
X69997170Y-114963079D01*
X70016383Y-114977329D01*
X70034107Y-114993393D01*
X70050171Y-115011117D01*
X70064421Y-115030330D01*
X70076718Y-115050847D01*
X70086946Y-115072471D01*
X70095004Y-115094993D01*
X70100816Y-115118197D01*
X70104326Y-115141858D01*
X70105500Y-115165750D01*
X70105500Y-115653250D01*
X70104326Y-115677142D01*
X70100816Y-115700803D01*
X70095004Y-115724007D01*
X70086946Y-115746529D01*
X70076718Y-115768153D01*
X70064421Y-115788670D01*
X70050171Y-115807883D01*
X70034107Y-115825607D01*
X70016383Y-115841671D01*
X69997170Y-115855921D01*
X69976653Y-115868218D01*
X69955029Y-115878446D01*
X69932507Y-115886504D01*
X69909303Y-115892316D01*
X69885642Y-115895826D01*
X69861750Y-115897000D01*
X68949250Y-115897000D01*
X68925358Y-115895826D01*
X68901697Y-115892316D01*
X68878493Y-115886504D01*
X68855971Y-115878446D01*
X68834347Y-115868218D01*
X68813830Y-115855921D01*
X68794617Y-115841671D01*
X68776893Y-115825607D01*
X68760829Y-115807883D01*
X68746579Y-115788670D01*
X68734282Y-115768153D01*
X68724054Y-115746529D01*
X68715996Y-115724007D01*
X68710184Y-115700803D01*
X68706674Y-115677142D01*
X68705500Y-115653250D01*
X68705500Y-115165750D01*
X68706674Y-115141858D01*
X68710184Y-115118197D01*
X68715996Y-115094993D01*
X68724054Y-115072471D01*
X68734282Y-115050847D01*
X68746579Y-115030330D01*
X68760829Y-115011117D01*
X68776893Y-114993393D01*
X68794617Y-114977329D01*
X68813830Y-114963079D01*
X68834347Y-114950782D01*
X68855971Y-114940554D01*
X68878493Y-114932496D01*
X68901697Y-114926684D01*
X68925358Y-114923174D01*
X68949250Y-114922000D01*
X69861750Y-114922000D01*
X69885642Y-114923174D01*
X69885642Y-114923174D01*
G37*
D17*
X69405500Y-115409500D03*
D18*
X226217000Y-88831500D03*
X225567000Y-88831500D03*
X224917000Y-88831500D03*
X224267000Y-88831500D03*
X223617000Y-88831500D03*
D19*
X159194500Y-108490000D03*
X157294500Y-108490000D03*
X158244500Y-110490000D03*
X153987500Y-105664000D03*
X152087500Y-105664000D03*
X153037500Y-107664000D03*
X147767000Y-110474000D03*
X146817000Y-108474000D03*
X148717000Y-108474000D03*
X142748000Y-107616500D03*
X141798000Y-105616500D03*
X143698000Y-105616500D03*
D13*
G36*
X148044505Y-85194204D02*
X148068773Y-85197804D01*
X148092572Y-85203765D01*
X148115671Y-85212030D01*
X148137850Y-85222520D01*
X148158893Y-85235132D01*
X148178599Y-85249747D01*
X148196777Y-85266223D01*
X148213253Y-85284401D01*
X148227868Y-85304107D01*
X148240480Y-85325150D01*
X148250970Y-85347329D01*
X148259235Y-85370428D01*
X148265196Y-85394227D01*
X148268796Y-85418495D01*
X148270000Y-85442999D01*
X148270000Y-88293001D01*
X148268796Y-88317505D01*
X148265196Y-88341773D01*
X148259235Y-88365572D01*
X148250970Y-88388671D01*
X148240480Y-88410850D01*
X148227868Y-88431893D01*
X148213253Y-88451599D01*
X148196777Y-88469777D01*
X148178599Y-88486253D01*
X148158893Y-88500868D01*
X148137850Y-88513480D01*
X148115671Y-88523970D01*
X148092572Y-88532235D01*
X148068773Y-88538196D01*
X148044505Y-88541796D01*
X148020001Y-88543000D01*
X147169999Y-88543000D01*
X147145495Y-88541796D01*
X147121227Y-88538196D01*
X147097428Y-88532235D01*
X147074329Y-88523970D01*
X147052150Y-88513480D01*
X147031107Y-88500868D01*
X147011401Y-88486253D01*
X146993223Y-88469777D01*
X146976747Y-88451599D01*
X146962132Y-88431893D01*
X146949520Y-88410850D01*
X146939030Y-88388671D01*
X146930765Y-88365572D01*
X146924804Y-88341773D01*
X146921204Y-88317505D01*
X146920000Y-88293001D01*
X146920000Y-85442999D01*
X146921204Y-85418495D01*
X146924804Y-85394227D01*
X146930765Y-85370428D01*
X146939030Y-85347329D01*
X146949520Y-85325150D01*
X146962132Y-85304107D01*
X146976747Y-85284401D01*
X146993223Y-85266223D01*
X147011401Y-85249747D01*
X147031107Y-85235132D01*
X147052150Y-85222520D01*
X147074329Y-85212030D01*
X147097428Y-85203765D01*
X147121227Y-85197804D01*
X147145495Y-85194204D01*
X147169999Y-85193000D01*
X148020001Y-85193000D01*
X148044505Y-85194204D01*
X148044505Y-85194204D01*
G37*
D14*
X147595000Y-86868000D03*
D13*
G36*
X153844505Y-85194204D02*
X153868773Y-85197804D01*
X153892572Y-85203765D01*
X153915671Y-85212030D01*
X153937850Y-85222520D01*
X153958893Y-85235132D01*
X153978599Y-85249747D01*
X153996777Y-85266223D01*
X154013253Y-85284401D01*
X154027868Y-85304107D01*
X154040480Y-85325150D01*
X154050970Y-85347329D01*
X154059235Y-85370428D01*
X154065196Y-85394227D01*
X154068796Y-85418495D01*
X154070000Y-85442999D01*
X154070000Y-88293001D01*
X154068796Y-88317505D01*
X154065196Y-88341773D01*
X154059235Y-88365572D01*
X154050970Y-88388671D01*
X154040480Y-88410850D01*
X154027868Y-88431893D01*
X154013253Y-88451599D01*
X153996777Y-88469777D01*
X153978599Y-88486253D01*
X153958893Y-88500868D01*
X153937850Y-88513480D01*
X153915671Y-88523970D01*
X153892572Y-88532235D01*
X153868773Y-88538196D01*
X153844505Y-88541796D01*
X153820001Y-88543000D01*
X152969999Y-88543000D01*
X152945495Y-88541796D01*
X152921227Y-88538196D01*
X152897428Y-88532235D01*
X152874329Y-88523970D01*
X152852150Y-88513480D01*
X152831107Y-88500868D01*
X152811401Y-88486253D01*
X152793223Y-88469777D01*
X152776747Y-88451599D01*
X152762132Y-88431893D01*
X152749520Y-88410850D01*
X152739030Y-88388671D01*
X152730765Y-88365572D01*
X152724804Y-88341773D01*
X152721204Y-88317505D01*
X152720000Y-88293001D01*
X152720000Y-85442999D01*
X152721204Y-85418495D01*
X152724804Y-85394227D01*
X152730765Y-85370428D01*
X152739030Y-85347329D01*
X152749520Y-85325150D01*
X152762132Y-85304107D01*
X152776747Y-85284401D01*
X152793223Y-85266223D01*
X152811401Y-85249747D01*
X152831107Y-85235132D01*
X152852150Y-85222520D01*
X152874329Y-85212030D01*
X152897428Y-85203765D01*
X152921227Y-85197804D01*
X152945495Y-85194204D01*
X152969999Y-85193000D01*
X153820001Y-85193000D01*
X153844505Y-85194204D01*
X153844505Y-85194204D01*
G37*
D14*
X153395000Y-86868000D03*
D13*
G36*
X125523005Y-89067704D02*
X125547273Y-89071304D01*
X125571072Y-89077265D01*
X125594171Y-89085530D01*
X125616350Y-89096020D01*
X125637393Y-89108632D01*
X125657099Y-89123247D01*
X125675277Y-89139723D01*
X125691753Y-89157901D01*
X125706368Y-89177607D01*
X125718980Y-89198650D01*
X125729470Y-89220829D01*
X125737735Y-89243928D01*
X125743696Y-89267727D01*
X125747296Y-89291995D01*
X125748500Y-89316499D01*
X125748500Y-92166501D01*
X125747296Y-92191005D01*
X125743696Y-92215273D01*
X125737735Y-92239072D01*
X125729470Y-92262171D01*
X125718980Y-92284350D01*
X125706368Y-92305393D01*
X125691753Y-92325099D01*
X125675277Y-92343277D01*
X125657099Y-92359753D01*
X125637393Y-92374368D01*
X125616350Y-92386980D01*
X125594171Y-92397470D01*
X125571072Y-92405735D01*
X125547273Y-92411696D01*
X125523005Y-92415296D01*
X125498501Y-92416500D01*
X124648499Y-92416500D01*
X124623995Y-92415296D01*
X124599727Y-92411696D01*
X124575928Y-92405735D01*
X124552829Y-92397470D01*
X124530650Y-92386980D01*
X124509607Y-92374368D01*
X124489901Y-92359753D01*
X124471723Y-92343277D01*
X124455247Y-92325099D01*
X124440632Y-92305393D01*
X124428020Y-92284350D01*
X124417530Y-92262171D01*
X124409265Y-92239072D01*
X124403304Y-92215273D01*
X124399704Y-92191005D01*
X124398500Y-92166501D01*
X124398500Y-89316499D01*
X124399704Y-89291995D01*
X124403304Y-89267727D01*
X124409265Y-89243928D01*
X124417530Y-89220829D01*
X124428020Y-89198650D01*
X124440632Y-89177607D01*
X124455247Y-89157901D01*
X124471723Y-89139723D01*
X124489901Y-89123247D01*
X124509607Y-89108632D01*
X124530650Y-89096020D01*
X124552829Y-89085530D01*
X124575928Y-89077265D01*
X124599727Y-89071304D01*
X124623995Y-89067704D01*
X124648499Y-89066500D01*
X125498501Y-89066500D01*
X125523005Y-89067704D01*
X125523005Y-89067704D01*
G37*
D14*
X125073500Y-90741500D03*
D13*
G36*
X131323005Y-89067704D02*
X131347273Y-89071304D01*
X131371072Y-89077265D01*
X131394171Y-89085530D01*
X131416350Y-89096020D01*
X131437393Y-89108632D01*
X131457099Y-89123247D01*
X131475277Y-89139723D01*
X131491753Y-89157901D01*
X131506368Y-89177607D01*
X131518980Y-89198650D01*
X131529470Y-89220829D01*
X131537735Y-89243928D01*
X131543696Y-89267727D01*
X131547296Y-89291995D01*
X131548500Y-89316499D01*
X131548500Y-92166501D01*
X131547296Y-92191005D01*
X131543696Y-92215273D01*
X131537735Y-92239072D01*
X131529470Y-92262171D01*
X131518980Y-92284350D01*
X131506368Y-92305393D01*
X131491753Y-92325099D01*
X131475277Y-92343277D01*
X131457099Y-92359753D01*
X131437393Y-92374368D01*
X131416350Y-92386980D01*
X131394171Y-92397470D01*
X131371072Y-92405735D01*
X131347273Y-92411696D01*
X131323005Y-92415296D01*
X131298501Y-92416500D01*
X130448499Y-92416500D01*
X130423995Y-92415296D01*
X130399727Y-92411696D01*
X130375928Y-92405735D01*
X130352829Y-92397470D01*
X130330650Y-92386980D01*
X130309607Y-92374368D01*
X130289901Y-92359753D01*
X130271723Y-92343277D01*
X130255247Y-92325099D01*
X130240632Y-92305393D01*
X130228020Y-92284350D01*
X130217530Y-92262171D01*
X130209265Y-92239072D01*
X130203304Y-92215273D01*
X130199704Y-92191005D01*
X130198500Y-92166501D01*
X130198500Y-89316499D01*
X130199704Y-89291995D01*
X130203304Y-89267727D01*
X130209265Y-89243928D01*
X130217530Y-89220829D01*
X130228020Y-89198650D01*
X130240632Y-89177607D01*
X130255247Y-89157901D01*
X130271723Y-89139723D01*
X130289901Y-89123247D01*
X130309607Y-89108632D01*
X130330650Y-89096020D01*
X130352829Y-89085530D01*
X130375928Y-89077265D01*
X130399727Y-89071304D01*
X130423995Y-89067704D01*
X130448499Y-89066500D01*
X131298501Y-89066500D01*
X131323005Y-89067704D01*
X131323005Y-89067704D01*
G37*
D14*
X130873500Y-90741500D03*
D13*
G36*
X89032005Y-85194204D02*
X89056273Y-85197804D01*
X89080072Y-85203765D01*
X89103171Y-85212030D01*
X89125350Y-85222520D01*
X89146393Y-85235132D01*
X89166099Y-85249747D01*
X89184277Y-85266223D01*
X89200753Y-85284401D01*
X89215368Y-85304107D01*
X89227980Y-85325150D01*
X89238470Y-85347329D01*
X89246735Y-85370428D01*
X89252696Y-85394227D01*
X89256296Y-85418495D01*
X89257500Y-85442999D01*
X89257500Y-88293001D01*
X89256296Y-88317505D01*
X89252696Y-88341773D01*
X89246735Y-88365572D01*
X89238470Y-88388671D01*
X89227980Y-88410850D01*
X89215368Y-88431893D01*
X89200753Y-88451599D01*
X89184277Y-88469777D01*
X89166099Y-88486253D01*
X89146393Y-88500868D01*
X89125350Y-88513480D01*
X89103171Y-88523970D01*
X89080072Y-88532235D01*
X89056273Y-88538196D01*
X89032005Y-88541796D01*
X89007501Y-88543000D01*
X88157499Y-88543000D01*
X88132995Y-88541796D01*
X88108727Y-88538196D01*
X88084928Y-88532235D01*
X88061829Y-88523970D01*
X88039650Y-88513480D01*
X88018607Y-88500868D01*
X87998901Y-88486253D01*
X87980723Y-88469777D01*
X87964247Y-88451599D01*
X87949632Y-88431893D01*
X87937020Y-88410850D01*
X87926530Y-88388671D01*
X87918265Y-88365572D01*
X87912304Y-88341773D01*
X87908704Y-88317505D01*
X87907500Y-88293001D01*
X87907500Y-85442999D01*
X87908704Y-85418495D01*
X87912304Y-85394227D01*
X87918265Y-85370428D01*
X87926530Y-85347329D01*
X87937020Y-85325150D01*
X87949632Y-85304107D01*
X87964247Y-85284401D01*
X87980723Y-85266223D01*
X87998901Y-85249747D01*
X88018607Y-85235132D01*
X88039650Y-85222520D01*
X88061829Y-85212030D01*
X88084928Y-85203765D01*
X88108727Y-85197804D01*
X88132995Y-85194204D01*
X88157499Y-85193000D01*
X89007501Y-85193000D01*
X89032005Y-85194204D01*
X89032005Y-85194204D01*
G37*
D14*
X88582500Y-86868000D03*
D13*
G36*
X83232005Y-85194204D02*
X83256273Y-85197804D01*
X83280072Y-85203765D01*
X83303171Y-85212030D01*
X83325350Y-85222520D01*
X83346393Y-85235132D01*
X83366099Y-85249747D01*
X83384277Y-85266223D01*
X83400753Y-85284401D01*
X83415368Y-85304107D01*
X83427980Y-85325150D01*
X83438470Y-85347329D01*
X83446735Y-85370428D01*
X83452696Y-85394227D01*
X83456296Y-85418495D01*
X83457500Y-85442999D01*
X83457500Y-88293001D01*
X83456296Y-88317505D01*
X83452696Y-88341773D01*
X83446735Y-88365572D01*
X83438470Y-88388671D01*
X83427980Y-88410850D01*
X83415368Y-88431893D01*
X83400753Y-88451599D01*
X83384277Y-88469777D01*
X83366099Y-88486253D01*
X83346393Y-88500868D01*
X83325350Y-88513480D01*
X83303171Y-88523970D01*
X83280072Y-88532235D01*
X83256273Y-88538196D01*
X83232005Y-88541796D01*
X83207501Y-88543000D01*
X82357499Y-88543000D01*
X82332995Y-88541796D01*
X82308727Y-88538196D01*
X82284928Y-88532235D01*
X82261829Y-88523970D01*
X82239650Y-88513480D01*
X82218607Y-88500868D01*
X82198901Y-88486253D01*
X82180723Y-88469777D01*
X82164247Y-88451599D01*
X82149632Y-88431893D01*
X82137020Y-88410850D01*
X82126530Y-88388671D01*
X82118265Y-88365572D01*
X82112304Y-88341773D01*
X82108704Y-88317505D01*
X82107500Y-88293001D01*
X82107500Y-85442999D01*
X82108704Y-85418495D01*
X82112304Y-85394227D01*
X82118265Y-85370428D01*
X82126530Y-85347329D01*
X82137020Y-85325150D01*
X82149632Y-85304107D01*
X82164247Y-85284401D01*
X82180723Y-85266223D01*
X82198901Y-85249747D01*
X82218607Y-85235132D01*
X82239650Y-85222520D01*
X82261829Y-85212030D01*
X82284928Y-85203765D01*
X82308727Y-85197804D01*
X82332995Y-85194204D01*
X82357499Y-85193000D01*
X83207501Y-85193000D01*
X83232005Y-85194204D01*
X83232005Y-85194204D01*
G37*
D14*
X82782500Y-86868000D03*
D13*
G36*
X102959505Y-85194204D02*
X102983773Y-85197804D01*
X103007572Y-85203765D01*
X103030671Y-85212030D01*
X103052850Y-85222520D01*
X103073893Y-85235132D01*
X103093599Y-85249747D01*
X103111777Y-85266223D01*
X103128253Y-85284401D01*
X103142868Y-85304107D01*
X103155480Y-85325150D01*
X103165970Y-85347329D01*
X103174235Y-85370428D01*
X103180196Y-85394227D01*
X103183796Y-85418495D01*
X103185000Y-85442999D01*
X103185000Y-88293001D01*
X103183796Y-88317505D01*
X103180196Y-88341773D01*
X103174235Y-88365572D01*
X103165970Y-88388671D01*
X103155480Y-88410850D01*
X103142868Y-88431893D01*
X103128253Y-88451599D01*
X103111777Y-88469777D01*
X103093599Y-88486253D01*
X103073893Y-88500868D01*
X103052850Y-88513480D01*
X103030671Y-88523970D01*
X103007572Y-88532235D01*
X102983773Y-88538196D01*
X102959505Y-88541796D01*
X102935001Y-88543000D01*
X102084999Y-88543000D01*
X102060495Y-88541796D01*
X102036227Y-88538196D01*
X102012428Y-88532235D01*
X101989329Y-88523970D01*
X101967150Y-88513480D01*
X101946107Y-88500868D01*
X101926401Y-88486253D01*
X101908223Y-88469777D01*
X101891747Y-88451599D01*
X101877132Y-88431893D01*
X101864520Y-88410850D01*
X101854030Y-88388671D01*
X101845765Y-88365572D01*
X101839804Y-88341773D01*
X101836204Y-88317505D01*
X101835000Y-88293001D01*
X101835000Y-85442999D01*
X101836204Y-85418495D01*
X101839804Y-85394227D01*
X101845765Y-85370428D01*
X101854030Y-85347329D01*
X101864520Y-85325150D01*
X101877132Y-85304107D01*
X101891747Y-85284401D01*
X101908223Y-85266223D01*
X101926401Y-85249747D01*
X101946107Y-85235132D01*
X101967150Y-85222520D01*
X101989329Y-85212030D01*
X102012428Y-85203765D01*
X102036227Y-85197804D01*
X102060495Y-85194204D01*
X102084999Y-85193000D01*
X102935001Y-85193000D01*
X102959505Y-85194204D01*
X102959505Y-85194204D01*
G37*
D14*
X102510000Y-86868000D03*
D13*
G36*
X108759505Y-85194204D02*
X108783773Y-85197804D01*
X108807572Y-85203765D01*
X108830671Y-85212030D01*
X108852850Y-85222520D01*
X108873893Y-85235132D01*
X108893599Y-85249747D01*
X108911777Y-85266223D01*
X108928253Y-85284401D01*
X108942868Y-85304107D01*
X108955480Y-85325150D01*
X108965970Y-85347329D01*
X108974235Y-85370428D01*
X108980196Y-85394227D01*
X108983796Y-85418495D01*
X108985000Y-85442999D01*
X108985000Y-88293001D01*
X108983796Y-88317505D01*
X108980196Y-88341773D01*
X108974235Y-88365572D01*
X108965970Y-88388671D01*
X108955480Y-88410850D01*
X108942868Y-88431893D01*
X108928253Y-88451599D01*
X108911777Y-88469777D01*
X108893599Y-88486253D01*
X108873893Y-88500868D01*
X108852850Y-88513480D01*
X108830671Y-88523970D01*
X108807572Y-88532235D01*
X108783773Y-88538196D01*
X108759505Y-88541796D01*
X108735001Y-88543000D01*
X107884999Y-88543000D01*
X107860495Y-88541796D01*
X107836227Y-88538196D01*
X107812428Y-88532235D01*
X107789329Y-88523970D01*
X107767150Y-88513480D01*
X107746107Y-88500868D01*
X107726401Y-88486253D01*
X107708223Y-88469777D01*
X107691747Y-88451599D01*
X107677132Y-88431893D01*
X107664520Y-88410850D01*
X107654030Y-88388671D01*
X107645765Y-88365572D01*
X107639804Y-88341773D01*
X107636204Y-88317505D01*
X107635000Y-88293001D01*
X107635000Y-85442999D01*
X107636204Y-85418495D01*
X107639804Y-85394227D01*
X107645765Y-85370428D01*
X107654030Y-85347329D01*
X107664520Y-85325150D01*
X107677132Y-85304107D01*
X107691747Y-85284401D01*
X107708223Y-85266223D01*
X107726401Y-85249747D01*
X107746107Y-85235132D01*
X107767150Y-85222520D01*
X107789329Y-85212030D01*
X107812428Y-85203765D01*
X107836227Y-85197804D01*
X107860495Y-85194204D01*
X107884999Y-85193000D01*
X108735001Y-85193000D01*
X108759505Y-85194204D01*
X108759505Y-85194204D01*
G37*
D14*
X108310000Y-86868000D03*
D13*
G36*
X217916005Y-85003704D02*
X217940273Y-85007304D01*
X217964072Y-85013265D01*
X217987171Y-85021530D01*
X218009350Y-85032020D01*
X218030393Y-85044632D01*
X218050099Y-85059247D01*
X218068277Y-85075723D01*
X218084753Y-85093901D01*
X218099368Y-85113607D01*
X218111980Y-85134650D01*
X218122470Y-85156829D01*
X218130735Y-85179928D01*
X218136696Y-85203727D01*
X218140296Y-85227995D01*
X218141500Y-85252499D01*
X218141500Y-88102501D01*
X218140296Y-88127005D01*
X218136696Y-88151273D01*
X218130735Y-88175072D01*
X218122470Y-88198171D01*
X218111980Y-88220350D01*
X218099368Y-88241393D01*
X218084753Y-88261099D01*
X218068277Y-88279277D01*
X218050099Y-88295753D01*
X218030393Y-88310368D01*
X218009350Y-88322980D01*
X217987171Y-88333470D01*
X217964072Y-88341735D01*
X217940273Y-88347696D01*
X217916005Y-88351296D01*
X217891501Y-88352500D01*
X217041499Y-88352500D01*
X217016995Y-88351296D01*
X216992727Y-88347696D01*
X216968928Y-88341735D01*
X216945829Y-88333470D01*
X216923650Y-88322980D01*
X216902607Y-88310368D01*
X216882901Y-88295753D01*
X216864723Y-88279277D01*
X216848247Y-88261099D01*
X216833632Y-88241393D01*
X216821020Y-88220350D01*
X216810530Y-88198171D01*
X216802265Y-88175072D01*
X216796304Y-88151273D01*
X216792704Y-88127005D01*
X216791500Y-88102501D01*
X216791500Y-85252499D01*
X216792704Y-85227995D01*
X216796304Y-85203727D01*
X216802265Y-85179928D01*
X216810530Y-85156829D01*
X216821020Y-85134650D01*
X216833632Y-85113607D01*
X216848247Y-85093901D01*
X216864723Y-85075723D01*
X216882901Y-85059247D01*
X216902607Y-85044632D01*
X216923650Y-85032020D01*
X216945829Y-85021530D01*
X216968928Y-85013265D01*
X216992727Y-85007304D01*
X217016995Y-85003704D01*
X217041499Y-85002500D01*
X217891501Y-85002500D01*
X217916005Y-85003704D01*
X217916005Y-85003704D01*
G37*
D14*
X217466500Y-86677500D03*
D13*
G36*
X212116005Y-85003704D02*
X212140273Y-85007304D01*
X212164072Y-85013265D01*
X212187171Y-85021530D01*
X212209350Y-85032020D01*
X212230393Y-85044632D01*
X212250099Y-85059247D01*
X212268277Y-85075723D01*
X212284753Y-85093901D01*
X212299368Y-85113607D01*
X212311980Y-85134650D01*
X212322470Y-85156829D01*
X212330735Y-85179928D01*
X212336696Y-85203727D01*
X212340296Y-85227995D01*
X212341500Y-85252499D01*
X212341500Y-88102501D01*
X212340296Y-88127005D01*
X212336696Y-88151273D01*
X212330735Y-88175072D01*
X212322470Y-88198171D01*
X212311980Y-88220350D01*
X212299368Y-88241393D01*
X212284753Y-88261099D01*
X212268277Y-88279277D01*
X212250099Y-88295753D01*
X212230393Y-88310368D01*
X212209350Y-88322980D01*
X212187171Y-88333470D01*
X212164072Y-88341735D01*
X212140273Y-88347696D01*
X212116005Y-88351296D01*
X212091501Y-88352500D01*
X211241499Y-88352500D01*
X211216995Y-88351296D01*
X211192727Y-88347696D01*
X211168928Y-88341735D01*
X211145829Y-88333470D01*
X211123650Y-88322980D01*
X211102607Y-88310368D01*
X211082901Y-88295753D01*
X211064723Y-88279277D01*
X211048247Y-88261099D01*
X211033632Y-88241393D01*
X211021020Y-88220350D01*
X211010530Y-88198171D01*
X211002265Y-88175072D01*
X210996304Y-88151273D01*
X210992704Y-88127005D01*
X210991500Y-88102501D01*
X210991500Y-85252499D01*
X210992704Y-85227995D01*
X210996304Y-85203727D01*
X211002265Y-85179928D01*
X211010530Y-85156829D01*
X211021020Y-85134650D01*
X211033632Y-85113607D01*
X211048247Y-85093901D01*
X211064723Y-85075723D01*
X211082901Y-85059247D01*
X211102607Y-85044632D01*
X211123650Y-85032020D01*
X211145829Y-85021530D01*
X211168928Y-85013265D01*
X211192727Y-85007304D01*
X211216995Y-85003704D01*
X211241499Y-85002500D01*
X212091501Y-85002500D01*
X212116005Y-85003704D01*
X212116005Y-85003704D01*
G37*
D14*
X211666500Y-86677500D03*
D13*
G36*
X176408005Y-89067704D02*
X176432273Y-89071304D01*
X176456072Y-89077265D01*
X176479171Y-89085530D01*
X176501350Y-89096020D01*
X176522393Y-89108632D01*
X176542099Y-89123247D01*
X176560277Y-89139723D01*
X176576753Y-89157901D01*
X176591368Y-89177607D01*
X176603980Y-89198650D01*
X176614470Y-89220829D01*
X176622735Y-89243928D01*
X176628696Y-89267727D01*
X176632296Y-89291995D01*
X176633500Y-89316499D01*
X176633500Y-92166501D01*
X176632296Y-92191005D01*
X176628696Y-92215273D01*
X176622735Y-92239072D01*
X176614470Y-92262171D01*
X176603980Y-92284350D01*
X176591368Y-92305393D01*
X176576753Y-92325099D01*
X176560277Y-92343277D01*
X176542099Y-92359753D01*
X176522393Y-92374368D01*
X176501350Y-92386980D01*
X176479171Y-92397470D01*
X176456072Y-92405735D01*
X176432273Y-92411696D01*
X176408005Y-92415296D01*
X176383501Y-92416500D01*
X175533499Y-92416500D01*
X175508995Y-92415296D01*
X175484727Y-92411696D01*
X175460928Y-92405735D01*
X175437829Y-92397470D01*
X175415650Y-92386980D01*
X175394607Y-92374368D01*
X175374901Y-92359753D01*
X175356723Y-92343277D01*
X175340247Y-92325099D01*
X175325632Y-92305393D01*
X175313020Y-92284350D01*
X175302530Y-92262171D01*
X175294265Y-92239072D01*
X175288304Y-92215273D01*
X175284704Y-92191005D01*
X175283500Y-92166501D01*
X175283500Y-89316499D01*
X175284704Y-89291995D01*
X175288304Y-89267727D01*
X175294265Y-89243928D01*
X175302530Y-89220829D01*
X175313020Y-89198650D01*
X175325632Y-89177607D01*
X175340247Y-89157901D01*
X175356723Y-89139723D01*
X175374901Y-89123247D01*
X175394607Y-89108632D01*
X175415650Y-89096020D01*
X175437829Y-89085530D01*
X175460928Y-89077265D01*
X175484727Y-89071304D01*
X175508995Y-89067704D01*
X175533499Y-89066500D01*
X176383501Y-89066500D01*
X176408005Y-89067704D01*
X176408005Y-89067704D01*
G37*
D14*
X175958500Y-90741500D03*
D13*
G36*
X170608005Y-89067704D02*
X170632273Y-89071304D01*
X170656072Y-89077265D01*
X170679171Y-89085530D01*
X170701350Y-89096020D01*
X170722393Y-89108632D01*
X170742099Y-89123247D01*
X170760277Y-89139723D01*
X170776753Y-89157901D01*
X170791368Y-89177607D01*
X170803980Y-89198650D01*
X170814470Y-89220829D01*
X170822735Y-89243928D01*
X170828696Y-89267727D01*
X170832296Y-89291995D01*
X170833500Y-89316499D01*
X170833500Y-92166501D01*
X170832296Y-92191005D01*
X170828696Y-92215273D01*
X170822735Y-92239072D01*
X170814470Y-92262171D01*
X170803980Y-92284350D01*
X170791368Y-92305393D01*
X170776753Y-92325099D01*
X170760277Y-92343277D01*
X170742099Y-92359753D01*
X170722393Y-92374368D01*
X170701350Y-92386980D01*
X170679171Y-92397470D01*
X170656072Y-92405735D01*
X170632273Y-92411696D01*
X170608005Y-92415296D01*
X170583501Y-92416500D01*
X169733499Y-92416500D01*
X169708995Y-92415296D01*
X169684727Y-92411696D01*
X169660928Y-92405735D01*
X169637829Y-92397470D01*
X169615650Y-92386980D01*
X169594607Y-92374368D01*
X169574901Y-92359753D01*
X169556723Y-92343277D01*
X169540247Y-92325099D01*
X169525632Y-92305393D01*
X169513020Y-92284350D01*
X169502530Y-92262171D01*
X169494265Y-92239072D01*
X169488304Y-92215273D01*
X169484704Y-92191005D01*
X169483500Y-92166501D01*
X169483500Y-89316499D01*
X169484704Y-89291995D01*
X169488304Y-89267727D01*
X169494265Y-89243928D01*
X169502530Y-89220829D01*
X169513020Y-89198650D01*
X169525632Y-89177607D01*
X169540247Y-89157901D01*
X169556723Y-89139723D01*
X169574901Y-89123247D01*
X169594607Y-89108632D01*
X169615650Y-89096020D01*
X169637829Y-89085530D01*
X169660928Y-89077265D01*
X169684727Y-89071304D01*
X169708995Y-89067704D01*
X169733499Y-89066500D01*
X170583501Y-89066500D01*
X170608005Y-89067704D01*
X170608005Y-89067704D01*
G37*
D14*
X170158500Y-90741500D03*
D13*
G36*
X76680142Y-101255674D02*
X76703803Y-101259184D01*
X76727007Y-101264996D01*
X76749529Y-101273054D01*
X76771153Y-101283282D01*
X76791670Y-101295579D01*
X76810883Y-101309829D01*
X76828607Y-101325893D01*
X76844671Y-101343617D01*
X76858921Y-101362830D01*
X76871218Y-101383347D01*
X76881446Y-101404971D01*
X76889504Y-101427493D01*
X76895316Y-101450697D01*
X76898826Y-101474358D01*
X76900000Y-101498250D01*
X76900000Y-101985750D01*
X76898826Y-102009642D01*
X76895316Y-102033303D01*
X76889504Y-102056507D01*
X76881446Y-102079029D01*
X76871218Y-102100653D01*
X76858921Y-102121170D01*
X76844671Y-102140383D01*
X76828607Y-102158107D01*
X76810883Y-102174171D01*
X76791670Y-102188421D01*
X76771153Y-102200718D01*
X76749529Y-102210946D01*
X76727007Y-102219004D01*
X76703803Y-102224816D01*
X76680142Y-102228326D01*
X76656250Y-102229500D01*
X75743750Y-102229500D01*
X75719858Y-102228326D01*
X75696197Y-102224816D01*
X75672993Y-102219004D01*
X75650471Y-102210946D01*
X75628847Y-102200718D01*
X75608330Y-102188421D01*
X75589117Y-102174171D01*
X75571393Y-102158107D01*
X75555329Y-102140383D01*
X75541079Y-102121170D01*
X75528782Y-102100653D01*
X75518554Y-102079029D01*
X75510496Y-102056507D01*
X75504684Y-102033303D01*
X75501174Y-102009642D01*
X75500000Y-101985750D01*
X75500000Y-101498250D01*
X75501174Y-101474358D01*
X75504684Y-101450697D01*
X75510496Y-101427493D01*
X75518554Y-101404971D01*
X75528782Y-101383347D01*
X75541079Y-101362830D01*
X75555329Y-101343617D01*
X75571393Y-101325893D01*
X75589117Y-101309829D01*
X75608330Y-101295579D01*
X75628847Y-101283282D01*
X75650471Y-101273054D01*
X75672993Y-101264996D01*
X75696197Y-101259184D01*
X75719858Y-101255674D01*
X75743750Y-101254500D01*
X76656250Y-101254500D01*
X76680142Y-101255674D01*
X76680142Y-101255674D01*
G37*
D17*
X76200000Y-101742000D03*
D13*
G36*
X76680142Y-103130674D02*
X76703803Y-103134184D01*
X76727007Y-103139996D01*
X76749529Y-103148054D01*
X76771153Y-103158282D01*
X76791670Y-103170579D01*
X76810883Y-103184829D01*
X76828607Y-103200893D01*
X76844671Y-103218617D01*
X76858921Y-103237830D01*
X76871218Y-103258347D01*
X76881446Y-103279971D01*
X76889504Y-103302493D01*
X76895316Y-103325697D01*
X76898826Y-103349358D01*
X76900000Y-103373250D01*
X76900000Y-103860750D01*
X76898826Y-103884642D01*
X76895316Y-103908303D01*
X76889504Y-103931507D01*
X76881446Y-103954029D01*
X76871218Y-103975653D01*
X76858921Y-103996170D01*
X76844671Y-104015383D01*
X76828607Y-104033107D01*
X76810883Y-104049171D01*
X76791670Y-104063421D01*
X76771153Y-104075718D01*
X76749529Y-104085946D01*
X76727007Y-104094004D01*
X76703803Y-104099816D01*
X76680142Y-104103326D01*
X76656250Y-104104500D01*
X75743750Y-104104500D01*
X75719858Y-104103326D01*
X75696197Y-104099816D01*
X75672993Y-104094004D01*
X75650471Y-104085946D01*
X75628847Y-104075718D01*
X75608330Y-104063421D01*
X75589117Y-104049171D01*
X75571393Y-104033107D01*
X75555329Y-104015383D01*
X75541079Y-103996170D01*
X75528782Y-103975653D01*
X75518554Y-103954029D01*
X75510496Y-103931507D01*
X75504684Y-103908303D01*
X75501174Y-103884642D01*
X75500000Y-103860750D01*
X75500000Y-103373250D01*
X75501174Y-103349358D01*
X75504684Y-103325697D01*
X75510496Y-103302493D01*
X75518554Y-103279971D01*
X75528782Y-103258347D01*
X75541079Y-103237830D01*
X75555329Y-103218617D01*
X75571393Y-103200893D01*
X75589117Y-103184829D01*
X75608330Y-103170579D01*
X75628847Y-103158282D01*
X75650471Y-103148054D01*
X75672993Y-103139996D01*
X75696197Y-103134184D01*
X75719858Y-103130674D01*
X75743750Y-103129500D01*
X76656250Y-103129500D01*
X76680142Y-103130674D01*
X76680142Y-103130674D01*
G37*
D17*
X76200000Y-103617000D03*
D13*
G36*
X198929505Y-85194204D02*
X198953773Y-85197804D01*
X198977572Y-85203765D01*
X199000671Y-85212030D01*
X199022850Y-85222520D01*
X199043893Y-85235132D01*
X199063599Y-85249747D01*
X199081777Y-85266223D01*
X199098253Y-85284401D01*
X199112868Y-85304107D01*
X199125480Y-85325150D01*
X199135970Y-85347329D01*
X199144235Y-85370428D01*
X199150196Y-85394227D01*
X199153796Y-85418495D01*
X199155000Y-85442999D01*
X199155000Y-88293001D01*
X199153796Y-88317505D01*
X199150196Y-88341773D01*
X199144235Y-88365572D01*
X199135970Y-88388671D01*
X199125480Y-88410850D01*
X199112868Y-88431893D01*
X199098253Y-88451599D01*
X199081777Y-88469777D01*
X199063599Y-88486253D01*
X199043893Y-88500868D01*
X199022850Y-88513480D01*
X199000671Y-88523970D01*
X198977572Y-88532235D01*
X198953773Y-88538196D01*
X198929505Y-88541796D01*
X198905001Y-88543000D01*
X198054999Y-88543000D01*
X198030495Y-88541796D01*
X198006227Y-88538196D01*
X197982428Y-88532235D01*
X197959329Y-88523970D01*
X197937150Y-88513480D01*
X197916107Y-88500868D01*
X197896401Y-88486253D01*
X197878223Y-88469777D01*
X197861747Y-88451599D01*
X197847132Y-88431893D01*
X197834520Y-88410850D01*
X197824030Y-88388671D01*
X197815765Y-88365572D01*
X197809804Y-88341773D01*
X197806204Y-88317505D01*
X197805000Y-88293001D01*
X197805000Y-85442999D01*
X197806204Y-85418495D01*
X197809804Y-85394227D01*
X197815765Y-85370428D01*
X197824030Y-85347329D01*
X197834520Y-85325150D01*
X197847132Y-85304107D01*
X197861747Y-85284401D01*
X197878223Y-85266223D01*
X197896401Y-85249747D01*
X197916107Y-85235132D01*
X197937150Y-85222520D01*
X197959329Y-85212030D01*
X197982428Y-85203765D01*
X198006227Y-85197804D01*
X198030495Y-85194204D01*
X198054999Y-85193000D01*
X198905001Y-85193000D01*
X198929505Y-85194204D01*
X198929505Y-85194204D01*
G37*
D14*
X198480000Y-86868000D03*
D13*
G36*
X193129505Y-85194204D02*
X193153773Y-85197804D01*
X193177572Y-85203765D01*
X193200671Y-85212030D01*
X193222850Y-85222520D01*
X193243893Y-85235132D01*
X193263599Y-85249747D01*
X193281777Y-85266223D01*
X193298253Y-85284401D01*
X193312868Y-85304107D01*
X193325480Y-85325150D01*
X193335970Y-85347329D01*
X193344235Y-85370428D01*
X193350196Y-85394227D01*
X193353796Y-85418495D01*
X193355000Y-85442999D01*
X193355000Y-88293001D01*
X193353796Y-88317505D01*
X193350196Y-88341773D01*
X193344235Y-88365572D01*
X193335970Y-88388671D01*
X193325480Y-88410850D01*
X193312868Y-88431893D01*
X193298253Y-88451599D01*
X193281777Y-88469777D01*
X193263599Y-88486253D01*
X193243893Y-88500868D01*
X193222850Y-88513480D01*
X193200671Y-88523970D01*
X193177572Y-88532235D01*
X193153773Y-88538196D01*
X193129505Y-88541796D01*
X193105001Y-88543000D01*
X192254999Y-88543000D01*
X192230495Y-88541796D01*
X192206227Y-88538196D01*
X192182428Y-88532235D01*
X192159329Y-88523970D01*
X192137150Y-88513480D01*
X192116107Y-88500868D01*
X192096401Y-88486253D01*
X192078223Y-88469777D01*
X192061747Y-88451599D01*
X192047132Y-88431893D01*
X192034520Y-88410850D01*
X192024030Y-88388671D01*
X192015765Y-88365572D01*
X192009804Y-88341773D01*
X192006204Y-88317505D01*
X192005000Y-88293001D01*
X192005000Y-85442999D01*
X192006204Y-85418495D01*
X192009804Y-85394227D01*
X192015765Y-85370428D01*
X192024030Y-85347329D01*
X192034520Y-85325150D01*
X192047132Y-85304107D01*
X192061747Y-85284401D01*
X192078223Y-85266223D01*
X192096401Y-85249747D01*
X192116107Y-85235132D01*
X192137150Y-85222520D01*
X192159329Y-85212030D01*
X192182428Y-85203765D01*
X192206227Y-85197804D01*
X192230495Y-85194204D01*
X192254999Y-85193000D01*
X193105001Y-85193000D01*
X193129505Y-85194204D01*
X193129505Y-85194204D01*
G37*
D14*
X192680000Y-86868000D03*
D13*
G36*
X158341142Y-117212674D02*
X158364803Y-117216184D01*
X158388007Y-117221996D01*
X158410529Y-117230054D01*
X158432153Y-117240282D01*
X158452670Y-117252579D01*
X158471883Y-117266829D01*
X158489607Y-117282893D01*
X158505671Y-117300617D01*
X158519921Y-117319830D01*
X158532218Y-117340347D01*
X158542446Y-117361971D01*
X158550504Y-117384493D01*
X158556316Y-117407697D01*
X158559826Y-117431358D01*
X158561000Y-117455250D01*
X158561000Y-117942750D01*
X158559826Y-117966642D01*
X158556316Y-117990303D01*
X158550504Y-118013507D01*
X158542446Y-118036029D01*
X158532218Y-118057653D01*
X158519921Y-118078170D01*
X158505671Y-118097383D01*
X158489607Y-118115107D01*
X158471883Y-118131171D01*
X158452670Y-118145421D01*
X158432153Y-118157718D01*
X158410529Y-118167946D01*
X158388007Y-118176004D01*
X158364803Y-118181816D01*
X158341142Y-118185326D01*
X158317250Y-118186500D01*
X157404750Y-118186500D01*
X157380858Y-118185326D01*
X157357197Y-118181816D01*
X157333993Y-118176004D01*
X157311471Y-118167946D01*
X157289847Y-118157718D01*
X157269330Y-118145421D01*
X157250117Y-118131171D01*
X157232393Y-118115107D01*
X157216329Y-118097383D01*
X157202079Y-118078170D01*
X157189782Y-118057653D01*
X157179554Y-118036029D01*
X157171496Y-118013507D01*
X157165684Y-117990303D01*
X157162174Y-117966642D01*
X157161000Y-117942750D01*
X157161000Y-117455250D01*
X157162174Y-117431358D01*
X157165684Y-117407697D01*
X157171496Y-117384493D01*
X157179554Y-117361971D01*
X157189782Y-117340347D01*
X157202079Y-117319830D01*
X157216329Y-117300617D01*
X157232393Y-117282893D01*
X157250117Y-117266829D01*
X157269330Y-117252579D01*
X157289847Y-117240282D01*
X157311471Y-117230054D01*
X157333993Y-117221996D01*
X157357197Y-117216184D01*
X157380858Y-117212674D01*
X157404750Y-117211500D01*
X158317250Y-117211500D01*
X158341142Y-117212674D01*
X158341142Y-117212674D01*
G37*
D17*
X157861000Y-117699000D03*
D13*
G36*
X158341142Y-115337674D02*
X158364803Y-115341184D01*
X158388007Y-115346996D01*
X158410529Y-115355054D01*
X158432153Y-115365282D01*
X158452670Y-115377579D01*
X158471883Y-115391829D01*
X158489607Y-115407893D01*
X158505671Y-115425617D01*
X158519921Y-115444830D01*
X158532218Y-115465347D01*
X158542446Y-115486971D01*
X158550504Y-115509493D01*
X158556316Y-115532697D01*
X158559826Y-115556358D01*
X158561000Y-115580250D01*
X158561000Y-116067750D01*
X158559826Y-116091642D01*
X158556316Y-116115303D01*
X158550504Y-116138507D01*
X158542446Y-116161029D01*
X158532218Y-116182653D01*
X158519921Y-116203170D01*
X158505671Y-116222383D01*
X158489607Y-116240107D01*
X158471883Y-116256171D01*
X158452670Y-116270421D01*
X158432153Y-116282718D01*
X158410529Y-116292946D01*
X158388007Y-116301004D01*
X158364803Y-116306816D01*
X158341142Y-116310326D01*
X158317250Y-116311500D01*
X157404750Y-116311500D01*
X157380858Y-116310326D01*
X157357197Y-116306816D01*
X157333993Y-116301004D01*
X157311471Y-116292946D01*
X157289847Y-116282718D01*
X157269330Y-116270421D01*
X157250117Y-116256171D01*
X157232393Y-116240107D01*
X157216329Y-116222383D01*
X157202079Y-116203170D01*
X157189782Y-116182653D01*
X157179554Y-116161029D01*
X157171496Y-116138507D01*
X157165684Y-116115303D01*
X157162174Y-116091642D01*
X157161000Y-116067750D01*
X157161000Y-115580250D01*
X157162174Y-115556358D01*
X157165684Y-115532697D01*
X157171496Y-115509493D01*
X157179554Y-115486971D01*
X157189782Y-115465347D01*
X157202079Y-115444830D01*
X157216329Y-115425617D01*
X157232393Y-115407893D01*
X157250117Y-115391829D01*
X157269330Y-115377579D01*
X157289847Y-115365282D01*
X157311471Y-115355054D01*
X157333993Y-115346996D01*
X157357197Y-115341184D01*
X157380858Y-115337674D01*
X157404750Y-115336500D01*
X158317250Y-115336500D01*
X158341142Y-115337674D01*
X158341142Y-115337674D01*
G37*
D17*
X157861000Y-115824000D03*
D13*
G36*
X154975642Y-117212674D02*
X154999303Y-117216184D01*
X155022507Y-117221996D01*
X155045029Y-117230054D01*
X155066653Y-117240282D01*
X155087170Y-117252579D01*
X155106383Y-117266829D01*
X155124107Y-117282893D01*
X155140171Y-117300617D01*
X155154421Y-117319830D01*
X155166718Y-117340347D01*
X155176946Y-117361971D01*
X155185004Y-117384493D01*
X155190816Y-117407697D01*
X155194326Y-117431358D01*
X155195500Y-117455250D01*
X155195500Y-117942750D01*
X155194326Y-117966642D01*
X155190816Y-117990303D01*
X155185004Y-118013507D01*
X155176946Y-118036029D01*
X155166718Y-118057653D01*
X155154421Y-118078170D01*
X155140171Y-118097383D01*
X155124107Y-118115107D01*
X155106383Y-118131171D01*
X155087170Y-118145421D01*
X155066653Y-118157718D01*
X155045029Y-118167946D01*
X155022507Y-118176004D01*
X154999303Y-118181816D01*
X154975642Y-118185326D01*
X154951750Y-118186500D01*
X154039250Y-118186500D01*
X154015358Y-118185326D01*
X153991697Y-118181816D01*
X153968493Y-118176004D01*
X153945971Y-118167946D01*
X153924347Y-118157718D01*
X153903830Y-118145421D01*
X153884617Y-118131171D01*
X153866893Y-118115107D01*
X153850829Y-118097383D01*
X153836579Y-118078170D01*
X153824282Y-118057653D01*
X153814054Y-118036029D01*
X153805996Y-118013507D01*
X153800184Y-117990303D01*
X153796674Y-117966642D01*
X153795500Y-117942750D01*
X153795500Y-117455250D01*
X153796674Y-117431358D01*
X153800184Y-117407697D01*
X153805996Y-117384493D01*
X153814054Y-117361971D01*
X153824282Y-117340347D01*
X153836579Y-117319830D01*
X153850829Y-117300617D01*
X153866893Y-117282893D01*
X153884617Y-117266829D01*
X153903830Y-117252579D01*
X153924347Y-117240282D01*
X153945971Y-117230054D01*
X153968493Y-117221996D01*
X153991697Y-117216184D01*
X154015358Y-117212674D01*
X154039250Y-117211500D01*
X154951750Y-117211500D01*
X154975642Y-117212674D01*
X154975642Y-117212674D01*
G37*
D17*
X154495500Y-117699000D03*
D13*
G36*
X154975642Y-115337674D02*
X154999303Y-115341184D01*
X155022507Y-115346996D01*
X155045029Y-115355054D01*
X155066653Y-115365282D01*
X155087170Y-115377579D01*
X155106383Y-115391829D01*
X155124107Y-115407893D01*
X155140171Y-115425617D01*
X155154421Y-115444830D01*
X155166718Y-115465347D01*
X155176946Y-115486971D01*
X155185004Y-115509493D01*
X155190816Y-115532697D01*
X155194326Y-115556358D01*
X155195500Y-115580250D01*
X155195500Y-116067750D01*
X155194326Y-116091642D01*
X155190816Y-116115303D01*
X155185004Y-116138507D01*
X155176946Y-116161029D01*
X155166718Y-116182653D01*
X155154421Y-116203170D01*
X155140171Y-116222383D01*
X155124107Y-116240107D01*
X155106383Y-116256171D01*
X155087170Y-116270421D01*
X155066653Y-116282718D01*
X155045029Y-116292946D01*
X155022507Y-116301004D01*
X154999303Y-116306816D01*
X154975642Y-116310326D01*
X154951750Y-116311500D01*
X154039250Y-116311500D01*
X154015358Y-116310326D01*
X153991697Y-116306816D01*
X153968493Y-116301004D01*
X153945971Y-116292946D01*
X153924347Y-116282718D01*
X153903830Y-116270421D01*
X153884617Y-116256171D01*
X153866893Y-116240107D01*
X153850829Y-116222383D01*
X153836579Y-116203170D01*
X153824282Y-116182653D01*
X153814054Y-116161029D01*
X153805996Y-116138507D01*
X153800184Y-116115303D01*
X153796674Y-116091642D01*
X153795500Y-116067750D01*
X153795500Y-115580250D01*
X153796674Y-115556358D01*
X153800184Y-115532697D01*
X153805996Y-115509493D01*
X153814054Y-115486971D01*
X153824282Y-115465347D01*
X153836579Y-115444830D01*
X153850829Y-115425617D01*
X153866893Y-115407893D01*
X153884617Y-115391829D01*
X153903830Y-115377579D01*
X153924347Y-115365282D01*
X153945971Y-115355054D01*
X153968493Y-115346996D01*
X153991697Y-115341184D01*
X154015358Y-115337674D01*
X154039250Y-115336500D01*
X154951750Y-115336500D01*
X154975642Y-115337674D01*
X154975642Y-115337674D01*
G37*
D17*
X154495500Y-115824000D03*
D13*
G36*
X79474142Y-101240674D02*
X79497803Y-101244184D01*
X79521007Y-101249996D01*
X79543529Y-101258054D01*
X79565153Y-101268282D01*
X79585670Y-101280579D01*
X79604883Y-101294829D01*
X79622607Y-101310893D01*
X79638671Y-101328617D01*
X79652921Y-101347830D01*
X79665218Y-101368347D01*
X79675446Y-101389971D01*
X79683504Y-101412493D01*
X79689316Y-101435697D01*
X79692826Y-101459358D01*
X79694000Y-101483250D01*
X79694000Y-101970750D01*
X79692826Y-101994642D01*
X79689316Y-102018303D01*
X79683504Y-102041507D01*
X79675446Y-102064029D01*
X79665218Y-102085653D01*
X79652921Y-102106170D01*
X79638671Y-102125383D01*
X79622607Y-102143107D01*
X79604883Y-102159171D01*
X79585670Y-102173421D01*
X79565153Y-102185718D01*
X79543529Y-102195946D01*
X79521007Y-102204004D01*
X79497803Y-102209816D01*
X79474142Y-102213326D01*
X79450250Y-102214500D01*
X78537750Y-102214500D01*
X78513858Y-102213326D01*
X78490197Y-102209816D01*
X78466993Y-102204004D01*
X78444471Y-102195946D01*
X78422847Y-102185718D01*
X78402330Y-102173421D01*
X78383117Y-102159171D01*
X78365393Y-102143107D01*
X78349329Y-102125383D01*
X78335079Y-102106170D01*
X78322782Y-102085653D01*
X78312554Y-102064029D01*
X78304496Y-102041507D01*
X78298684Y-102018303D01*
X78295174Y-101994642D01*
X78294000Y-101970750D01*
X78294000Y-101483250D01*
X78295174Y-101459358D01*
X78298684Y-101435697D01*
X78304496Y-101412493D01*
X78312554Y-101389971D01*
X78322782Y-101368347D01*
X78335079Y-101347830D01*
X78349329Y-101328617D01*
X78365393Y-101310893D01*
X78383117Y-101294829D01*
X78402330Y-101280579D01*
X78422847Y-101268282D01*
X78444471Y-101258054D01*
X78466993Y-101249996D01*
X78490197Y-101244184D01*
X78513858Y-101240674D01*
X78537750Y-101239500D01*
X79450250Y-101239500D01*
X79474142Y-101240674D01*
X79474142Y-101240674D01*
G37*
D17*
X78994000Y-101727000D03*
D13*
G36*
X79474142Y-103115674D02*
X79497803Y-103119184D01*
X79521007Y-103124996D01*
X79543529Y-103133054D01*
X79565153Y-103143282D01*
X79585670Y-103155579D01*
X79604883Y-103169829D01*
X79622607Y-103185893D01*
X79638671Y-103203617D01*
X79652921Y-103222830D01*
X79665218Y-103243347D01*
X79675446Y-103264971D01*
X79683504Y-103287493D01*
X79689316Y-103310697D01*
X79692826Y-103334358D01*
X79694000Y-103358250D01*
X79694000Y-103845750D01*
X79692826Y-103869642D01*
X79689316Y-103893303D01*
X79683504Y-103916507D01*
X79675446Y-103939029D01*
X79665218Y-103960653D01*
X79652921Y-103981170D01*
X79638671Y-104000383D01*
X79622607Y-104018107D01*
X79604883Y-104034171D01*
X79585670Y-104048421D01*
X79565153Y-104060718D01*
X79543529Y-104070946D01*
X79521007Y-104079004D01*
X79497803Y-104084816D01*
X79474142Y-104088326D01*
X79450250Y-104089500D01*
X78537750Y-104089500D01*
X78513858Y-104088326D01*
X78490197Y-104084816D01*
X78466993Y-104079004D01*
X78444471Y-104070946D01*
X78422847Y-104060718D01*
X78402330Y-104048421D01*
X78383117Y-104034171D01*
X78365393Y-104018107D01*
X78349329Y-104000383D01*
X78335079Y-103981170D01*
X78322782Y-103960653D01*
X78312554Y-103939029D01*
X78304496Y-103916507D01*
X78298684Y-103893303D01*
X78295174Y-103869642D01*
X78294000Y-103845750D01*
X78294000Y-103358250D01*
X78295174Y-103334358D01*
X78298684Y-103310697D01*
X78304496Y-103287493D01*
X78312554Y-103264971D01*
X78322782Y-103243347D01*
X78335079Y-103222830D01*
X78349329Y-103203617D01*
X78365393Y-103185893D01*
X78383117Y-103169829D01*
X78402330Y-103155579D01*
X78422847Y-103143282D01*
X78444471Y-103133054D01*
X78466993Y-103124996D01*
X78490197Y-103119184D01*
X78513858Y-103115674D01*
X78537750Y-103114500D01*
X79450250Y-103114500D01*
X79474142Y-103115674D01*
X79474142Y-103115674D01*
G37*
D17*
X78994000Y-103602000D03*
D13*
G36*
X82268142Y-103115674D02*
X82291803Y-103119184D01*
X82315007Y-103124996D01*
X82337529Y-103133054D01*
X82359153Y-103143282D01*
X82379670Y-103155579D01*
X82398883Y-103169829D01*
X82416607Y-103185893D01*
X82432671Y-103203617D01*
X82446921Y-103222830D01*
X82459218Y-103243347D01*
X82469446Y-103264971D01*
X82477504Y-103287493D01*
X82483316Y-103310697D01*
X82486826Y-103334358D01*
X82488000Y-103358250D01*
X82488000Y-103845750D01*
X82486826Y-103869642D01*
X82483316Y-103893303D01*
X82477504Y-103916507D01*
X82469446Y-103939029D01*
X82459218Y-103960653D01*
X82446921Y-103981170D01*
X82432671Y-104000383D01*
X82416607Y-104018107D01*
X82398883Y-104034171D01*
X82379670Y-104048421D01*
X82359153Y-104060718D01*
X82337529Y-104070946D01*
X82315007Y-104079004D01*
X82291803Y-104084816D01*
X82268142Y-104088326D01*
X82244250Y-104089500D01*
X81331750Y-104089500D01*
X81307858Y-104088326D01*
X81284197Y-104084816D01*
X81260993Y-104079004D01*
X81238471Y-104070946D01*
X81216847Y-104060718D01*
X81196330Y-104048421D01*
X81177117Y-104034171D01*
X81159393Y-104018107D01*
X81143329Y-104000383D01*
X81129079Y-103981170D01*
X81116782Y-103960653D01*
X81106554Y-103939029D01*
X81098496Y-103916507D01*
X81092684Y-103893303D01*
X81089174Y-103869642D01*
X81088000Y-103845750D01*
X81088000Y-103358250D01*
X81089174Y-103334358D01*
X81092684Y-103310697D01*
X81098496Y-103287493D01*
X81106554Y-103264971D01*
X81116782Y-103243347D01*
X81129079Y-103222830D01*
X81143329Y-103203617D01*
X81159393Y-103185893D01*
X81177117Y-103169829D01*
X81196330Y-103155579D01*
X81216847Y-103143282D01*
X81238471Y-103133054D01*
X81260993Y-103124996D01*
X81284197Y-103119184D01*
X81307858Y-103115674D01*
X81331750Y-103114500D01*
X82244250Y-103114500D01*
X82268142Y-103115674D01*
X82268142Y-103115674D01*
G37*
D17*
X81788000Y-103602000D03*
D13*
G36*
X82268142Y-101240674D02*
X82291803Y-101244184D01*
X82315007Y-101249996D01*
X82337529Y-101258054D01*
X82359153Y-101268282D01*
X82379670Y-101280579D01*
X82398883Y-101294829D01*
X82416607Y-101310893D01*
X82432671Y-101328617D01*
X82446921Y-101347830D01*
X82459218Y-101368347D01*
X82469446Y-101389971D01*
X82477504Y-101412493D01*
X82483316Y-101435697D01*
X82486826Y-101459358D01*
X82488000Y-101483250D01*
X82488000Y-101970750D01*
X82486826Y-101994642D01*
X82483316Y-102018303D01*
X82477504Y-102041507D01*
X82469446Y-102064029D01*
X82459218Y-102085653D01*
X82446921Y-102106170D01*
X82432671Y-102125383D01*
X82416607Y-102143107D01*
X82398883Y-102159171D01*
X82379670Y-102173421D01*
X82359153Y-102185718D01*
X82337529Y-102195946D01*
X82315007Y-102204004D01*
X82291803Y-102209816D01*
X82268142Y-102213326D01*
X82244250Y-102214500D01*
X81331750Y-102214500D01*
X81307858Y-102213326D01*
X81284197Y-102209816D01*
X81260993Y-102204004D01*
X81238471Y-102195946D01*
X81216847Y-102185718D01*
X81196330Y-102173421D01*
X81177117Y-102159171D01*
X81159393Y-102143107D01*
X81143329Y-102125383D01*
X81129079Y-102106170D01*
X81116782Y-102085653D01*
X81106554Y-102064029D01*
X81098496Y-102041507D01*
X81092684Y-102018303D01*
X81089174Y-101994642D01*
X81088000Y-101970750D01*
X81088000Y-101483250D01*
X81089174Y-101459358D01*
X81092684Y-101435697D01*
X81098496Y-101412493D01*
X81106554Y-101389971D01*
X81116782Y-101368347D01*
X81129079Y-101347830D01*
X81143329Y-101328617D01*
X81159393Y-101310893D01*
X81177117Y-101294829D01*
X81196330Y-101280579D01*
X81216847Y-101268282D01*
X81238471Y-101258054D01*
X81260993Y-101249996D01*
X81284197Y-101244184D01*
X81307858Y-101240674D01*
X81331750Y-101239500D01*
X82244250Y-101239500D01*
X82268142Y-101240674D01*
X82268142Y-101240674D01*
G37*
D17*
X81788000Y-101727000D03*
D13*
G36*
X161706642Y-117212674D02*
X161730303Y-117216184D01*
X161753507Y-117221996D01*
X161776029Y-117230054D01*
X161797653Y-117240282D01*
X161818170Y-117252579D01*
X161837383Y-117266829D01*
X161855107Y-117282893D01*
X161871171Y-117300617D01*
X161885421Y-117319830D01*
X161897718Y-117340347D01*
X161907946Y-117361971D01*
X161916004Y-117384493D01*
X161921816Y-117407697D01*
X161925326Y-117431358D01*
X161926500Y-117455250D01*
X161926500Y-117942750D01*
X161925326Y-117966642D01*
X161921816Y-117990303D01*
X161916004Y-118013507D01*
X161907946Y-118036029D01*
X161897718Y-118057653D01*
X161885421Y-118078170D01*
X161871171Y-118097383D01*
X161855107Y-118115107D01*
X161837383Y-118131171D01*
X161818170Y-118145421D01*
X161797653Y-118157718D01*
X161776029Y-118167946D01*
X161753507Y-118176004D01*
X161730303Y-118181816D01*
X161706642Y-118185326D01*
X161682750Y-118186500D01*
X160770250Y-118186500D01*
X160746358Y-118185326D01*
X160722697Y-118181816D01*
X160699493Y-118176004D01*
X160676971Y-118167946D01*
X160655347Y-118157718D01*
X160634830Y-118145421D01*
X160615617Y-118131171D01*
X160597893Y-118115107D01*
X160581829Y-118097383D01*
X160567579Y-118078170D01*
X160555282Y-118057653D01*
X160545054Y-118036029D01*
X160536996Y-118013507D01*
X160531184Y-117990303D01*
X160527674Y-117966642D01*
X160526500Y-117942750D01*
X160526500Y-117455250D01*
X160527674Y-117431358D01*
X160531184Y-117407697D01*
X160536996Y-117384493D01*
X160545054Y-117361971D01*
X160555282Y-117340347D01*
X160567579Y-117319830D01*
X160581829Y-117300617D01*
X160597893Y-117282893D01*
X160615617Y-117266829D01*
X160634830Y-117252579D01*
X160655347Y-117240282D01*
X160676971Y-117230054D01*
X160699493Y-117221996D01*
X160722697Y-117216184D01*
X160746358Y-117212674D01*
X160770250Y-117211500D01*
X161682750Y-117211500D01*
X161706642Y-117212674D01*
X161706642Y-117212674D01*
G37*
D17*
X161226500Y-117699000D03*
D13*
G36*
X161706642Y-115337674D02*
X161730303Y-115341184D01*
X161753507Y-115346996D01*
X161776029Y-115355054D01*
X161797653Y-115365282D01*
X161818170Y-115377579D01*
X161837383Y-115391829D01*
X161855107Y-115407893D01*
X161871171Y-115425617D01*
X161885421Y-115444830D01*
X161897718Y-115465347D01*
X161907946Y-115486971D01*
X161916004Y-115509493D01*
X161921816Y-115532697D01*
X161925326Y-115556358D01*
X161926500Y-115580250D01*
X161926500Y-116067750D01*
X161925326Y-116091642D01*
X161921816Y-116115303D01*
X161916004Y-116138507D01*
X161907946Y-116161029D01*
X161897718Y-116182653D01*
X161885421Y-116203170D01*
X161871171Y-116222383D01*
X161855107Y-116240107D01*
X161837383Y-116256171D01*
X161818170Y-116270421D01*
X161797653Y-116282718D01*
X161776029Y-116292946D01*
X161753507Y-116301004D01*
X161730303Y-116306816D01*
X161706642Y-116310326D01*
X161682750Y-116311500D01*
X160770250Y-116311500D01*
X160746358Y-116310326D01*
X160722697Y-116306816D01*
X160699493Y-116301004D01*
X160676971Y-116292946D01*
X160655347Y-116282718D01*
X160634830Y-116270421D01*
X160615617Y-116256171D01*
X160597893Y-116240107D01*
X160581829Y-116222383D01*
X160567579Y-116203170D01*
X160555282Y-116182653D01*
X160545054Y-116161029D01*
X160536996Y-116138507D01*
X160531184Y-116115303D01*
X160527674Y-116091642D01*
X160526500Y-116067750D01*
X160526500Y-115580250D01*
X160527674Y-115556358D01*
X160531184Y-115532697D01*
X160536996Y-115509493D01*
X160545054Y-115486971D01*
X160555282Y-115465347D01*
X160567579Y-115444830D01*
X160581829Y-115425617D01*
X160597893Y-115407893D01*
X160615617Y-115391829D01*
X160634830Y-115377579D01*
X160655347Y-115365282D01*
X160676971Y-115355054D01*
X160699493Y-115346996D01*
X160722697Y-115341184D01*
X160746358Y-115337674D01*
X160770250Y-115336500D01*
X161682750Y-115336500D01*
X161706642Y-115337674D01*
X161706642Y-115337674D01*
G37*
D17*
X161226500Y-115824000D03*
D13*
G36*
X165072142Y-115337674D02*
X165095803Y-115341184D01*
X165119007Y-115346996D01*
X165141529Y-115355054D01*
X165163153Y-115365282D01*
X165183670Y-115377579D01*
X165202883Y-115391829D01*
X165220607Y-115407893D01*
X165236671Y-115425617D01*
X165250921Y-115444830D01*
X165263218Y-115465347D01*
X165273446Y-115486971D01*
X165281504Y-115509493D01*
X165287316Y-115532697D01*
X165290826Y-115556358D01*
X165292000Y-115580250D01*
X165292000Y-116067750D01*
X165290826Y-116091642D01*
X165287316Y-116115303D01*
X165281504Y-116138507D01*
X165273446Y-116161029D01*
X165263218Y-116182653D01*
X165250921Y-116203170D01*
X165236671Y-116222383D01*
X165220607Y-116240107D01*
X165202883Y-116256171D01*
X165183670Y-116270421D01*
X165163153Y-116282718D01*
X165141529Y-116292946D01*
X165119007Y-116301004D01*
X165095803Y-116306816D01*
X165072142Y-116310326D01*
X165048250Y-116311500D01*
X164135750Y-116311500D01*
X164111858Y-116310326D01*
X164088197Y-116306816D01*
X164064993Y-116301004D01*
X164042471Y-116292946D01*
X164020847Y-116282718D01*
X164000330Y-116270421D01*
X163981117Y-116256171D01*
X163963393Y-116240107D01*
X163947329Y-116222383D01*
X163933079Y-116203170D01*
X163920782Y-116182653D01*
X163910554Y-116161029D01*
X163902496Y-116138507D01*
X163896684Y-116115303D01*
X163893174Y-116091642D01*
X163892000Y-116067750D01*
X163892000Y-115580250D01*
X163893174Y-115556358D01*
X163896684Y-115532697D01*
X163902496Y-115509493D01*
X163910554Y-115486971D01*
X163920782Y-115465347D01*
X163933079Y-115444830D01*
X163947329Y-115425617D01*
X163963393Y-115407893D01*
X163981117Y-115391829D01*
X164000330Y-115377579D01*
X164020847Y-115365282D01*
X164042471Y-115355054D01*
X164064993Y-115346996D01*
X164088197Y-115341184D01*
X164111858Y-115337674D01*
X164135750Y-115336500D01*
X165048250Y-115336500D01*
X165072142Y-115337674D01*
X165072142Y-115337674D01*
G37*
D17*
X164592000Y-115824000D03*
D13*
G36*
X165072142Y-117212674D02*
X165095803Y-117216184D01*
X165119007Y-117221996D01*
X165141529Y-117230054D01*
X165163153Y-117240282D01*
X165183670Y-117252579D01*
X165202883Y-117266829D01*
X165220607Y-117282893D01*
X165236671Y-117300617D01*
X165250921Y-117319830D01*
X165263218Y-117340347D01*
X165273446Y-117361971D01*
X165281504Y-117384493D01*
X165287316Y-117407697D01*
X165290826Y-117431358D01*
X165292000Y-117455250D01*
X165292000Y-117942750D01*
X165290826Y-117966642D01*
X165287316Y-117990303D01*
X165281504Y-118013507D01*
X165273446Y-118036029D01*
X165263218Y-118057653D01*
X165250921Y-118078170D01*
X165236671Y-118097383D01*
X165220607Y-118115107D01*
X165202883Y-118131171D01*
X165183670Y-118145421D01*
X165163153Y-118157718D01*
X165141529Y-118167946D01*
X165119007Y-118176004D01*
X165095803Y-118181816D01*
X165072142Y-118185326D01*
X165048250Y-118186500D01*
X164135750Y-118186500D01*
X164111858Y-118185326D01*
X164088197Y-118181816D01*
X164064993Y-118176004D01*
X164042471Y-118167946D01*
X164020847Y-118157718D01*
X164000330Y-118145421D01*
X163981117Y-118131171D01*
X163963393Y-118115107D01*
X163947329Y-118097383D01*
X163933079Y-118078170D01*
X163920782Y-118057653D01*
X163910554Y-118036029D01*
X163902496Y-118013507D01*
X163896684Y-117990303D01*
X163893174Y-117966642D01*
X163892000Y-117942750D01*
X163892000Y-117455250D01*
X163893174Y-117431358D01*
X163896684Y-117407697D01*
X163902496Y-117384493D01*
X163910554Y-117361971D01*
X163920782Y-117340347D01*
X163933079Y-117319830D01*
X163947329Y-117300617D01*
X163963393Y-117282893D01*
X163981117Y-117266829D01*
X164000330Y-117252579D01*
X164020847Y-117240282D01*
X164042471Y-117230054D01*
X164064993Y-117221996D01*
X164088197Y-117216184D01*
X164111858Y-117212674D01*
X164135750Y-117211500D01*
X165048250Y-117211500D01*
X165072142Y-117212674D01*
X165072142Y-117212674D01*
G37*
D17*
X164592000Y-117699000D03*
D13*
G36*
X74013142Y-101240674D02*
X74036803Y-101244184D01*
X74060007Y-101249996D01*
X74082529Y-101258054D01*
X74104153Y-101268282D01*
X74124670Y-101280579D01*
X74143883Y-101294829D01*
X74161607Y-101310893D01*
X74177671Y-101328617D01*
X74191921Y-101347830D01*
X74204218Y-101368347D01*
X74214446Y-101389971D01*
X74222504Y-101412493D01*
X74228316Y-101435697D01*
X74231826Y-101459358D01*
X74233000Y-101483250D01*
X74233000Y-101970750D01*
X74231826Y-101994642D01*
X74228316Y-102018303D01*
X74222504Y-102041507D01*
X74214446Y-102064029D01*
X74204218Y-102085653D01*
X74191921Y-102106170D01*
X74177671Y-102125383D01*
X74161607Y-102143107D01*
X74143883Y-102159171D01*
X74124670Y-102173421D01*
X74104153Y-102185718D01*
X74082529Y-102195946D01*
X74060007Y-102204004D01*
X74036803Y-102209816D01*
X74013142Y-102213326D01*
X73989250Y-102214500D01*
X73076750Y-102214500D01*
X73052858Y-102213326D01*
X73029197Y-102209816D01*
X73005993Y-102204004D01*
X72983471Y-102195946D01*
X72961847Y-102185718D01*
X72941330Y-102173421D01*
X72922117Y-102159171D01*
X72904393Y-102143107D01*
X72888329Y-102125383D01*
X72874079Y-102106170D01*
X72861782Y-102085653D01*
X72851554Y-102064029D01*
X72843496Y-102041507D01*
X72837684Y-102018303D01*
X72834174Y-101994642D01*
X72833000Y-101970750D01*
X72833000Y-101483250D01*
X72834174Y-101459358D01*
X72837684Y-101435697D01*
X72843496Y-101412493D01*
X72851554Y-101389971D01*
X72861782Y-101368347D01*
X72874079Y-101347830D01*
X72888329Y-101328617D01*
X72904393Y-101310893D01*
X72922117Y-101294829D01*
X72941330Y-101280579D01*
X72961847Y-101268282D01*
X72983471Y-101258054D01*
X73005993Y-101249996D01*
X73029197Y-101244184D01*
X73052858Y-101240674D01*
X73076750Y-101239500D01*
X73989250Y-101239500D01*
X74013142Y-101240674D01*
X74013142Y-101240674D01*
G37*
D17*
X73533000Y-101727000D03*
D13*
G36*
X74013142Y-103115674D02*
X74036803Y-103119184D01*
X74060007Y-103124996D01*
X74082529Y-103133054D01*
X74104153Y-103143282D01*
X74124670Y-103155579D01*
X74143883Y-103169829D01*
X74161607Y-103185893D01*
X74177671Y-103203617D01*
X74191921Y-103222830D01*
X74204218Y-103243347D01*
X74214446Y-103264971D01*
X74222504Y-103287493D01*
X74228316Y-103310697D01*
X74231826Y-103334358D01*
X74233000Y-103358250D01*
X74233000Y-103845750D01*
X74231826Y-103869642D01*
X74228316Y-103893303D01*
X74222504Y-103916507D01*
X74214446Y-103939029D01*
X74204218Y-103960653D01*
X74191921Y-103981170D01*
X74177671Y-104000383D01*
X74161607Y-104018107D01*
X74143883Y-104034171D01*
X74124670Y-104048421D01*
X74104153Y-104060718D01*
X74082529Y-104070946D01*
X74060007Y-104079004D01*
X74036803Y-104084816D01*
X74013142Y-104088326D01*
X73989250Y-104089500D01*
X73076750Y-104089500D01*
X73052858Y-104088326D01*
X73029197Y-104084816D01*
X73005993Y-104079004D01*
X72983471Y-104070946D01*
X72961847Y-104060718D01*
X72941330Y-104048421D01*
X72922117Y-104034171D01*
X72904393Y-104018107D01*
X72888329Y-104000383D01*
X72874079Y-103981170D01*
X72861782Y-103960653D01*
X72851554Y-103939029D01*
X72843496Y-103916507D01*
X72837684Y-103893303D01*
X72834174Y-103869642D01*
X72833000Y-103845750D01*
X72833000Y-103358250D01*
X72834174Y-103334358D01*
X72837684Y-103310697D01*
X72843496Y-103287493D01*
X72851554Y-103264971D01*
X72861782Y-103243347D01*
X72874079Y-103222830D01*
X72888329Y-103203617D01*
X72904393Y-103185893D01*
X72922117Y-103169829D01*
X72941330Y-103155579D01*
X72961847Y-103143282D01*
X72983471Y-103133054D01*
X73005993Y-103124996D01*
X73029197Y-103119184D01*
X73052858Y-103115674D01*
X73076750Y-103114500D01*
X73989250Y-103114500D01*
X74013142Y-103115674D01*
X74013142Y-103115674D01*
G37*
D17*
X73533000Y-103602000D03*
D13*
G36*
X77704142Y-90614174D02*
X77727803Y-90617684D01*
X77751007Y-90623496D01*
X77773529Y-90631554D01*
X77795153Y-90641782D01*
X77815670Y-90654079D01*
X77834883Y-90668329D01*
X77852607Y-90684393D01*
X77868671Y-90702117D01*
X77882921Y-90721330D01*
X77895218Y-90741847D01*
X77905446Y-90763471D01*
X77913504Y-90785993D01*
X77919316Y-90809197D01*
X77922826Y-90832858D01*
X77924000Y-90856750D01*
X77924000Y-91769250D01*
X77922826Y-91793142D01*
X77919316Y-91816803D01*
X77913504Y-91840007D01*
X77905446Y-91862529D01*
X77895218Y-91884153D01*
X77882921Y-91904670D01*
X77868671Y-91923883D01*
X77852607Y-91941607D01*
X77834883Y-91957671D01*
X77815670Y-91971921D01*
X77795153Y-91984218D01*
X77773529Y-91994446D01*
X77751007Y-92002504D01*
X77727803Y-92008316D01*
X77704142Y-92011826D01*
X77680250Y-92013000D01*
X77192750Y-92013000D01*
X77168858Y-92011826D01*
X77145197Y-92008316D01*
X77121993Y-92002504D01*
X77099471Y-91994446D01*
X77077847Y-91984218D01*
X77057330Y-91971921D01*
X77038117Y-91957671D01*
X77020393Y-91941607D01*
X77004329Y-91923883D01*
X76990079Y-91904670D01*
X76977782Y-91884153D01*
X76967554Y-91862529D01*
X76959496Y-91840007D01*
X76953684Y-91816803D01*
X76950174Y-91793142D01*
X76949000Y-91769250D01*
X76949000Y-90856750D01*
X76950174Y-90832858D01*
X76953684Y-90809197D01*
X76959496Y-90785993D01*
X76967554Y-90763471D01*
X76977782Y-90741847D01*
X76990079Y-90721330D01*
X77004329Y-90702117D01*
X77020393Y-90684393D01*
X77038117Y-90668329D01*
X77057330Y-90654079D01*
X77077847Y-90641782D01*
X77099471Y-90631554D01*
X77121993Y-90623496D01*
X77145197Y-90617684D01*
X77168858Y-90614174D01*
X77192750Y-90613000D01*
X77680250Y-90613000D01*
X77704142Y-90614174D01*
X77704142Y-90614174D01*
G37*
D17*
X77436500Y-91313000D03*
D13*
G36*
X79579142Y-90614174D02*
X79602803Y-90617684D01*
X79626007Y-90623496D01*
X79648529Y-90631554D01*
X79670153Y-90641782D01*
X79690670Y-90654079D01*
X79709883Y-90668329D01*
X79727607Y-90684393D01*
X79743671Y-90702117D01*
X79757921Y-90721330D01*
X79770218Y-90741847D01*
X79780446Y-90763471D01*
X79788504Y-90785993D01*
X79794316Y-90809197D01*
X79797826Y-90832858D01*
X79799000Y-90856750D01*
X79799000Y-91769250D01*
X79797826Y-91793142D01*
X79794316Y-91816803D01*
X79788504Y-91840007D01*
X79780446Y-91862529D01*
X79770218Y-91884153D01*
X79757921Y-91904670D01*
X79743671Y-91923883D01*
X79727607Y-91941607D01*
X79709883Y-91957671D01*
X79690670Y-91971921D01*
X79670153Y-91984218D01*
X79648529Y-91994446D01*
X79626007Y-92002504D01*
X79602803Y-92008316D01*
X79579142Y-92011826D01*
X79555250Y-92013000D01*
X79067750Y-92013000D01*
X79043858Y-92011826D01*
X79020197Y-92008316D01*
X78996993Y-92002504D01*
X78974471Y-91994446D01*
X78952847Y-91984218D01*
X78932330Y-91971921D01*
X78913117Y-91957671D01*
X78895393Y-91941607D01*
X78879329Y-91923883D01*
X78865079Y-91904670D01*
X78852782Y-91884153D01*
X78842554Y-91862529D01*
X78834496Y-91840007D01*
X78828684Y-91816803D01*
X78825174Y-91793142D01*
X78824000Y-91769250D01*
X78824000Y-90856750D01*
X78825174Y-90832858D01*
X78828684Y-90809197D01*
X78834496Y-90785993D01*
X78842554Y-90763471D01*
X78852782Y-90741847D01*
X78865079Y-90721330D01*
X78879329Y-90702117D01*
X78895393Y-90684393D01*
X78913117Y-90668329D01*
X78932330Y-90654079D01*
X78952847Y-90641782D01*
X78974471Y-90631554D01*
X78996993Y-90623496D01*
X79020197Y-90617684D01*
X79043858Y-90614174D01*
X79067750Y-90613000D01*
X79555250Y-90613000D01*
X79579142Y-90614174D01*
X79579142Y-90614174D01*
G37*
D17*
X79311500Y-91313000D03*
D20*
X75361000Y-93609000D03*
X81661000Y-93609000D03*
X75361000Y-97409000D03*
X81661000Y-97409000D03*
D13*
G36*
X232161005Y-100917704D02*
X232185273Y-100921304D01*
X232209072Y-100927265D01*
X232232171Y-100935530D01*
X232254350Y-100946020D01*
X232275393Y-100958632D01*
X232295099Y-100973247D01*
X232313277Y-100989723D01*
X232329753Y-101007901D01*
X232344368Y-101027607D01*
X232356980Y-101048650D01*
X232367470Y-101070829D01*
X232375735Y-101093928D01*
X232381696Y-101117727D01*
X232385296Y-101141995D01*
X232386500Y-101166499D01*
X232386500Y-102066501D01*
X232385296Y-102091005D01*
X232381696Y-102115273D01*
X232375735Y-102139072D01*
X232367470Y-102162171D01*
X232356980Y-102184350D01*
X232344368Y-102205393D01*
X232329753Y-102225099D01*
X232313277Y-102243277D01*
X232295099Y-102259753D01*
X232275393Y-102274368D01*
X232254350Y-102286980D01*
X232232171Y-102297470D01*
X232209072Y-102305735D01*
X232185273Y-102311696D01*
X232161005Y-102315296D01*
X232136501Y-102316500D01*
X231286499Y-102316500D01*
X231261995Y-102315296D01*
X231237727Y-102311696D01*
X231213928Y-102305735D01*
X231190829Y-102297470D01*
X231168650Y-102286980D01*
X231147607Y-102274368D01*
X231127901Y-102259753D01*
X231109723Y-102243277D01*
X231093247Y-102225099D01*
X231078632Y-102205393D01*
X231066020Y-102184350D01*
X231055530Y-102162171D01*
X231047265Y-102139072D01*
X231041304Y-102115273D01*
X231037704Y-102091005D01*
X231036500Y-102066501D01*
X231036500Y-101166499D01*
X231037704Y-101141995D01*
X231041304Y-101117727D01*
X231047265Y-101093928D01*
X231055530Y-101070829D01*
X231066020Y-101048650D01*
X231078632Y-101027607D01*
X231093247Y-101007901D01*
X231109723Y-100989723D01*
X231127901Y-100973247D01*
X231147607Y-100958632D01*
X231168650Y-100946020D01*
X231190829Y-100935530D01*
X231213928Y-100927265D01*
X231237727Y-100921304D01*
X231261995Y-100917704D01*
X231286499Y-100916500D01*
X232136501Y-100916500D01*
X232161005Y-100917704D01*
X232161005Y-100917704D01*
G37*
D14*
X231711500Y-101616500D03*
D13*
G36*
X232161005Y-98217704D02*
X232185273Y-98221304D01*
X232209072Y-98227265D01*
X232232171Y-98235530D01*
X232254350Y-98246020D01*
X232275393Y-98258632D01*
X232295099Y-98273247D01*
X232313277Y-98289723D01*
X232329753Y-98307901D01*
X232344368Y-98327607D01*
X232356980Y-98348650D01*
X232367470Y-98370829D01*
X232375735Y-98393928D01*
X232381696Y-98417727D01*
X232385296Y-98441995D01*
X232386500Y-98466499D01*
X232386500Y-99366501D01*
X232385296Y-99391005D01*
X232381696Y-99415273D01*
X232375735Y-99439072D01*
X232367470Y-99462171D01*
X232356980Y-99484350D01*
X232344368Y-99505393D01*
X232329753Y-99525099D01*
X232313277Y-99543277D01*
X232295099Y-99559753D01*
X232275393Y-99574368D01*
X232254350Y-99586980D01*
X232232171Y-99597470D01*
X232209072Y-99605735D01*
X232185273Y-99611696D01*
X232161005Y-99615296D01*
X232136501Y-99616500D01*
X231286499Y-99616500D01*
X231261995Y-99615296D01*
X231237727Y-99611696D01*
X231213928Y-99605735D01*
X231190829Y-99597470D01*
X231168650Y-99586980D01*
X231147607Y-99574368D01*
X231127901Y-99559753D01*
X231109723Y-99543277D01*
X231093247Y-99525099D01*
X231078632Y-99505393D01*
X231066020Y-99484350D01*
X231055530Y-99462171D01*
X231047265Y-99439072D01*
X231041304Y-99415273D01*
X231037704Y-99391005D01*
X231036500Y-99366501D01*
X231036500Y-98466499D01*
X231037704Y-98441995D01*
X231041304Y-98417727D01*
X231047265Y-98393928D01*
X231055530Y-98370829D01*
X231066020Y-98348650D01*
X231078632Y-98327607D01*
X231093247Y-98307901D01*
X231109723Y-98289723D01*
X231127901Y-98273247D01*
X231147607Y-98258632D01*
X231168650Y-98246020D01*
X231190829Y-98235530D01*
X231213928Y-98227265D01*
X231237727Y-98221304D01*
X231261995Y-98217704D01*
X231286499Y-98216500D01*
X232136501Y-98216500D01*
X232161005Y-98217704D01*
X232161005Y-98217704D01*
G37*
D14*
X231711500Y-98916500D03*
D21*
X226187000Y-95059500D03*
D22*
X226187000Y-101359500D03*
X228487000Y-101359500D03*
X223887000Y-101359500D03*
M02*
