%TF.GenerationSoftware,KiCad,Pcbnew,(5.0.1)-4*%
%TF.CreationDate,2019-04-12T07:50:59+02:00*%
%TF.ProjectId,nixie,6E697869652E6B696361645F70636200,rev?*%
%TF.SameCoordinates,Original*%
%TF.FileFunction,Paste,Bot*%
%TF.FilePolarity,Positive*%
%FSLAX46Y46*%
G04 Gerber Fmt 4.6, Leading zero omitted, Abs format (unit mm)*
G04 Created by KiCad (PCBNEW (5.0.1)-4) date 12/04/2019 7:50:59*
%MOMM*%
%LPD*%
G01*
G04 APERTURE LIST*
%ADD10C,0.200000*%
%ADD11R,2.500000X1.100000*%
%ADD12R,1.100000X2.500000*%
%ADD13C,1.346200*%
%ADD14C,0.100000*%
%ADD15C,0.975000*%
%ADD16C,1.350000*%
G04 APERTURE END LIST*
D10*
X71251000Y-120249000D02*
G75*
G02X67251000Y-116249000I0J4000000D01*
G01*
X71251000Y-120249000D02*
X230251000Y-120249000D01*
X234251000Y-87249000D02*
X234251000Y-116249000D01*
X67251000Y-87249000D02*
G75*
G02X71251000Y-83249000I4000000J0D01*
G01*
X234251000Y-116249000D02*
G75*
G02X230251000Y-120249000I-4000000J0D01*
G01*
X67251000Y-87249000D02*
X67251000Y-116249000D01*
X71251000Y-83249000D02*
X230251000Y-83249000D01*
X230251000Y-83249000D02*
G75*
G02X234251000Y-87249000I0J-4000000D01*
G01*
D11*
X84583500Y-92202000D03*
X84583500Y-94202000D03*
X84583500Y-96202000D03*
X84583500Y-98202000D03*
X84583500Y-100202000D03*
X84583500Y-102202000D03*
X84583500Y-104202000D03*
X84583500Y-106202000D03*
X69183500Y-106202000D03*
X69183500Y-104202000D03*
X69183500Y-102202000D03*
X69183500Y-100202000D03*
X69183500Y-98202000D03*
X69183500Y-96202000D03*
X69183500Y-94202000D03*
X69183500Y-92202000D03*
D12*
X81893500Y-107902000D03*
X79893500Y-107902000D03*
X77893500Y-107902000D03*
X75893500Y-107902000D03*
X73893500Y-107902000D03*
X71893500Y-107902000D03*
D13*
X101295200Y-90845640D03*
X91109800Y-90845640D03*
X90058240Y-93616780D03*
X90416380Y-96555560D03*
X92097860Y-98993960D03*
X94721680Y-100370640D03*
X97683320Y-100370640D03*
X100307140Y-98993960D03*
X101988620Y-96555560D03*
X102346760Y-93616780D03*
X96202500Y-88173560D03*
X99077780Y-88882220D03*
X93327220Y-88882220D03*
X119710200Y-90845640D03*
X109524800Y-90845640D03*
X108473240Y-93616780D03*
X108831380Y-96555560D03*
X110512860Y-98993960D03*
X113136680Y-100370640D03*
X116098320Y-100370640D03*
X118722140Y-98993960D03*
X120403620Y-96555560D03*
X120761760Y-93616780D03*
X114617500Y-88173560D03*
X117492780Y-88882220D03*
X111742220Y-88882220D03*
X146380200Y-90845640D03*
X136194800Y-90845640D03*
X135143240Y-93616780D03*
X135501380Y-96555560D03*
X137182860Y-98993960D03*
X139806680Y-100370640D03*
X142768320Y-100370640D03*
X145392140Y-98993960D03*
X147073620Y-96555560D03*
X147431760Y-93616780D03*
X141287500Y-88173560D03*
X144162780Y-88882220D03*
X138412220Y-88882220D03*
X164795200Y-90845640D03*
X154609800Y-90845640D03*
X153558240Y-93616780D03*
X153916380Y-96555560D03*
X155597860Y-98993960D03*
X158221680Y-100370640D03*
X161183320Y-100370640D03*
X163807140Y-98993960D03*
X165488620Y-96555560D03*
X165846760Y-93616780D03*
X159702500Y-88173560D03*
X162577780Y-88882220D03*
X156827220Y-88882220D03*
X191465200Y-90845640D03*
X181279800Y-90845640D03*
X180228240Y-93616780D03*
X180586380Y-96555560D03*
X182267860Y-98993960D03*
X184891680Y-100370640D03*
X187853320Y-100370640D03*
X190477140Y-98993960D03*
X192158620Y-96555560D03*
X192516760Y-93616780D03*
X186372500Y-88173560D03*
X189247780Y-88882220D03*
X183497220Y-88882220D03*
X209880200Y-90845640D03*
X199694800Y-90845640D03*
X198643240Y-93616780D03*
X199001380Y-96555560D03*
X200682860Y-98993960D03*
X203306680Y-100370640D03*
X206268320Y-100370640D03*
X208892140Y-98993960D03*
X210573620Y-96555560D03*
X210931760Y-93616780D03*
X204787500Y-88173560D03*
X207662780Y-88882220D03*
X201912220Y-88882220D03*
D14*
G36*
X87483142Y-107695674D02*
X87506803Y-107699184D01*
X87530007Y-107704996D01*
X87552529Y-107713054D01*
X87574153Y-107723282D01*
X87594670Y-107735579D01*
X87613883Y-107749829D01*
X87631607Y-107765893D01*
X87647671Y-107783617D01*
X87661921Y-107802830D01*
X87674218Y-107823347D01*
X87684446Y-107844971D01*
X87692504Y-107867493D01*
X87698316Y-107890697D01*
X87701826Y-107914358D01*
X87703000Y-107938250D01*
X87703000Y-108850750D01*
X87701826Y-108874642D01*
X87698316Y-108898303D01*
X87692504Y-108921507D01*
X87684446Y-108944029D01*
X87674218Y-108965653D01*
X87661921Y-108986170D01*
X87647671Y-109005383D01*
X87631607Y-109023107D01*
X87613883Y-109039171D01*
X87594670Y-109053421D01*
X87574153Y-109065718D01*
X87552529Y-109075946D01*
X87530007Y-109084004D01*
X87506803Y-109089816D01*
X87483142Y-109093326D01*
X87459250Y-109094500D01*
X86971750Y-109094500D01*
X86947858Y-109093326D01*
X86924197Y-109089816D01*
X86900993Y-109084004D01*
X86878471Y-109075946D01*
X86856847Y-109065718D01*
X86836330Y-109053421D01*
X86817117Y-109039171D01*
X86799393Y-109023107D01*
X86783329Y-109005383D01*
X86769079Y-108986170D01*
X86756782Y-108965653D01*
X86746554Y-108944029D01*
X86738496Y-108921507D01*
X86732684Y-108898303D01*
X86729174Y-108874642D01*
X86728000Y-108850750D01*
X86728000Y-107938250D01*
X86729174Y-107914358D01*
X86732684Y-107890697D01*
X86738496Y-107867493D01*
X86746554Y-107844971D01*
X86756782Y-107823347D01*
X86769079Y-107802830D01*
X86783329Y-107783617D01*
X86799393Y-107765893D01*
X86817117Y-107749829D01*
X86836330Y-107735579D01*
X86856847Y-107723282D01*
X86878471Y-107713054D01*
X86900993Y-107704996D01*
X86924197Y-107699184D01*
X86947858Y-107695674D01*
X86971750Y-107694500D01*
X87459250Y-107694500D01*
X87483142Y-107695674D01*
X87483142Y-107695674D01*
G37*
D15*
X87215500Y-108394500D03*
D14*
G36*
X89358142Y-107695674D02*
X89381803Y-107699184D01*
X89405007Y-107704996D01*
X89427529Y-107713054D01*
X89449153Y-107723282D01*
X89469670Y-107735579D01*
X89488883Y-107749829D01*
X89506607Y-107765893D01*
X89522671Y-107783617D01*
X89536921Y-107802830D01*
X89549218Y-107823347D01*
X89559446Y-107844971D01*
X89567504Y-107867493D01*
X89573316Y-107890697D01*
X89576826Y-107914358D01*
X89578000Y-107938250D01*
X89578000Y-108850750D01*
X89576826Y-108874642D01*
X89573316Y-108898303D01*
X89567504Y-108921507D01*
X89559446Y-108944029D01*
X89549218Y-108965653D01*
X89536921Y-108986170D01*
X89522671Y-109005383D01*
X89506607Y-109023107D01*
X89488883Y-109039171D01*
X89469670Y-109053421D01*
X89449153Y-109065718D01*
X89427529Y-109075946D01*
X89405007Y-109084004D01*
X89381803Y-109089816D01*
X89358142Y-109093326D01*
X89334250Y-109094500D01*
X88846750Y-109094500D01*
X88822858Y-109093326D01*
X88799197Y-109089816D01*
X88775993Y-109084004D01*
X88753471Y-109075946D01*
X88731847Y-109065718D01*
X88711330Y-109053421D01*
X88692117Y-109039171D01*
X88674393Y-109023107D01*
X88658329Y-109005383D01*
X88644079Y-108986170D01*
X88631782Y-108965653D01*
X88621554Y-108944029D01*
X88613496Y-108921507D01*
X88607684Y-108898303D01*
X88604174Y-108874642D01*
X88603000Y-108850750D01*
X88603000Y-107938250D01*
X88604174Y-107914358D01*
X88607684Y-107890697D01*
X88613496Y-107867493D01*
X88621554Y-107844971D01*
X88631782Y-107823347D01*
X88644079Y-107802830D01*
X88658329Y-107783617D01*
X88674393Y-107765893D01*
X88692117Y-107749829D01*
X88711330Y-107735579D01*
X88731847Y-107723282D01*
X88753471Y-107713054D01*
X88775993Y-107704996D01*
X88799197Y-107699184D01*
X88822858Y-107695674D01*
X88846750Y-107694500D01*
X89334250Y-107694500D01*
X89358142Y-107695674D01*
X89358142Y-107695674D01*
G37*
D15*
X89090500Y-108394500D03*
D14*
G36*
X85379642Y-110287674D02*
X85403303Y-110291184D01*
X85426507Y-110296996D01*
X85449029Y-110305054D01*
X85470653Y-110315282D01*
X85491170Y-110327579D01*
X85510383Y-110341829D01*
X85528107Y-110357893D01*
X85544171Y-110375617D01*
X85558421Y-110394830D01*
X85570718Y-110415347D01*
X85580946Y-110436971D01*
X85589004Y-110459493D01*
X85594816Y-110482697D01*
X85598326Y-110506358D01*
X85599500Y-110530250D01*
X85599500Y-111017750D01*
X85598326Y-111041642D01*
X85594816Y-111065303D01*
X85589004Y-111088507D01*
X85580946Y-111111029D01*
X85570718Y-111132653D01*
X85558421Y-111153170D01*
X85544171Y-111172383D01*
X85528107Y-111190107D01*
X85510383Y-111206171D01*
X85491170Y-111220421D01*
X85470653Y-111232718D01*
X85449029Y-111242946D01*
X85426507Y-111251004D01*
X85403303Y-111256816D01*
X85379642Y-111260326D01*
X85355750Y-111261500D01*
X84443250Y-111261500D01*
X84419358Y-111260326D01*
X84395697Y-111256816D01*
X84372493Y-111251004D01*
X84349971Y-111242946D01*
X84328347Y-111232718D01*
X84307830Y-111220421D01*
X84288617Y-111206171D01*
X84270893Y-111190107D01*
X84254829Y-111172383D01*
X84240579Y-111153170D01*
X84228282Y-111132653D01*
X84218054Y-111111029D01*
X84209996Y-111088507D01*
X84204184Y-111065303D01*
X84200674Y-111041642D01*
X84199500Y-111017750D01*
X84199500Y-110530250D01*
X84200674Y-110506358D01*
X84204184Y-110482697D01*
X84209996Y-110459493D01*
X84218054Y-110436971D01*
X84228282Y-110415347D01*
X84240579Y-110394830D01*
X84254829Y-110375617D01*
X84270893Y-110357893D01*
X84288617Y-110341829D01*
X84307830Y-110327579D01*
X84328347Y-110315282D01*
X84349971Y-110305054D01*
X84372493Y-110296996D01*
X84395697Y-110291184D01*
X84419358Y-110287674D01*
X84443250Y-110286500D01*
X85355750Y-110286500D01*
X85379642Y-110287674D01*
X85379642Y-110287674D01*
G37*
D15*
X84899500Y-110774000D03*
D14*
G36*
X85379642Y-112162674D02*
X85403303Y-112166184D01*
X85426507Y-112171996D01*
X85449029Y-112180054D01*
X85470653Y-112190282D01*
X85491170Y-112202579D01*
X85510383Y-112216829D01*
X85528107Y-112232893D01*
X85544171Y-112250617D01*
X85558421Y-112269830D01*
X85570718Y-112290347D01*
X85580946Y-112311971D01*
X85589004Y-112334493D01*
X85594816Y-112357697D01*
X85598326Y-112381358D01*
X85599500Y-112405250D01*
X85599500Y-112892750D01*
X85598326Y-112916642D01*
X85594816Y-112940303D01*
X85589004Y-112963507D01*
X85580946Y-112986029D01*
X85570718Y-113007653D01*
X85558421Y-113028170D01*
X85544171Y-113047383D01*
X85528107Y-113065107D01*
X85510383Y-113081171D01*
X85491170Y-113095421D01*
X85470653Y-113107718D01*
X85449029Y-113117946D01*
X85426507Y-113126004D01*
X85403303Y-113131816D01*
X85379642Y-113135326D01*
X85355750Y-113136500D01*
X84443250Y-113136500D01*
X84419358Y-113135326D01*
X84395697Y-113131816D01*
X84372493Y-113126004D01*
X84349971Y-113117946D01*
X84328347Y-113107718D01*
X84307830Y-113095421D01*
X84288617Y-113081171D01*
X84270893Y-113065107D01*
X84254829Y-113047383D01*
X84240579Y-113028170D01*
X84228282Y-113007653D01*
X84218054Y-112986029D01*
X84209996Y-112963507D01*
X84204184Y-112940303D01*
X84200674Y-112916642D01*
X84199500Y-112892750D01*
X84199500Y-112405250D01*
X84200674Y-112381358D01*
X84204184Y-112357697D01*
X84209996Y-112334493D01*
X84218054Y-112311971D01*
X84228282Y-112290347D01*
X84240579Y-112269830D01*
X84254829Y-112250617D01*
X84270893Y-112232893D01*
X84288617Y-112216829D01*
X84307830Y-112202579D01*
X84328347Y-112190282D01*
X84349971Y-112180054D01*
X84372493Y-112171996D01*
X84395697Y-112166184D01*
X84419358Y-112162674D01*
X84443250Y-112161500D01*
X85355750Y-112161500D01*
X85379642Y-112162674D01*
X85379642Y-112162674D01*
G37*
D15*
X84899500Y-112649000D03*
D14*
G36*
X87919642Y-91749174D02*
X87943303Y-91752684D01*
X87966507Y-91758496D01*
X87989029Y-91766554D01*
X88010653Y-91776782D01*
X88031170Y-91789079D01*
X88050383Y-91803329D01*
X88068107Y-91819393D01*
X88084171Y-91837117D01*
X88098421Y-91856330D01*
X88110718Y-91876847D01*
X88120946Y-91898471D01*
X88129004Y-91920993D01*
X88134816Y-91944197D01*
X88138326Y-91967858D01*
X88139500Y-91991750D01*
X88139500Y-92479250D01*
X88138326Y-92503142D01*
X88134816Y-92526803D01*
X88129004Y-92550007D01*
X88120946Y-92572529D01*
X88110718Y-92594153D01*
X88098421Y-92614670D01*
X88084171Y-92633883D01*
X88068107Y-92651607D01*
X88050383Y-92667671D01*
X88031170Y-92681921D01*
X88010653Y-92694218D01*
X87989029Y-92704446D01*
X87966507Y-92712504D01*
X87943303Y-92718316D01*
X87919642Y-92721826D01*
X87895750Y-92723000D01*
X86983250Y-92723000D01*
X86959358Y-92721826D01*
X86935697Y-92718316D01*
X86912493Y-92712504D01*
X86889971Y-92704446D01*
X86868347Y-92694218D01*
X86847830Y-92681921D01*
X86828617Y-92667671D01*
X86810893Y-92651607D01*
X86794829Y-92633883D01*
X86780579Y-92614670D01*
X86768282Y-92594153D01*
X86758054Y-92572529D01*
X86749996Y-92550007D01*
X86744184Y-92526803D01*
X86740674Y-92503142D01*
X86739500Y-92479250D01*
X86739500Y-91991750D01*
X86740674Y-91967858D01*
X86744184Y-91944197D01*
X86749996Y-91920993D01*
X86758054Y-91898471D01*
X86768282Y-91876847D01*
X86780579Y-91856330D01*
X86794829Y-91837117D01*
X86810893Y-91819393D01*
X86828617Y-91803329D01*
X86847830Y-91789079D01*
X86868347Y-91776782D01*
X86889971Y-91766554D01*
X86912493Y-91758496D01*
X86935697Y-91752684D01*
X86959358Y-91749174D01*
X86983250Y-91748000D01*
X87895750Y-91748000D01*
X87919642Y-91749174D01*
X87919642Y-91749174D01*
G37*
D15*
X87439500Y-92235500D03*
D14*
G36*
X87919642Y-89874174D02*
X87943303Y-89877684D01*
X87966507Y-89883496D01*
X87989029Y-89891554D01*
X88010653Y-89901782D01*
X88031170Y-89914079D01*
X88050383Y-89928329D01*
X88068107Y-89944393D01*
X88084171Y-89962117D01*
X88098421Y-89981330D01*
X88110718Y-90001847D01*
X88120946Y-90023471D01*
X88129004Y-90045993D01*
X88134816Y-90069197D01*
X88138326Y-90092858D01*
X88139500Y-90116750D01*
X88139500Y-90604250D01*
X88138326Y-90628142D01*
X88134816Y-90651803D01*
X88129004Y-90675007D01*
X88120946Y-90697529D01*
X88110718Y-90719153D01*
X88098421Y-90739670D01*
X88084171Y-90758883D01*
X88068107Y-90776607D01*
X88050383Y-90792671D01*
X88031170Y-90806921D01*
X88010653Y-90819218D01*
X87989029Y-90829446D01*
X87966507Y-90837504D01*
X87943303Y-90843316D01*
X87919642Y-90846826D01*
X87895750Y-90848000D01*
X86983250Y-90848000D01*
X86959358Y-90846826D01*
X86935697Y-90843316D01*
X86912493Y-90837504D01*
X86889971Y-90829446D01*
X86868347Y-90819218D01*
X86847830Y-90806921D01*
X86828617Y-90792671D01*
X86810893Y-90776607D01*
X86794829Y-90758883D01*
X86780579Y-90739670D01*
X86768282Y-90719153D01*
X86758054Y-90697529D01*
X86749996Y-90675007D01*
X86744184Y-90651803D01*
X86740674Y-90628142D01*
X86739500Y-90604250D01*
X86739500Y-90116750D01*
X86740674Y-90092858D01*
X86744184Y-90069197D01*
X86749996Y-90045993D01*
X86758054Y-90023471D01*
X86768282Y-90001847D01*
X86780579Y-89981330D01*
X86794829Y-89962117D01*
X86810893Y-89944393D01*
X86828617Y-89928329D01*
X86847830Y-89914079D01*
X86868347Y-89901782D01*
X86889971Y-89891554D01*
X86912493Y-89883496D01*
X86935697Y-89877684D01*
X86959358Y-89874174D01*
X86983250Y-89873000D01*
X87895750Y-89873000D01*
X87919642Y-89874174D01*
X87919642Y-89874174D01*
G37*
D15*
X87439500Y-90360500D03*
D14*
G36*
X153844505Y-85194204D02*
X153868773Y-85197804D01*
X153892572Y-85203765D01*
X153915671Y-85212030D01*
X153937850Y-85222520D01*
X153958893Y-85235132D01*
X153978599Y-85249747D01*
X153996777Y-85266223D01*
X154013253Y-85284401D01*
X154027868Y-85304107D01*
X154040480Y-85325150D01*
X154050970Y-85347329D01*
X154059235Y-85370428D01*
X154065196Y-85394227D01*
X154068796Y-85418495D01*
X154070000Y-85442999D01*
X154070000Y-88293001D01*
X154068796Y-88317505D01*
X154065196Y-88341773D01*
X154059235Y-88365572D01*
X154050970Y-88388671D01*
X154040480Y-88410850D01*
X154027868Y-88431893D01*
X154013253Y-88451599D01*
X153996777Y-88469777D01*
X153978599Y-88486253D01*
X153958893Y-88500868D01*
X153937850Y-88513480D01*
X153915671Y-88523970D01*
X153892572Y-88532235D01*
X153868773Y-88538196D01*
X153844505Y-88541796D01*
X153820001Y-88543000D01*
X152969999Y-88543000D01*
X152945495Y-88541796D01*
X152921227Y-88538196D01*
X152897428Y-88532235D01*
X152874329Y-88523970D01*
X152852150Y-88513480D01*
X152831107Y-88500868D01*
X152811401Y-88486253D01*
X152793223Y-88469777D01*
X152776747Y-88451599D01*
X152762132Y-88431893D01*
X152749520Y-88410850D01*
X152739030Y-88388671D01*
X152730765Y-88365572D01*
X152724804Y-88341773D01*
X152721204Y-88317505D01*
X152720000Y-88293001D01*
X152720000Y-85442999D01*
X152721204Y-85418495D01*
X152724804Y-85394227D01*
X152730765Y-85370428D01*
X152739030Y-85347329D01*
X152749520Y-85325150D01*
X152762132Y-85304107D01*
X152776747Y-85284401D01*
X152793223Y-85266223D01*
X152811401Y-85249747D01*
X152831107Y-85235132D01*
X152852150Y-85222520D01*
X152874329Y-85212030D01*
X152897428Y-85203765D01*
X152921227Y-85197804D01*
X152945495Y-85194204D01*
X152969999Y-85193000D01*
X153820001Y-85193000D01*
X153844505Y-85194204D01*
X153844505Y-85194204D01*
G37*
D16*
X153395000Y-86868000D03*
D14*
G36*
X148044505Y-85194204D02*
X148068773Y-85197804D01*
X148092572Y-85203765D01*
X148115671Y-85212030D01*
X148137850Y-85222520D01*
X148158893Y-85235132D01*
X148178599Y-85249747D01*
X148196777Y-85266223D01*
X148213253Y-85284401D01*
X148227868Y-85304107D01*
X148240480Y-85325150D01*
X148250970Y-85347329D01*
X148259235Y-85370428D01*
X148265196Y-85394227D01*
X148268796Y-85418495D01*
X148270000Y-85442999D01*
X148270000Y-88293001D01*
X148268796Y-88317505D01*
X148265196Y-88341773D01*
X148259235Y-88365572D01*
X148250970Y-88388671D01*
X148240480Y-88410850D01*
X148227868Y-88431893D01*
X148213253Y-88451599D01*
X148196777Y-88469777D01*
X148178599Y-88486253D01*
X148158893Y-88500868D01*
X148137850Y-88513480D01*
X148115671Y-88523970D01*
X148092572Y-88532235D01*
X148068773Y-88538196D01*
X148044505Y-88541796D01*
X148020001Y-88543000D01*
X147169999Y-88543000D01*
X147145495Y-88541796D01*
X147121227Y-88538196D01*
X147097428Y-88532235D01*
X147074329Y-88523970D01*
X147052150Y-88513480D01*
X147031107Y-88500868D01*
X147011401Y-88486253D01*
X146993223Y-88469777D01*
X146976747Y-88451599D01*
X146962132Y-88431893D01*
X146949520Y-88410850D01*
X146939030Y-88388671D01*
X146930765Y-88365572D01*
X146924804Y-88341773D01*
X146921204Y-88317505D01*
X146920000Y-88293001D01*
X146920000Y-85442999D01*
X146921204Y-85418495D01*
X146924804Y-85394227D01*
X146930765Y-85370428D01*
X146939030Y-85347329D01*
X146949520Y-85325150D01*
X146962132Y-85304107D01*
X146976747Y-85284401D01*
X146993223Y-85266223D01*
X147011401Y-85249747D01*
X147031107Y-85235132D01*
X147052150Y-85222520D01*
X147074329Y-85212030D01*
X147097428Y-85203765D01*
X147121227Y-85197804D01*
X147145495Y-85194204D01*
X147169999Y-85193000D01*
X148020001Y-85193000D01*
X148044505Y-85194204D01*
X148044505Y-85194204D01*
G37*
D16*
X147595000Y-86868000D03*
D14*
G36*
X88173642Y-99780174D02*
X88197303Y-99783684D01*
X88220507Y-99789496D01*
X88243029Y-99797554D01*
X88264653Y-99807782D01*
X88285170Y-99820079D01*
X88304383Y-99834329D01*
X88322107Y-99850393D01*
X88338171Y-99868117D01*
X88352421Y-99887330D01*
X88364718Y-99907847D01*
X88374946Y-99929471D01*
X88383004Y-99951993D01*
X88388816Y-99975197D01*
X88392326Y-99998858D01*
X88393500Y-100022750D01*
X88393500Y-100510250D01*
X88392326Y-100534142D01*
X88388816Y-100557803D01*
X88383004Y-100581007D01*
X88374946Y-100603529D01*
X88364718Y-100625153D01*
X88352421Y-100645670D01*
X88338171Y-100664883D01*
X88322107Y-100682607D01*
X88304383Y-100698671D01*
X88285170Y-100712921D01*
X88264653Y-100725218D01*
X88243029Y-100735446D01*
X88220507Y-100743504D01*
X88197303Y-100749316D01*
X88173642Y-100752826D01*
X88149750Y-100754000D01*
X87237250Y-100754000D01*
X87213358Y-100752826D01*
X87189697Y-100749316D01*
X87166493Y-100743504D01*
X87143971Y-100735446D01*
X87122347Y-100725218D01*
X87101830Y-100712921D01*
X87082617Y-100698671D01*
X87064893Y-100682607D01*
X87048829Y-100664883D01*
X87034579Y-100645670D01*
X87022282Y-100625153D01*
X87012054Y-100603529D01*
X87003996Y-100581007D01*
X86998184Y-100557803D01*
X86994674Y-100534142D01*
X86993500Y-100510250D01*
X86993500Y-100022750D01*
X86994674Y-99998858D01*
X86998184Y-99975197D01*
X87003996Y-99951993D01*
X87012054Y-99929471D01*
X87022282Y-99907847D01*
X87034579Y-99887330D01*
X87048829Y-99868117D01*
X87064893Y-99850393D01*
X87082617Y-99834329D01*
X87101830Y-99820079D01*
X87122347Y-99807782D01*
X87143971Y-99797554D01*
X87166493Y-99789496D01*
X87189697Y-99783684D01*
X87213358Y-99780174D01*
X87237250Y-99779000D01*
X88149750Y-99779000D01*
X88173642Y-99780174D01*
X88173642Y-99780174D01*
G37*
D15*
X87693500Y-100266500D03*
D14*
G36*
X88173642Y-101655174D02*
X88197303Y-101658684D01*
X88220507Y-101664496D01*
X88243029Y-101672554D01*
X88264653Y-101682782D01*
X88285170Y-101695079D01*
X88304383Y-101709329D01*
X88322107Y-101725393D01*
X88338171Y-101743117D01*
X88352421Y-101762330D01*
X88364718Y-101782847D01*
X88374946Y-101804471D01*
X88383004Y-101826993D01*
X88388816Y-101850197D01*
X88392326Y-101873858D01*
X88393500Y-101897750D01*
X88393500Y-102385250D01*
X88392326Y-102409142D01*
X88388816Y-102432803D01*
X88383004Y-102456007D01*
X88374946Y-102478529D01*
X88364718Y-102500153D01*
X88352421Y-102520670D01*
X88338171Y-102539883D01*
X88322107Y-102557607D01*
X88304383Y-102573671D01*
X88285170Y-102587921D01*
X88264653Y-102600218D01*
X88243029Y-102610446D01*
X88220507Y-102618504D01*
X88197303Y-102624316D01*
X88173642Y-102627826D01*
X88149750Y-102629000D01*
X87237250Y-102629000D01*
X87213358Y-102627826D01*
X87189697Y-102624316D01*
X87166493Y-102618504D01*
X87143971Y-102610446D01*
X87122347Y-102600218D01*
X87101830Y-102587921D01*
X87082617Y-102573671D01*
X87064893Y-102557607D01*
X87048829Y-102539883D01*
X87034579Y-102520670D01*
X87022282Y-102500153D01*
X87012054Y-102478529D01*
X87003996Y-102456007D01*
X86998184Y-102432803D01*
X86994674Y-102409142D01*
X86993500Y-102385250D01*
X86993500Y-101897750D01*
X86994674Y-101873858D01*
X86998184Y-101850197D01*
X87003996Y-101826993D01*
X87012054Y-101804471D01*
X87022282Y-101782847D01*
X87034579Y-101762330D01*
X87048829Y-101743117D01*
X87064893Y-101725393D01*
X87082617Y-101709329D01*
X87101830Y-101695079D01*
X87122347Y-101682782D01*
X87143971Y-101672554D01*
X87166493Y-101664496D01*
X87189697Y-101658684D01*
X87213358Y-101655174D01*
X87237250Y-101654000D01*
X88149750Y-101654000D01*
X88173642Y-101655174D01*
X88173642Y-101655174D01*
G37*
D15*
X87693500Y-102141500D03*
D14*
G36*
X88237142Y-105592174D02*
X88260803Y-105595684D01*
X88284007Y-105601496D01*
X88306529Y-105609554D01*
X88328153Y-105619782D01*
X88348670Y-105632079D01*
X88367883Y-105646329D01*
X88385607Y-105662393D01*
X88401671Y-105680117D01*
X88415921Y-105699330D01*
X88428218Y-105719847D01*
X88438446Y-105741471D01*
X88446504Y-105763993D01*
X88452316Y-105787197D01*
X88455826Y-105810858D01*
X88457000Y-105834750D01*
X88457000Y-106322250D01*
X88455826Y-106346142D01*
X88452316Y-106369803D01*
X88446504Y-106393007D01*
X88438446Y-106415529D01*
X88428218Y-106437153D01*
X88415921Y-106457670D01*
X88401671Y-106476883D01*
X88385607Y-106494607D01*
X88367883Y-106510671D01*
X88348670Y-106524921D01*
X88328153Y-106537218D01*
X88306529Y-106547446D01*
X88284007Y-106555504D01*
X88260803Y-106561316D01*
X88237142Y-106564826D01*
X88213250Y-106566000D01*
X87300750Y-106566000D01*
X87276858Y-106564826D01*
X87253197Y-106561316D01*
X87229993Y-106555504D01*
X87207471Y-106547446D01*
X87185847Y-106537218D01*
X87165330Y-106524921D01*
X87146117Y-106510671D01*
X87128393Y-106494607D01*
X87112329Y-106476883D01*
X87098079Y-106457670D01*
X87085782Y-106437153D01*
X87075554Y-106415529D01*
X87067496Y-106393007D01*
X87061684Y-106369803D01*
X87058174Y-106346142D01*
X87057000Y-106322250D01*
X87057000Y-105834750D01*
X87058174Y-105810858D01*
X87061684Y-105787197D01*
X87067496Y-105763993D01*
X87075554Y-105741471D01*
X87085782Y-105719847D01*
X87098079Y-105699330D01*
X87112329Y-105680117D01*
X87128393Y-105662393D01*
X87146117Y-105646329D01*
X87165330Y-105632079D01*
X87185847Y-105619782D01*
X87207471Y-105609554D01*
X87229993Y-105601496D01*
X87253197Y-105595684D01*
X87276858Y-105592174D01*
X87300750Y-105591000D01*
X88213250Y-105591000D01*
X88237142Y-105592174D01*
X88237142Y-105592174D01*
G37*
D15*
X87757000Y-106078500D03*
D14*
G36*
X88237142Y-103717174D02*
X88260803Y-103720684D01*
X88284007Y-103726496D01*
X88306529Y-103734554D01*
X88328153Y-103744782D01*
X88348670Y-103757079D01*
X88367883Y-103771329D01*
X88385607Y-103787393D01*
X88401671Y-103805117D01*
X88415921Y-103824330D01*
X88428218Y-103844847D01*
X88438446Y-103866471D01*
X88446504Y-103888993D01*
X88452316Y-103912197D01*
X88455826Y-103935858D01*
X88457000Y-103959750D01*
X88457000Y-104447250D01*
X88455826Y-104471142D01*
X88452316Y-104494803D01*
X88446504Y-104518007D01*
X88438446Y-104540529D01*
X88428218Y-104562153D01*
X88415921Y-104582670D01*
X88401671Y-104601883D01*
X88385607Y-104619607D01*
X88367883Y-104635671D01*
X88348670Y-104649921D01*
X88328153Y-104662218D01*
X88306529Y-104672446D01*
X88284007Y-104680504D01*
X88260803Y-104686316D01*
X88237142Y-104689826D01*
X88213250Y-104691000D01*
X87300750Y-104691000D01*
X87276858Y-104689826D01*
X87253197Y-104686316D01*
X87229993Y-104680504D01*
X87207471Y-104672446D01*
X87185847Y-104662218D01*
X87165330Y-104649921D01*
X87146117Y-104635671D01*
X87128393Y-104619607D01*
X87112329Y-104601883D01*
X87098079Y-104582670D01*
X87085782Y-104562153D01*
X87075554Y-104540529D01*
X87067496Y-104518007D01*
X87061684Y-104494803D01*
X87058174Y-104471142D01*
X87057000Y-104447250D01*
X87057000Y-103959750D01*
X87058174Y-103935858D01*
X87061684Y-103912197D01*
X87067496Y-103888993D01*
X87075554Y-103866471D01*
X87085782Y-103844847D01*
X87098079Y-103824330D01*
X87112329Y-103805117D01*
X87128393Y-103787393D01*
X87146117Y-103771329D01*
X87165330Y-103757079D01*
X87185847Y-103744782D01*
X87207471Y-103734554D01*
X87229993Y-103726496D01*
X87253197Y-103720684D01*
X87276858Y-103717174D01*
X87300750Y-103716000D01*
X88213250Y-103716000D01*
X88237142Y-103717174D01*
X88237142Y-103717174D01*
G37*
D15*
X87757000Y-104203500D03*
D14*
G36*
X69885642Y-109081174D02*
X69909303Y-109084684D01*
X69932507Y-109090496D01*
X69955029Y-109098554D01*
X69976653Y-109108782D01*
X69997170Y-109121079D01*
X70016383Y-109135329D01*
X70034107Y-109151393D01*
X70050171Y-109169117D01*
X70064421Y-109188330D01*
X70076718Y-109208847D01*
X70086946Y-109230471D01*
X70095004Y-109252993D01*
X70100816Y-109276197D01*
X70104326Y-109299858D01*
X70105500Y-109323750D01*
X70105500Y-109811250D01*
X70104326Y-109835142D01*
X70100816Y-109858803D01*
X70095004Y-109882007D01*
X70086946Y-109904529D01*
X70076718Y-109926153D01*
X70064421Y-109946670D01*
X70050171Y-109965883D01*
X70034107Y-109983607D01*
X70016383Y-109999671D01*
X69997170Y-110013921D01*
X69976653Y-110026218D01*
X69955029Y-110036446D01*
X69932507Y-110044504D01*
X69909303Y-110050316D01*
X69885642Y-110053826D01*
X69861750Y-110055000D01*
X68949250Y-110055000D01*
X68925358Y-110053826D01*
X68901697Y-110050316D01*
X68878493Y-110044504D01*
X68855971Y-110036446D01*
X68834347Y-110026218D01*
X68813830Y-110013921D01*
X68794617Y-109999671D01*
X68776893Y-109983607D01*
X68760829Y-109965883D01*
X68746579Y-109946670D01*
X68734282Y-109926153D01*
X68724054Y-109904529D01*
X68715996Y-109882007D01*
X68710184Y-109858803D01*
X68706674Y-109835142D01*
X68705500Y-109811250D01*
X68705500Y-109323750D01*
X68706674Y-109299858D01*
X68710184Y-109276197D01*
X68715996Y-109252993D01*
X68724054Y-109230471D01*
X68734282Y-109208847D01*
X68746579Y-109188330D01*
X68760829Y-109169117D01*
X68776893Y-109151393D01*
X68794617Y-109135329D01*
X68813830Y-109121079D01*
X68834347Y-109108782D01*
X68855971Y-109098554D01*
X68878493Y-109090496D01*
X68901697Y-109084684D01*
X68925358Y-109081174D01*
X68949250Y-109080000D01*
X69861750Y-109080000D01*
X69885642Y-109081174D01*
X69885642Y-109081174D01*
G37*
D15*
X69405500Y-109567500D03*
D14*
G36*
X69885642Y-110956174D02*
X69909303Y-110959684D01*
X69932507Y-110965496D01*
X69955029Y-110973554D01*
X69976653Y-110983782D01*
X69997170Y-110996079D01*
X70016383Y-111010329D01*
X70034107Y-111026393D01*
X70050171Y-111044117D01*
X70064421Y-111063330D01*
X70076718Y-111083847D01*
X70086946Y-111105471D01*
X70095004Y-111127993D01*
X70100816Y-111151197D01*
X70104326Y-111174858D01*
X70105500Y-111198750D01*
X70105500Y-111686250D01*
X70104326Y-111710142D01*
X70100816Y-111733803D01*
X70095004Y-111757007D01*
X70086946Y-111779529D01*
X70076718Y-111801153D01*
X70064421Y-111821670D01*
X70050171Y-111840883D01*
X70034107Y-111858607D01*
X70016383Y-111874671D01*
X69997170Y-111888921D01*
X69976653Y-111901218D01*
X69955029Y-111911446D01*
X69932507Y-111919504D01*
X69909303Y-111925316D01*
X69885642Y-111928826D01*
X69861750Y-111930000D01*
X68949250Y-111930000D01*
X68925358Y-111928826D01*
X68901697Y-111925316D01*
X68878493Y-111919504D01*
X68855971Y-111911446D01*
X68834347Y-111901218D01*
X68813830Y-111888921D01*
X68794617Y-111874671D01*
X68776893Y-111858607D01*
X68760829Y-111840883D01*
X68746579Y-111821670D01*
X68734282Y-111801153D01*
X68724054Y-111779529D01*
X68715996Y-111757007D01*
X68710184Y-111733803D01*
X68706674Y-111710142D01*
X68705500Y-111686250D01*
X68705500Y-111198750D01*
X68706674Y-111174858D01*
X68710184Y-111151197D01*
X68715996Y-111127993D01*
X68724054Y-111105471D01*
X68734282Y-111083847D01*
X68746579Y-111063330D01*
X68760829Y-111044117D01*
X68776893Y-111026393D01*
X68794617Y-111010329D01*
X68813830Y-110996079D01*
X68834347Y-110983782D01*
X68855971Y-110973554D01*
X68878493Y-110965496D01*
X68901697Y-110959684D01*
X68925358Y-110956174D01*
X68949250Y-110955000D01*
X69861750Y-110955000D01*
X69885642Y-110956174D01*
X69885642Y-110956174D01*
G37*
D15*
X69405500Y-111442500D03*
D14*
G36*
X119472142Y-115950674D02*
X119495803Y-115954184D01*
X119519007Y-115959996D01*
X119541529Y-115968054D01*
X119563153Y-115978282D01*
X119583670Y-115990579D01*
X119602883Y-116004829D01*
X119620607Y-116020893D01*
X119636671Y-116038617D01*
X119650921Y-116057830D01*
X119663218Y-116078347D01*
X119673446Y-116099971D01*
X119681504Y-116122493D01*
X119687316Y-116145697D01*
X119690826Y-116169358D01*
X119692000Y-116193250D01*
X119692000Y-117105750D01*
X119690826Y-117129642D01*
X119687316Y-117153303D01*
X119681504Y-117176507D01*
X119673446Y-117199029D01*
X119663218Y-117220653D01*
X119650921Y-117241170D01*
X119636671Y-117260383D01*
X119620607Y-117278107D01*
X119602883Y-117294171D01*
X119583670Y-117308421D01*
X119563153Y-117320718D01*
X119541529Y-117330946D01*
X119519007Y-117339004D01*
X119495803Y-117344816D01*
X119472142Y-117348326D01*
X119448250Y-117349500D01*
X118960750Y-117349500D01*
X118936858Y-117348326D01*
X118913197Y-117344816D01*
X118889993Y-117339004D01*
X118867471Y-117330946D01*
X118845847Y-117320718D01*
X118825330Y-117308421D01*
X118806117Y-117294171D01*
X118788393Y-117278107D01*
X118772329Y-117260383D01*
X118758079Y-117241170D01*
X118745782Y-117220653D01*
X118735554Y-117199029D01*
X118727496Y-117176507D01*
X118721684Y-117153303D01*
X118718174Y-117129642D01*
X118717000Y-117105750D01*
X118717000Y-116193250D01*
X118718174Y-116169358D01*
X118721684Y-116145697D01*
X118727496Y-116122493D01*
X118735554Y-116099971D01*
X118745782Y-116078347D01*
X118758079Y-116057830D01*
X118772329Y-116038617D01*
X118788393Y-116020893D01*
X118806117Y-116004829D01*
X118825330Y-115990579D01*
X118845847Y-115978282D01*
X118867471Y-115968054D01*
X118889993Y-115959996D01*
X118913197Y-115954184D01*
X118936858Y-115950674D01*
X118960750Y-115949500D01*
X119448250Y-115949500D01*
X119472142Y-115950674D01*
X119472142Y-115950674D01*
G37*
D15*
X119204500Y-116649500D03*
D14*
G36*
X121347142Y-115950674D02*
X121370803Y-115954184D01*
X121394007Y-115959996D01*
X121416529Y-115968054D01*
X121438153Y-115978282D01*
X121458670Y-115990579D01*
X121477883Y-116004829D01*
X121495607Y-116020893D01*
X121511671Y-116038617D01*
X121525921Y-116057830D01*
X121538218Y-116078347D01*
X121548446Y-116099971D01*
X121556504Y-116122493D01*
X121562316Y-116145697D01*
X121565826Y-116169358D01*
X121567000Y-116193250D01*
X121567000Y-117105750D01*
X121565826Y-117129642D01*
X121562316Y-117153303D01*
X121556504Y-117176507D01*
X121548446Y-117199029D01*
X121538218Y-117220653D01*
X121525921Y-117241170D01*
X121511671Y-117260383D01*
X121495607Y-117278107D01*
X121477883Y-117294171D01*
X121458670Y-117308421D01*
X121438153Y-117320718D01*
X121416529Y-117330946D01*
X121394007Y-117339004D01*
X121370803Y-117344816D01*
X121347142Y-117348326D01*
X121323250Y-117349500D01*
X120835750Y-117349500D01*
X120811858Y-117348326D01*
X120788197Y-117344816D01*
X120764993Y-117339004D01*
X120742471Y-117330946D01*
X120720847Y-117320718D01*
X120700330Y-117308421D01*
X120681117Y-117294171D01*
X120663393Y-117278107D01*
X120647329Y-117260383D01*
X120633079Y-117241170D01*
X120620782Y-117220653D01*
X120610554Y-117199029D01*
X120602496Y-117176507D01*
X120596684Y-117153303D01*
X120593174Y-117129642D01*
X120592000Y-117105750D01*
X120592000Y-116193250D01*
X120593174Y-116169358D01*
X120596684Y-116145697D01*
X120602496Y-116122493D01*
X120610554Y-116099971D01*
X120620782Y-116078347D01*
X120633079Y-116057830D01*
X120647329Y-116038617D01*
X120663393Y-116020893D01*
X120681117Y-116004829D01*
X120700330Y-115990579D01*
X120720847Y-115978282D01*
X120742471Y-115968054D01*
X120764993Y-115959996D01*
X120788197Y-115954184D01*
X120811858Y-115950674D01*
X120835750Y-115949500D01*
X121323250Y-115949500D01*
X121347142Y-115950674D01*
X121347142Y-115950674D01*
G37*
D15*
X121079500Y-116649500D03*
M02*
