M48
;DRILL file {KiCad (5.0.1)-4} date 12/04/2019 7:51:00
;FORMAT={-:-/ absolute / inch / decimal}
FMAT,2
INCH,TZ
T1C0.0157
T2C0.0236
T3C0.0330
T4C0.0394
T5C0.0472
T6C0.0551
%
G90
G05
M72
T1
X2.6875Y-4.2475
X2.7175Y-4.2475
X2.72Y-4.49
X2.7475Y-4.2475
X2.75Y-4.39
X2.7978Y-3.7475
X2.8825Y-3.7475
X2.8875Y-4.135
X2.8975Y-3.555
X2.985Y-3.595
X3.0375Y-4.4375
X3.0375Y-4.48
X3.0375Y-4.52
X3.0375Y-4.56
X3.0375Y-4.6025
X3.125Y-4.4
X3.1293Y-4.33
X3.1625Y-3.98
X3.185Y-3.5475
X3.195Y-3.62
X3.22Y-4.12
X3.225Y-3.62
X3.26Y-4.36
X3.35Y-3.54
X3.375Y-3.5625
X3.3775Y-3.53
X3.4025Y-3.9975
X3.405Y-4.1025
X3.415Y-3.875
X3.435Y-3.7575
X3.4423Y-3.71
X3.4629Y-3.6808
X3.5625Y-4.21
X3.5825Y-4.065
X3.595Y-4.21
X3.69Y-4.305
X3.7725Y-4.2775
X3.81Y-4.1525
X3.9925Y-4.56
X4.485Y-4.5675
X4.51Y-4.5925
X4.535Y-4.6175
X4.5625Y-4.645
X4.5725Y-4.5525
X4.6025Y-4.5725
X4.6275Y-4.5925
X4.6675Y-4.5275
X4.705Y-4.5275
X4.8375Y-4.34
X4.8508Y-4.39
X4.8525Y-4.63
X4.855Y-4.445
X4.8825Y-4.445
X4.9075Y-4.52
X4.9125Y-4.63
X4.975Y-4.2875
X4.9775Y-4.63
X4.9825Y-4.3425
X4.9825Y-4.38
X5.0075Y-4.51
X5.0375Y-4.63
X5.0775Y-4.63
X5.1025Y-4.5223
X5.1325Y-4.63
X5.135Y-4.18
X5.165Y-4.21
X5.1675Y-4.5046
X5.275Y-4.5954
X5.29Y-4.4975
X5.34Y-4.4325
X5.3875Y-4.34
X5.4075Y-4.315
X5.4225Y-4.34
X5.4275Y-4.29
X5.455Y-4.4975
X5.4725Y-4.5954
X5.52Y-4.17
X5.605Y-4.5475
X5.73Y-4.5725
X5.74Y-4.07
X5.79Y-4.07
X5.89Y-4.63
X5.9525Y-3.305
X5.9925Y-4.63
X6.0225Y-4.6541
X6.08Y-4.07
X6.1225Y-4.19
X6.182Y-4.4238
X6.2825Y-4.5175
X6.2825Y-4.5525
X6.34Y-4.48
X6.4175Y-4.515
X6.4175Y-4.55
X6.46Y-4.4554
X6.625Y-4.63
X6.6775Y-4.2225
X6.685Y-4.19
X6.7075Y-4.2125
X6.7425Y-4.62
X6.7675Y-4.3075
X6.8075Y-4.625
X6.8375Y-4.515
X6.87Y-4.62
X6.8975Y-4.3075
X6.9325Y-4.625
X6.9625Y-4.655
X6.9875Y-4.435
X6.9975Y-4.625
X7.0575Y-4.645
X7.09Y-4.645
X7.135Y-4.5725
X7.15Y-4.4075
X7.15Y-4.445
X7.1675Y-4.5725
X7.1775Y-4.615
T2
X4.975Y-3.79
X5.1Y-3.79
X6.75Y-3.79
X6.875Y-3.79
T3
X5.3206Y-3.6857
X5.3347Y-3.8014
X5.362Y-3.5766
X5.4009Y-3.8974
X5.4493Y-3.4993
X5.5042Y-3.9516
X5.5625Y-3.4714
X5.6208Y-3.9516
X5.6757Y-3.4993
X5.7241Y-3.8974
X5.763Y-3.5766
X5.7903Y-3.8014
X5.8044Y-3.6857
X4.2706Y-3.6857
X4.2847Y-3.8014
X4.312Y-3.5766
X4.3509Y-3.8974
X4.3993Y-3.4993
X4.4542Y-3.9516
X4.5125Y-3.4714
X4.5708Y-3.9516
X4.6257Y-3.4993
X4.6741Y-3.8974
X4.713Y-3.5766
X4.7403Y-3.8014
X4.7544Y-3.6857
X3.5456Y-3.6857
X3.5597Y-3.8014
X3.587Y-3.5766
X3.6259Y-3.8974
X3.6743Y-3.4993
X3.7292Y-3.9516
X3.7875Y-3.4714
X3.8458Y-3.9516
X3.9007Y-3.4993
X3.9491Y-3.8974
X3.988Y-3.5766
X4.0153Y-3.8014
X4.0294Y-3.6857
X7.0956Y-3.6857
X7.1097Y-3.8014
X7.137Y-3.5766
X7.1759Y-3.8974
X7.2243Y-3.4993
X7.2792Y-3.9516
X7.3375Y-3.4714
X7.3958Y-3.9516
X7.4507Y-3.4993
X7.4991Y-3.8974
X7.538Y-3.5766
X7.5653Y-3.8014
X7.5794Y-3.6857
X6.0456Y-3.6857
X6.0597Y-3.8014
X6.087Y-3.5766
X6.1259Y-3.8974
X6.1743Y-3.4993
X6.2292Y-3.9516
X6.2875Y-3.4714
X6.3458Y-3.9516
X6.4007Y-3.4993
X6.4491Y-3.8974
X6.488Y-3.5766
X6.5153Y-3.8014
X6.5294Y-3.6857
X7.8206Y-3.6857
X7.8347Y-3.8014
X7.862Y-3.5766
X7.9009Y-3.8974
X7.9493Y-3.4993
X8.0042Y-3.9516
X8.0625Y-3.4714
X8.1208Y-3.9516
X8.1757Y-3.4993
X8.2241Y-3.8974
X8.263Y-3.5766
X8.2903Y-3.8014
X8.3044Y-3.6857
T4
X7.8575Y-4.58
X7.9575Y-4.58
X8.0575Y-4.58
X8.1575Y-4.58
X8.3225Y-4.58
X8.4225Y-4.58
X8.5225Y-4.58
X8.6225Y-4.58
X8.7875Y-4.58
X8.8875Y-4.58
X8.9875Y-4.58
X9.0875Y-4.58
T5
X8.7024Y-3.3457
X9.0076Y-3.3457
T6
X8.7083Y-3.4953
X9.0017Y-3.4953
T0
M30
