%TF.GenerationSoftware,KiCad,Pcbnew,(5.0.1)-4*%
%TF.CreationDate,2019-04-12T07:50:59+02:00*%
%TF.ProjectId,nixie,6E697869652E6B696361645F70636200,rev?*%
%TF.SameCoordinates,Original*%
%TF.FileFunction,Soldermask,Bot*%
%TF.FilePolarity,Negative*%
%FSLAX46Y46*%
G04 Gerber Fmt 4.6, Leading zero omitted, Abs format (unit mm)*
G04 Created by KiCad (PCBNEW (5.0.1)-4) date 12/04/2019 7:50:59*
%MOMM*%
%LPD*%
G01*
G04 APERTURE LIST*
%ADD10C,0.200000*%
%ADD11C,0.100000*%
G04 APERTURE END LIST*
D10*
X71251000Y-120249000D02*
G75*
G02X67251000Y-116249000I0J4000000D01*
G01*
X71251000Y-120249000D02*
X230251000Y-120249000D01*
X234251000Y-87249000D02*
X234251000Y-116249000D01*
X67251000Y-87249000D02*
G75*
G02X71251000Y-83249000I4000000J0D01*
G01*
X234251000Y-116249000D02*
G75*
G02X230251000Y-120249000I-4000000J0D01*
G01*
X67251000Y-87249000D02*
X67251000Y-116249000D01*
X71251000Y-83249000D02*
X230251000Y-83249000D01*
X230251000Y-83249000D02*
G75*
G02X234251000Y-87249000I0J-4000000D01*
G01*
D11*
G36*
X121540497Y-115755497D02*
X121593153Y-115771470D01*
X121641665Y-115797400D01*
X121684196Y-115832304D01*
X121719100Y-115874835D01*
X121745030Y-115923347D01*
X121761003Y-115976003D01*
X121767000Y-116036890D01*
X121767000Y-117262110D01*
X121761003Y-117322997D01*
X121745030Y-117375653D01*
X121719100Y-117424165D01*
X121684196Y-117466696D01*
X121641665Y-117501600D01*
X121593153Y-117527530D01*
X121540497Y-117543503D01*
X121479610Y-117549500D01*
X120679390Y-117549500D01*
X120618503Y-117543503D01*
X120565847Y-117527530D01*
X120517335Y-117501600D01*
X120474804Y-117466696D01*
X120439900Y-117424165D01*
X120413970Y-117375653D01*
X120397997Y-117322997D01*
X120392000Y-117262110D01*
X120392000Y-116036890D01*
X120397997Y-115976003D01*
X120413970Y-115923347D01*
X120439900Y-115874835D01*
X120474804Y-115832304D01*
X120517335Y-115797400D01*
X120565847Y-115771470D01*
X120618503Y-115755497D01*
X120679390Y-115749500D01*
X121479610Y-115749500D01*
X121540497Y-115755497D01*
X121540497Y-115755497D01*
G37*
G36*
X119665497Y-115755497D02*
X119718153Y-115771470D01*
X119766665Y-115797400D01*
X119809196Y-115832304D01*
X119844100Y-115874835D01*
X119870030Y-115923347D01*
X119886003Y-115976003D01*
X119892000Y-116036890D01*
X119892000Y-117262110D01*
X119886003Y-117322997D01*
X119870030Y-117375653D01*
X119844100Y-117424165D01*
X119809196Y-117466696D01*
X119766665Y-117501600D01*
X119718153Y-117527530D01*
X119665497Y-117543503D01*
X119604610Y-117549500D01*
X118804390Y-117549500D01*
X118743503Y-117543503D01*
X118690847Y-117527530D01*
X118642335Y-117501600D01*
X118599804Y-117466696D01*
X118564900Y-117424165D01*
X118538970Y-117375653D01*
X118522997Y-117322997D01*
X118517000Y-117262110D01*
X118517000Y-116036890D01*
X118522997Y-115976003D01*
X118538970Y-115923347D01*
X118564900Y-115874835D01*
X118599804Y-115832304D01*
X118642335Y-115797400D01*
X118690847Y-115771470D01*
X118743503Y-115755497D01*
X118804390Y-115749500D01*
X119604610Y-115749500D01*
X119665497Y-115755497D01*
X119665497Y-115755497D01*
G37*
G36*
X220061500Y-117382000D02*
X217961500Y-117382000D01*
X217961500Y-115282000D01*
X220061500Y-115282000D01*
X220061500Y-117382000D01*
X220061500Y-117382000D01*
G37*
G36*
X199709207Y-115289597D02*
X199786336Y-115297193D01*
X199918287Y-115337220D01*
X199984263Y-115357233D01*
X200166672Y-115454733D01*
X200326554Y-115585946D01*
X200457767Y-115745828D01*
X200555267Y-115928237D01*
X200569756Y-115976003D01*
X200615307Y-116126164D01*
X200635580Y-116332000D01*
X200615307Y-116537836D01*
X200575280Y-116669787D01*
X200555267Y-116735763D01*
X200457767Y-116918172D01*
X200326554Y-117078054D01*
X200166672Y-117209267D01*
X199984263Y-117306767D01*
X199930759Y-117322997D01*
X199786336Y-117366807D01*
X199709207Y-117374403D01*
X199632080Y-117382000D01*
X199528920Y-117382000D01*
X199451793Y-117374403D01*
X199374664Y-117366807D01*
X199230241Y-117322997D01*
X199176737Y-117306767D01*
X198994328Y-117209267D01*
X198834446Y-117078054D01*
X198703233Y-116918172D01*
X198605733Y-116735763D01*
X198585720Y-116669787D01*
X198545693Y-116537836D01*
X198525420Y-116332000D01*
X198545693Y-116126164D01*
X198591244Y-115976003D01*
X198605733Y-115928237D01*
X198703233Y-115745828D01*
X198834446Y-115585946D01*
X198994328Y-115454733D01*
X199176737Y-115357233D01*
X199242713Y-115337220D01*
X199374664Y-115297193D01*
X199451793Y-115289597D01*
X199528920Y-115282000D01*
X199632080Y-115282000D01*
X199709207Y-115289597D01*
X199709207Y-115289597D01*
G37*
G36*
X202249207Y-115289597D02*
X202326336Y-115297193D01*
X202458287Y-115337220D01*
X202524263Y-115357233D01*
X202706672Y-115454733D01*
X202866554Y-115585946D01*
X202997767Y-115745828D01*
X203095267Y-115928237D01*
X203109756Y-115976003D01*
X203155307Y-116126164D01*
X203175580Y-116332000D01*
X203155307Y-116537836D01*
X203115280Y-116669787D01*
X203095267Y-116735763D01*
X202997767Y-116918172D01*
X202866554Y-117078054D01*
X202706672Y-117209267D01*
X202524263Y-117306767D01*
X202470759Y-117322997D01*
X202326336Y-117366807D01*
X202249207Y-117374403D01*
X202172080Y-117382000D01*
X202068920Y-117382000D01*
X201991793Y-117374403D01*
X201914664Y-117366807D01*
X201770241Y-117322997D01*
X201716737Y-117306767D01*
X201534328Y-117209267D01*
X201374446Y-117078054D01*
X201243233Y-116918172D01*
X201145733Y-116735763D01*
X201125720Y-116669787D01*
X201085693Y-116537836D01*
X201065420Y-116332000D01*
X201085693Y-116126164D01*
X201131244Y-115976003D01*
X201145733Y-115928237D01*
X201243233Y-115745828D01*
X201374446Y-115585946D01*
X201534328Y-115454733D01*
X201716737Y-115357233D01*
X201782713Y-115337220D01*
X201914664Y-115297193D01*
X201991793Y-115289597D01*
X202068920Y-115282000D01*
X202172080Y-115282000D01*
X202249207Y-115289597D01*
X202249207Y-115289597D01*
G37*
G36*
X204789207Y-115289597D02*
X204866336Y-115297193D01*
X204998287Y-115337220D01*
X205064263Y-115357233D01*
X205246672Y-115454733D01*
X205406554Y-115585946D01*
X205537767Y-115745828D01*
X205635267Y-115928237D01*
X205649756Y-115976003D01*
X205695307Y-116126164D01*
X205715580Y-116332000D01*
X205695307Y-116537836D01*
X205655280Y-116669787D01*
X205635267Y-116735763D01*
X205537767Y-116918172D01*
X205406554Y-117078054D01*
X205246672Y-117209267D01*
X205064263Y-117306767D01*
X205010759Y-117322997D01*
X204866336Y-117366807D01*
X204789207Y-117374403D01*
X204712080Y-117382000D01*
X204608920Y-117382000D01*
X204531793Y-117374403D01*
X204454664Y-117366807D01*
X204310241Y-117322997D01*
X204256737Y-117306767D01*
X204074328Y-117209267D01*
X203914446Y-117078054D01*
X203783233Y-116918172D01*
X203685733Y-116735763D01*
X203665720Y-116669787D01*
X203625693Y-116537836D01*
X203605420Y-116332000D01*
X203625693Y-116126164D01*
X203671244Y-115976003D01*
X203685733Y-115928237D01*
X203783233Y-115745828D01*
X203914446Y-115585946D01*
X204074328Y-115454733D01*
X204256737Y-115357233D01*
X204322713Y-115337220D01*
X204454664Y-115297193D01*
X204531793Y-115289597D01*
X204608920Y-115282000D01*
X204712080Y-115282000D01*
X204789207Y-115289597D01*
X204789207Y-115289597D01*
G37*
G36*
X208250500Y-117382000D02*
X206150500Y-117382000D01*
X206150500Y-115282000D01*
X208250500Y-115282000D01*
X208250500Y-117382000D01*
X208250500Y-117382000D01*
G37*
G36*
X231872500Y-117382000D02*
X229772500Y-117382000D01*
X229772500Y-115282000D01*
X231872500Y-115282000D01*
X231872500Y-117382000D01*
X231872500Y-117382000D01*
G37*
G36*
X228411207Y-115289597D02*
X228488336Y-115297193D01*
X228620287Y-115337220D01*
X228686263Y-115357233D01*
X228868672Y-115454733D01*
X229028554Y-115585946D01*
X229159767Y-115745828D01*
X229257267Y-115928237D01*
X229271756Y-115976003D01*
X229317307Y-116126164D01*
X229337580Y-116332000D01*
X229317307Y-116537836D01*
X229277280Y-116669787D01*
X229257267Y-116735763D01*
X229159767Y-116918172D01*
X229028554Y-117078054D01*
X228868672Y-117209267D01*
X228686263Y-117306767D01*
X228632759Y-117322997D01*
X228488336Y-117366807D01*
X228411207Y-117374403D01*
X228334080Y-117382000D01*
X228230920Y-117382000D01*
X228153793Y-117374403D01*
X228076664Y-117366807D01*
X227932241Y-117322997D01*
X227878737Y-117306767D01*
X227696328Y-117209267D01*
X227536446Y-117078054D01*
X227405233Y-116918172D01*
X227307733Y-116735763D01*
X227287720Y-116669787D01*
X227247693Y-116537836D01*
X227227420Y-116332000D01*
X227247693Y-116126164D01*
X227293244Y-115976003D01*
X227307733Y-115928237D01*
X227405233Y-115745828D01*
X227536446Y-115585946D01*
X227696328Y-115454733D01*
X227878737Y-115357233D01*
X227944713Y-115337220D01*
X228076664Y-115297193D01*
X228153793Y-115289597D01*
X228230920Y-115282000D01*
X228334080Y-115282000D01*
X228411207Y-115289597D01*
X228411207Y-115289597D01*
G37*
G36*
X225871207Y-115289597D02*
X225948336Y-115297193D01*
X226080287Y-115337220D01*
X226146263Y-115357233D01*
X226328672Y-115454733D01*
X226488554Y-115585946D01*
X226619767Y-115745828D01*
X226717267Y-115928237D01*
X226731756Y-115976003D01*
X226777307Y-116126164D01*
X226797580Y-116332000D01*
X226777307Y-116537836D01*
X226737280Y-116669787D01*
X226717267Y-116735763D01*
X226619767Y-116918172D01*
X226488554Y-117078054D01*
X226328672Y-117209267D01*
X226146263Y-117306767D01*
X226092759Y-117322997D01*
X225948336Y-117366807D01*
X225871207Y-117374403D01*
X225794080Y-117382000D01*
X225690920Y-117382000D01*
X225613793Y-117374403D01*
X225536664Y-117366807D01*
X225392241Y-117322997D01*
X225338737Y-117306767D01*
X225156328Y-117209267D01*
X224996446Y-117078054D01*
X224865233Y-116918172D01*
X224767733Y-116735763D01*
X224747720Y-116669787D01*
X224707693Y-116537836D01*
X224687420Y-116332000D01*
X224707693Y-116126164D01*
X224753244Y-115976003D01*
X224767733Y-115928237D01*
X224865233Y-115745828D01*
X224996446Y-115585946D01*
X225156328Y-115454733D01*
X225338737Y-115357233D01*
X225404713Y-115337220D01*
X225536664Y-115297193D01*
X225613793Y-115289597D01*
X225690920Y-115282000D01*
X225794080Y-115282000D01*
X225871207Y-115289597D01*
X225871207Y-115289597D01*
G37*
G36*
X223331207Y-115289597D02*
X223408336Y-115297193D01*
X223540287Y-115337220D01*
X223606263Y-115357233D01*
X223788672Y-115454733D01*
X223948554Y-115585946D01*
X224079767Y-115745828D01*
X224177267Y-115928237D01*
X224191756Y-115976003D01*
X224237307Y-116126164D01*
X224257580Y-116332000D01*
X224237307Y-116537836D01*
X224197280Y-116669787D01*
X224177267Y-116735763D01*
X224079767Y-116918172D01*
X223948554Y-117078054D01*
X223788672Y-117209267D01*
X223606263Y-117306767D01*
X223552759Y-117322997D01*
X223408336Y-117366807D01*
X223331207Y-117374403D01*
X223254080Y-117382000D01*
X223150920Y-117382000D01*
X223073793Y-117374403D01*
X222996664Y-117366807D01*
X222852241Y-117322997D01*
X222798737Y-117306767D01*
X222616328Y-117209267D01*
X222456446Y-117078054D01*
X222325233Y-116918172D01*
X222227733Y-116735763D01*
X222207720Y-116669787D01*
X222167693Y-116537836D01*
X222147420Y-116332000D01*
X222167693Y-116126164D01*
X222213244Y-115976003D01*
X222227733Y-115928237D01*
X222325233Y-115745828D01*
X222456446Y-115585946D01*
X222616328Y-115454733D01*
X222798737Y-115357233D01*
X222864713Y-115337220D01*
X222996664Y-115297193D01*
X223073793Y-115289597D01*
X223150920Y-115282000D01*
X223254080Y-115282000D01*
X223331207Y-115289597D01*
X223331207Y-115289597D01*
G37*
G36*
X211520207Y-115289597D02*
X211597336Y-115297193D01*
X211729287Y-115337220D01*
X211795263Y-115357233D01*
X211977672Y-115454733D01*
X212137554Y-115585946D01*
X212268767Y-115745828D01*
X212366267Y-115928237D01*
X212380756Y-115976003D01*
X212426307Y-116126164D01*
X212446580Y-116332000D01*
X212426307Y-116537836D01*
X212386280Y-116669787D01*
X212366267Y-116735763D01*
X212268767Y-116918172D01*
X212137554Y-117078054D01*
X211977672Y-117209267D01*
X211795263Y-117306767D01*
X211741759Y-117322997D01*
X211597336Y-117366807D01*
X211520207Y-117374403D01*
X211443080Y-117382000D01*
X211339920Y-117382000D01*
X211262793Y-117374403D01*
X211185664Y-117366807D01*
X211041241Y-117322997D01*
X210987737Y-117306767D01*
X210805328Y-117209267D01*
X210645446Y-117078054D01*
X210514233Y-116918172D01*
X210416733Y-116735763D01*
X210396720Y-116669787D01*
X210356693Y-116537836D01*
X210336420Y-116332000D01*
X210356693Y-116126164D01*
X210402244Y-115976003D01*
X210416733Y-115928237D01*
X210514233Y-115745828D01*
X210645446Y-115585946D01*
X210805328Y-115454733D01*
X210987737Y-115357233D01*
X211053713Y-115337220D01*
X211185664Y-115297193D01*
X211262793Y-115289597D01*
X211339920Y-115282000D01*
X211443080Y-115282000D01*
X211520207Y-115289597D01*
X211520207Y-115289597D01*
G37*
G36*
X214060207Y-115289597D02*
X214137336Y-115297193D01*
X214269287Y-115337220D01*
X214335263Y-115357233D01*
X214517672Y-115454733D01*
X214677554Y-115585946D01*
X214808767Y-115745828D01*
X214906267Y-115928237D01*
X214920756Y-115976003D01*
X214966307Y-116126164D01*
X214986580Y-116332000D01*
X214966307Y-116537836D01*
X214926280Y-116669787D01*
X214906267Y-116735763D01*
X214808767Y-116918172D01*
X214677554Y-117078054D01*
X214517672Y-117209267D01*
X214335263Y-117306767D01*
X214281759Y-117322997D01*
X214137336Y-117366807D01*
X214060207Y-117374403D01*
X213983080Y-117382000D01*
X213879920Y-117382000D01*
X213802793Y-117374403D01*
X213725664Y-117366807D01*
X213581241Y-117322997D01*
X213527737Y-117306767D01*
X213345328Y-117209267D01*
X213185446Y-117078054D01*
X213054233Y-116918172D01*
X212956733Y-116735763D01*
X212936720Y-116669787D01*
X212896693Y-116537836D01*
X212876420Y-116332000D01*
X212896693Y-116126164D01*
X212942244Y-115976003D01*
X212956733Y-115928237D01*
X213054233Y-115745828D01*
X213185446Y-115585946D01*
X213345328Y-115454733D01*
X213527737Y-115357233D01*
X213593713Y-115337220D01*
X213725664Y-115297193D01*
X213802793Y-115289597D01*
X213879920Y-115282000D01*
X213983080Y-115282000D01*
X214060207Y-115289597D01*
X214060207Y-115289597D01*
G37*
G36*
X216600207Y-115289597D02*
X216677336Y-115297193D01*
X216809287Y-115337220D01*
X216875263Y-115357233D01*
X217057672Y-115454733D01*
X217217554Y-115585946D01*
X217348767Y-115745828D01*
X217446267Y-115928237D01*
X217460756Y-115976003D01*
X217506307Y-116126164D01*
X217526580Y-116332000D01*
X217506307Y-116537836D01*
X217466280Y-116669787D01*
X217446267Y-116735763D01*
X217348767Y-116918172D01*
X217217554Y-117078054D01*
X217057672Y-117209267D01*
X216875263Y-117306767D01*
X216821759Y-117322997D01*
X216677336Y-117366807D01*
X216600207Y-117374403D01*
X216523080Y-117382000D01*
X216419920Y-117382000D01*
X216342793Y-117374403D01*
X216265664Y-117366807D01*
X216121241Y-117322997D01*
X216067737Y-117306767D01*
X215885328Y-117209267D01*
X215725446Y-117078054D01*
X215594233Y-116918172D01*
X215496733Y-116735763D01*
X215476720Y-116669787D01*
X215436693Y-116537836D01*
X215416420Y-116332000D01*
X215436693Y-116126164D01*
X215482244Y-115976003D01*
X215496733Y-115928237D01*
X215594233Y-115745828D01*
X215725446Y-115585946D01*
X215885328Y-115454733D01*
X216067737Y-115357233D01*
X216133713Y-115337220D01*
X216265664Y-115297193D01*
X216342793Y-115289597D01*
X216419920Y-115282000D01*
X216523080Y-115282000D01*
X216600207Y-115289597D01*
X216600207Y-115289597D01*
G37*
G36*
X85572997Y-111967497D02*
X85625653Y-111983470D01*
X85674165Y-112009400D01*
X85716696Y-112044304D01*
X85751600Y-112086835D01*
X85777530Y-112135347D01*
X85793503Y-112188003D01*
X85799500Y-112248890D01*
X85799500Y-113049110D01*
X85793503Y-113109997D01*
X85777530Y-113162653D01*
X85751600Y-113211165D01*
X85716696Y-113253696D01*
X85674165Y-113288600D01*
X85625653Y-113314530D01*
X85572997Y-113330503D01*
X85512110Y-113336500D01*
X84286890Y-113336500D01*
X84226003Y-113330503D01*
X84173347Y-113314530D01*
X84124835Y-113288600D01*
X84082304Y-113253696D01*
X84047400Y-113211165D01*
X84021470Y-113162653D01*
X84005497Y-113109997D01*
X83999500Y-113049110D01*
X83999500Y-112248890D01*
X84005497Y-112188003D01*
X84021470Y-112135347D01*
X84047400Y-112086835D01*
X84082304Y-112044304D01*
X84124835Y-112009400D01*
X84173347Y-111983470D01*
X84226003Y-111967497D01*
X84286890Y-111961500D01*
X85512110Y-111961500D01*
X85572997Y-111967497D01*
X85572997Y-111967497D01*
G37*
G36*
X70078997Y-110760997D02*
X70131653Y-110776970D01*
X70180165Y-110802900D01*
X70222696Y-110837804D01*
X70257600Y-110880335D01*
X70283530Y-110928847D01*
X70299503Y-110981503D01*
X70305500Y-111042390D01*
X70305500Y-111842610D01*
X70299503Y-111903497D01*
X70283530Y-111956153D01*
X70257600Y-112004665D01*
X70222696Y-112047196D01*
X70180165Y-112082100D01*
X70131653Y-112108030D01*
X70078997Y-112124003D01*
X70018110Y-112130000D01*
X68792890Y-112130000D01*
X68732003Y-112124003D01*
X68679347Y-112108030D01*
X68630835Y-112082100D01*
X68588304Y-112047196D01*
X68553400Y-112004665D01*
X68527470Y-111956153D01*
X68511497Y-111903497D01*
X68505500Y-111842610D01*
X68505500Y-111042390D01*
X68511497Y-110981503D01*
X68527470Y-110928847D01*
X68553400Y-110880335D01*
X68588304Y-110837804D01*
X68630835Y-110802900D01*
X68679347Y-110776970D01*
X68732003Y-110760997D01*
X68792890Y-110755000D01*
X70018110Y-110755000D01*
X70078997Y-110760997D01*
X70078997Y-110760997D01*
G37*
G36*
X85572997Y-110092497D02*
X85625653Y-110108470D01*
X85674165Y-110134400D01*
X85716696Y-110169304D01*
X85751600Y-110211835D01*
X85777530Y-110260347D01*
X85793503Y-110313003D01*
X85799500Y-110373890D01*
X85799500Y-111174110D01*
X85793503Y-111234997D01*
X85777530Y-111287653D01*
X85751600Y-111336165D01*
X85716696Y-111378696D01*
X85674165Y-111413600D01*
X85625653Y-111439530D01*
X85572997Y-111455503D01*
X85512110Y-111461500D01*
X84286890Y-111461500D01*
X84226003Y-111455503D01*
X84173347Y-111439530D01*
X84124835Y-111413600D01*
X84082304Y-111378696D01*
X84047400Y-111336165D01*
X84021470Y-111287653D01*
X84005497Y-111234997D01*
X83999500Y-111174110D01*
X83999500Y-110373890D01*
X84005497Y-110313003D01*
X84021470Y-110260347D01*
X84047400Y-110211835D01*
X84082304Y-110169304D01*
X84124835Y-110134400D01*
X84173347Y-110108470D01*
X84226003Y-110092497D01*
X84286890Y-110086500D01*
X85512110Y-110086500D01*
X85572997Y-110092497D01*
X85572997Y-110092497D01*
G37*
G36*
X70078997Y-108885997D02*
X70131653Y-108901970D01*
X70180165Y-108927900D01*
X70222696Y-108962804D01*
X70257600Y-109005335D01*
X70283530Y-109053847D01*
X70299503Y-109106503D01*
X70305500Y-109167390D01*
X70305500Y-109967610D01*
X70299503Y-110028497D01*
X70283530Y-110081153D01*
X70257600Y-110129665D01*
X70222696Y-110172196D01*
X70180165Y-110207100D01*
X70131653Y-110233030D01*
X70078997Y-110249003D01*
X70018110Y-110255000D01*
X68792890Y-110255000D01*
X68732003Y-110249003D01*
X68679347Y-110233030D01*
X68630835Y-110207100D01*
X68588304Y-110172196D01*
X68553400Y-110129665D01*
X68527470Y-110081153D01*
X68511497Y-110028497D01*
X68505500Y-109967610D01*
X68505500Y-109167390D01*
X68511497Y-109106503D01*
X68527470Y-109053847D01*
X68553400Y-109005335D01*
X68588304Y-108962804D01*
X68630835Y-108927900D01*
X68679347Y-108901970D01*
X68732003Y-108885997D01*
X68792890Y-108880000D01*
X70018110Y-108880000D01*
X70078997Y-108885997D01*
X70078997Y-108885997D01*
G37*
G36*
X82643500Y-109352000D02*
X81143500Y-109352000D01*
X81143500Y-106452000D01*
X82643500Y-106452000D01*
X82643500Y-109352000D01*
X82643500Y-109352000D01*
G37*
G36*
X74643500Y-109352000D02*
X73143500Y-109352000D01*
X73143500Y-106452000D01*
X74643500Y-106452000D01*
X74643500Y-109352000D01*
X74643500Y-109352000D01*
G37*
G36*
X80643500Y-109352000D02*
X79143500Y-109352000D01*
X79143500Y-106452000D01*
X80643500Y-106452000D01*
X80643500Y-109352000D01*
X80643500Y-109352000D01*
G37*
G36*
X78643500Y-109352000D02*
X77143500Y-109352000D01*
X77143500Y-106452000D01*
X78643500Y-106452000D01*
X78643500Y-109352000D01*
X78643500Y-109352000D01*
G37*
G36*
X76643500Y-109352000D02*
X75143500Y-109352000D01*
X75143500Y-106452000D01*
X76643500Y-106452000D01*
X76643500Y-109352000D01*
X76643500Y-109352000D01*
G37*
G36*
X72643500Y-109352000D02*
X71143500Y-109352000D01*
X71143500Y-106452000D01*
X72643500Y-106452000D01*
X72643500Y-109352000D01*
X72643500Y-109352000D01*
G37*
G36*
X89551497Y-107500497D02*
X89604153Y-107516470D01*
X89652665Y-107542400D01*
X89695196Y-107577304D01*
X89730100Y-107619835D01*
X89756030Y-107668347D01*
X89772003Y-107721003D01*
X89778000Y-107781890D01*
X89778000Y-109007110D01*
X89772003Y-109067997D01*
X89756030Y-109120653D01*
X89730100Y-109169165D01*
X89695196Y-109211696D01*
X89652665Y-109246600D01*
X89604153Y-109272530D01*
X89551497Y-109288503D01*
X89490610Y-109294500D01*
X88690390Y-109294500D01*
X88629503Y-109288503D01*
X88576847Y-109272530D01*
X88528335Y-109246600D01*
X88485804Y-109211696D01*
X88450900Y-109169165D01*
X88424970Y-109120653D01*
X88408997Y-109067997D01*
X88403000Y-109007110D01*
X88403000Y-107781890D01*
X88408997Y-107721003D01*
X88424970Y-107668347D01*
X88450900Y-107619835D01*
X88485804Y-107577304D01*
X88528335Y-107542400D01*
X88576847Y-107516470D01*
X88629503Y-107500497D01*
X88690390Y-107494500D01*
X89490610Y-107494500D01*
X89551497Y-107500497D01*
X89551497Y-107500497D01*
G37*
G36*
X87676497Y-107500497D02*
X87729153Y-107516470D01*
X87777665Y-107542400D01*
X87820196Y-107577304D01*
X87855100Y-107619835D01*
X87881030Y-107668347D01*
X87897003Y-107721003D01*
X87903000Y-107781890D01*
X87903000Y-109007110D01*
X87897003Y-109067997D01*
X87881030Y-109120653D01*
X87855100Y-109169165D01*
X87820196Y-109211696D01*
X87777665Y-109246600D01*
X87729153Y-109272530D01*
X87676497Y-109288503D01*
X87615610Y-109294500D01*
X86815390Y-109294500D01*
X86754503Y-109288503D01*
X86701847Y-109272530D01*
X86653335Y-109246600D01*
X86610804Y-109211696D01*
X86575900Y-109169165D01*
X86549970Y-109120653D01*
X86533997Y-109067997D01*
X86528000Y-109007110D01*
X86528000Y-107781890D01*
X86533997Y-107721003D01*
X86549970Y-107668347D01*
X86575900Y-107619835D01*
X86610804Y-107577304D01*
X86653335Y-107542400D01*
X86701847Y-107516470D01*
X86754503Y-107500497D01*
X86815390Y-107494500D01*
X87615610Y-107494500D01*
X87676497Y-107500497D01*
X87676497Y-107500497D01*
G37*
G36*
X86033500Y-106952000D02*
X83133500Y-106952000D01*
X83133500Y-105452000D01*
X86033500Y-105452000D01*
X86033500Y-106952000D01*
X86033500Y-106952000D01*
G37*
G36*
X70633500Y-106952000D02*
X67733500Y-106952000D01*
X67733500Y-105452000D01*
X70633500Y-105452000D01*
X70633500Y-106952000D01*
X70633500Y-106952000D01*
G37*
G36*
X88430497Y-105396997D02*
X88483153Y-105412970D01*
X88531665Y-105438900D01*
X88574196Y-105473804D01*
X88609100Y-105516335D01*
X88635030Y-105564847D01*
X88651003Y-105617503D01*
X88657000Y-105678390D01*
X88657000Y-106478610D01*
X88651003Y-106539497D01*
X88635030Y-106592153D01*
X88609100Y-106640665D01*
X88574196Y-106683196D01*
X88531665Y-106718100D01*
X88483153Y-106744030D01*
X88430497Y-106760003D01*
X88369610Y-106766000D01*
X87144390Y-106766000D01*
X87083503Y-106760003D01*
X87030847Y-106744030D01*
X86982335Y-106718100D01*
X86939804Y-106683196D01*
X86904900Y-106640665D01*
X86878970Y-106592153D01*
X86862997Y-106539497D01*
X86857000Y-106478610D01*
X86857000Y-105678390D01*
X86862997Y-105617503D01*
X86878970Y-105564847D01*
X86904900Y-105516335D01*
X86939804Y-105473804D01*
X86982335Y-105438900D01*
X87030847Y-105412970D01*
X87083503Y-105396997D01*
X87144390Y-105391000D01*
X88369610Y-105391000D01*
X88430497Y-105396997D01*
X88430497Y-105396997D01*
G37*
G36*
X86033500Y-104952000D02*
X83133500Y-104952000D01*
X83133500Y-103452000D01*
X86033500Y-103452000D01*
X86033500Y-104952000D01*
X86033500Y-104952000D01*
G37*
G36*
X70633500Y-104952000D02*
X67733500Y-104952000D01*
X67733500Y-103452000D01*
X70633500Y-103452000D01*
X70633500Y-104952000D01*
X70633500Y-104952000D01*
G37*
G36*
X88430497Y-103521997D02*
X88483153Y-103537970D01*
X88531665Y-103563900D01*
X88574196Y-103598804D01*
X88609100Y-103641335D01*
X88635030Y-103689847D01*
X88651003Y-103742503D01*
X88657000Y-103803390D01*
X88657000Y-104603610D01*
X88651003Y-104664497D01*
X88635030Y-104717153D01*
X88609100Y-104765665D01*
X88574196Y-104808196D01*
X88531665Y-104843100D01*
X88483153Y-104869030D01*
X88430497Y-104885003D01*
X88369610Y-104891000D01*
X87144390Y-104891000D01*
X87083503Y-104885003D01*
X87030847Y-104869030D01*
X86982335Y-104843100D01*
X86939804Y-104808196D01*
X86904900Y-104765665D01*
X86878970Y-104717153D01*
X86862997Y-104664497D01*
X86857000Y-104603610D01*
X86857000Y-103803390D01*
X86862997Y-103742503D01*
X86878970Y-103689847D01*
X86904900Y-103641335D01*
X86939804Y-103598804D01*
X86982335Y-103563900D01*
X87030847Y-103537970D01*
X87083503Y-103521997D01*
X87144390Y-103516000D01*
X88369610Y-103516000D01*
X88430497Y-103521997D01*
X88430497Y-103521997D01*
G37*
G36*
X86033500Y-102952000D02*
X83133500Y-102952000D01*
X83133500Y-101452000D01*
X86033500Y-101452000D01*
X86033500Y-102952000D01*
X86033500Y-102952000D01*
G37*
G36*
X70633500Y-102952000D02*
X67733500Y-102952000D01*
X67733500Y-101452000D01*
X70633500Y-101452000D01*
X70633500Y-102952000D01*
X70633500Y-102952000D01*
G37*
G36*
X88366997Y-101459997D02*
X88419653Y-101475970D01*
X88468165Y-101501900D01*
X88510696Y-101536804D01*
X88545600Y-101579335D01*
X88571530Y-101627847D01*
X88587503Y-101680503D01*
X88593500Y-101741390D01*
X88593500Y-102541610D01*
X88587503Y-102602497D01*
X88571530Y-102655153D01*
X88545600Y-102703665D01*
X88510696Y-102746196D01*
X88468165Y-102781100D01*
X88419653Y-102807030D01*
X88366997Y-102823003D01*
X88306110Y-102829000D01*
X87080890Y-102829000D01*
X87020003Y-102823003D01*
X86967347Y-102807030D01*
X86918835Y-102781100D01*
X86876304Y-102746196D01*
X86841400Y-102703665D01*
X86815470Y-102655153D01*
X86799497Y-102602497D01*
X86793500Y-102541610D01*
X86793500Y-101741390D01*
X86799497Y-101680503D01*
X86815470Y-101627847D01*
X86841400Y-101579335D01*
X86876304Y-101536804D01*
X86918835Y-101501900D01*
X86967347Y-101475970D01*
X87020003Y-101459997D01*
X87080890Y-101454000D01*
X88306110Y-101454000D01*
X88366997Y-101459997D01*
X88366997Y-101459997D01*
G37*
G36*
X151044947Y-99443722D02*
X151308833Y-99553027D01*
X151546324Y-99711713D01*
X151748287Y-99913676D01*
X151906973Y-100151167D01*
X152016278Y-100415053D01*
X152072000Y-100695186D01*
X152072000Y-100980814D01*
X152016278Y-101260947D01*
X151906973Y-101524833D01*
X151748287Y-101762324D01*
X151546324Y-101964287D01*
X151308833Y-102122973D01*
X151044947Y-102232278D01*
X150764814Y-102288000D01*
X150479186Y-102288000D01*
X150199053Y-102232278D01*
X149935167Y-102122973D01*
X149697676Y-101964287D01*
X149495713Y-101762324D01*
X149337027Y-101524833D01*
X149227722Y-101260947D01*
X149172000Y-100980814D01*
X149172000Y-100695186D01*
X149227722Y-100415053D01*
X149337027Y-100151167D01*
X149495713Y-99913676D01*
X149697676Y-99711713D01*
X149935167Y-99553027D01*
X150199053Y-99443722D01*
X150479186Y-99388000D01*
X150764814Y-99388000D01*
X151044947Y-99443722D01*
X151044947Y-99443722D01*
G37*
G36*
X206522994Y-99531092D02*
X206681888Y-99596908D01*
X206824889Y-99692459D01*
X206946501Y-99814071D01*
X207042052Y-99957072D01*
X207107868Y-100115966D01*
X207141420Y-100284647D01*
X207141420Y-100456633D01*
X207107868Y-100625314D01*
X207042052Y-100784208D01*
X206946501Y-100927209D01*
X206824889Y-101048821D01*
X206681888Y-101144372D01*
X206522994Y-101210188D01*
X206354313Y-101243740D01*
X206182327Y-101243740D01*
X206013646Y-101210188D01*
X205854752Y-101144372D01*
X205711751Y-101048821D01*
X205590139Y-100927209D01*
X205494588Y-100784208D01*
X205428772Y-100625314D01*
X205395220Y-100456633D01*
X205395220Y-100284647D01*
X205428772Y-100115966D01*
X205494588Y-99957072D01*
X205590139Y-99814071D01*
X205711751Y-99692459D01*
X205854752Y-99596908D01*
X206013646Y-99531092D01*
X206182327Y-99497540D01*
X206354313Y-99497540D01*
X206522994Y-99531092D01*
X206522994Y-99531092D01*
G37*
G36*
X188107994Y-99531092D02*
X188266888Y-99596908D01*
X188409889Y-99692459D01*
X188531501Y-99814071D01*
X188627052Y-99957072D01*
X188692868Y-100115966D01*
X188726420Y-100284647D01*
X188726420Y-100456633D01*
X188692868Y-100625314D01*
X188627052Y-100784208D01*
X188531501Y-100927209D01*
X188409889Y-101048821D01*
X188266888Y-101144372D01*
X188107994Y-101210188D01*
X187939313Y-101243740D01*
X187767327Y-101243740D01*
X187598646Y-101210188D01*
X187439752Y-101144372D01*
X187296751Y-101048821D01*
X187175139Y-100927209D01*
X187079588Y-100784208D01*
X187013772Y-100625314D01*
X186980220Y-100456633D01*
X186980220Y-100284647D01*
X187013772Y-100115966D01*
X187079588Y-99957072D01*
X187175139Y-99814071D01*
X187296751Y-99692459D01*
X187439752Y-99596908D01*
X187598646Y-99531092D01*
X187767327Y-99497540D01*
X187939313Y-99497540D01*
X188107994Y-99531092D01*
X188107994Y-99531092D01*
G37*
G36*
X116352994Y-99531092D02*
X116511888Y-99596908D01*
X116654889Y-99692459D01*
X116776501Y-99814071D01*
X116872052Y-99957072D01*
X116937868Y-100115966D01*
X116971420Y-100284647D01*
X116971420Y-100456633D01*
X116937868Y-100625314D01*
X116872052Y-100784208D01*
X116776501Y-100927209D01*
X116654889Y-101048821D01*
X116511888Y-101144372D01*
X116352994Y-101210188D01*
X116184313Y-101243740D01*
X116012327Y-101243740D01*
X115843646Y-101210188D01*
X115684752Y-101144372D01*
X115541751Y-101048821D01*
X115420139Y-100927209D01*
X115324588Y-100784208D01*
X115258772Y-100625314D01*
X115225220Y-100456633D01*
X115225220Y-100284647D01*
X115258772Y-100115966D01*
X115324588Y-99957072D01*
X115420139Y-99814071D01*
X115541751Y-99692459D01*
X115684752Y-99596908D01*
X115843646Y-99531092D01*
X116012327Y-99497540D01*
X116184313Y-99497540D01*
X116352994Y-99531092D01*
X116352994Y-99531092D01*
G37*
G36*
X113391354Y-99531092D02*
X113550248Y-99596908D01*
X113693249Y-99692459D01*
X113814861Y-99814071D01*
X113910412Y-99957072D01*
X113976228Y-100115966D01*
X114009780Y-100284647D01*
X114009780Y-100456633D01*
X113976228Y-100625314D01*
X113910412Y-100784208D01*
X113814861Y-100927209D01*
X113693249Y-101048821D01*
X113550248Y-101144372D01*
X113391354Y-101210188D01*
X113222673Y-101243740D01*
X113050687Y-101243740D01*
X112882006Y-101210188D01*
X112723112Y-101144372D01*
X112580111Y-101048821D01*
X112458499Y-100927209D01*
X112362948Y-100784208D01*
X112297132Y-100625314D01*
X112263580Y-100456633D01*
X112263580Y-100284647D01*
X112297132Y-100115966D01*
X112362948Y-99957072D01*
X112458499Y-99814071D01*
X112580111Y-99692459D01*
X112723112Y-99596908D01*
X112882006Y-99531092D01*
X113050687Y-99497540D01*
X113222673Y-99497540D01*
X113391354Y-99531092D01*
X113391354Y-99531092D01*
G37*
G36*
X140061354Y-99531092D02*
X140220248Y-99596908D01*
X140363249Y-99692459D01*
X140484861Y-99814071D01*
X140580412Y-99957072D01*
X140646228Y-100115966D01*
X140679780Y-100284647D01*
X140679780Y-100456633D01*
X140646228Y-100625314D01*
X140580412Y-100784208D01*
X140484861Y-100927209D01*
X140363249Y-101048821D01*
X140220248Y-101144372D01*
X140061354Y-101210188D01*
X139892673Y-101243740D01*
X139720687Y-101243740D01*
X139552006Y-101210188D01*
X139393112Y-101144372D01*
X139250111Y-101048821D01*
X139128499Y-100927209D01*
X139032948Y-100784208D01*
X138967132Y-100625314D01*
X138933580Y-100456633D01*
X138933580Y-100284647D01*
X138967132Y-100115966D01*
X139032948Y-99957072D01*
X139128499Y-99814071D01*
X139250111Y-99692459D01*
X139393112Y-99596908D01*
X139552006Y-99531092D01*
X139720687Y-99497540D01*
X139892673Y-99497540D01*
X140061354Y-99531092D01*
X140061354Y-99531092D01*
G37*
G36*
X143022994Y-99531092D02*
X143181888Y-99596908D01*
X143324889Y-99692459D01*
X143446501Y-99814071D01*
X143542052Y-99957072D01*
X143607868Y-100115966D01*
X143641420Y-100284647D01*
X143641420Y-100456633D01*
X143607868Y-100625314D01*
X143542052Y-100784208D01*
X143446501Y-100927209D01*
X143324889Y-101048821D01*
X143181888Y-101144372D01*
X143022994Y-101210188D01*
X142854313Y-101243740D01*
X142682327Y-101243740D01*
X142513646Y-101210188D01*
X142354752Y-101144372D01*
X142211751Y-101048821D01*
X142090139Y-100927209D01*
X141994588Y-100784208D01*
X141928772Y-100625314D01*
X141895220Y-100456633D01*
X141895220Y-100284647D01*
X141928772Y-100115966D01*
X141994588Y-99957072D01*
X142090139Y-99814071D01*
X142211751Y-99692459D01*
X142354752Y-99596908D01*
X142513646Y-99531092D01*
X142682327Y-99497540D01*
X142854313Y-99497540D01*
X143022994Y-99531092D01*
X143022994Y-99531092D01*
G37*
G36*
X97937994Y-99531092D02*
X98096888Y-99596908D01*
X98239889Y-99692459D01*
X98361501Y-99814071D01*
X98457052Y-99957072D01*
X98522868Y-100115966D01*
X98556420Y-100284647D01*
X98556420Y-100456633D01*
X98522868Y-100625314D01*
X98457052Y-100784208D01*
X98361501Y-100927209D01*
X98239889Y-101048821D01*
X98096888Y-101144372D01*
X97937994Y-101210188D01*
X97769313Y-101243740D01*
X97597327Y-101243740D01*
X97428646Y-101210188D01*
X97269752Y-101144372D01*
X97126751Y-101048821D01*
X97005139Y-100927209D01*
X96909588Y-100784208D01*
X96843772Y-100625314D01*
X96810220Y-100456633D01*
X96810220Y-100284647D01*
X96843772Y-100115966D01*
X96909588Y-99957072D01*
X97005139Y-99814071D01*
X97126751Y-99692459D01*
X97269752Y-99596908D01*
X97428646Y-99531092D01*
X97597327Y-99497540D01*
X97769313Y-99497540D01*
X97937994Y-99531092D01*
X97937994Y-99531092D01*
G37*
G36*
X94976354Y-99531092D02*
X95135248Y-99596908D01*
X95278249Y-99692459D01*
X95399861Y-99814071D01*
X95495412Y-99957072D01*
X95561228Y-100115966D01*
X95594780Y-100284647D01*
X95594780Y-100456633D01*
X95561228Y-100625314D01*
X95495412Y-100784208D01*
X95399861Y-100927209D01*
X95278249Y-101048821D01*
X95135248Y-101144372D01*
X94976354Y-101210188D01*
X94807673Y-101243740D01*
X94635687Y-101243740D01*
X94467006Y-101210188D01*
X94308112Y-101144372D01*
X94165111Y-101048821D01*
X94043499Y-100927209D01*
X93947948Y-100784208D01*
X93882132Y-100625314D01*
X93848580Y-100456633D01*
X93848580Y-100284647D01*
X93882132Y-100115966D01*
X93947948Y-99957072D01*
X94043499Y-99814071D01*
X94165111Y-99692459D01*
X94308112Y-99596908D01*
X94467006Y-99531092D01*
X94635687Y-99497540D01*
X94807673Y-99497540D01*
X94976354Y-99531092D01*
X94976354Y-99531092D01*
G37*
G36*
X158476354Y-99531092D02*
X158635248Y-99596908D01*
X158778249Y-99692459D01*
X158899861Y-99814071D01*
X158995412Y-99957072D01*
X159061228Y-100115966D01*
X159094780Y-100284647D01*
X159094780Y-100456633D01*
X159061228Y-100625314D01*
X158995412Y-100784208D01*
X158899861Y-100927209D01*
X158778249Y-101048821D01*
X158635248Y-101144372D01*
X158476354Y-101210188D01*
X158307673Y-101243740D01*
X158135687Y-101243740D01*
X157967006Y-101210188D01*
X157808112Y-101144372D01*
X157665111Y-101048821D01*
X157543499Y-100927209D01*
X157447948Y-100784208D01*
X157382132Y-100625314D01*
X157348580Y-100456633D01*
X157348580Y-100284647D01*
X157382132Y-100115966D01*
X157447948Y-99957072D01*
X157543499Y-99814071D01*
X157665111Y-99692459D01*
X157808112Y-99596908D01*
X157967006Y-99531092D01*
X158135687Y-99497540D01*
X158307673Y-99497540D01*
X158476354Y-99531092D01*
X158476354Y-99531092D01*
G37*
G36*
X161437994Y-99531092D02*
X161596888Y-99596908D01*
X161739889Y-99692459D01*
X161861501Y-99814071D01*
X161957052Y-99957072D01*
X162022868Y-100115966D01*
X162056420Y-100284647D01*
X162056420Y-100456633D01*
X162022868Y-100625314D01*
X161957052Y-100784208D01*
X161861501Y-100927209D01*
X161739889Y-101048821D01*
X161596888Y-101144372D01*
X161437994Y-101210188D01*
X161269313Y-101243740D01*
X161097327Y-101243740D01*
X160928646Y-101210188D01*
X160769752Y-101144372D01*
X160626751Y-101048821D01*
X160505139Y-100927209D01*
X160409588Y-100784208D01*
X160343772Y-100625314D01*
X160310220Y-100456633D01*
X160310220Y-100284647D01*
X160343772Y-100115966D01*
X160409588Y-99957072D01*
X160505139Y-99814071D01*
X160626751Y-99692459D01*
X160769752Y-99596908D01*
X160928646Y-99531092D01*
X161097327Y-99497540D01*
X161269313Y-99497540D01*
X161437994Y-99531092D01*
X161437994Y-99531092D01*
G37*
G36*
X185146354Y-99531092D02*
X185305248Y-99596908D01*
X185448249Y-99692459D01*
X185569861Y-99814071D01*
X185665412Y-99957072D01*
X185731228Y-100115966D01*
X185764780Y-100284647D01*
X185764780Y-100456633D01*
X185731228Y-100625314D01*
X185665412Y-100784208D01*
X185569861Y-100927209D01*
X185448249Y-101048821D01*
X185305248Y-101144372D01*
X185146354Y-101210188D01*
X184977673Y-101243740D01*
X184805687Y-101243740D01*
X184637006Y-101210188D01*
X184478112Y-101144372D01*
X184335111Y-101048821D01*
X184213499Y-100927209D01*
X184117948Y-100784208D01*
X184052132Y-100625314D01*
X184018580Y-100456633D01*
X184018580Y-100284647D01*
X184052132Y-100115966D01*
X184117948Y-99957072D01*
X184213499Y-99814071D01*
X184335111Y-99692459D01*
X184478112Y-99596908D01*
X184637006Y-99531092D01*
X184805687Y-99497540D01*
X184977673Y-99497540D01*
X185146354Y-99531092D01*
X185146354Y-99531092D01*
G37*
G36*
X203561354Y-99531092D02*
X203720248Y-99596908D01*
X203863249Y-99692459D01*
X203984861Y-99814071D01*
X204080412Y-99957072D01*
X204146228Y-100115966D01*
X204179780Y-100284647D01*
X204179780Y-100456633D01*
X204146228Y-100625314D01*
X204080412Y-100784208D01*
X203984861Y-100927209D01*
X203863249Y-101048821D01*
X203720248Y-101144372D01*
X203561354Y-101210188D01*
X203392673Y-101243740D01*
X203220687Y-101243740D01*
X203052006Y-101210188D01*
X202893112Y-101144372D01*
X202750111Y-101048821D01*
X202628499Y-100927209D01*
X202532948Y-100784208D01*
X202467132Y-100625314D01*
X202433580Y-100456633D01*
X202433580Y-100284647D01*
X202467132Y-100115966D01*
X202532948Y-99957072D01*
X202628499Y-99814071D01*
X202750111Y-99692459D01*
X202893112Y-99596908D01*
X203052006Y-99531092D01*
X203220687Y-99497540D01*
X203392673Y-99497540D01*
X203561354Y-99531092D01*
X203561354Y-99531092D01*
G37*
G36*
X88366997Y-99584997D02*
X88419653Y-99600970D01*
X88468165Y-99626900D01*
X88510696Y-99661804D01*
X88545600Y-99704335D01*
X88571530Y-99752847D01*
X88587503Y-99805503D01*
X88593500Y-99866390D01*
X88593500Y-100666610D01*
X88587503Y-100727497D01*
X88571530Y-100780153D01*
X88545600Y-100828665D01*
X88510696Y-100871196D01*
X88468165Y-100906100D01*
X88419653Y-100932030D01*
X88366997Y-100948003D01*
X88306110Y-100954000D01*
X87080890Y-100954000D01*
X87020003Y-100948003D01*
X86967347Y-100932030D01*
X86918835Y-100906100D01*
X86876304Y-100871196D01*
X86841400Y-100828665D01*
X86815470Y-100780153D01*
X86799497Y-100727497D01*
X86793500Y-100666610D01*
X86793500Y-99866390D01*
X86799497Y-99805503D01*
X86815470Y-99752847D01*
X86841400Y-99704335D01*
X86876304Y-99661804D01*
X86918835Y-99626900D01*
X86967347Y-99600970D01*
X87020003Y-99584997D01*
X87080890Y-99579000D01*
X88306110Y-99579000D01*
X88366997Y-99584997D01*
X88366997Y-99584997D01*
G37*
G36*
X70633500Y-100952000D02*
X67733500Y-100952000D01*
X67733500Y-99452000D01*
X70633500Y-99452000D01*
X70633500Y-100952000D01*
X70633500Y-100952000D01*
G37*
G36*
X86033500Y-100952000D02*
X83133500Y-100952000D01*
X83133500Y-99452000D01*
X86033500Y-99452000D01*
X86033500Y-100952000D01*
X86033500Y-100952000D01*
G37*
G36*
X118976814Y-98154412D02*
X119135708Y-98220228D01*
X119278709Y-98315779D01*
X119400321Y-98437391D01*
X119495872Y-98580392D01*
X119561688Y-98739286D01*
X119595240Y-98907967D01*
X119595240Y-99079953D01*
X119561688Y-99248634D01*
X119495872Y-99407528D01*
X119400321Y-99550529D01*
X119278709Y-99672141D01*
X119135708Y-99767692D01*
X118976814Y-99833508D01*
X118808133Y-99867060D01*
X118636147Y-99867060D01*
X118467466Y-99833508D01*
X118308572Y-99767692D01*
X118165571Y-99672141D01*
X118043959Y-99550529D01*
X117948408Y-99407528D01*
X117882592Y-99248634D01*
X117849040Y-99079953D01*
X117849040Y-98907967D01*
X117882592Y-98739286D01*
X117948408Y-98580392D01*
X118043959Y-98437391D01*
X118165571Y-98315779D01*
X118308572Y-98220228D01*
X118467466Y-98154412D01*
X118636147Y-98120860D01*
X118808133Y-98120860D01*
X118976814Y-98154412D01*
X118976814Y-98154412D01*
G37*
G36*
X182522534Y-98154412D02*
X182681428Y-98220228D01*
X182824429Y-98315779D01*
X182946041Y-98437391D01*
X183041592Y-98580392D01*
X183107408Y-98739286D01*
X183140960Y-98907967D01*
X183140960Y-99079953D01*
X183107408Y-99248634D01*
X183041592Y-99407528D01*
X182946041Y-99550529D01*
X182824429Y-99672141D01*
X182681428Y-99767692D01*
X182522534Y-99833508D01*
X182353853Y-99867060D01*
X182181867Y-99867060D01*
X182013186Y-99833508D01*
X181854292Y-99767692D01*
X181711291Y-99672141D01*
X181589679Y-99550529D01*
X181494128Y-99407528D01*
X181428312Y-99248634D01*
X181394760Y-99079953D01*
X181394760Y-98907967D01*
X181428312Y-98739286D01*
X181494128Y-98580392D01*
X181589679Y-98437391D01*
X181711291Y-98315779D01*
X181854292Y-98220228D01*
X182013186Y-98154412D01*
X182181867Y-98120860D01*
X182353853Y-98120860D01*
X182522534Y-98154412D01*
X182522534Y-98154412D01*
G37*
G36*
X209146814Y-98154412D02*
X209305708Y-98220228D01*
X209448709Y-98315779D01*
X209570321Y-98437391D01*
X209665872Y-98580392D01*
X209731688Y-98739286D01*
X209765240Y-98907967D01*
X209765240Y-99079953D01*
X209731688Y-99248634D01*
X209665872Y-99407528D01*
X209570321Y-99550529D01*
X209448709Y-99672141D01*
X209305708Y-99767692D01*
X209146814Y-99833508D01*
X208978133Y-99867060D01*
X208806147Y-99867060D01*
X208637466Y-99833508D01*
X208478572Y-99767692D01*
X208335571Y-99672141D01*
X208213959Y-99550529D01*
X208118408Y-99407528D01*
X208052592Y-99248634D01*
X208019040Y-99079953D01*
X208019040Y-98907967D01*
X208052592Y-98739286D01*
X208118408Y-98580392D01*
X208213959Y-98437391D01*
X208335571Y-98315779D01*
X208478572Y-98220228D01*
X208637466Y-98154412D01*
X208806147Y-98120860D01*
X208978133Y-98120860D01*
X209146814Y-98154412D01*
X209146814Y-98154412D01*
G37*
G36*
X137437534Y-98154412D02*
X137596428Y-98220228D01*
X137739429Y-98315779D01*
X137861041Y-98437391D01*
X137956592Y-98580392D01*
X138022408Y-98739286D01*
X138055960Y-98907967D01*
X138055960Y-99079953D01*
X138022408Y-99248634D01*
X137956592Y-99407528D01*
X137861041Y-99550529D01*
X137739429Y-99672141D01*
X137596428Y-99767692D01*
X137437534Y-99833508D01*
X137268853Y-99867060D01*
X137096867Y-99867060D01*
X136928186Y-99833508D01*
X136769292Y-99767692D01*
X136626291Y-99672141D01*
X136504679Y-99550529D01*
X136409128Y-99407528D01*
X136343312Y-99248634D01*
X136309760Y-99079953D01*
X136309760Y-98907967D01*
X136343312Y-98739286D01*
X136409128Y-98580392D01*
X136504679Y-98437391D01*
X136626291Y-98315779D01*
X136769292Y-98220228D01*
X136928186Y-98154412D01*
X137096867Y-98120860D01*
X137268853Y-98120860D01*
X137437534Y-98154412D01*
X137437534Y-98154412D01*
G37*
G36*
X190731814Y-98154412D02*
X190890708Y-98220228D01*
X191033709Y-98315779D01*
X191155321Y-98437391D01*
X191250872Y-98580392D01*
X191316688Y-98739286D01*
X191350240Y-98907967D01*
X191350240Y-99079953D01*
X191316688Y-99248634D01*
X191250872Y-99407528D01*
X191155321Y-99550529D01*
X191033709Y-99672141D01*
X190890708Y-99767692D01*
X190731814Y-99833508D01*
X190563133Y-99867060D01*
X190391147Y-99867060D01*
X190222466Y-99833508D01*
X190063572Y-99767692D01*
X189920571Y-99672141D01*
X189798959Y-99550529D01*
X189703408Y-99407528D01*
X189637592Y-99248634D01*
X189604040Y-99079953D01*
X189604040Y-98907967D01*
X189637592Y-98739286D01*
X189703408Y-98580392D01*
X189798959Y-98437391D01*
X189920571Y-98315779D01*
X190063572Y-98220228D01*
X190222466Y-98154412D01*
X190391147Y-98120860D01*
X190563133Y-98120860D01*
X190731814Y-98154412D01*
X190731814Y-98154412D01*
G37*
G36*
X110767534Y-98154412D02*
X110926428Y-98220228D01*
X111069429Y-98315779D01*
X111191041Y-98437391D01*
X111286592Y-98580392D01*
X111352408Y-98739286D01*
X111385960Y-98907967D01*
X111385960Y-99079953D01*
X111352408Y-99248634D01*
X111286592Y-99407528D01*
X111191041Y-99550529D01*
X111069429Y-99672141D01*
X110926428Y-99767692D01*
X110767534Y-99833508D01*
X110598853Y-99867060D01*
X110426867Y-99867060D01*
X110258186Y-99833508D01*
X110099292Y-99767692D01*
X109956291Y-99672141D01*
X109834679Y-99550529D01*
X109739128Y-99407528D01*
X109673312Y-99248634D01*
X109639760Y-99079953D01*
X109639760Y-98907967D01*
X109673312Y-98739286D01*
X109739128Y-98580392D01*
X109834679Y-98437391D01*
X109956291Y-98315779D01*
X110099292Y-98220228D01*
X110258186Y-98154412D01*
X110426867Y-98120860D01*
X110598853Y-98120860D01*
X110767534Y-98154412D01*
X110767534Y-98154412D01*
G37*
G36*
X145646814Y-98154412D02*
X145805708Y-98220228D01*
X145948709Y-98315779D01*
X146070321Y-98437391D01*
X146165872Y-98580392D01*
X146231688Y-98739286D01*
X146265240Y-98907967D01*
X146265240Y-99079953D01*
X146231688Y-99248634D01*
X146165872Y-99407528D01*
X146070321Y-99550529D01*
X145948709Y-99672141D01*
X145805708Y-99767692D01*
X145646814Y-99833508D01*
X145478133Y-99867060D01*
X145306147Y-99867060D01*
X145137466Y-99833508D01*
X144978572Y-99767692D01*
X144835571Y-99672141D01*
X144713959Y-99550529D01*
X144618408Y-99407528D01*
X144552592Y-99248634D01*
X144519040Y-99079953D01*
X144519040Y-98907967D01*
X144552592Y-98739286D01*
X144618408Y-98580392D01*
X144713959Y-98437391D01*
X144835571Y-98315779D01*
X144978572Y-98220228D01*
X145137466Y-98154412D01*
X145306147Y-98120860D01*
X145478133Y-98120860D01*
X145646814Y-98154412D01*
X145646814Y-98154412D01*
G37*
G36*
X164061814Y-98154412D02*
X164220708Y-98220228D01*
X164363709Y-98315779D01*
X164485321Y-98437391D01*
X164580872Y-98580392D01*
X164646688Y-98739286D01*
X164680240Y-98907967D01*
X164680240Y-99079953D01*
X164646688Y-99248634D01*
X164580872Y-99407528D01*
X164485321Y-99550529D01*
X164363709Y-99672141D01*
X164220708Y-99767692D01*
X164061814Y-99833508D01*
X163893133Y-99867060D01*
X163721147Y-99867060D01*
X163552466Y-99833508D01*
X163393572Y-99767692D01*
X163250571Y-99672141D01*
X163128959Y-99550529D01*
X163033408Y-99407528D01*
X162967592Y-99248634D01*
X162934040Y-99079953D01*
X162934040Y-98907967D01*
X162967592Y-98739286D01*
X163033408Y-98580392D01*
X163128959Y-98437391D01*
X163250571Y-98315779D01*
X163393572Y-98220228D01*
X163552466Y-98154412D01*
X163721147Y-98120860D01*
X163893133Y-98120860D01*
X164061814Y-98154412D01*
X164061814Y-98154412D01*
G37*
G36*
X200937534Y-98154412D02*
X201096428Y-98220228D01*
X201239429Y-98315779D01*
X201361041Y-98437391D01*
X201456592Y-98580392D01*
X201522408Y-98739286D01*
X201555960Y-98907967D01*
X201555960Y-99079953D01*
X201522408Y-99248634D01*
X201456592Y-99407528D01*
X201361041Y-99550529D01*
X201239429Y-99672141D01*
X201096428Y-99767692D01*
X200937534Y-99833508D01*
X200768853Y-99867060D01*
X200596867Y-99867060D01*
X200428186Y-99833508D01*
X200269292Y-99767692D01*
X200126291Y-99672141D01*
X200004679Y-99550529D01*
X199909128Y-99407528D01*
X199843312Y-99248634D01*
X199809760Y-99079953D01*
X199809760Y-98907967D01*
X199843312Y-98739286D01*
X199909128Y-98580392D01*
X200004679Y-98437391D01*
X200126291Y-98315779D01*
X200269292Y-98220228D01*
X200428186Y-98154412D01*
X200596867Y-98120860D01*
X200768853Y-98120860D01*
X200937534Y-98154412D01*
X200937534Y-98154412D01*
G37*
G36*
X92352534Y-98154412D02*
X92511428Y-98220228D01*
X92654429Y-98315779D01*
X92776041Y-98437391D01*
X92871592Y-98580392D01*
X92937408Y-98739286D01*
X92970960Y-98907967D01*
X92970960Y-99079953D01*
X92937408Y-99248634D01*
X92871592Y-99407528D01*
X92776041Y-99550529D01*
X92654429Y-99672141D01*
X92511428Y-99767692D01*
X92352534Y-99833508D01*
X92183853Y-99867060D01*
X92011867Y-99867060D01*
X91843186Y-99833508D01*
X91684292Y-99767692D01*
X91541291Y-99672141D01*
X91419679Y-99550529D01*
X91324128Y-99407528D01*
X91258312Y-99248634D01*
X91224760Y-99079953D01*
X91224760Y-98907967D01*
X91258312Y-98739286D01*
X91324128Y-98580392D01*
X91419679Y-98437391D01*
X91541291Y-98315779D01*
X91684292Y-98220228D01*
X91843186Y-98154412D01*
X92011867Y-98120860D01*
X92183853Y-98120860D01*
X92352534Y-98154412D01*
X92352534Y-98154412D01*
G37*
G36*
X100561814Y-98154412D02*
X100720708Y-98220228D01*
X100863709Y-98315779D01*
X100985321Y-98437391D01*
X101080872Y-98580392D01*
X101146688Y-98739286D01*
X101180240Y-98907967D01*
X101180240Y-99079953D01*
X101146688Y-99248634D01*
X101080872Y-99407528D01*
X100985321Y-99550529D01*
X100863709Y-99672141D01*
X100720708Y-99767692D01*
X100561814Y-99833508D01*
X100393133Y-99867060D01*
X100221147Y-99867060D01*
X100052466Y-99833508D01*
X99893572Y-99767692D01*
X99750571Y-99672141D01*
X99628959Y-99550529D01*
X99533408Y-99407528D01*
X99467592Y-99248634D01*
X99434040Y-99079953D01*
X99434040Y-98907967D01*
X99467592Y-98739286D01*
X99533408Y-98580392D01*
X99628959Y-98437391D01*
X99750571Y-98315779D01*
X99893572Y-98220228D01*
X100052466Y-98154412D01*
X100221147Y-98120860D01*
X100393133Y-98120860D01*
X100561814Y-98154412D01*
X100561814Y-98154412D01*
G37*
G36*
X155852534Y-98154412D02*
X156011428Y-98220228D01*
X156154429Y-98315779D01*
X156276041Y-98437391D01*
X156371592Y-98580392D01*
X156437408Y-98739286D01*
X156470960Y-98907967D01*
X156470960Y-99079953D01*
X156437408Y-99248634D01*
X156371592Y-99407528D01*
X156276041Y-99550529D01*
X156154429Y-99672141D01*
X156011428Y-99767692D01*
X155852534Y-99833508D01*
X155683853Y-99867060D01*
X155511867Y-99867060D01*
X155343186Y-99833508D01*
X155184292Y-99767692D01*
X155041291Y-99672141D01*
X154919679Y-99550529D01*
X154824128Y-99407528D01*
X154758312Y-99248634D01*
X154724760Y-99079953D01*
X154724760Y-98907967D01*
X154758312Y-98739286D01*
X154824128Y-98580392D01*
X154919679Y-98437391D01*
X155041291Y-98315779D01*
X155184292Y-98220228D01*
X155343186Y-98154412D01*
X155511867Y-98120860D01*
X155683853Y-98120860D01*
X155852534Y-98154412D01*
X155852534Y-98154412D01*
G37*
G36*
X86033500Y-98952000D02*
X83133500Y-98952000D01*
X83133500Y-97452000D01*
X86033500Y-97452000D01*
X86033500Y-98952000D01*
X86033500Y-98952000D01*
G37*
G36*
X70633500Y-98952000D02*
X67733500Y-98952000D01*
X67733500Y-97452000D01*
X70633500Y-97452000D01*
X70633500Y-98952000D01*
X70633500Y-98952000D01*
G37*
G36*
X210828294Y-95716012D02*
X210987188Y-95781828D01*
X211130189Y-95877379D01*
X211251801Y-95998991D01*
X211347352Y-96141992D01*
X211413168Y-96300886D01*
X211446720Y-96469567D01*
X211446720Y-96641553D01*
X211413168Y-96810234D01*
X211347352Y-96969128D01*
X211251801Y-97112129D01*
X211130189Y-97233741D01*
X210987188Y-97329292D01*
X210828294Y-97395108D01*
X210659613Y-97428660D01*
X210487627Y-97428660D01*
X210318946Y-97395108D01*
X210160052Y-97329292D01*
X210017051Y-97233741D01*
X209895439Y-97112129D01*
X209799888Y-96969128D01*
X209734072Y-96810234D01*
X209700520Y-96641553D01*
X209700520Y-96469567D01*
X209734072Y-96300886D01*
X209799888Y-96141992D01*
X209895439Y-95998991D01*
X210017051Y-95877379D01*
X210160052Y-95781828D01*
X210318946Y-95716012D01*
X210487627Y-95682460D01*
X210659613Y-95682460D01*
X210828294Y-95716012D01*
X210828294Y-95716012D01*
G37*
G36*
X199256054Y-95716012D02*
X199414948Y-95781828D01*
X199557949Y-95877379D01*
X199679561Y-95998991D01*
X199775112Y-96141992D01*
X199840928Y-96300886D01*
X199874480Y-96469567D01*
X199874480Y-96641553D01*
X199840928Y-96810234D01*
X199775112Y-96969128D01*
X199679561Y-97112129D01*
X199557949Y-97233741D01*
X199414948Y-97329292D01*
X199256054Y-97395108D01*
X199087373Y-97428660D01*
X198915387Y-97428660D01*
X198746706Y-97395108D01*
X198587812Y-97329292D01*
X198444811Y-97233741D01*
X198323199Y-97112129D01*
X198227648Y-96969128D01*
X198161832Y-96810234D01*
X198128280Y-96641553D01*
X198128280Y-96469567D01*
X198161832Y-96300886D01*
X198227648Y-96141992D01*
X198323199Y-95998991D01*
X198444811Y-95877379D01*
X198587812Y-95781828D01*
X198746706Y-95716012D01*
X198915387Y-95682460D01*
X199087373Y-95682460D01*
X199256054Y-95716012D01*
X199256054Y-95716012D01*
G37*
G36*
X180841054Y-95716012D02*
X180999948Y-95781828D01*
X181142949Y-95877379D01*
X181264561Y-95998991D01*
X181360112Y-96141992D01*
X181425928Y-96300886D01*
X181459480Y-96469567D01*
X181459480Y-96641553D01*
X181425928Y-96810234D01*
X181360112Y-96969128D01*
X181264561Y-97112129D01*
X181142949Y-97233741D01*
X180999948Y-97329292D01*
X180841054Y-97395108D01*
X180672373Y-97428660D01*
X180500387Y-97428660D01*
X180331706Y-97395108D01*
X180172812Y-97329292D01*
X180029811Y-97233741D01*
X179908199Y-97112129D01*
X179812648Y-96969128D01*
X179746832Y-96810234D01*
X179713280Y-96641553D01*
X179713280Y-96469567D01*
X179746832Y-96300886D01*
X179812648Y-96141992D01*
X179908199Y-95998991D01*
X180029811Y-95877379D01*
X180172812Y-95781828D01*
X180331706Y-95716012D01*
X180500387Y-95682460D01*
X180672373Y-95682460D01*
X180841054Y-95716012D01*
X180841054Y-95716012D01*
G37*
G36*
X165743294Y-95716012D02*
X165902188Y-95781828D01*
X166045189Y-95877379D01*
X166166801Y-95998991D01*
X166262352Y-96141992D01*
X166328168Y-96300886D01*
X166361720Y-96469567D01*
X166361720Y-96641553D01*
X166328168Y-96810234D01*
X166262352Y-96969128D01*
X166166801Y-97112129D01*
X166045189Y-97233741D01*
X165902188Y-97329292D01*
X165743294Y-97395108D01*
X165574613Y-97428660D01*
X165402627Y-97428660D01*
X165233946Y-97395108D01*
X165075052Y-97329292D01*
X164932051Y-97233741D01*
X164810439Y-97112129D01*
X164714888Y-96969128D01*
X164649072Y-96810234D01*
X164615520Y-96641553D01*
X164615520Y-96469567D01*
X164649072Y-96300886D01*
X164714888Y-96141992D01*
X164810439Y-95998991D01*
X164932051Y-95877379D01*
X165075052Y-95781828D01*
X165233946Y-95716012D01*
X165402627Y-95682460D01*
X165574613Y-95682460D01*
X165743294Y-95716012D01*
X165743294Y-95716012D01*
G37*
G36*
X102243294Y-95716012D02*
X102402188Y-95781828D01*
X102545189Y-95877379D01*
X102666801Y-95998991D01*
X102762352Y-96141992D01*
X102828168Y-96300886D01*
X102861720Y-96469567D01*
X102861720Y-96641553D01*
X102828168Y-96810234D01*
X102762352Y-96969128D01*
X102666801Y-97112129D01*
X102545189Y-97233741D01*
X102402188Y-97329292D01*
X102243294Y-97395108D01*
X102074613Y-97428660D01*
X101902627Y-97428660D01*
X101733946Y-97395108D01*
X101575052Y-97329292D01*
X101432051Y-97233741D01*
X101310439Y-97112129D01*
X101214888Y-96969128D01*
X101149072Y-96810234D01*
X101115520Y-96641553D01*
X101115520Y-96469567D01*
X101149072Y-96300886D01*
X101214888Y-96141992D01*
X101310439Y-95998991D01*
X101432051Y-95877379D01*
X101575052Y-95781828D01*
X101733946Y-95716012D01*
X101902627Y-95682460D01*
X102074613Y-95682460D01*
X102243294Y-95716012D01*
X102243294Y-95716012D01*
G37*
G36*
X135756054Y-95716012D02*
X135914948Y-95781828D01*
X136057949Y-95877379D01*
X136179561Y-95998991D01*
X136275112Y-96141992D01*
X136340928Y-96300886D01*
X136374480Y-96469567D01*
X136374480Y-96641553D01*
X136340928Y-96810234D01*
X136275112Y-96969128D01*
X136179561Y-97112129D01*
X136057949Y-97233741D01*
X135914948Y-97329292D01*
X135756054Y-97395108D01*
X135587373Y-97428660D01*
X135415387Y-97428660D01*
X135246706Y-97395108D01*
X135087812Y-97329292D01*
X134944811Y-97233741D01*
X134823199Y-97112129D01*
X134727648Y-96969128D01*
X134661832Y-96810234D01*
X134628280Y-96641553D01*
X134628280Y-96469567D01*
X134661832Y-96300886D01*
X134727648Y-96141992D01*
X134823199Y-95998991D01*
X134944811Y-95877379D01*
X135087812Y-95781828D01*
X135246706Y-95716012D01*
X135415387Y-95682460D01*
X135587373Y-95682460D01*
X135756054Y-95716012D01*
X135756054Y-95716012D01*
G37*
G36*
X120658294Y-95716012D02*
X120817188Y-95781828D01*
X120960189Y-95877379D01*
X121081801Y-95998991D01*
X121177352Y-96141992D01*
X121243168Y-96300886D01*
X121276720Y-96469567D01*
X121276720Y-96641553D01*
X121243168Y-96810234D01*
X121177352Y-96969128D01*
X121081801Y-97112129D01*
X120960189Y-97233741D01*
X120817188Y-97329292D01*
X120658294Y-97395108D01*
X120489613Y-97428660D01*
X120317627Y-97428660D01*
X120148946Y-97395108D01*
X119990052Y-97329292D01*
X119847051Y-97233741D01*
X119725439Y-97112129D01*
X119629888Y-96969128D01*
X119564072Y-96810234D01*
X119530520Y-96641553D01*
X119530520Y-96469567D01*
X119564072Y-96300886D01*
X119629888Y-96141992D01*
X119725439Y-95998991D01*
X119847051Y-95877379D01*
X119990052Y-95781828D01*
X120148946Y-95716012D01*
X120317627Y-95682460D01*
X120489613Y-95682460D01*
X120658294Y-95716012D01*
X120658294Y-95716012D01*
G37*
G36*
X90671054Y-95716012D02*
X90829948Y-95781828D01*
X90972949Y-95877379D01*
X91094561Y-95998991D01*
X91190112Y-96141992D01*
X91255928Y-96300886D01*
X91289480Y-96469567D01*
X91289480Y-96641553D01*
X91255928Y-96810234D01*
X91190112Y-96969128D01*
X91094561Y-97112129D01*
X90972949Y-97233741D01*
X90829948Y-97329292D01*
X90671054Y-97395108D01*
X90502373Y-97428660D01*
X90330387Y-97428660D01*
X90161706Y-97395108D01*
X90002812Y-97329292D01*
X89859811Y-97233741D01*
X89738199Y-97112129D01*
X89642648Y-96969128D01*
X89576832Y-96810234D01*
X89543280Y-96641553D01*
X89543280Y-96469567D01*
X89576832Y-96300886D01*
X89642648Y-96141992D01*
X89738199Y-95998991D01*
X89859811Y-95877379D01*
X90002812Y-95781828D01*
X90161706Y-95716012D01*
X90330387Y-95682460D01*
X90502373Y-95682460D01*
X90671054Y-95716012D01*
X90671054Y-95716012D01*
G37*
G36*
X147328294Y-95716012D02*
X147487188Y-95781828D01*
X147630189Y-95877379D01*
X147751801Y-95998991D01*
X147847352Y-96141992D01*
X147913168Y-96300886D01*
X147946720Y-96469567D01*
X147946720Y-96641553D01*
X147913168Y-96810234D01*
X147847352Y-96969128D01*
X147751801Y-97112129D01*
X147630189Y-97233741D01*
X147487188Y-97329292D01*
X147328294Y-97395108D01*
X147159613Y-97428660D01*
X146987627Y-97428660D01*
X146818946Y-97395108D01*
X146660052Y-97329292D01*
X146517051Y-97233741D01*
X146395439Y-97112129D01*
X146299888Y-96969128D01*
X146234072Y-96810234D01*
X146200520Y-96641553D01*
X146200520Y-96469567D01*
X146234072Y-96300886D01*
X146299888Y-96141992D01*
X146395439Y-95998991D01*
X146517051Y-95877379D01*
X146660052Y-95781828D01*
X146818946Y-95716012D01*
X146987627Y-95682460D01*
X147159613Y-95682460D01*
X147328294Y-95716012D01*
X147328294Y-95716012D01*
G37*
G36*
X192413294Y-95716012D02*
X192572188Y-95781828D01*
X192715189Y-95877379D01*
X192836801Y-95998991D01*
X192932352Y-96141992D01*
X192998168Y-96300886D01*
X193031720Y-96469567D01*
X193031720Y-96641553D01*
X192998168Y-96810234D01*
X192932352Y-96969128D01*
X192836801Y-97112129D01*
X192715189Y-97233741D01*
X192572188Y-97329292D01*
X192413294Y-97395108D01*
X192244613Y-97428660D01*
X192072627Y-97428660D01*
X191903946Y-97395108D01*
X191745052Y-97329292D01*
X191602051Y-97233741D01*
X191480439Y-97112129D01*
X191384888Y-96969128D01*
X191319072Y-96810234D01*
X191285520Y-96641553D01*
X191285520Y-96469567D01*
X191319072Y-96300886D01*
X191384888Y-96141992D01*
X191480439Y-95998991D01*
X191602051Y-95877379D01*
X191745052Y-95781828D01*
X191903946Y-95716012D01*
X192072627Y-95682460D01*
X192244613Y-95682460D01*
X192413294Y-95716012D01*
X192413294Y-95716012D01*
G37*
G36*
X154171054Y-95716012D02*
X154329948Y-95781828D01*
X154472949Y-95877379D01*
X154594561Y-95998991D01*
X154690112Y-96141992D01*
X154755928Y-96300886D01*
X154789480Y-96469567D01*
X154789480Y-96641553D01*
X154755928Y-96810234D01*
X154690112Y-96969128D01*
X154594561Y-97112129D01*
X154472949Y-97233741D01*
X154329948Y-97329292D01*
X154171054Y-97395108D01*
X154002373Y-97428660D01*
X153830387Y-97428660D01*
X153661706Y-97395108D01*
X153502812Y-97329292D01*
X153359811Y-97233741D01*
X153238199Y-97112129D01*
X153142648Y-96969128D01*
X153076832Y-96810234D01*
X153043280Y-96641553D01*
X153043280Y-96469567D01*
X153076832Y-96300886D01*
X153142648Y-96141992D01*
X153238199Y-95998991D01*
X153359811Y-95877379D01*
X153502812Y-95781828D01*
X153661706Y-95716012D01*
X153830387Y-95682460D01*
X154002373Y-95682460D01*
X154171054Y-95716012D01*
X154171054Y-95716012D01*
G37*
G36*
X109086054Y-95716012D02*
X109244948Y-95781828D01*
X109387949Y-95877379D01*
X109509561Y-95998991D01*
X109605112Y-96141992D01*
X109670928Y-96300886D01*
X109704480Y-96469567D01*
X109704480Y-96641553D01*
X109670928Y-96810234D01*
X109605112Y-96969128D01*
X109509561Y-97112129D01*
X109387949Y-97233741D01*
X109244948Y-97329292D01*
X109086054Y-97395108D01*
X108917373Y-97428660D01*
X108745387Y-97428660D01*
X108576706Y-97395108D01*
X108417812Y-97329292D01*
X108274811Y-97233741D01*
X108153199Y-97112129D01*
X108057648Y-96969128D01*
X107991832Y-96810234D01*
X107958280Y-96641553D01*
X107958280Y-96469567D01*
X107991832Y-96300886D01*
X108057648Y-96141992D01*
X108153199Y-95998991D01*
X108274811Y-95877379D01*
X108417812Y-95781828D01*
X108576706Y-95716012D01*
X108745387Y-95682460D01*
X108917373Y-95682460D01*
X109086054Y-95716012D01*
X109086054Y-95716012D01*
G37*
G36*
X70633500Y-96952000D02*
X67733500Y-96952000D01*
X67733500Y-95452000D01*
X70633500Y-95452000D01*
X70633500Y-96952000D01*
X70633500Y-96952000D01*
G37*
G36*
X86033500Y-96952000D02*
X83133500Y-96952000D01*
X83133500Y-95452000D01*
X86033500Y-95452000D01*
X86033500Y-96952000D01*
X86033500Y-96952000D01*
G37*
G36*
X86033500Y-94952000D02*
X83133500Y-94952000D01*
X83133500Y-93452000D01*
X86033500Y-93452000D01*
X86033500Y-94952000D01*
X86033500Y-94952000D01*
G37*
G36*
X70633500Y-94952000D02*
X67733500Y-94952000D01*
X67733500Y-93452000D01*
X70633500Y-93452000D01*
X70633500Y-94952000D01*
X70633500Y-94952000D01*
G37*
G36*
X153812914Y-92777232D02*
X153971808Y-92843048D01*
X154114809Y-92938599D01*
X154236421Y-93060211D01*
X154331972Y-93203212D01*
X154397788Y-93362106D01*
X154431340Y-93530787D01*
X154431340Y-93702773D01*
X154397788Y-93871454D01*
X154331972Y-94030348D01*
X154236421Y-94173349D01*
X154114809Y-94294961D01*
X153971808Y-94390512D01*
X153812914Y-94456328D01*
X153644233Y-94489880D01*
X153472247Y-94489880D01*
X153303566Y-94456328D01*
X153144672Y-94390512D01*
X153001671Y-94294961D01*
X152880059Y-94173349D01*
X152784508Y-94030348D01*
X152718692Y-93871454D01*
X152685140Y-93702773D01*
X152685140Y-93530787D01*
X152718692Y-93362106D01*
X152784508Y-93203212D01*
X152880059Y-93060211D01*
X153001671Y-92938599D01*
X153144672Y-92843048D01*
X153303566Y-92777232D01*
X153472247Y-92743680D01*
X153644233Y-92743680D01*
X153812914Y-92777232D01*
X153812914Y-92777232D01*
G37*
G36*
X211186434Y-92777232D02*
X211345328Y-92843048D01*
X211488329Y-92938599D01*
X211609941Y-93060211D01*
X211705492Y-93203212D01*
X211771308Y-93362106D01*
X211804860Y-93530787D01*
X211804860Y-93702773D01*
X211771308Y-93871454D01*
X211705492Y-94030348D01*
X211609941Y-94173349D01*
X211488329Y-94294961D01*
X211345328Y-94390512D01*
X211186434Y-94456328D01*
X211017753Y-94489880D01*
X210845767Y-94489880D01*
X210677086Y-94456328D01*
X210518192Y-94390512D01*
X210375191Y-94294961D01*
X210253579Y-94173349D01*
X210158028Y-94030348D01*
X210092212Y-93871454D01*
X210058660Y-93702773D01*
X210058660Y-93530787D01*
X210092212Y-93362106D01*
X210158028Y-93203212D01*
X210253579Y-93060211D01*
X210375191Y-92938599D01*
X210518192Y-92843048D01*
X210677086Y-92777232D01*
X210845767Y-92743680D01*
X211017753Y-92743680D01*
X211186434Y-92777232D01*
X211186434Y-92777232D01*
G37*
G36*
X198897914Y-92777232D02*
X199056808Y-92843048D01*
X199199809Y-92938599D01*
X199321421Y-93060211D01*
X199416972Y-93203212D01*
X199482788Y-93362106D01*
X199516340Y-93530787D01*
X199516340Y-93702773D01*
X199482788Y-93871454D01*
X199416972Y-94030348D01*
X199321421Y-94173349D01*
X199199809Y-94294961D01*
X199056808Y-94390512D01*
X198897914Y-94456328D01*
X198729233Y-94489880D01*
X198557247Y-94489880D01*
X198388566Y-94456328D01*
X198229672Y-94390512D01*
X198086671Y-94294961D01*
X197965059Y-94173349D01*
X197869508Y-94030348D01*
X197803692Y-93871454D01*
X197770140Y-93702773D01*
X197770140Y-93530787D01*
X197803692Y-93362106D01*
X197869508Y-93203212D01*
X197965059Y-93060211D01*
X198086671Y-92938599D01*
X198229672Y-92843048D01*
X198388566Y-92777232D01*
X198557247Y-92743680D01*
X198729233Y-92743680D01*
X198897914Y-92777232D01*
X198897914Y-92777232D01*
G37*
G36*
X180482914Y-92777232D02*
X180641808Y-92843048D01*
X180784809Y-92938599D01*
X180906421Y-93060211D01*
X181001972Y-93203212D01*
X181067788Y-93362106D01*
X181101340Y-93530787D01*
X181101340Y-93702773D01*
X181067788Y-93871454D01*
X181001972Y-94030348D01*
X180906421Y-94173349D01*
X180784809Y-94294961D01*
X180641808Y-94390512D01*
X180482914Y-94456328D01*
X180314233Y-94489880D01*
X180142247Y-94489880D01*
X179973566Y-94456328D01*
X179814672Y-94390512D01*
X179671671Y-94294961D01*
X179550059Y-94173349D01*
X179454508Y-94030348D01*
X179388692Y-93871454D01*
X179355140Y-93702773D01*
X179355140Y-93530787D01*
X179388692Y-93362106D01*
X179454508Y-93203212D01*
X179550059Y-93060211D01*
X179671671Y-92938599D01*
X179814672Y-92843048D01*
X179973566Y-92777232D01*
X180142247Y-92743680D01*
X180314233Y-92743680D01*
X180482914Y-92777232D01*
X180482914Y-92777232D01*
G37*
G36*
X90312914Y-92777232D02*
X90471808Y-92843048D01*
X90614809Y-92938599D01*
X90736421Y-93060211D01*
X90831972Y-93203212D01*
X90897788Y-93362106D01*
X90931340Y-93530787D01*
X90931340Y-93702773D01*
X90897788Y-93871454D01*
X90831972Y-94030348D01*
X90736421Y-94173349D01*
X90614809Y-94294961D01*
X90471808Y-94390512D01*
X90312914Y-94456328D01*
X90144233Y-94489880D01*
X89972247Y-94489880D01*
X89803566Y-94456328D01*
X89644672Y-94390512D01*
X89501671Y-94294961D01*
X89380059Y-94173349D01*
X89284508Y-94030348D01*
X89218692Y-93871454D01*
X89185140Y-93702773D01*
X89185140Y-93530787D01*
X89218692Y-93362106D01*
X89284508Y-93203212D01*
X89380059Y-93060211D01*
X89501671Y-92938599D01*
X89644672Y-92843048D01*
X89803566Y-92777232D01*
X89972247Y-92743680D01*
X90144233Y-92743680D01*
X90312914Y-92777232D01*
X90312914Y-92777232D01*
G37*
G36*
X147686434Y-92777232D02*
X147845328Y-92843048D01*
X147988329Y-92938599D01*
X148109941Y-93060211D01*
X148205492Y-93203212D01*
X148271308Y-93362106D01*
X148304860Y-93530787D01*
X148304860Y-93702773D01*
X148271308Y-93871454D01*
X148205492Y-94030348D01*
X148109941Y-94173349D01*
X147988329Y-94294961D01*
X147845328Y-94390512D01*
X147686434Y-94456328D01*
X147517753Y-94489880D01*
X147345767Y-94489880D01*
X147177086Y-94456328D01*
X147018192Y-94390512D01*
X146875191Y-94294961D01*
X146753579Y-94173349D01*
X146658028Y-94030348D01*
X146592212Y-93871454D01*
X146558660Y-93702773D01*
X146558660Y-93530787D01*
X146592212Y-93362106D01*
X146658028Y-93203212D01*
X146753579Y-93060211D01*
X146875191Y-92938599D01*
X147018192Y-92843048D01*
X147177086Y-92777232D01*
X147345767Y-92743680D01*
X147517753Y-92743680D01*
X147686434Y-92777232D01*
X147686434Y-92777232D01*
G37*
G36*
X192771434Y-92777232D02*
X192930328Y-92843048D01*
X193073329Y-92938599D01*
X193194941Y-93060211D01*
X193290492Y-93203212D01*
X193356308Y-93362106D01*
X193389860Y-93530787D01*
X193389860Y-93702773D01*
X193356308Y-93871454D01*
X193290492Y-94030348D01*
X193194941Y-94173349D01*
X193073329Y-94294961D01*
X192930328Y-94390512D01*
X192771434Y-94456328D01*
X192602753Y-94489880D01*
X192430767Y-94489880D01*
X192262086Y-94456328D01*
X192103192Y-94390512D01*
X191960191Y-94294961D01*
X191838579Y-94173349D01*
X191743028Y-94030348D01*
X191677212Y-93871454D01*
X191643660Y-93702773D01*
X191643660Y-93530787D01*
X191677212Y-93362106D01*
X191743028Y-93203212D01*
X191838579Y-93060211D01*
X191960191Y-92938599D01*
X192103192Y-92843048D01*
X192262086Y-92777232D01*
X192430767Y-92743680D01*
X192602753Y-92743680D01*
X192771434Y-92777232D01*
X192771434Y-92777232D01*
G37*
G36*
X102601434Y-92777232D02*
X102760328Y-92843048D01*
X102903329Y-92938599D01*
X103024941Y-93060211D01*
X103120492Y-93203212D01*
X103186308Y-93362106D01*
X103219860Y-93530787D01*
X103219860Y-93702773D01*
X103186308Y-93871454D01*
X103120492Y-94030348D01*
X103024941Y-94173349D01*
X102903329Y-94294961D01*
X102760328Y-94390512D01*
X102601434Y-94456328D01*
X102432753Y-94489880D01*
X102260767Y-94489880D01*
X102092086Y-94456328D01*
X101933192Y-94390512D01*
X101790191Y-94294961D01*
X101668579Y-94173349D01*
X101573028Y-94030348D01*
X101507212Y-93871454D01*
X101473660Y-93702773D01*
X101473660Y-93530787D01*
X101507212Y-93362106D01*
X101573028Y-93203212D01*
X101668579Y-93060211D01*
X101790191Y-92938599D01*
X101933192Y-92843048D01*
X102092086Y-92777232D01*
X102260767Y-92743680D01*
X102432753Y-92743680D01*
X102601434Y-92777232D01*
X102601434Y-92777232D01*
G37*
G36*
X135397914Y-92777232D02*
X135556808Y-92843048D01*
X135699809Y-92938599D01*
X135821421Y-93060211D01*
X135916972Y-93203212D01*
X135982788Y-93362106D01*
X136016340Y-93530787D01*
X136016340Y-93702773D01*
X135982788Y-93871454D01*
X135916972Y-94030348D01*
X135821421Y-94173349D01*
X135699809Y-94294961D01*
X135556808Y-94390512D01*
X135397914Y-94456328D01*
X135229233Y-94489880D01*
X135057247Y-94489880D01*
X134888566Y-94456328D01*
X134729672Y-94390512D01*
X134586671Y-94294961D01*
X134465059Y-94173349D01*
X134369508Y-94030348D01*
X134303692Y-93871454D01*
X134270140Y-93702773D01*
X134270140Y-93530787D01*
X134303692Y-93362106D01*
X134369508Y-93203212D01*
X134465059Y-93060211D01*
X134586671Y-92938599D01*
X134729672Y-92843048D01*
X134888566Y-92777232D01*
X135057247Y-92743680D01*
X135229233Y-92743680D01*
X135397914Y-92777232D01*
X135397914Y-92777232D01*
G37*
G36*
X108727914Y-92777232D02*
X108886808Y-92843048D01*
X109029809Y-92938599D01*
X109151421Y-93060211D01*
X109246972Y-93203212D01*
X109312788Y-93362106D01*
X109346340Y-93530787D01*
X109346340Y-93702773D01*
X109312788Y-93871454D01*
X109246972Y-94030348D01*
X109151421Y-94173349D01*
X109029809Y-94294961D01*
X108886808Y-94390512D01*
X108727914Y-94456328D01*
X108559233Y-94489880D01*
X108387247Y-94489880D01*
X108218566Y-94456328D01*
X108059672Y-94390512D01*
X107916671Y-94294961D01*
X107795059Y-94173349D01*
X107699508Y-94030348D01*
X107633692Y-93871454D01*
X107600140Y-93702773D01*
X107600140Y-93530787D01*
X107633692Y-93362106D01*
X107699508Y-93203212D01*
X107795059Y-93060211D01*
X107916671Y-92938599D01*
X108059672Y-92843048D01*
X108218566Y-92777232D01*
X108387247Y-92743680D01*
X108559233Y-92743680D01*
X108727914Y-92777232D01*
X108727914Y-92777232D01*
G37*
G36*
X166101434Y-92777232D02*
X166260328Y-92843048D01*
X166403329Y-92938599D01*
X166524941Y-93060211D01*
X166620492Y-93203212D01*
X166686308Y-93362106D01*
X166719860Y-93530787D01*
X166719860Y-93702773D01*
X166686308Y-93871454D01*
X166620492Y-94030348D01*
X166524941Y-94173349D01*
X166403329Y-94294961D01*
X166260328Y-94390512D01*
X166101434Y-94456328D01*
X165932753Y-94489880D01*
X165760767Y-94489880D01*
X165592086Y-94456328D01*
X165433192Y-94390512D01*
X165290191Y-94294961D01*
X165168579Y-94173349D01*
X165073028Y-94030348D01*
X165007212Y-93871454D01*
X164973660Y-93702773D01*
X164973660Y-93530787D01*
X165007212Y-93362106D01*
X165073028Y-93203212D01*
X165168579Y-93060211D01*
X165290191Y-92938599D01*
X165433192Y-92843048D01*
X165592086Y-92777232D01*
X165760767Y-92743680D01*
X165932753Y-92743680D01*
X166101434Y-92777232D01*
X166101434Y-92777232D01*
G37*
G36*
X121016434Y-92777232D02*
X121175328Y-92843048D01*
X121318329Y-92938599D01*
X121439941Y-93060211D01*
X121535492Y-93203212D01*
X121601308Y-93362106D01*
X121634860Y-93530787D01*
X121634860Y-93702773D01*
X121601308Y-93871454D01*
X121535492Y-94030348D01*
X121439941Y-94173349D01*
X121318329Y-94294961D01*
X121175328Y-94390512D01*
X121016434Y-94456328D01*
X120847753Y-94489880D01*
X120675767Y-94489880D01*
X120507086Y-94456328D01*
X120348192Y-94390512D01*
X120205191Y-94294961D01*
X120083579Y-94173349D01*
X119988028Y-94030348D01*
X119922212Y-93871454D01*
X119888660Y-93702773D01*
X119888660Y-93530787D01*
X119922212Y-93362106D01*
X119988028Y-93203212D01*
X120083579Y-93060211D01*
X120205191Y-92938599D01*
X120348192Y-92843048D01*
X120507086Y-92777232D01*
X120675767Y-92743680D01*
X120847753Y-92743680D01*
X121016434Y-92777232D01*
X121016434Y-92777232D01*
G37*
G36*
X215306947Y-90553722D02*
X215570833Y-90663027D01*
X215808324Y-90821713D01*
X216010287Y-91023676D01*
X216168973Y-91261167D01*
X216278278Y-91525053D01*
X216334000Y-91805186D01*
X216334000Y-92090814D01*
X216278278Y-92370947D01*
X216168973Y-92634833D01*
X216010287Y-92872324D01*
X215808324Y-93074287D01*
X215570833Y-93232973D01*
X215306947Y-93342278D01*
X215026814Y-93398000D01*
X214741186Y-93398000D01*
X214461053Y-93342278D01*
X214197167Y-93232973D01*
X213959676Y-93074287D01*
X213757713Y-92872324D01*
X213599027Y-92634833D01*
X213489722Y-92370947D01*
X213434000Y-92090814D01*
X213434000Y-91805186D01*
X213489722Y-91525053D01*
X213599027Y-91261167D01*
X213757713Y-91023676D01*
X213959676Y-90821713D01*
X214197167Y-90663027D01*
X214461053Y-90553722D01*
X214741186Y-90498000D01*
X215026814Y-90498000D01*
X215306947Y-90553722D01*
X215306947Y-90553722D01*
G37*
G36*
X86033500Y-92952000D02*
X83133500Y-92952000D01*
X83133500Y-91452000D01*
X86033500Y-91452000D01*
X86033500Y-92952000D01*
X86033500Y-92952000D01*
G37*
G36*
X70633500Y-92952000D02*
X67733500Y-92952000D01*
X67733500Y-91452000D01*
X70633500Y-91452000D01*
X70633500Y-92952000D01*
X70633500Y-92952000D01*
G37*
G36*
X88112997Y-91553997D02*
X88165653Y-91569970D01*
X88214165Y-91595900D01*
X88256696Y-91630804D01*
X88291600Y-91673335D01*
X88317530Y-91721847D01*
X88333503Y-91774503D01*
X88339500Y-91835390D01*
X88339500Y-92635610D01*
X88333503Y-92696497D01*
X88317530Y-92749153D01*
X88291600Y-92797665D01*
X88256696Y-92840196D01*
X88214165Y-92875100D01*
X88165653Y-92901030D01*
X88112997Y-92917003D01*
X88052110Y-92923000D01*
X86826890Y-92923000D01*
X86766003Y-92917003D01*
X86713347Y-92901030D01*
X86664835Y-92875100D01*
X86622304Y-92840196D01*
X86587400Y-92797665D01*
X86561470Y-92749153D01*
X86545497Y-92696497D01*
X86539500Y-92635610D01*
X86539500Y-91835390D01*
X86545497Y-91774503D01*
X86561470Y-91721847D01*
X86587400Y-91673335D01*
X86622304Y-91630804D01*
X86664835Y-91595900D01*
X86713347Y-91569970D01*
X86766003Y-91553997D01*
X86826890Y-91548000D01*
X88052110Y-91548000D01*
X88112997Y-91553997D01*
X88112997Y-91553997D01*
G37*
G36*
X146634874Y-90006092D02*
X146793768Y-90071908D01*
X146936769Y-90167459D01*
X147058381Y-90289071D01*
X147153932Y-90432072D01*
X147219748Y-90590966D01*
X147253300Y-90759647D01*
X147253300Y-90931633D01*
X147219748Y-91100314D01*
X147153932Y-91259208D01*
X147058381Y-91402209D01*
X146936769Y-91523821D01*
X146793768Y-91619372D01*
X146634874Y-91685188D01*
X146466193Y-91718740D01*
X146294207Y-91718740D01*
X146125526Y-91685188D01*
X145966632Y-91619372D01*
X145823631Y-91523821D01*
X145702019Y-91402209D01*
X145606468Y-91259208D01*
X145540652Y-91100314D01*
X145507100Y-90931633D01*
X145507100Y-90759647D01*
X145540652Y-90590966D01*
X145606468Y-90432072D01*
X145702019Y-90289071D01*
X145823631Y-90167459D01*
X145966632Y-90071908D01*
X146125526Y-90006092D01*
X146294207Y-89972540D01*
X146466193Y-89972540D01*
X146634874Y-90006092D01*
X146634874Y-90006092D01*
G37*
G36*
X119964874Y-90006092D02*
X120123768Y-90071908D01*
X120266769Y-90167459D01*
X120388381Y-90289071D01*
X120483932Y-90432072D01*
X120549748Y-90590966D01*
X120583300Y-90759647D01*
X120583300Y-90931633D01*
X120549748Y-91100314D01*
X120483932Y-91259208D01*
X120388381Y-91402209D01*
X120266769Y-91523821D01*
X120123768Y-91619372D01*
X119964874Y-91685188D01*
X119796193Y-91718740D01*
X119624207Y-91718740D01*
X119455526Y-91685188D01*
X119296632Y-91619372D01*
X119153631Y-91523821D01*
X119032019Y-91402209D01*
X118936468Y-91259208D01*
X118870652Y-91100314D01*
X118837100Y-90931633D01*
X118837100Y-90759647D01*
X118870652Y-90590966D01*
X118936468Y-90432072D01*
X119032019Y-90289071D01*
X119153631Y-90167459D01*
X119296632Y-90071908D01*
X119455526Y-90006092D01*
X119624207Y-89972540D01*
X119796193Y-89972540D01*
X119964874Y-90006092D01*
X119964874Y-90006092D01*
G37*
G36*
X199949474Y-90006092D02*
X200108368Y-90071908D01*
X200251369Y-90167459D01*
X200372981Y-90289071D01*
X200468532Y-90432072D01*
X200534348Y-90590966D01*
X200567900Y-90759647D01*
X200567900Y-90931633D01*
X200534348Y-91100314D01*
X200468532Y-91259208D01*
X200372981Y-91402209D01*
X200251369Y-91523821D01*
X200108368Y-91619372D01*
X199949474Y-91685188D01*
X199780793Y-91718740D01*
X199608807Y-91718740D01*
X199440126Y-91685188D01*
X199281232Y-91619372D01*
X199138231Y-91523821D01*
X199016619Y-91402209D01*
X198921068Y-91259208D01*
X198855252Y-91100314D01*
X198821700Y-90931633D01*
X198821700Y-90759647D01*
X198855252Y-90590966D01*
X198921068Y-90432072D01*
X199016619Y-90289071D01*
X199138231Y-90167459D01*
X199281232Y-90071908D01*
X199440126Y-90006092D01*
X199608807Y-89972540D01*
X199780793Y-89972540D01*
X199949474Y-90006092D01*
X199949474Y-90006092D01*
G37*
G36*
X165049874Y-90006092D02*
X165208768Y-90071908D01*
X165351769Y-90167459D01*
X165473381Y-90289071D01*
X165568932Y-90432072D01*
X165634748Y-90590966D01*
X165668300Y-90759647D01*
X165668300Y-90931633D01*
X165634748Y-91100314D01*
X165568932Y-91259208D01*
X165473381Y-91402209D01*
X165351769Y-91523821D01*
X165208768Y-91619372D01*
X165049874Y-91685188D01*
X164881193Y-91718740D01*
X164709207Y-91718740D01*
X164540526Y-91685188D01*
X164381632Y-91619372D01*
X164238631Y-91523821D01*
X164117019Y-91402209D01*
X164021468Y-91259208D01*
X163955652Y-91100314D01*
X163922100Y-90931633D01*
X163922100Y-90759647D01*
X163955652Y-90590966D01*
X164021468Y-90432072D01*
X164117019Y-90289071D01*
X164238631Y-90167459D01*
X164381632Y-90071908D01*
X164540526Y-90006092D01*
X164709207Y-89972540D01*
X164881193Y-89972540D01*
X165049874Y-90006092D01*
X165049874Y-90006092D01*
G37*
G36*
X154864474Y-90006092D02*
X155023368Y-90071908D01*
X155166369Y-90167459D01*
X155287981Y-90289071D01*
X155383532Y-90432072D01*
X155449348Y-90590966D01*
X155482900Y-90759647D01*
X155482900Y-90931633D01*
X155449348Y-91100314D01*
X155383532Y-91259208D01*
X155287981Y-91402209D01*
X155166369Y-91523821D01*
X155023368Y-91619372D01*
X154864474Y-91685188D01*
X154695793Y-91718740D01*
X154523807Y-91718740D01*
X154355126Y-91685188D01*
X154196232Y-91619372D01*
X154053231Y-91523821D01*
X153931619Y-91402209D01*
X153836068Y-91259208D01*
X153770252Y-91100314D01*
X153736700Y-90931633D01*
X153736700Y-90759647D01*
X153770252Y-90590966D01*
X153836068Y-90432072D01*
X153931619Y-90289071D01*
X154053231Y-90167459D01*
X154196232Y-90071908D01*
X154355126Y-90006092D01*
X154523807Y-89972540D01*
X154695793Y-89972540D01*
X154864474Y-90006092D01*
X154864474Y-90006092D01*
G37*
G36*
X136449474Y-90006092D02*
X136608368Y-90071908D01*
X136751369Y-90167459D01*
X136872981Y-90289071D01*
X136968532Y-90432072D01*
X137034348Y-90590966D01*
X137067900Y-90759647D01*
X137067900Y-90931633D01*
X137034348Y-91100314D01*
X136968532Y-91259208D01*
X136872981Y-91402209D01*
X136751369Y-91523821D01*
X136608368Y-91619372D01*
X136449474Y-91685188D01*
X136280793Y-91718740D01*
X136108807Y-91718740D01*
X135940126Y-91685188D01*
X135781232Y-91619372D01*
X135638231Y-91523821D01*
X135516619Y-91402209D01*
X135421068Y-91259208D01*
X135355252Y-91100314D01*
X135321700Y-90931633D01*
X135321700Y-90759647D01*
X135355252Y-90590966D01*
X135421068Y-90432072D01*
X135516619Y-90289071D01*
X135638231Y-90167459D01*
X135781232Y-90071908D01*
X135940126Y-90006092D01*
X136108807Y-89972540D01*
X136280793Y-89972540D01*
X136449474Y-90006092D01*
X136449474Y-90006092D01*
G37*
G36*
X101549874Y-90006092D02*
X101708768Y-90071908D01*
X101851769Y-90167459D01*
X101973381Y-90289071D01*
X102068932Y-90432072D01*
X102134748Y-90590966D01*
X102168300Y-90759647D01*
X102168300Y-90931633D01*
X102134748Y-91100314D01*
X102068932Y-91259208D01*
X101973381Y-91402209D01*
X101851769Y-91523821D01*
X101708768Y-91619372D01*
X101549874Y-91685188D01*
X101381193Y-91718740D01*
X101209207Y-91718740D01*
X101040526Y-91685188D01*
X100881632Y-91619372D01*
X100738631Y-91523821D01*
X100617019Y-91402209D01*
X100521468Y-91259208D01*
X100455652Y-91100314D01*
X100422100Y-90931633D01*
X100422100Y-90759647D01*
X100455652Y-90590966D01*
X100521468Y-90432072D01*
X100617019Y-90289071D01*
X100738631Y-90167459D01*
X100881632Y-90071908D01*
X101040526Y-90006092D01*
X101209207Y-89972540D01*
X101381193Y-89972540D01*
X101549874Y-90006092D01*
X101549874Y-90006092D01*
G37*
G36*
X91364474Y-90006092D02*
X91523368Y-90071908D01*
X91666369Y-90167459D01*
X91787981Y-90289071D01*
X91883532Y-90432072D01*
X91949348Y-90590966D01*
X91982900Y-90759647D01*
X91982900Y-90931633D01*
X91949348Y-91100314D01*
X91883532Y-91259208D01*
X91787981Y-91402209D01*
X91666369Y-91523821D01*
X91523368Y-91619372D01*
X91364474Y-91685188D01*
X91195793Y-91718740D01*
X91023807Y-91718740D01*
X90855126Y-91685188D01*
X90696232Y-91619372D01*
X90553231Y-91523821D01*
X90431619Y-91402209D01*
X90336068Y-91259208D01*
X90270252Y-91100314D01*
X90236700Y-90931633D01*
X90236700Y-90759647D01*
X90270252Y-90590966D01*
X90336068Y-90432072D01*
X90431619Y-90289071D01*
X90553231Y-90167459D01*
X90696232Y-90071908D01*
X90855126Y-90006092D01*
X91023807Y-89972540D01*
X91195793Y-89972540D01*
X91364474Y-90006092D01*
X91364474Y-90006092D01*
G37*
G36*
X191719874Y-90006092D02*
X191878768Y-90071908D01*
X192021769Y-90167459D01*
X192143381Y-90289071D01*
X192238932Y-90432072D01*
X192304748Y-90590966D01*
X192338300Y-90759647D01*
X192338300Y-90931633D01*
X192304748Y-91100314D01*
X192238932Y-91259208D01*
X192143381Y-91402209D01*
X192021769Y-91523821D01*
X191878768Y-91619372D01*
X191719874Y-91685188D01*
X191551193Y-91718740D01*
X191379207Y-91718740D01*
X191210526Y-91685188D01*
X191051632Y-91619372D01*
X190908631Y-91523821D01*
X190787019Y-91402209D01*
X190691468Y-91259208D01*
X190625652Y-91100314D01*
X190592100Y-90931633D01*
X190592100Y-90759647D01*
X190625652Y-90590966D01*
X190691468Y-90432072D01*
X190787019Y-90289071D01*
X190908631Y-90167459D01*
X191051632Y-90071908D01*
X191210526Y-90006092D01*
X191379207Y-89972540D01*
X191551193Y-89972540D01*
X191719874Y-90006092D01*
X191719874Y-90006092D01*
G37*
G36*
X210134874Y-90006092D02*
X210293768Y-90071908D01*
X210436769Y-90167459D01*
X210558381Y-90289071D01*
X210653932Y-90432072D01*
X210719748Y-90590966D01*
X210753300Y-90759647D01*
X210753300Y-90931633D01*
X210719748Y-91100314D01*
X210653932Y-91259208D01*
X210558381Y-91402209D01*
X210436769Y-91523821D01*
X210293768Y-91619372D01*
X210134874Y-91685188D01*
X209966193Y-91718740D01*
X209794207Y-91718740D01*
X209625526Y-91685188D01*
X209466632Y-91619372D01*
X209323631Y-91523821D01*
X209202019Y-91402209D01*
X209106468Y-91259208D01*
X209040652Y-91100314D01*
X209007100Y-90931633D01*
X209007100Y-90759647D01*
X209040652Y-90590966D01*
X209106468Y-90432072D01*
X209202019Y-90289071D01*
X209323631Y-90167459D01*
X209466632Y-90071908D01*
X209625526Y-90006092D01*
X209794207Y-89972540D01*
X209966193Y-89972540D01*
X210134874Y-90006092D01*
X210134874Y-90006092D01*
G37*
G36*
X181534474Y-90006092D02*
X181693368Y-90071908D01*
X181836369Y-90167459D01*
X181957981Y-90289071D01*
X182053532Y-90432072D01*
X182119348Y-90590966D01*
X182152900Y-90759647D01*
X182152900Y-90931633D01*
X182119348Y-91100314D01*
X182053532Y-91259208D01*
X181957981Y-91402209D01*
X181836369Y-91523821D01*
X181693368Y-91619372D01*
X181534474Y-91685188D01*
X181365793Y-91718740D01*
X181193807Y-91718740D01*
X181025126Y-91685188D01*
X180866232Y-91619372D01*
X180723231Y-91523821D01*
X180601619Y-91402209D01*
X180506068Y-91259208D01*
X180440252Y-91100314D01*
X180406700Y-90931633D01*
X180406700Y-90759647D01*
X180440252Y-90590966D01*
X180506068Y-90432072D01*
X180601619Y-90289071D01*
X180723231Y-90167459D01*
X180866232Y-90071908D01*
X181025126Y-90006092D01*
X181193807Y-89972540D01*
X181365793Y-89972540D01*
X181534474Y-90006092D01*
X181534474Y-90006092D01*
G37*
G36*
X109779474Y-90006092D02*
X109938368Y-90071908D01*
X110081369Y-90167459D01*
X110202981Y-90289071D01*
X110298532Y-90432072D01*
X110364348Y-90590966D01*
X110397900Y-90759647D01*
X110397900Y-90931633D01*
X110364348Y-91100314D01*
X110298532Y-91259208D01*
X110202981Y-91402209D01*
X110081369Y-91523821D01*
X109938368Y-91619372D01*
X109779474Y-91685188D01*
X109610793Y-91718740D01*
X109438807Y-91718740D01*
X109270126Y-91685188D01*
X109111232Y-91619372D01*
X108968231Y-91523821D01*
X108846619Y-91402209D01*
X108751068Y-91259208D01*
X108685252Y-91100314D01*
X108651700Y-90931633D01*
X108651700Y-90759647D01*
X108685252Y-90590966D01*
X108751068Y-90432072D01*
X108846619Y-90289071D01*
X108968231Y-90167459D01*
X109111232Y-90071908D01*
X109270126Y-90006092D01*
X109438807Y-89972540D01*
X109610793Y-89972540D01*
X109779474Y-90006092D01*
X109779474Y-90006092D01*
G37*
G36*
X88112997Y-89678997D02*
X88165653Y-89694970D01*
X88214165Y-89720900D01*
X88256696Y-89755804D01*
X88291600Y-89798335D01*
X88317530Y-89846847D01*
X88333503Y-89899503D01*
X88339500Y-89960390D01*
X88339500Y-90760610D01*
X88333503Y-90821497D01*
X88317530Y-90874153D01*
X88291600Y-90922665D01*
X88256696Y-90965196D01*
X88214165Y-91000100D01*
X88165653Y-91026030D01*
X88112997Y-91042003D01*
X88052110Y-91048000D01*
X86826890Y-91048000D01*
X86766003Y-91042003D01*
X86713347Y-91026030D01*
X86664835Y-91000100D01*
X86622304Y-90965196D01*
X86587400Y-90922665D01*
X86561470Y-90874153D01*
X86545497Y-90821497D01*
X86539500Y-90760610D01*
X86539500Y-89960390D01*
X86545497Y-89899503D01*
X86561470Y-89846847D01*
X86587400Y-89798335D01*
X86622304Y-89755804D01*
X86664835Y-89720900D01*
X86713347Y-89694970D01*
X86766003Y-89678997D01*
X86826890Y-89673000D01*
X88052110Y-89673000D01*
X88112997Y-89678997D01*
X88112997Y-89678997D01*
G37*
G36*
X227592012Y-87154557D02*
X227701207Y-87199787D01*
X227799481Y-87265452D01*
X227883048Y-87349019D01*
X227948713Y-87447293D01*
X227993943Y-87556488D01*
X227999986Y-87586867D01*
X228007099Y-87610316D01*
X228018651Y-87631927D01*
X228034196Y-87650869D01*
X228053138Y-87666414D01*
X228074749Y-87677965D01*
X228098198Y-87685078D01*
X228122584Y-87687480D01*
X228146971Y-87685078D01*
X228170417Y-87677966D01*
X228291973Y-87627616D01*
X228291974Y-87627616D01*
X228291976Y-87627615D01*
X228523809Y-87581500D01*
X228760191Y-87581500D01*
X228992026Y-87627615D01*
X229210412Y-87718073D01*
X229406958Y-87849401D01*
X229574099Y-88016542D01*
X229705427Y-88213088D01*
X229795885Y-88431474D01*
X229842000Y-88663309D01*
X229842000Y-88899691D01*
X229795885Y-89131526D01*
X229705427Y-89349912D01*
X229574099Y-89546458D01*
X229406958Y-89713599D01*
X229210412Y-89844927D01*
X228992026Y-89935385D01*
X228760191Y-89981500D01*
X228523809Y-89981500D01*
X228291974Y-89935385D01*
X228073588Y-89844927D01*
X227877042Y-89713599D01*
X227709901Y-89546458D01*
X227578573Y-89349912D01*
X227488115Y-89131526D01*
X227442000Y-88899691D01*
X227442000Y-88663309D01*
X227478286Y-88480886D01*
X227480688Y-88456500D01*
X227478286Y-88432114D01*
X227471173Y-88408664D01*
X227459622Y-88387054D01*
X227444076Y-88368112D01*
X227425134Y-88352566D01*
X227403523Y-88341015D01*
X227380074Y-88333902D01*
X227360078Y-88331932D01*
X227357906Y-88331500D01*
X227357905Y-88331500D01*
X227326248Y-88325203D01*
X227241988Y-88308443D01*
X227132793Y-88263213D01*
X227034519Y-88197548D01*
X226950952Y-88113981D01*
X226885287Y-88015707D01*
X226840057Y-87906512D01*
X226817000Y-87790596D01*
X226817000Y-87672404D01*
X226840057Y-87556488D01*
X226885287Y-87447293D01*
X226950952Y-87349019D01*
X227034519Y-87265452D01*
X227132793Y-87199787D01*
X227241988Y-87154557D01*
X227357904Y-87131500D01*
X227476096Y-87131500D01*
X227592012Y-87154557D01*
X227592012Y-87154557D01*
G37*
G36*
X222592012Y-87154557D02*
X222701207Y-87199787D01*
X222799481Y-87265452D01*
X222883048Y-87349019D01*
X222948713Y-87447293D01*
X222993943Y-87556488D01*
X223017000Y-87672404D01*
X223017000Y-87790596D01*
X222993943Y-87906512D01*
X222948713Y-88015707D01*
X222883048Y-88113981D01*
X222799481Y-88197548D01*
X222701207Y-88263213D01*
X222592012Y-88308443D01*
X222507752Y-88325203D01*
X222476095Y-88331500D01*
X222476094Y-88331500D01*
X222473922Y-88331932D01*
X222453926Y-88333902D01*
X222430477Y-88341015D01*
X222408866Y-88352566D01*
X222389924Y-88368112D01*
X222374378Y-88387054D01*
X222362827Y-88408665D01*
X222355714Y-88432114D01*
X222353312Y-88456500D01*
X222355714Y-88480886D01*
X222392000Y-88663309D01*
X222392000Y-88899691D01*
X222345885Y-89131526D01*
X222255427Y-89349912D01*
X222124099Y-89546458D01*
X221956958Y-89713599D01*
X221760412Y-89844927D01*
X221542026Y-89935385D01*
X221310191Y-89981500D01*
X221073809Y-89981500D01*
X220841974Y-89935385D01*
X220623588Y-89844927D01*
X220427042Y-89713599D01*
X220259901Y-89546458D01*
X220128573Y-89349912D01*
X220038115Y-89131526D01*
X219992000Y-88899691D01*
X219992000Y-88663309D01*
X220038115Y-88431474D01*
X220128573Y-88213088D01*
X220259901Y-88016542D01*
X220427042Y-87849401D01*
X220623588Y-87718073D01*
X220841974Y-87627615D01*
X221073809Y-87581500D01*
X221310191Y-87581500D01*
X221542024Y-87627615D01*
X221542026Y-87627616D01*
X221542027Y-87627616D01*
X221663583Y-87677966D01*
X221687029Y-87685078D01*
X221711416Y-87687480D01*
X221735802Y-87685078D01*
X221759251Y-87677965D01*
X221780862Y-87666414D01*
X221799804Y-87650869D01*
X221815350Y-87631927D01*
X221826901Y-87610316D01*
X221834014Y-87586867D01*
X221840057Y-87556488D01*
X221885287Y-87447293D01*
X221950952Y-87349019D01*
X222034519Y-87265452D01*
X222132793Y-87199787D01*
X222241988Y-87154557D01*
X222357904Y-87131500D01*
X222476096Y-87131500D01*
X222592012Y-87154557D01*
X222592012Y-87154557D01*
G37*
G36*
X189502454Y-88042672D02*
X189661348Y-88108488D01*
X189804349Y-88204039D01*
X189925961Y-88325651D01*
X190021512Y-88468652D01*
X190087328Y-88627546D01*
X190120880Y-88796227D01*
X190120880Y-88968213D01*
X190087328Y-89136894D01*
X190021512Y-89295788D01*
X189925961Y-89438789D01*
X189804349Y-89560401D01*
X189661348Y-89655952D01*
X189502454Y-89721768D01*
X189333773Y-89755320D01*
X189161787Y-89755320D01*
X188993106Y-89721768D01*
X188834212Y-89655952D01*
X188691211Y-89560401D01*
X188569599Y-89438789D01*
X188474048Y-89295788D01*
X188408232Y-89136894D01*
X188374680Y-88968213D01*
X188374680Y-88796227D01*
X188408232Y-88627546D01*
X188474048Y-88468652D01*
X188569599Y-88325651D01*
X188691211Y-88204039D01*
X188834212Y-88108488D01*
X188993106Y-88042672D01*
X189161787Y-88009120D01*
X189333773Y-88009120D01*
X189502454Y-88042672D01*
X189502454Y-88042672D01*
G37*
G36*
X117747454Y-88042672D02*
X117906348Y-88108488D01*
X118049349Y-88204039D01*
X118170961Y-88325651D01*
X118266512Y-88468652D01*
X118332328Y-88627546D01*
X118365880Y-88796227D01*
X118365880Y-88968213D01*
X118332328Y-89136894D01*
X118266512Y-89295788D01*
X118170961Y-89438789D01*
X118049349Y-89560401D01*
X117906348Y-89655952D01*
X117747454Y-89721768D01*
X117578773Y-89755320D01*
X117406787Y-89755320D01*
X117238106Y-89721768D01*
X117079212Y-89655952D01*
X116936211Y-89560401D01*
X116814599Y-89438789D01*
X116719048Y-89295788D01*
X116653232Y-89136894D01*
X116619680Y-88968213D01*
X116619680Y-88796227D01*
X116653232Y-88627546D01*
X116719048Y-88468652D01*
X116814599Y-88325651D01*
X116936211Y-88204039D01*
X117079212Y-88108488D01*
X117238106Y-88042672D01*
X117406787Y-88009120D01*
X117578773Y-88009120D01*
X117747454Y-88042672D01*
X117747454Y-88042672D01*
G37*
G36*
X99332454Y-88042672D02*
X99491348Y-88108488D01*
X99634349Y-88204039D01*
X99755961Y-88325651D01*
X99851512Y-88468652D01*
X99917328Y-88627546D01*
X99950880Y-88796227D01*
X99950880Y-88968213D01*
X99917328Y-89136894D01*
X99851512Y-89295788D01*
X99755961Y-89438789D01*
X99634349Y-89560401D01*
X99491348Y-89655952D01*
X99332454Y-89721768D01*
X99163773Y-89755320D01*
X98991787Y-89755320D01*
X98823106Y-89721768D01*
X98664212Y-89655952D01*
X98521211Y-89560401D01*
X98399599Y-89438789D01*
X98304048Y-89295788D01*
X98238232Y-89136894D01*
X98204680Y-88968213D01*
X98204680Y-88796227D01*
X98238232Y-88627546D01*
X98304048Y-88468652D01*
X98399599Y-88325651D01*
X98521211Y-88204039D01*
X98664212Y-88108488D01*
X98823106Y-88042672D01*
X98991787Y-88009120D01*
X99163773Y-88009120D01*
X99332454Y-88042672D01*
X99332454Y-88042672D01*
G37*
G36*
X138666894Y-88042672D02*
X138825788Y-88108488D01*
X138968789Y-88204039D01*
X139090401Y-88325651D01*
X139185952Y-88468652D01*
X139251768Y-88627546D01*
X139285320Y-88796227D01*
X139285320Y-88968213D01*
X139251768Y-89136894D01*
X139185952Y-89295788D01*
X139090401Y-89438789D01*
X138968789Y-89560401D01*
X138825788Y-89655952D01*
X138666894Y-89721768D01*
X138498213Y-89755320D01*
X138326227Y-89755320D01*
X138157546Y-89721768D01*
X137998652Y-89655952D01*
X137855651Y-89560401D01*
X137734039Y-89438789D01*
X137638488Y-89295788D01*
X137572672Y-89136894D01*
X137539120Y-88968213D01*
X137539120Y-88796227D01*
X137572672Y-88627546D01*
X137638488Y-88468652D01*
X137734039Y-88325651D01*
X137855651Y-88204039D01*
X137998652Y-88108488D01*
X138157546Y-88042672D01*
X138326227Y-88009120D01*
X138498213Y-88009120D01*
X138666894Y-88042672D01*
X138666894Y-88042672D01*
G37*
G36*
X93581894Y-88042672D02*
X93740788Y-88108488D01*
X93883789Y-88204039D01*
X94005401Y-88325651D01*
X94100952Y-88468652D01*
X94166768Y-88627546D01*
X94200320Y-88796227D01*
X94200320Y-88968213D01*
X94166768Y-89136894D01*
X94100952Y-89295788D01*
X94005401Y-89438789D01*
X93883789Y-89560401D01*
X93740788Y-89655952D01*
X93581894Y-89721768D01*
X93413213Y-89755320D01*
X93241227Y-89755320D01*
X93072546Y-89721768D01*
X92913652Y-89655952D01*
X92770651Y-89560401D01*
X92649039Y-89438789D01*
X92553488Y-89295788D01*
X92487672Y-89136894D01*
X92454120Y-88968213D01*
X92454120Y-88796227D01*
X92487672Y-88627546D01*
X92553488Y-88468652D01*
X92649039Y-88325651D01*
X92770651Y-88204039D01*
X92913652Y-88108488D01*
X93072546Y-88042672D01*
X93241227Y-88009120D01*
X93413213Y-88009120D01*
X93581894Y-88042672D01*
X93581894Y-88042672D01*
G37*
G36*
X111996894Y-88042672D02*
X112155788Y-88108488D01*
X112298789Y-88204039D01*
X112420401Y-88325651D01*
X112515952Y-88468652D01*
X112581768Y-88627546D01*
X112615320Y-88796227D01*
X112615320Y-88968213D01*
X112581768Y-89136894D01*
X112515952Y-89295788D01*
X112420401Y-89438789D01*
X112298789Y-89560401D01*
X112155788Y-89655952D01*
X111996894Y-89721768D01*
X111828213Y-89755320D01*
X111656227Y-89755320D01*
X111487546Y-89721768D01*
X111328652Y-89655952D01*
X111185651Y-89560401D01*
X111064039Y-89438789D01*
X110968488Y-89295788D01*
X110902672Y-89136894D01*
X110869120Y-88968213D01*
X110869120Y-88796227D01*
X110902672Y-88627546D01*
X110968488Y-88468652D01*
X111064039Y-88325651D01*
X111185651Y-88204039D01*
X111328652Y-88108488D01*
X111487546Y-88042672D01*
X111656227Y-88009120D01*
X111828213Y-88009120D01*
X111996894Y-88042672D01*
X111996894Y-88042672D01*
G37*
G36*
X202166894Y-88042672D02*
X202325788Y-88108488D01*
X202468789Y-88204039D01*
X202590401Y-88325651D01*
X202685952Y-88468652D01*
X202751768Y-88627546D01*
X202785320Y-88796227D01*
X202785320Y-88968213D01*
X202751768Y-89136894D01*
X202685952Y-89295788D01*
X202590401Y-89438789D01*
X202468789Y-89560401D01*
X202325788Y-89655952D01*
X202166894Y-89721768D01*
X201998213Y-89755320D01*
X201826227Y-89755320D01*
X201657546Y-89721768D01*
X201498652Y-89655952D01*
X201355651Y-89560401D01*
X201234039Y-89438789D01*
X201138488Y-89295788D01*
X201072672Y-89136894D01*
X201039120Y-88968213D01*
X201039120Y-88796227D01*
X201072672Y-88627546D01*
X201138488Y-88468652D01*
X201234039Y-88325651D01*
X201355651Y-88204039D01*
X201498652Y-88108488D01*
X201657546Y-88042672D01*
X201826227Y-88009120D01*
X201998213Y-88009120D01*
X202166894Y-88042672D01*
X202166894Y-88042672D01*
G37*
G36*
X183751894Y-88042672D02*
X183910788Y-88108488D01*
X184053789Y-88204039D01*
X184175401Y-88325651D01*
X184270952Y-88468652D01*
X184336768Y-88627546D01*
X184370320Y-88796227D01*
X184370320Y-88968213D01*
X184336768Y-89136894D01*
X184270952Y-89295788D01*
X184175401Y-89438789D01*
X184053789Y-89560401D01*
X183910788Y-89655952D01*
X183751894Y-89721768D01*
X183583213Y-89755320D01*
X183411227Y-89755320D01*
X183242546Y-89721768D01*
X183083652Y-89655952D01*
X182940651Y-89560401D01*
X182819039Y-89438789D01*
X182723488Y-89295788D01*
X182657672Y-89136894D01*
X182624120Y-88968213D01*
X182624120Y-88796227D01*
X182657672Y-88627546D01*
X182723488Y-88468652D01*
X182819039Y-88325651D01*
X182940651Y-88204039D01*
X183083652Y-88108488D01*
X183242546Y-88042672D01*
X183411227Y-88009120D01*
X183583213Y-88009120D01*
X183751894Y-88042672D01*
X183751894Y-88042672D01*
G37*
G36*
X162832454Y-88042672D02*
X162991348Y-88108488D01*
X163134349Y-88204039D01*
X163255961Y-88325651D01*
X163351512Y-88468652D01*
X163417328Y-88627546D01*
X163450880Y-88796227D01*
X163450880Y-88968213D01*
X163417328Y-89136894D01*
X163351512Y-89295788D01*
X163255961Y-89438789D01*
X163134349Y-89560401D01*
X162991348Y-89655952D01*
X162832454Y-89721768D01*
X162663773Y-89755320D01*
X162491787Y-89755320D01*
X162323106Y-89721768D01*
X162164212Y-89655952D01*
X162021211Y-89560401D01*
X161899599Y-89438789D01*
X161804048Y-89295788D01*
X161738232Y-89136894D01*
X161704680Y-88968213D01*
X161704680Y-88796227D01*
X161738232Y-88627546D01*
X161804048Y-88468652D01*
X161899599Y-88325651D01*
X162021211Y-88204039D01*
X162164212Y-88108488D01*
X162323106Y-88042672D01*
X162491787Y-88009120D01*
X162663773Y-88009120D01*
X162832454Y-88042672D01*
X162832454Y-88042672D01*
G37*
G36*
X157081894Y-88042672D02*
X157240788Y-88108488D01*
X157383789Y-88204039D01*
X157505401Y-88325651D01*
X157600952Y-88468652D01*
X157666768Y-88627546D01*
X157700320Y-88796227D01*
X157700320Y-88968213D01*
X157666768Y-89136894D01*
X157600952Y-89295788D01*
X157505401Y-89438789D01*
X157383789Y-89560401D01*
X157240788Y-89655952D01*
X157081894Y-89721768D01*
X156913213Y-89755320D01*
X156741227Y-89755320D01*
X156572546Y-89721768D01*
X156413652Y-89655952D01*
X156270651Y-89560401D01*
X156149039Y-89438789D01*
X156053488Y-89295788D01*
X155987672Y-89136894D01*
X155954120Y-88968213D01*
X155954120Y-88796227D01*
X155987672Y-88627546D01*
X156053488Y-88468652D01*
X156149039Y-88325651D01*
X156270651Y-88204039D01*
X156413652Y-88108488D01*
X156572546Y-88042672D01*
X156741227Y-88009120D01*
X156913213Y-88009120D01*
X157081894Y-88042672D01*
X157081894Y-88042672D01*
G37*
G36*
X144417454Y-88042672D02*
X144576348Y-88108488D01*
X144719349Y-88204039D01*
X144840961Y-88325651D01*
X144936512Y-88468652D01*
X145002328Y-88627546D01*
X145035880Y-88796227D01*
X145035880Y-88968213D01*
X145002328Y-89136894D01*
X144936512Y-89295788D01*
X144840961Y-89438789D01*
X144719349Y-89560401D01*
X144576348Y-89655952D01*
X144417454Y-89721768D01*
X144248773Y-89755320D01*
X144076787Y-89755320D01*
X143908106Y-89721768D01*
X143749212Y-89655952D01*
X143606211Y-89560401D01*
X143484599Y-89438789D01*
X143389048Y-89295788D01*
X143323232Y-89136894D01*
X143289680Y-88968213D01*
X143289680Y-88796227D01*
X143323232Y-88627546D01*
X143389048Y-88468652D01*
X143484599Y-88325651D01*
X143606211Y-88204039D01*
X143749212Y-88108488D01*
X143908106Y-88042672D01*
X144076787Y-88009120D01*
X144248773Y-88009120D01*
X144417454Y-88042672D01*
X144417454Y-88042672D01*
G37*
G36*
X207917454Y-88042672D02*
X208076348Y-88108488D01*
X208219349Y-88204039D01*
X208340961Y-88325651D01*
X208436512Y-88468652D01*
X208502328Y-88627546D01*
X208535880Y-88796227D01*
X208535880Y-88968213D01*
X208502328Y-89136894D01*
X208436512Y-89295788D01*
X208340961Y-89438789D01*
X208219349Y-89560401D01*
X208076348Y-89655952D01*
X207917454Y-89721768D01*
X207748773Y-89755320D01*
X207576787Y-89755320D01*
X207408106Y-89721768D01*
X207249212Y-89655952D01*
X207106211Y-89560401D01*
X206984599Y-89438789D01*
X206889048Y-89295788D01*
X206823232Y-89136894D01*
X206789680Y-88968213D01*
X206789680Y-88796227D01*
X206823232Y-88627546D01*
X206889048Y-88468652D01*
X206984599Y-88325651D01*
X207106211Y-88204039D01*
X207249212Y-88108488D01*
X207408106Y-88042672D01*
X207576787Y-88009120D01*
X207748773Y-88009120D01*
X207917454Y-88042672D01*
X207917454Y-88042672D01*
G37*
G36*
X141542174Y-87334012D02*
X141701068Y-87399828D01*
X141844069Y-87495379D01*
X141965681Y-87616991D01*
X142061232Y-87759992D01*
X142127048Y-87918886D01*
X142160600Y-88087567D01*
X142160600Y-88259553D01*
X142127048Y-88428234D01*
X142061232Y-88587128D01*
X141965681Y-88730129D01*
X141844069Y-88851741D01*
X141701068Y-88947292D01*
X141542174Y-89013108D01*
X141373493Y-89046660D01*
X141201507Y-89046660D01*
X141032826Y-89013108D01*
X140873932Y-88947292D01*
X140730931Y-88851741D01*
X140609319Y-88730129D01*
X140513768Y-88587128D01*
X140447952Y-88428234D01*
X140414400Y-88259553D01*
X140414400Y-88087567D01*
X140447952Y-87918886D01*
X140513768Y-87759992D01*
X140609319Y-87616991D01*
X140730931Y-87495379D01*
X140873932Y-87399828D01*
X141032826Y-87334012D01*
X141201507Y-87300460D01*
X141373493Y-87300460D01*
X141542174Y-87334012D01*
X141542174Y-87334012D01*
G37*
G36*
X186627174Y-87334012D02*
X186786068Y-87399828D01*
X186929069Y-87495379D01*
X187050681Y-87616991D01*
X187146232Y-87759992D01*
X187212048Y-87918886D01*
X187245600Y-88087567D01*
X187245600Y-88259553D01*
X187212048Y-88428234D01*
X187146232Y-88587128D01*
X187050681Y-88730129D01*
X186929069Y-88851741D01*
X186786068Y-88947292D01*
X186627174Y-89013108D01*
X186458493Y-89046660D01*
X186286507Y-89046660D01*
X186117826Y-89013108D01*
X185958932Y-88947292D01*
X185815931Y-88851741D01*
X185694319Y-88730129D01*
X185598768Y-88587128D01*
X185532952Y-88428234D01*
X185499400Y-88259553D01*
X185499400Y-88087567D01*
X185532952Y-87918886D01*
X185598768Y-87759992D01*
X185694319Y-87616991D01*
X185815931Y-87495379D01*
X185958932Y-87399828D01*
X186117826Y-87334012D01*
X186286507Y-87300460D01*
X186458493Y-87300460D01*
X186627174Y-87334012D01*
X186627174Y-87334012D01*
G37*
G36*
X205042174Y-87334012D02*
X205201068Y-87399828D01*
X205344069Y-87495379D01*
X205465681Y-87616991D01*
X205561232Y-87759992D01*
X205627048Y-87918886D01*
X205660600Y-88087567D01*
X205660600Y-88259553D01*
X205627048Y-88428234D01*
X205561232Y-88587128D01*
X205465681Y-88730129D01*
X205344069Y-88851741D01*
X205201068Y-88947292D01*
X205042174Y-89013108D01*
X204873493Y-89046660D01*
X204701507Y-89046660D01*
X204532826Y-89013108D01*
X204373932Y-88947292D01*
X204230931Y-88851741D01*
X204109319Y-88730129D01*
X204013768Y-88587128D01*
X203947952Y-88428234D01*
X203914400Y-88259553D01*
X203914400Y-88087567D01*
X203947952Y-87918886D01*
X204013768Y-87759992D01*
X204109319Y-87616991D01*
X204230931Y-87495379D01*
X204373932Y-87399828D01*
X204532826Y-87334012D01*
X204701507Y-87300460D01*
X204873493Y-87300460D01*
X205042174Y-87334012D01*
X205042174Y-87334012D01*
G37*
G36*
X159957174Y-87334012D02*
X160116068Y-87399828D01*
X160259069Y-87495379D01*
X160380681Y-87616991D01*
X160476232Y-87759992D01*
X160542048Y-87918886D01*
X160575600Y-88087567D01*
X160575600Y-88259553D01*
X160542048Y-88428234D01*
X160476232Y-88587128D01*
X160380681Y-88730129D01*
X160259069Y-88851741D01*
X160116068Y-88947292D01*
X159957174Y-89013108D01*
X159788493Y-89046660D01*
X159616507Y-89046660D01*
X159447826Y-89013108D01*
X159288932Y-88947292D01*
X159145931Y-88851741D01*
X159024319Y-88730129D01*
X158928768Y-88587128D01*
X158862952Y-88428234D01*
X158829400Y-88259553D01*
X158829400Y-88087567D01*
X158862952Y-87918886D01*
X158928768Y-87759992D01*
X159024319Y-87616991D01*
X159145931Y-87495379D01*
X159288932Y-87399828D01*
X159447826Y-87334012D01*
X159616507Y-87300460D01*
X159788493Y-87300460D01*
X159957174Y-87334012D01*
X159957174Y-87334012D01*
G37*
G36*
X96457174Y-87334012D02*
X96616068Y-87399828D01*
X96759069Y-87495379D01*
X96880681Y-87616991D01*
X96976232Y-87759992D01*
X97042048Y-87918886D01*
X97075600Y-88087567D01*
X97075600Y-88259553D01*
X97042048Y-88428234D01*
X96976232Y-88587128D01*
X96880681Y-88730129D01*
X96759069Y-88851741D01*
X96616068Y-88947292D01*
X96457174Y-89013108D01*
X96288493Y-89046660D01*
X96116507Y-89046660D01*
X95947826Y-89013108D01*
X95788932Y-88947292D01*
X95645931Y-88851741D01*
X95524319Y-88730129D01*
X95428768Y-88587128D01*
X95362952Y-88428234D01*
X95329400Y-88259553D01*
X95329400Y-88087567D01*
X95362952Y-87918886D01*
X95428768Y-87759992D01*
X95524319Y-87616991D01*
X95645931Y-87495379D01*
X95788932Y-87399828D01*
X95947826Y-87334012D01*
X96116507Y-87300460D01*
X96288493Y-87300460D01*
X96457174Y-87334012D01*
X96457174Y-87334012D01*
G37*
G36*
X114872174Y-87334012D02*
X115031068Y-87399828D01*
X115174069Y-87495379D01*
X115295681Y-87616991D01*
X115391232Y-87759992D01*
X115457048Y-87918886D01*
X115490600Y-88087567D01*
X115490600Y-88259553D01*
X115457048Y-88428234D01*
X115391232Y-88587128D01*
X115295681Y-88730129D01*
X115174069Y-88851741D01*
X115031068Y-88947292D01*
X114872174Y-89013108D01*
X114703493Y-89046660D01*
X114531507Y-89046660D01*
X114362826Y-89013108D01*
X114203932Y-88947292D01*
X114060931Y-88851741D01*
X113939319Y-88730129D01*
X113843768Y-88587128D01*
X113777952Y-88428234D01*
X113744400Y-88259553D01*
X113744400Y-88087567D01*
X113777952Y-87918886D01*
X113843768Y-87759992D01*
X113939319Y-87616991D01*
X114060931Y-87495379D01*
X114203932Y-87399828D01*
X114362826Y-87334012D01*
X114531507Y-87300460D01*
X114703493Y-87300460D01*
X114872174Y-87334012D01*
X114872174Y-87334012D01*
G37*
G36*
X148272378Y-84998308D02*
X148318302Y-85012239D01*
X148360615Y-85034855D01*
X148397705Y-85065295D01*
X148428145Y-85102385D01*
X148450761Y-85144698D01*
X148464692Y-85190622D01*
X148470000Y-85244511D01*
X148470000Y-88491489D01*
X148464692Y-88545378D01*
X148450761Y-88591302D01*
X148428145Y-88633615D01*
X148397705Y-88670705D01*
X148360615Y-88701145D01*
X148318302Y-88723761D01*
X148272378Y-88737692D01*
X148218489Y-88743000D01*
X146971511Y-88743000D01*
X146917622Y-88737692D01*
X146871698Y-88723761D01*
X146829385Y-88701145D01*
X146792295Y-88670705D01*
X146761855Y-88633615D01*
X146739239Y-88591302D01*
X146725308Y-88545378D01*
X146720000Y-88491489D01*
X146720000Y-85244511D01*
X146725308Y-85190622D01*
X146739239Y-85144698D01*
X146761855Y-85102385D01*
X146792295Y-85065295D01*
X146829385Y-85034855D01*
X146871698Y-85012239D01*
X146917622Y-84998308D01*
X146971511Y-84993000D01*
X148218489Y-84993000D01*
X148272378Y-84998308D01*
X148272378Y-84998308D01*
G37*
G36*
X154072378Y-84998308D02*
X154118302Y-85012239D01*
X154160615Y-85034855D01*
X154197705Y-85065295D01*
X154228145Y-85102385D01*
X154250761Y-85144698D01*
X154264692Y-85190622D01*
X154270000Y-85244511D01*
X154270000Y-88491489D01*
X154264692Y-88545378D01*
X154250761Y-88591302D01*
X154228145Y-88633615D01*
X154197705Y-88670705D01*
X154160615Y-88701145D01*
X154118302Y-88723761D01*
X154072378Y-88737692D01*
X154018489Y-88743000D01*
X152771511Y-88743000D01*
X152717622Y-88737692D01*
X152671698Y-88723761D01*
X152629385Y-88701145D01*
X152592295Y-88670705D01*
X152561855Y-88633615D01*
X152539239Y-88591302D01*
X152525308Y-88545378D01*
X152520000Y-88491489D01*
X152520000Y-85244511D01*
X152525308Y-85190622D01*
X152539239Y-85144698D01*
X152561855Y-85102385D01*
X152592295Y-85065295D01*
X152629385Y-85034855D01*
X152671698Y-85012239D01*
X152717622Y-84998308D01*
X152771511Y-84993000D01*
X154018489Y-84993000D01*
X154072378Y-84998308D01*
X154072378Y-84998308D01*
G37*
G36*
X179746947Y-85473722D02*
X180010833Y-85583027D01*
X180248324Y-85741713D01*
X180450287Y-85943676D01*
X180608973Y-86181167D01*
X180718278Y-86445053D01*
X180774000Y-86725186D01*
X180774000Y-87010814D01*
X180718278Y-87290947D01*
X180608973Y-87554833D01*
X180450287Y-87792324D01*
X180248324Y-87994287D01*
X180010833Y-88152973D01*
X179746947Y-88262278D01*
X179466814Y-88318000D01*
X179181186Y-88318000D01*
X178901053Y-88262278D01*
X178637167Y-88152973D01*
X178399676Y-87994287D01*
X178197713Y-87792324D01*
X178039027Y-87554833D01*
X177929722Y-87290947D01*
X177874000Y-87010814D01*
X177874000Y-86725186D01*
X177929722Y-86445053D01*
X178039027Y-86181167D01*
X178197713Y-85943676D01*
X178399676Y-85741713D01*
X178637167Y-85583027D01*
X178901053Y-85473722D01*
X179181186Y-85418000D01*
X179466814Y-85418000D01*
X179746947Y-85473722D01*
X179746947Y-85473722D01*
G37*
G36*
X122342947Y-85473722D02*
X122606833Y-85583027D01*
X122844324Y-85741713D01*
X123046287Y-85943676D01*
X123204973Y-86181167D01*
X123314278Y-86445053D01*
X123370000Y-86725186D01*
X123370000Y-87010814D01*
X123314278Y-87290947D01*
X123204973Y-87554833D01*
X123046287Y-87792324D01*
X122844324Y-87994287D01*
X122606833Y-88152973D01*
X122342947Y-88262278D01*
X122062814Y-88318000D01*
X121777186Y-88318000D01*
X121497053Y-88262278D01*
X121233167Y-88152973D01*
X120995676Y-87994287D01*
X120793713Y-87792324D01*
X120635027Y-87554833D01*
X120525722Y-87290947D01*
X120470000Y-87010814D01*
X120470000Y-86725186D01*
X120525722Y-86445053D01*
X120635027Y-86181167D01*
X120793713Y-85943676D01*
X120995676Y-85741713D01*
X121233167Y-85583027D01*
X121497053Y-85473722D01*
X121777186Y-85418000D01*
X122062814Y-85418000D01*
X122342947Y-85473722D01*
X122342947Y-85473722D01*
G37*
G36*
X221362857Y-83923772D02*
X221563042Y-84006691D01*
X221743213Y-84127078D01*
X221896422Y-84280287D01*
X222016809Y-84460458D01*
X222099728Y-84660643D01*
X222142000Y-84873158D01*
X222142000Y-85089842D01*
X222099728Y-85302357D01*
X222016809Y-85502542D01*
X222016807Y-85502545D01*
X221963031Y-85583027D01*
X221896422Y-85682713D01*
X221743213Y-85835922D01*
X221563042Y-85956309D01*
X221362857Y-86039228D01*
X221150342Y-86081500D01*
X220933658Y-86081500D01*
X220721143Y-86039228D01*
X220520958Y-85956309D01*
X220340787Y-85835922D01*
X220187578Y-85682713D01*
X220120970Y-85583027D01*
X220067193Y-85502545D01*
X220067191Y-85502542D01*
X219984272Y-85302357D01*
X219942000Y-85089842D01*
X219942000Y-84873158D01*
X219984272Y-84660643D01*
X220067191Y-84460458D01*
X220187578Y-84280287D01*
X220340787Y-84127078D01*
X220520958Y-84006691D01*
X220721143Y-83923772D01*
X220933658Y-83881500D01*
X221150342Y-83881500D01*
X221362857Y-83923772D01*
X221362857Y-83923772D01*
G37*
G36*
X229112857Y-83923772D02*
X229313042Y-84006691D01*
X229493213Y-84127078D01*
X229646422Y-84280287D01*
X229766809Y-84460458D01*
X229849728Y-84660643D01*
X229892000Y-84873158D01*
X229892000Y-85089842D01*
X229849728Y-85302357D01*
X229766809Y-85502542D01*
X229766807Y-85502545D01*
X229713031Y-85583027D01*
X229646422Y-85682713D01*
X229493213Y-85835922D01*
X229313042Y-85956309D01*
X229112857Y-86039228D01*
X228900342Y-86081500D01*
X228683658Y-86081500D01*
X228471143Y-86039228D01*
X228270958Y-85956309D01*
X228090787Y-85835922D01*
X227937578Y-85682713D01*
X227870970Y-85583027D01*
X227817193Y-85502545D01*
X227817191Y-85502542D01*
X227734272Y-85302357D01*
X227692000Y-85089842D01*
X227692000Y-84873158D01*
X227734272Y-84660643D01*
X227817191Y-84460458D01*
X227937578Y-84280287D01*
X228090787Y-84127078D01*
X228270958Y-84006691D01*
X228471143Y-83923772D01*
X228683658Y-83881500D01*
X228900342Y-83881500D01*
X229112857Y-83923772D01*
X229112857Y-83923772D01*
G37*
M02*
